M48
;Layer_Color=9474304
;FILE_FORMAT=4:4
METRIC,LZ
;TYPE=PLATED
T1F00S00C0.3000
T2F00S00C0.9000
T3F00S00C1.4000
%
T01
X00563Y0014125
Y00154125
X00576562
Y0014125
X00590125
Y00154125
X00603687
Y0014125
X0061725
Y00154125
Y00167
Y00179875
Y0019275
X00603687
Y00179875
Y00167
X00590125
Y00179875
Y0019275
X00576562
Y00179875
Y00167
X00563
Y00179875
Y0019275
X005315Y0029875
Y0030775
X00521125
Y0029875
X0051075
Y0030775
X0047275Y00318
X0045725Y00405
Y00414
X00446875
Y00405
X004575Y004315
X00478446Y00484553
X00489643Y0048475
X005125Y0051075
X0052225Y004505
X005585Y00438
X0057875Y00437
X00574669Y00485803
X00585866Y00486
X0060225Y0052375
X004335Y0050825
X00412Y0051925
X00393419Y0048475
X00382223Y00484553
X003655Y0043775
X003255Y0044825
X00332Y00505
X0031725Y00517
X00297196Y0048475
X00285999Y00484553
X00244Y004865
X002275Y005115
X00200973Y0048475
X00189776Y00484553
X001765Y0042575
X0023425Y0043025
X00237375Y0041175
Y0040275
X0024775
Y0041175
X00227
Y0040275
X0022945Y0045175
X002725Y004325
X0013425Y0045175
X0010475Y0048475
X00093553Y00484553
X00123Y0050775
X00092Y004305
X00064Y0041525
Y0040625
X00053625
Y0041525
X00104Y0031575
Y0030675
X00114375
Y0031575
X0012475
Y0030675
X0014775Y002665
X0017775Y00277
X00259Y0027475
X0030875Y0030075
Y0030975
X00319125
Y0030075
X003295
Y0030975
X0035175Y0027575
X003805
X004365Y00405
Y00414
X0042175Y0045075
X0004325Y0041525
Y0040625
X000425Y0049375
X00036937Y0069975
Y00712625
Y007255
Y00738375
Y0075125
X000505
Y00738375
Y007255
Y00712625
Y0069975
X001155Y006975
X0015175Y0070875
X001555Y006865
X001705Y0069325
X00206Y0069675
X00213Y0068825
X002485Y00705
X0025675Y0069825
X00219Y0074325
X00199862Y00744138
X00176697Y007495
X0016925Y007565
X00174Y007915
X001645Y007965
X0021025Y0080325
X0022025Y00803
X0023075Y0080325
X002425Y0080275
X00278Y0082575
X004125Y0082825
X0041325Y0084725
X00418Y008075
X0042925Y0081
X0041Y007995
X00398Y0079975
X0043975Y0073925
X00395019Y00700034
X0038275Y00606
X003645Y0060525
X003195Y00602
X0031115Y005875
X0030525Y0056925
X002895Y006065
X00277Y0060625
X00266Y005975
X002185Y0060275
X0021495Y005875
X00209027Y0056925
X0018975Y0060525
X0017875Y00605
X0016875Y006015
X00129Y0060325
X0011875Y005875
X00112804Y0056925
X0009475Y006065
X000835Y0060625
X0008875Y0074375
X001025
X0007475
X0040735Y005875
X00401473Y0056925
X00497696
X0050355Y005875
X0051525Y005895
X005135Y00601
X0048Y0060625
X00462Y00606
X00447765Y00682515
X004685Y0069575
X0047875Y0070025
X00523Y0070725
X00525Y006865
X0046425Y0074325
X00464843Y0079375
X0047425Y0079175
X00483274Y00789288
X0050075Y00789
X0045375Y0084725
Y00862
X004535Y008745
X0045275Y00949
X00499Y0094625
X00529
X005585Y0094
X00572062
X00585625
X00599187
X0059975Y005875
X00593919Y005705
X005755Y00606
X0056225
X005585Y00952875
X00572062
X00585625
X00599187
T02
X00083Y0080545
X001084
Y0083085
X00083
Y0085625
Y0088165
X001084
Y0085625
Y0090705
X00083
X0016215Y0091335
Y0088795
Y0086255
Y0083715
X0023835
Y0086255
Y0088795
Y0091335
X0029415
Y0088795
Y0086255
Y0083715
X0037035
Y0086255
Y0088795
Y0091335
X003758Y0076
X003504
X00325
X002996
X002742
X0027445Y007245
X0029985
X0032525
X0035065
X0037605
X0056135Y0080545
Y0083085
X0058675
Y0085625
Y0088165
Y0090705
X0056135
Y0088165
Y0085625
X0058675Y0080545
T03
X0002925Y0008025
X0006425
X0009925
X0013425
X0016925
X0020425
X0023925
X0027425
X0030925
X0034425
X0037925
X0041425
X0044925
X0048425
X0051925
X0055425
M30
