G04*
G04 #@! TF.GenerationSoftware,Altium Limited,Altium Designer,20.0.13 (296)*
G04*
G04 Layer_Physical_Order=1*
G04 Layer_Color=255*
%FSLAX44Y44*%
%MOMM*%
G71*
G01*
G75*
%ADD12C,0.2000*%
%ADD13C,0.6000*%
%ADD14C,0.2500*%
%ADD17R,1.0000X0.8000*%
%ADD18R,0.6000X0.5000*%
%ADD19R,3.0988X2.9972*%
%ADD20R,0.3556X1.4224*%
G04:AMPARAMS|DCode=21|XSize=2.33mm|YSize=1.55mm|CornerRadius=0.3875mm|HoleSize=0mm|Usage=FLASHONLY|Rotation=180.000|XOffset=0mm|YOffset=0mm|HoleType=Round|Shape=RoundedRectangle|*
%AMROUNDEDRECTD21*
21,1,2.3300,0.7750,0,0,180.0*
21,1,1.5550,1.5500,0,0,180.0*
1,1,0.7750,-0.7775,0.3875*
1,1,0.7750,0.7775,0.3875*
1,1,0.7750,0.7775,-0.3875*
1,1,0.7750,-0.7775,-0.3875*
%
%ADD21ROUNDEDRECTD21*%
%ADD22R,3.5000X2.1500*%
%ADD23R,0.5000X0.6000*%
%ADD24R,0.8000X1.0000*%
%ADD25R,0.4100X1.5600*%
%ADD26R,1.1000X1.2500*%
%ADD27R,2.1500X3.5000*%
%ADD28R,2.1500X3.2500*%
%ADD29R,2.1500X0.9500*%
G04:AMPARAMS|DCode=30|XSize=2.33mm|YSize=1.55mm|CornerRadius=0.3875mm|HoleSize=0mm|Usage=FLASHONLY|Rotation=270.000|XOffset=0mm|YOffset=0mm|HoleType=Round|Shape=RoundedRectangle|*
%AMROUNDEDRECTD30*
21,1,2.3300,0.7750,0,0,270.0*
21,1,1.5550,1.5500,0,0,270.0*
1,1,0.7750,-0.3875,-0.7775*
1,1,0.7750,-0.3875,0.7775*
1,1,0.7750,0.3875,0.7775*
1,1,0.7750,0.3875,-0.7775*
%
%ADD30ROUNDEDRECTD30*%
%ADD31R,2.7000X3.6000*%
%ADD51C,0.3000*%
%ADD52C,0.4000*%
%ADD53C,1.0000*%
%ADD54C,2.0000*%
%ADD55C,1.5000*%
%ADD56C,2.5000*%
%ADD57C,1.7000*%
%ADD58C,1.5000*%
%ADD59R,1.5000X1.5000*%
%ADD60R,1.5000X1.5000*%
%ADD61O,1.9304X3.8608*%
%ADD62C,0.7000*%
%ADD63C,0.8000*%
G36*
X626432Y3569D02*
X3569D01*
Y996431D01*
X626431D01*
X626432Y3569D01*
D02*
G37*
%LPC*%
G36*
X473388Y937140D02*
X469118D01*
Y933370D01*
X473388D01*
Y937140D01*
D02*
G37*
G36*
X466578D02*
X462308D01*
Y933370D01*
X466578D01*
Y937140D01*
D02*
G37*
G36*
X522192Y940040D02*
X515422D01*
Y932520D01*
X522192D01*
Y940040D01*
D02*
G37*
G36*
X491491D02*
X484721D01*
Y932520D01*
X491491D01*
Y940040D01*
D02*
G37*
G36*
X512882D02*
X506112D01*
Y932520D01*
X512882D01*
Y940040D01*
D02*
G37*
G36*
X482181D02*
X475411D01*
Y932520D01*
X482181D01*
Y940040D01*
D02*
G37*
G36*
X452750Y954608D02*
X450604Y954181D01*
X448785Y952965D01*
X447569Y951146D01*
X447142Y949000D01*
X447569Y946854D01*
X448785Y945035D01*
X449691Y944429D01*
Y939500D01*
X445250D01*
Y923000D01*
X460250D01*
Y939500D01*
X455809D01*
Y944429D01*
X456715Y945035D01*
X457931Y946854D01*
X458358Y949000D01*
X457931Y951146D01*
X456715Y952965D01*
X454896Y954181D01*
X452750Y954608D01*
D02*
G37*
G36*
X522192Y929980D02*
X515422D01*
Y922460D01*
X522192D01*
Y929980D01*
D02*
G37*
G36*
X512882D02*
X506112D01*
Y922460D01*
X512882D01*
Y929980D01*
D02*
G37*
G36*
X491491D02*
X484721D01*
Y922460D01*
X491491D01*
Y929980D01*
D02*
G37*
G36*
X482181D02*
X475411D01*
Y922460D01*
X482181D01*
Y929980D01*
D02*
G37*
G36*
X586750Y916632D02*
X584270Y916305D01*
X581959Y915348D01*
X580346Y914110D01*
X570850D01*
Y916550D01*
X551850D01*
Y897550D01*
X570850D01*
Y899990D01*
X580346D01*
X581959Y898752D01*
X584270Y897794D01*
X586750Y897468D01*
X589230Y897794D01*
X591541Y898752D01*
X593526Y900275D01*
X595048Y902259D01*
X596006Y904570D01*
X596332Y907050D01*
X596006Y909530D01*
X595048Y911841D01*
X593526Y913826D01*
X591541Y915348D01*
X589230Y916305D01*
X586750Y916632D01*
D02*
G37*
G36*
X108400D02*
X105920Y916305D01*
X103609Y915348D01*
X101996Y914110D01*
X89404D01*
X87791Y915348D01*
X85480Y916305D01*
X83000Y916632D01*
X80520Y916305D01*
X78209Y915348D01*
X76224Y913826D01*
X74702Y911841D01*
X73745Y909530D01*
X73418Y907050D01*
X73745Y904570D01*
X74702Y902259D01*
X76224Y900275D01*
X78209Y898752D01*
X80520Y897794D01*
X83000Y897468D01*
X85480Y897794D01*
X87791Y898752D01*
X89404Y899990D01*
X101996D01*
X103609Y898752D01*
X105920Y897794D01*
X108400Y897468D01*
X110880Y897794D01*
X113191Y898752D01*
X115175Y900275D01*
X116698Y902259D01*
X117655Y904570D01*
X117982Y907050D01*
X117655Y909530D01*
X116698Y911841D01*
X115175Y913826D01*
X113191Y915348D01*
X110880Y916305D01*
X108400Y916632D01*
D02*
G37*
G36*
X303650Y922850D02*
X284650D01*
Y903850D01*
X303650D01*
Y922850D01*
D02*
G37*
G36*
X529000Y951858D02*
X526854Y951431D01*
X525035Y950215D01*
X523819Y948396D01*
X523392Y946250D01*
X523819Y944104D01*
X525035Y942285D01*
X525811Y941766D01*
Y936600D01*
X524250D01*
Y927870D01*
X524250Y927600D01*
Y926600D01*
X524250Y926330D01*
Y922286D01*
X518527Y916564D01*
X518402D01*
X518082Y916500D01*
X506652D01*
Y900000D01*
X521652D01*
Y910512D01*
X522243Y910907D01*
X528936Y917600D01*
X534250D01*
Y926330D01*
X534250Y926600D01*
Y927600D01*
X534250Y927870D01*
Y936600D01*
X532439D01*
Y941933D01*
X532965Y942285D01*
X534181Y944104D01*
X534608Y946250D01*
X534181Y948396D01*
X532965Y950215D01*
X531146Y951431D01*
X529000Y951858D01*
D02*
G37*
G36*
X499000D02*
X496854Y951431D01*
X495035Y950215D01*
X493819Y948396D01*
X493392Y946250D01*
X493819Y944104D01*
X495035Y942285D01*
X495461Y942000D01*
Y936600D01*
X493549D01*
Y927870D01*
X493549Y927600D01*
Y926600D01*
X493549Y926330D01*
Y922286D01*
X487826Y916564D01*
X487701D01*
X487381Y916500D01*
X475951D01*
Y900000D01*
X490951D01*
Y910512D01*
X491542Y910907D01*
X498235Y917600D01*
X503549D01*
Y926330D01*
X503549Y926600D01*
Y927600D01*
X503549Y927870D01*
Y936600D01*
X502088D01*
Y941699D01*
X502965Y942285D01*
X504181Y944104D01*
X504608Y946250D01*
X504181Y948396D01*
X502965Y950215D01*
X501146Y951431D01*
X499000Y951858D01*
D02*
G37*
G36*
X473388Y930830D02*
X467848D01*
X462308D01*
Y927060D01*
X462848Y926014D01*
X462848Y922286D01*
X457126Y916564D01*
X457000D01*
X456680Y916500D01*
X445250D01*
Y900000D01*
X460250D01*
Y910512D01*
X460841Y910907D01*
X467534Y917600D01*
X472848D01*
X472848Y926014D01*
X473388Y927060D01*
X473388Y927646D01*
Y930830D01*
D02*
G37*
G36*
X109670Y891609D02*
Y882920D01*
X118359D01*
X118182Y884271D01*
X117170Y886713D01*
X115561Y888811D01*
X113463Y890420D01*
X111021Y891432D01*
X109670Y891609D01*
D02*
G37*
G36*
X84270D02*
Y882920D01*
X92959D01*
X92782Y884271D01*
X91770Y886713D01*
X90161Y888811D01*
X88063Y890420D01*
X85621Y891432D01*
X84270Y891609D01*
D02*
G37*
G36*
X588020D02*
Y882920D01*
X596709D01*
X596532Y884271D01*
X595520Y886713D01*
X593911Y888811D01*
X591813Y890420D01*
X589371Y891432D01*
X588020Y891609D01*
D02*
G37*
G36*
X562620D02*
Y882920D01*
X571309D01*
X571132Y884271D01*
X570120Y886713D01*
X568511Y888811D01*
X566413Y890420D01*
X563971Y891432D01*
X562620Y891609D01*
D02*
G37*
G36*
X585480D02*
X584129Y891432D01*
X581687Y890420D01*
X579589Y888811D01*
X577980Y886713D01*
X576968Y884271D01*
X576791Y882920D01*
X585480D01*
Y891609D01*
D02*
G37*
G36*
X560080D02*
X558729Y891432D01*
X556287Y890420D01*
X554189Y888811D01*
X552580Y886713D01*
X551568Y884271D01*
X551391Y882920D01*
X560080D01*
Y891609D01*
D02*
G37*
G36*
X107130D02*
X105779Y891432D01*
X103337Y890420D01*
X101239Y888811D01*
X99630Y886713D01*
X98618Y884271D01*
X98441Y882920D01*
X107130D01*
Y891609D01*
D02*
G37*
G36*
X81730D02*
X80379Y891432D01*
X77937Y890420D01*
X75839Y888811D01*
X74230Y886713D01*
X73218Y884271D01*
X73040Y882920D01*
X81730D01*
Y891609D01*
D02*
G37*
G36*
X294150Y897532D02*
X291670Y897205D01*
X289359Y896248D01*
X287375Y894725D01*
X285852Y892741D01*
X284895Y890430D01*
X284568Y887950D01*
X284895Y885470D01*
X285852Y883159D01*
X287375Y881174D01*
X289359Y879652D01*
X291670Y878695D01*
X294150Y878368D01*
X296630Y878695D01*
X298941Y879652D01*
X300926Y881174D01*
X302448Y883159D01*
X303405Y885470D01*
X303732Y887950D01*
X303405Y890430D01*
X302448Y892741D01*
X300926Y894725D01*
X298941Y896248D01*
X296630Y897205D01*
X294150Y897532D01*
D02*
G37*
G36*
X162150D02*
X159670Y897205D01*
X157359Y896248D01*
X155374Y894725D01*
X153852Y892741D01*
X152894Y890430D01*
X152568Y887950D01*
X152894Y885470D01*
X153852Y883159D01*
X155374Y881174D01*
X157359Y879652D01*
X159670Y878695D01*
X162150Y878368D01*
X164630Y878695D01*
X166941Y879652D01*
X168925Y881174D01*
X170448Y883159D01*
X171405Y885470D01*
X171732Y887950D01*
X171405Y890430D01*
X170448Y892741D01*
X168925Y894725D01*
X166941Y896248D01*
X164630Y897205D01*
X162150Y897532D01*
D02*
G37*
G36*
X118359Y880380D02*
X109670D01*
Y871691D01*
X111021Y871868D01*
X113463Y872880D01*
X115561Y874489D01*
X117170Y876587D01*
X118182Y879029D01*
X118359Y880380D01*
D02*
G37*
G36*
X92959D02*
X84270D01*
Y871691D01*
X85621Y871868D01*
X88063Y872880D01*
X90161Y874489D01*
X91770Y876587D01*
X92782Y879029D01*
X92959Y880380D01*
D02*
G37*
G36*
X596709D02*
X588020D01*
Y871691D01*
X589371Y871868D01*
X591813Y872880D01*
X593911Y874489D01*
X595520Y876587D01*
X596532Y879029D01*
X596709Y880380D01*
D02*
G37*
G36*
X571309D02*
X562620D01*
Y871691D01*
X563971Y871868D01*
X566413Y872880D01*
X568511Y874489D01*
X570120Y876587D01*
X571132Y879029D01*
X571309Y880380D01*
D02*
G37*
G36*
X585480D02*
X576791D01*
X576968Y879029D01*
X577980Y876587D01*
X579589Y874489D01*
X581687Y872880D01*
X584129Y871868D01*
X585480Y871691D01*
Y880380D01*
D02*
G37*
G36*
X560080D02*
X551391D01*
X551568Y879029D01*
X552580Y876587D01*
X554189Y874489D01*
X556287Y872880D01*
X558729Y871868D01*
X560080Y871691D01*
Y880380D01*
D02*
G37*
G36*
X81730D02*
X73041D01*
X73218Y879029D01*
X74230Y876587D01*
X75839Y874489D01*
X77937Y872880D01*
X80379Y871868D01*
X81730Y871691D01*
Y880380D01*
D02*
G37*
G36*
X107130D02*
X98441D01*
X98618Y879029D01*
X99630Y876587D01*
X101239Y874489D01*
X103337Y872880D01*
X105779Y871868D01*
X107130Y871691D01*
Y880380D01*
D02*
G37*
G36*
X453750Y867608D02*
X451604Y867181D01*
X449785Y865965D01*
X448569Y864146D01*
X448142Y862000D01*
X448569Y859854D01*
X449785Y858035D01*
X451604Y856819D01*
X453750Y856392D01*
X455896Y856819D01*
X457715Y858035D01*
X458931Y859854D01*
X459358Y862000D01*
X458931Y864146D01*
X457715Y865965D01*
X455896Y867181D01*
X453750Y867608D01*
D02*
G37*
G36*
X294150Y872132D02*
X291670Y871805D01*
X289359Y870848D01*
X287375Y869325D01*
X285852Y867341D01*
X284895Y865030D01*
X284568Y862550D01*
X284895Y860070D01*
X285852Y857759D01*
X287375Y855775D01*
X289359Y854252D01*
X291670Y853295D01*
X294150Y852968D01*
X296630Y853295D01*
X298941Y854252D01*
X300926Y855775D01*
X302448Y857759D01*
X303405Y860070D01*
X303732Y862550D01*
X303405Y865030D01*
X302448Y867341D01*
X300926Y869325D01*
X298941Y870848D01*
X296630Y871805D01*
X294150Y872132D01*
D02*
G37*
G36*
X162150D02*
X159670Y871805D01*
X157359Y870848D01*
X155374Y869325D01*
X153852Y867341D01*
X152894Y865030D01*
X152568Y862550D01*
X152894Y860070D01*
X153852Y857759D01*
X155374Y855775D01*
X157359Y854252D01*
X159670Y853295D01*
X162150Y852968D01*
X164630Y853295D01*
X166941Y854252D01*
X168925Y855775D01*
X170448Y857759D01*
X171405Y860070D01*
X171732Y862550D01*
X171405Y865030D01*
X170448Y867341D01*
X168925Y869325D01*
X166941Y870848D01*
X164630Y871805D01*
X162150Y872132D01*
D02*
G37*
G36*
X586750Y865832D02*
X584270Y865506D01*
X581959Y864548D01*
X579975Y863026D01*
X578452Y861041D01*
X577495Y858730D01*
X577168Y856250D01*
X577495Y853770D01*
X578452Y851459D01*
X579975Y849475D01*
X581959Y847952D01*
X584270Y846994D01*
X586750Y846668D01*
X589230Y846994D01*
X591541Y847952D01*
X593526Y849475D01*
X595048Y851459D01*
X596006Y853770D01*
X596332Y856250D01*
X596006Y858730D01*
X595048Y861041D01*
X593526Y863026D01*
X591541Y864548D01*
X589230Y865506D01*
X586750Y865832D01*
D02*
G37*
G36*
X561350D02*
X558870Y865506D01*
X556559Y864548D01*
X554575Y863026D01*
X553052Y861041D01*
X552095Y858730D01*
X551768Y856250D01*
X552095Y853770D01*
X553052Y851459D01*
X554575Y849475D01*
X556559Y847952D01*
X558870Y846994D01*
X561350Y846668D01*
X563830Y846994D01*
X566141Y847952D01*
X568125Y849475D01*
X569648Y851459D01*
X570606Y853770D01*
X570932Y856250D01*
X570606Y858730D01*
X569648Y861041D01*
X568125Y863026D01*
X566141Y864548D01*
X563830Y865506D01*
X561350Y865832D01*
D02*
G37*
G36*
X108400D02*
X105920Y865506D01*
X103609Y864548D01*
X101624Y863026D01*
X100102Y861041D01*
X99144Y858730D01*
X98818Y856250D01*
X99144Y853770D01*
X100102Y851459D01*
X101624Y849475D01*
X103609Y847952D01*
X105920Y846994D01*
X108400Y846668D01*
X110880Y846994D01*
X113191Y847952D01*
X115175Y849475D01*
X116698Y851459D01*
X117655Y853770D01*
X117982Y856250D01*
X117655Y858730D01*
X116698Y861041D01*
X115175Y863026D01*
X113191Y864548D01*
X110880Y865506D01*
X108400Y865832D01*
D02*
G37*
G36*
X83000D02*
X80520Y865506D01*
X78209Y864548D01*
X76224Y863026D01*
X74702Y861041D01*
X73745Y858730D01*
X73418Y856250D01*
X73745Y853770D01*
X74702Y851459D01*
X76224Y849475D01*
X78209Y847952D01*
X80520Y846994D01*
X83000Y846668D01*
X85480Y846994D01*
X87791Y847952D01*
X89775Y849475D01*
X91298Y851459D01*
X92255Y853770D01*
X92582Y856250D01*
X92255Y858730D01*
X91298Y861041D01*
X89775Y863026D01*
X87791Y864548D01*
X85480Y865506D01*
X83000Y865832D01*
D02*
G37*
G36*
X453750Y852858D02*
X451604Y852431D01*
X449785Y851215D01*
X448569Y849396D01*
X448142Y847250D01*
X448569Y845104D01*
X449785Y843285D01*
X451604Y842069D01*
X453750Y841642D01*
X455896Y842069D01*
X457715Y843285D01*
X458931Y845104D01*
X459358Y847250D01*
X458931Y849396D01*
X457715Y851215D01*
X455896Y852431D01*
X453750Y852858D01*
D02*
G37*
G36*
X413250D02*
X411104Y852431D01*
X409285Y851215D01*
X408069Y849396D01*
X407642Y847250D01*
X408069Y845104D01*
X409285Y843285D01*
X411104Y842069D01*
X413250Y841642D01*
X415396Y842069D01*
X417215Y843285D01*
X418431Y845104D01*
X418858Y847250D01*
X418431Y849396D01*
X417215Y851215D01*
X415396Y852431D01*
X413250Y852858D01*
D02*
G37*
G36*
X500540Y851290D02*
X488520D01*
Y832520D01*
X500540D01*
Y851290D01*
D02*
G37*
G36*
X485980D02*
X473960D01*
Y832520D01*
X485980D01*
Y851290D01*
D02*
G37*
G36*
X109670Y840809D02*
Y832120D01*
X118359D01*
X118182Y833471D01*
X117170Y835913D01*
X115561Y838011D01*
X113463Y839620D01*
X111021Y840632D01*
X109670Y840809D01*
D02*
G37*
G36*
X84270D02*
Y832120D01*
X92959D01*
X92782Y833471D01*
X91770Y835913D01*
X90161Y838011D01*
X88063Y839620D01*
X85621Y840632D01*
X84270Y840809D01*
D02*
G37*
G36*
X588020D02*
Y832120D01*
X596709D01*
X596532Y833471D01*
X595520Y835913D01*
X593911Y838011D01*
X591813Y839620D01*
X589371Y840632D01*
X588020Y840809D01*
D02*
G37*
G36*
X562620D02*
Y832120D01*
X571309D01*
X571132Y833471D01*
X570120Y835913D01*
X568511Y838011D01*
X566413Y839620D01*
X563971Y840632D01*
X562620Y840809D01*
D02*
G37*
G36*
X585480D02*
X584129Y840632D01*
X581687Y839620D01*
X579589Y838011D01*
X577980Y835913D01*
X576968Y833471D01*
X576791Y832120D01*
X585480D01*
Y840809D01*
D02*
G37*
G36*
X560080D02*
X558729Y840632D01*
X556287Y839620D01*
X554189Y838011D01*
X552580Y835913D01*
X551568Y833471D01*
X551391Y832120D01*
X560080D01*
Y840809D01*
D02*
G37*
G36*
X107130D02*
X105779Y840632D01*
X103337Y839620D01*
X101239Y838011D01*
X99630Y835913D01*
X98618Y833471D01*
X98441Y832120D01*
X107130D01*
Y840809D01*
D02*
G37*
G36*
X81730D02*
X80379Y840632D01*
X77937Y839620D01*
X75839Y838011D01*
X74230Y835913D01*
X73218Y833471D01*
X73040Y832120D01*
X81730D01*
Y840809D01*
D02*
G37*
G36*
X412500Y833858D02*
X410354Y833431D01*
X408535Y832215D01*
X407319Y830396D01*
X406892Y828250D01*
X407319Y826104D01*
X408535Y824285D01*
X410354Y823069D01*
X412500Y822642D01*
X414646Y823069D01*
X416465Y824285D01*
X417681Y826104D01*
X418108Y828250D01*
X417681Y830396D01*
X416465Y832215D01*
X414646Y833431D01*
X412500Y833858D01*
D02*
G37*
G36*
X118359Y829580D02*
X109670D01*
Y820891D01*
X111021Y821068D01*
X113463Y822080D01*
X115561Y823689D01*
X117170Y825787D01*
X118182Y828229D01*
X118359Y829580D01*
D02*
G37*
G36*
X92959D02*
X84270D01*
Y820891D01*
X85621Y821068D01*
X88063Y822080D01*
X90161Y823689D01*
X91770Y825787D01*
X92782Y828229D01*
X92959Y829580D01*
D02*
G37*
G36*
X596709D02*
X588020D01*
Y820891D01*
X589371Y821068D01*
X591813Y822080D01*
X593911Y823689D01*
X595520Y825787D01*
X596532Y828229D01*
X596709Y829580D01*
D02*
G37*
G36*
X571309D02*
X562620D01*
Y820891D01*
X563971Y821068D01*
X566413Y822080D01*
X568511Y823689D01*
X570120Y825787D01*
X571132Y828229D01*
X571309Y829580D01*
D02*
G37*
G36*
X585480D02*
X576791D01*
X576968Y828229D01*
X577980Y825787D01*
X579589Y823689D01*
X581687Y822080D01*
X584129Y821068D01*
X585480Y820891D01*
Y829580D01*
D02*
G37*
G36*
X560080D02*
X551391D01*
X551568Y828229D01*
X552580Y825787D01*
X554189Y823689D01*
X556287Y822080D01*
X558729Y821068D01*
X560080Y820891D01*
Y829580D01*
D02*
G37*
G36*
X81730D02*
X73041D01*
X73218Y828229D01*
X74230Y825787D01*
X75839Y823689D01*
X77937Y822080D01*
X80379Y821068D01*
X81730Y820891D01*
Y829580D01*
D02*
G37*
G36*
X107130D02*
X98441D01*
X98618Y828229D01*
X99630Y825787D01*
X101239Y823689D01*
X103337Y822080D01*
X105779Y821068D01*
X107130Y820891D01*
Y829580D01*
D02*
G37*
G36*
X278000Y831358D02*
X275854Y830931D01*
X274035Y829715D01*
X272819Y827896D01*
X272392Y825750D01*
X272819Y823604D01*
X274035Y821785D01*
X275854Y820569D01*
X278000Y820142D01*
X280146Y820569D01*
X281965Y821785D01*
X283181Y823604D01*
X283608Y825750D01*
X283181Y827896D01*
X281965Y829715D01*
X280146Y830931D01*
X278000Y831358D01*
D02*
G37*
G36*
X453290Y821040D02*
X447020D01*
Y815770D01*
X453290D01*
Y821040D01*
D02*
G37*
G36*
X444480D02*
X438210D01*
Y815770D01*
X444480D01*
Y821040D01*
D02*
G37*
G36*
X197790Y818790D02*
X191520D01*
Y813520D01*
X197790D01*
Y818790D01*
D02*
G37*
G36*
X188980D02*
X182710D01*
Y813520D01*
X188980D01*
Y818790D01*
D02*
G37*
G36*
X586750Y815032D02*
X584270Y814706D01*
X581959Y813748D01*
X580346Y812510D01*
X567754D01*
X566141Y813748D01*
X563830Y814706D01*
X561350Y815032D01*
X558870Y814706D01*
X556559Y813748D01*
X554575Y812225D01*
X553052Y810241D01*
X552095Y807930D01*
X551768Y805450D01*
X552095Y802970D01*
X553052Y800659D01*
X554575Y798675D01*
X556559Y797152D01*
X558870Y796195D01*
X561350Y795868D01*
X563830Y796195D01*
X566141Y797152D01*
X567754Y798390D01*
X580346D01*
X581959Y797152D01*
X584270Y796195D01*
X584728Y796134D01*
X591940Y788923D01*
Y767000D01*
X586250D01*
Y753500D01*
X597004D01*
X597173Y753430D01*
X599000Y753190D01*
X600827Y753430D01*
X600996Y753500D01*
X611750D01*
Y767000D01*
X606060D01*
Y791847D01*
X605820Y793674D01*
X605115Y795377D01*
X603992Y796840D01*
X596221Y804611D01*
X596332Y805450D01*
X596006Y807930D01*
X595048Y810241D01*
X593526Y812225D01*
X591541Y813748D01*
X589230Y814706D01*
X586750Y815032D01*
D02*
G37*
G36*
X500540Y829980D02*
X488520D01*
Y811210D01*
X500540D01*
Y829980D01*
D02*
G37*
G36*
X485980D02*
X473960D01*
Y811210D01*
X485980D01*
Y829980D01*
D02*
G37*
G36*
X453290Y813230D02*
X447020D01*
Y807960D01*
X453290D01*
Y813230D01*
D02*
G37*
G36*
X444480D02*
X438210D01*
Y807960D01*
X444480D01*
Y813230D01*
D02*
G37*
G36*
X197790Y810980D02*
X191520D01*
Y805710D01*
X197790D01*
Y810980D01*
D02*
G37*
G36*
X188980D02*
X182710D01*
Y805710D01*
X188980D01*
Y810980D01*
D02*
G37*
G36*
X409500Y938848D02*
X230000D01*
X228049Y938460D01*
X226395Y937355D01*
X217895Y928855D01*
X216790Y927201D01*
X216402Y925250D01*
Y819765D01*
X216790Y817814D01*
X217895Y816160D01*
X221410Y812645D01*
X223064Y811540D01*
X225015Y811152D01*
X262888D01*
X269352Y804688D01*
Y768254D01*
X267425Y766776D01*
X265902Y764791D01*
X264945Y762480D01*
X264618Y760000D01*
X264945Y757520D01*
X265240Y756807D01*
X263241Y754809D01*
X251040D01*
Y757980D01*
X243500D01*
X235960D01*
Y754809D01*
X229879D01*
X224275Y760413D01*
X223282Y761076D01*
X222112Y761309D01*
X222111Y761309D01*
X196250D01*
X196250Y761309D01*
X195079Y761076D01*
X194087Y760413D01*
X183781Y750107D01*
X182518Y750480D01*
X182291Y751466D01*
X187413Y756587D01*
X187413Y756587D01*
X188076Y757579D01*
X188309Y758750D01*
Y764250D01*
X193660D01*
Y763710D01*
X196980D01*
Y774050D01*
Y784390D01*
X194809D01*
Y790250D01*
X197250D01*
Y802250D01*
X183326D01*
X175163Y810413D01*
X174170Y811076D01*
X173000Y811309D01*
X173000Y811309D01*
X159250D01*
X159250Y811309D01*
X158080Y811076D01*
X157087Y810413D01*
X157087Y810413D01*
X152492Y805818D01*
X151319Y806304D01*
Y822772D01*
X157387Y828840D01*
X159670Y827895D01*
X162150Y827568D01*
X164630Y827895D01*
X166941Y828852D01*
X168925Y830375D01*
X170448Y832359D01*
X171405Y834670D01*
X171732Y837150D01*
X171405Y839630D01*
X170448Y841941D01*
X168925Y843925D01*
X166941Y845448D01*
X164630Y846405D01*
X162150Y846732D01*
X159670Y846405D01*
X157359Y845448D01*
X155374Y843925D01*
X153852Y841941D01*
X152894Y839630D01*
X152568Y837150D01*
X152894Y834670D01*
X152962Y834508D01*
X145227Y826773D01*
X144453Y825616D01*
X144181Y824250D01*
Y749500D01*
X144453Y748134D01*
X145227Y746977D01*
X154893Y737310D01*
X154367Y736040D01*
X151520D01*
Y731000D01*
X150250D01*
Y729730D01*
X144710D01*
Y725960D01*
X145250Y724914D01*
X145250Y716500D01*
X155250D01*
Y717686D01*
X160336D01*
X161415Y717472D01*
X161700D01*
Y706650D01*
X175691D01*
Y702767D01*
X171569Y698645D01*
X170500Y698858D01*
X168354Y698431D01*
X166535Y697215D01*
X165319Y695396D01*
X164892Y693250D01*
X165319Y691104D01*
X166535Y689285D01*
X168354Y688069D01*
X170500Y687642D01*
X172646Y688069D01*
X174465Y689285D01*
X175681Y691104D01*
X176108Y693250D01*
X175895Y694319D01*
X179077Y697501D01*
X180250Y697015D01*
Y691750D01*
X182652D01*
X182849Y690762D01*
X183512Y689770D01*
X193694Y679587D01*
X194687Y678924D01*
X195857Y678691D01*
X195858Y678691D01*
X261750D01*
X261750Y678691D01*
X262920Y678924D01*
X263913Y679587D01*
X289413Y705087D01*
X289413Y705087D01*
X290076Y706079D01*
X290309Y707250D01*
Y719391D01*
X291464Y719687D01*
X291579Y719674D01*
X293075Y717725D01*
X295059Y716202D01*
X297370Y715245D01*
X299850Y714918D01*
X302330Y715245D01*
X304641Y716202D01*
X306625Y717725D01*
X308148Y719709D01*
X309105Y722020D01*
X309432Y724500D01*
X309105Y726980D01*
X308148Y729291D01*
X306625Y731275D01*
X304641Y732798D01*
X302330Y733755D01*
X299850Y734082D01*
X297370Y733755D01*
X295059Y732798D01*
X293075Y731275D01*
X291579Y729326D01*
X291464Y729313D01*
X290309Y729609D01*
Y738191D01*
X370500D01*
X370500Y738191D01*
X371670Y738424D01*
X372663Y739087D01*
X378413Y744837D01*
X379076Y745829D01*
X379309Y747000D01*
X379309Y747000D01*
Y750500D01*
X385300D01*
Y769500D01*
X378859D01*
Y780250D01*
X380000D01*
Y794250D01*
X368000D01*
Y780250D01*
X372741D01*
Y769500D01*
X366300D01*
Y750500D01*
X373191D01*
Y748267D01*
X369233Y744309D01*
X288422D01*
X288422Y744309D01*
X287251Y744076D01*
X286259Y743413D01*
X286259Y743413D01*
X285087Y742241D01*
X284424Y741249D01*
X284191Y740078D01*
X284191Y740078D01*
Y729126D01*
X282921Y728873D01*
X282748Y729291D01*
X281225Y731275D01*
X279548Y732563D01*
Y752129D01*
X280975Y753225D01*
X282498Y755209D01*
X283456Y757520D01*
X283782Y760000D01*
X283456Y762480D01*
X282498Y764791D01*
X280975Y766776D01*
X279548Y767871D01*
Y806800D01*
X279160Y808751D01*
X278055Y810405D01*
X268605Y819855D01*
X266951Y820960D01*
X265000Y821348D01*
X227126D01*
X226598Y821876D01*
Y923138D01*
X232112Y928652D01*
X265422D01*
X266101Y927382D01*
X266013Y927250D01*
X262770D01*
X262500Y927250D01*
X261500D01*
X261230Y927250D01*
X252500D01*
Y917250D01*
X251473Y916664D01*
X247260D01*
X246648Y918141D01*
X245125Y920125D01*
X243141Y921648D01*
X240830Y922605D01*
X238350Y922932D01*
X235870Y922605D01*
X233559Y921648D01*
X231574Y920125D01*
X230052Y918141D01*
X229095Y915830D01*
X228768Y913350D01*
X229095Y910870D01*
X230052Y908559D01*
X231574Y906574D01*
X233559Y905052D01*
X235870Y904094D01*
X238350Y903768D01*
X240830Y904094D01*
X243141Y905052D01*
X245125Y906574D01*
X246648Y908559D01*
X247260Y910036D01*
X254850D01*
X256118Y910289D01*
X257193Y911007D01*
X259343Y913157D01*
X260061Y914232D01*
X260314Y915500D01*
Y916352D01*
X260471Y916509D01*
X261500Y917250D01*
X262500D01*
X262770Y917250D01*
X264061D01*
Y899250D01*
X262770D01*
X262500Y899250D01*
X261500D01*
X261230Y899250D01*
X252500D01*
Y893436D01*
X250327Y891264D01*
X247260D01*
X246648Y892741D01*
X245125Y894725D01*
X243141Y896248D01*
X240830Y897205D01*
X238350Y897532D01*
X235870Y897205D01*
X233559Y896248D01*
X231574Y894725D01*
X230052Y892741D01*
X229095Y890430D01*
X228768Y887950D01*
X229095Y885470D01*
X230052Y883159D01*
X231574Y881174D01*
X233559Y879652D01*
X235870Y878695D01*
X238350Y878368D01*
X240830Y878695D01*
X243141Y879652D01*
X245125Y881174D01*
X246648Y883159D01*
X247260Y884636D01*
X251700D01*
X252968Y884889D01*
X254043Y885607D01*
X257686Y889250D01*
X261230D01*
X261500Y889250D01*
X262500D01*
X262770Y889250D01*
X264186D01*
Y869000D01*
X262770D01*
X262500Y869000D01*
X261500D01*
X261230Y869000D01*
X252500D01*
Y866589D01*
X246960D01*
X246648Y867341D01*
X245125Y869325D01*
X243141Y870848D01*
X240830Y871805D01*
X238350Y872132D01*
X235870Y871805D01*
X233559Y870848D01*
X231574Y869325D01*
X230052Y867341D01*
X229095Y865030D01*
X228768Y862550D01*
X229095Y860070D01*
X230052Y857759D01*
X231574Y855775D01*
X233559Y854252D01*
X235870Y853295D01*
X238350Y852968D01*
X240830Y853295D01*
X243141Y854252D01*
X245125Y855775D01*
X246648Y857759D01*
X247560Y859961D01*
X252500D01*
Y859000D01*
X261230D01*
X261500Y859000D01*
X262500D01*
X262666Y859000D01*
X263936Y858750D01*
Y840398D01*
X263130Y839591D01*
X262666Y839500D01*
X261500D01*
X261230Y839500D01*
X252500D01*
Y839139D01*
X247670D01*
X247605Y839630D01*
X246648Y841941D01*
X245125Y843925D01*
X243141Y845448D01*
X240830Y846405D01*
X238350Y846732D01*
X235870Y846405D01*
X233559Y845448D01*
X231574Y843925D01*
X230052Y841941D01*
X229095Y839630D01*
X228768Y837150D01*
X229095Y834670D01*
X230052Y832359D01*
X231574Y830375D01*
X233559Y828852D01*
X235870Y827895D01*
X238350Y827568D01*
X240830Y827895D01*
X243141Y828852D01*
X245125Y830375D01*
X246648Y832359D01*
X246711Y832511D01*
X252500D01*
Y829500D01*
X261230D01*
X261500Y829500D01*
X262500D01*
X262770Y829500D01*
X271500D01*
Y839500D01*
X270564D01*
Y859000D01*
X271500D01*
Y869000D01*
X270814D01*
Y889250D01*
X271500D01*
Y899250D01*
X270689D01*
Y917250D01*
X271500D01*
Y922314D01*
X275468Y926282D01*
X276186Y927357D01*
X276222Y927536D01*
X277338Y928652D01*
X402412D01*
X402686Y928377D01*
Y919500D01*
X395520D01*
X395250Y919500D01*
X394250D01*
X393980Y919500D01*
X385250D01*
Y917239D01*
X379022D01*
X378648Y918141D01*
X377126Y920125D01*
X375141Y921648D01*
X372830Y922605D01*
X370350Y922932D01*
X367870Y922605D01*
X365559Y921648D01*
X363575Y920125D01*
X362052Y918141D01*
X361095Y915830D01*
X360768Y913350D01*
X361095Y910870D01*
X362052Y908559D01*
X363575Y906574D01*
X365559Y905052D01*
X367870Y904094D01*
X370350Y903768D01*
X372830Y904094D01*
X375141Y905052D01*
X377126Y906574D01*
X378648Y908559D01*
X379498Y910611D01*
X385250D01*
Y909500D01*
X393980D01*
X394250Y909500D01*
X395250D01*
X396436Y908646D01*
Y894648D01*
X396279Y894491D01*
X395250Y893750D01*
X394250D01*
X393980Y893750D01*
X385250D01*
Y891664D01*
X379095D01*
X378648Y892741D01*
X377126Y894725D01*
X375141Y896248D01*
X372830Y897205D01*
X370350Y897532D01*
X367870Y897205D01*
X365559Y896248D01*
X363575Y894725D01*
X362052Y892741D01*
X361095Y890430D01*
X360768Y887950D01*
X361095Y885470D01*
X362052Y883159D01*
X363575Y881174D01*
X365559Y879652D01*
X367870Y878695D01*
X370350Y878368D01*
X372830Y878695D01*
X375141Y879652D01*
X377126Y881174D01*
X378648Y883159D01*
X379426Y885036D01*
X385250D01*
Y883750D01*
X393980D01*
X394250Y883750D01*
X395250D01*
X396436Y882896D01*
Y868898D01*
X396279Y868741D01*
X395250Y868000D01*
X394250D01*
X393980Y868000D01*
X385250D01*
Y866089D01*
X379167D01*
X378648Y867341D01*
X377126Y869325D01*
X375141Y870848D01*
X372830Y871805D01*
X370350Y872132D01*
X367870Y871805D01*
X365559Y870848D01*
X363575Y869325D01*
X362052Y867341D01*
X361095Y865030D01*
X360768Y862550D01*
X361095Y860070D01*
X362052Y857759D01*
X363575Y855775D01*
X365559Y854252D01*
X367870Y853295D01*
X370350Y852968D01*
X372830Y853295D01*
X375141Y854252D01*
X377126Y855775D01*
X378648Y857759D01*
X379353Y859461D01*
X385250D01*
Y858000D01*
X393980D01*
X394250Y858000D01*
X395250D01*
X396436Y857146D01*
Y843148D01*
X396279Y842991D01*
X395250Y842250D01*
X394250D01*
X393980Y842250D01*
X385250D01*
Y840514D01*
X379239D01*
X378648Y841941D01*
X377126Y843925D01*
X375141Y845448D01*
X372830Y846405D01*
X370350Y846732D01*
X367870Y846405D01*
X365559Y845448D01*
X363575Y843925D01*
X362052Y841941D01*
X361095Y839630D01*
X360768Y837150D01*
X361095Y834670D01*
X362052Y832359D01*
X363575Y830375D01*
X365559Y828852D01*
X367870Y827895D01*
X370350Y827568D01*
X372830Y827895D01*
X375141Y828852D01*
X377126Y830375D01*
X378648Y832359D01*
X379281Y833886D01*
X385250D01*
Y832250D01*
X393980D01*
X394250Y832250D01*
X395250D01*
X395520Y832250D01*
X404250D01*
Y842250D01*
X403064D01*
Y858000D01*
X404250D01*
Y868000D01*
X403064D01*
Y883750D01*
X404250D01*
Y893750D01*
X403064D01*
Y909500D01*
X404250D01*
Y911186D01*
X406000D01*
X407268Y911439D01*
X408343Y912157D01*
X409061Y913232D01*
X409314Y914500D01*
Y925067D01*
X410487Y925553D01*
X412652Y923388D01*
Y901000D01*
X413040Y899049D01*
X414145Y897395D01*
X431895Y879645D01*
X433549Y878540D01*
X435500Y878152D01*
X447978D01*
X448577Y877032D01*
X448319Y876646D01*
X447892Y874500D01*
X448319Y872354D01*
X449535Y870535D01*
X451354Y869319D01*
X453500Y868892D01*
X455646Y869319D01*
X457465Y870535D01*
X458681Y872354D01*
X459108Y874500D01*
X458681Y876646D01*
X458423Y877032D01*
X459022Y878152D01*
X499888D01*
X509803Y868237D01*
X509317Y867064D01*
X507464D01*
X506196Y866811D01*
X505121Y866093D01*
X503657Y864629D01*
X502939Y863554D01*
X502686Y862286D01*
Y808122D01*
X500907Y806343D01*
X500189Y805268D01*
X499936Y804000D01*
Y802814D01*
X483373D01*
X479593Y806593D01*
X478518Y807311D01*
X477250Y807564D01*
X459750D01*
X458482Y807311D01*
X457407Y806593D01*
X453923Y803110D01*
X452750Y803596D01*
Y804500D01*
X438750D01*
X437973Y805448D01*
X437663Y805913D01*
X437663Y805913D01*
X434645Y808931D01*
X434858Y810000D01*
X434431Y812146D01*
X433215Y813965D01*
X431396Y815181D01*
X429250Y815608D01*
X427104Y815181D01*
X425285Y813965D01*
X424069Y812146D01*
X423833Y810957D01*
X422484Y810688D01*
X421965Y811465D01*
X420146Y812681D01*
X418000Y813108D01*
X415854Y812681D01*
X414035Y811465D01*
X412819Y809646D01*
X412392Y807500D01*
X412738Y805759D01*
X412632Y805565D01*
X411935Y804868D01*
X411741Y804762D01*
X410000Y805108D01*
X407854Y804681D01*
X406035Y803465D01*
X404819Y801646D01*
X404672Y800908D01*
X403377D01*
X403181Y801896D01*
X401965Y803715D01*
X400146Y804931D01*
X398000Y805358D01*
X395854Y804931D01*
X394035Y803715D01*
X392819Y801896D01*
X392392Y799750D01*
X392819Y797604D01*
X394035Y795785D01*
X395854Y794569D01*
X398000Y794142D01*
X399069Y794355D01*
X411891Y781533D01*
Y775100D01*
X411891Y775100D01*
X411950Y774804D01*
Y764250D01*
X443910D01*
Y763710D01*
X447230D01*
Y774050D01*
Y784390D01*
X445314D01*
Y792500D01*
X452750D01*
Y794936D01*
X453750D01*
X455018Y795189D01*
X456093Y795907D01*
X461123Y800936D01*
X475877D01*
X479657Y797157D01*
X480732Y796439D01*
X482000Y796186D01*
X501435D01*
X501797Y795694D01*
X501067Y794545D01*
X500750Y794608D01*
X498604Y794181D01*
X496785Y792965D01*
X495569Y791146D01*
X495142Y789000D01*
X495569Y786854D01*
X496785Y785035D01*
X497691Y784429D01*
Y770517D01*
X491233Y764059D01*
X479741D01*
X478550Y764250D01*
Y779524D01*
X482801Y783775D01*
X483274Y783681D01*
X485420Y784108D01*
X487239Y785323D01*
X488454Y787142D01*
X488881Y789288D01*
X488454Y791434D01*
X487239Y793254D01*
X485420Y794469D01*
X483274Y794896D01*
X481128Y794469D01*
X480585Y794107D01*
X479056Y794457D01*
X478215Y795715D01*
X476396Y796931D01*
X474250Y797358D01*
X472104Y796931D01*
X471164Y796302D01*
X470111Y795927D01*
X469536Y796626D01*
X468808Y797715D01*
X466989Y798931D01*
X464843Y799358D01*
X462697Y798931D01*
X460878Y797715D01*
X459662Y795896D01*
X459235Y793750D01*
X459448Y792681D01*
X452837Y786070D01*
X452174Y785077D01*
X452037Y784390D01*
X449770D01*
Y774050D01*
Y763710D01*
X453090D01*
Y764250D01*
X465113D01*
Y762172D01*
X465113Y762172D01*
X465346Y761001D01*
X466009Y760009D01*
X467180Y758837D01*
X467180Y758837D01*
X468173Y758174D01*
X469343Y757941D01*
X469343Y757941D01*
X492209D01*
X492648Y757242D01*
X492762Y756699D01*
X489657Y753593D01*
X488939Y752518D01*
X488686Y751250D01*
Y750500D01*
X486000D01*
Y746814D01*
X476123D01*
X469593Y753343D01*
X468518Y754061D01*
X467250Y754314D01*
X432250D01*
X430982Y754061D01*
X429907Y753343D01*
X426907Y750343D01*
X426189Y749268D01*
X425936Y748000D01*
Y738000D01*
X426189Y736732D01*
X426907Y735657D01*
X434657Y727907D01*
X435236Y727520D01*
X434851Y726250D01*
X426069D01*
Y728750D01*
X425797Y730116D01*
X425023Y731273D01*
X401069Y755228D01*
Y785250D01*
X400797Y786616D01*
X400023Y787773D01*
X348123Y839673D01*
X346966Y840447D01*
X345600Y840719D01*
X302955D01*
X302448Y841941D01*
X300926Y843925D01*
X298941Y845448D01*
X296630Y846405D01*
X294150Y846732D01*
X291670Y846405D01*
X289359Y845448D01*
X287375Y843925D01*
X285852Y841941D01*
X284895Y839630D01*
X284568Y837150D01*
X284895Y834670D01*
X285852Y832359D01*
X287375Y830375D01*
X289359Y828852D01*
X291670Y827895D01*
X294150Y827568D01*
X296630Y827895D01*
X298941Y828852D01*
X300926Y830375D01*
X302448Y832359D01*
X302955Y833581D01*
X344122D01*
X393931Y783772D01*
Y753750D01*
X394203Y752384D01*
X394977Y751227D01*
X418683Y727520D01*
X418332Y726250D01*
X411950D01*
Y717559D01*
X406355D01*
X406264Y717650D01*
X405714Y718829D01*
X406040Y719460D01*
X406040Y720046D01*
Y723230D01*
X400500D01*
X394960D01*
Y719460D01*
X395500Y718414D01*
X395500Y710000D01*
X405500D01*
Y711441D01*
X411950D01*
Y706650D01*
X425941D01*
Y704767D01*
X423983Y702809D01*
X399780D01*
X398984Y703999D01*
X397165Y705215D01*
X395019Y705642D01*
X392873Y705215D01*
X391054Y703999D01*
X389838Y702180D01*
X389412Y700034D01*
X389838Y697888D01*
X391054Y696069D01*
X392873Y694853D01*
X395019Y694426D01*
X397165Y694853D01*
X398984Y696069D01*
X399400Y696691D01*
X424569D01*
X425095Y695421D01*
X420733Y691059D01*
X383767D01*
X380163Y694663D01*
X380000Y694772D01*
Y703500D01*
X379109D01*
Y715000D01*
X385550D01*
Y734000D01*
X366550D01*
Y715000D01*
X372991D01*
Y703500D01*
X368000D01*
Y689500D01*
X376674D01*
X380337Y685837D01*
X381329Y685174D01*
X382500Y684941D01*
X422000D01*
X422000Y684941D01*
X423171Y685174D01*
X424163Y685837D01*
X429980Y691654D01*
X431250Y691128D01*
Y690750D01*
X440250D01*
Y690750D01*
X441250D01*
Y690750D01*
X450250D01*
Y700750D01*
X449064D01*
Y701500D01*
X448811Y702768D01*
X448093Y703843D01*
X446556Y705380D01*
X447082Y706650D01*
X458186D01*
Y690750D01*
X458439Y689482D01*
X459157Y688407D01*
X461407Y686157D01*
X461545Y686064D01*
X463953Y683657D01*
X465028Y682939D01*
X466296Y682686D01*
X501750D01*
X503018Y682939D01*
X504093Y683657D01*
X522231Y701795D01*
X523000Y701642D01*
X525146Y702069D01*
X526965Y703285D01*
X528181Y705104D01*
X528608Y707250D01*
X528181Y709396D01*
X526965Y711215D01*
X525146Y712431D01*
X523000Y712858D01*
X520854Y712431D01*
X519035Y711215D01*
X517819Y709396D01*
X517392Y707250D01*
X517545Y706481D01*
X500378Y689314D01*
X470844D01*
X470646Y690569D01*
X472465Y691785D01*
X473681Y693604D01*
X474021Y695315D01*
X475105Y695884D01*
X475337Y695916D01*
X476604Y695069D01*
X478750Y694642D01*
X480896Y695069D01*
X482715Y696285D01*
X483931Y698104D01*
X484358Y700250D01*
X483931Y702396D01*
X482715Y704215D01*
X480896Y705431D01*
X479394Y705730D01*
X478637Y706555D01*
X478550Y707094D01*
Y726250D01*
X458314D01*
Y729628D01*
X466593Y737907D01*
X466948Y738438D01*
X468215Y739285D01*
X469431Y741104D01*
X469635Y742132D01*
X471013Y742550D01*
X472407Y741157D01*
X473482Y740439D01*
X474750Y740186D01*
X486000D01*
Y736500D01*
X498000D01*
Y750500D01*
X497596D01*
X497109Y751673D01*
X512343Y766907D01*
X513061Y767982D01*
X513314Y769250D01*
Y792750D01*
X513061Y794018D01*
X512343Y795093D01*
X506564Y800872D01*
Y802627D01*
X508343Y804407D01*
X509061Y805482D01*
X509314Y806750D01*
Y810557D01*
X509500Y811750D01*
X515668D01*
Y799500D01*
X515995Y797020D01*
X516952Y794709D01*
X518475Y792725D01*
X531418Y779781D01*
Y755500D01*
X528250D01*
Y719000D01*
X553750D01*
Y730190D01*
X599000D01*
X600827Y730430D01*
X600996Y730500D01*
X611750D01*
Y744000D01*
X600996D01*
X600827Y744070D01*
X599000Y744310D01*
X553750D01*
Y755500D01*
X550582D01*
Y783750D01*
X550256Y786230D01*
X549298Y788541D01*
X547775Y790526D01*
X534832Y803469D01*
Y811750D01*
X535000D01*
Y850750D01*
X531582D01*
Y863250D01*
X531255Y865730D01*
X530298Y868041D01*
X528775Y870025D01*
X528275Y870526D01*
X526291Y872048D01*
X523980Y873006D01*
X521500Y873332D01*
X519404Y873056D01*
X505605Y886855D01*
X503951Y887960D01*
X502000Y888348D01*
X437612D01*
X422848Y903112D01*
Y925500D01*
X422460Y927451D01*
X421355Y929105D01*
X413105Y937355D01*
X411451Y938460D01*
X409500Y938848D01*
D02*
G37*
G36*
X117900Y814950D02*
X98900D01*
Y795950D01*
X117900D01*
Y814950D01*
D02*
G37*
G36*
X83000Y815032D02*
X80520Y814706D01*
X78209Y813748D01*
X76224Y812225D01*
X74702Y810241D01*
X73745Y807930D01*
X73418Y805450D01*
X73745Y802970D01*
X74702Y800659D01*
X76224Y798675D01*
X78209Y797152D01*
X80520Y796195D01*
X83000Y795868D01*
X85480Y796195D01*
X87791Y797152D01*
X89775Y798675D01*
X91298Y800659D01*
X92255Y802970D01*
X92582Y805450D01*
X92255Y807930D01*
X91298Y810241D01*
X89775Y812225D01*
X87791Y813748D01*
X85480Y814706D01*
X83000Y815032D01*
D02*
G37*
G36*
X364540Y794790D02*
X359270D01*
Y788520D01*
X364540D01*
Y794790D01*
D02*
G37*
G36*
X356730D02*
X351460D01*
Y788520D01*
X356730D01*
Y794790D01*
D02*
G37*
G36*
X364540Y785980D02*
X359270D01*
Y779710D01*
X364540D01*
Y785980D01*
D02*
G37*
G36*
X356730D02*
X351460D01*
Y779710D01*
X356730D01*
Y785980D01*
D02*
G37*
G36*
X171650Y922850D02*
X152650D01*
Y903850D01*
X171650D01*
Y910036D01*
X187027D01*
X206936Y890127D01*
Y807651D01*
X206285Y807215D01*
X205069Y805396D01*
X204642Y803250D01*
X205069Y801104D01*
X206285Y799285D01*
X206936Y798849D01*
Y795439D01*
X202407Y790909D01*
X201689Y789834D01*
X201436Y788566D01*
Y784390D01*
X199520D01*
Y774050D01*
Y763710D01*
X202840D01*
Y764250D01*
X228300D01*
Y779164D01*
X243982Y794846D01*
X244700Y795921D01*
X244953Y797189D01*
Y797774D01*
X246465Y798785D01*
X247681Y800604D01*
X248108Y802750D01*
X247681Y804896D01*
X246465Y806715D01*
X244646Y807931D01*
X242500Y808358D01*
X240354Y807931D01*
X238535Y806715D01*
X237324Y804903D01*
X237289Y804896D01*
X236027Y804911D01*
X235931Y805396D01*
X234715Y807215D01*
X232896Y808431D01*
X230750Y808858D01*
X228604Y808431D01*
X226785Y807215D01*
X226180Y806311D01*
X224653D01*
X224215Y806965D01*
X222396Y808181D01*
X220250Y808608D01*
X218104Y808181D01*
X216285Y806965D01*
X215968Y806492D01*
X214699D01*
X214215Y807215D01*
X213564Y807651D01*
Y891500D01*
X213311Y892768D01*
X212593Y893843D01*
X190743Y915693D01*
X189668Y916411D01*
X188400Y916664D01*
X171650D01*
Y922850D01*
D02*
G37*
G36*
X326270Y769959D02*
Y761270D01*
X334959D01*
X334782Y762621D01*
X333770Y765063D01*
X332161Y767161D01*
X330063Y768770D01*
X327621Y769782D01*
X326270Y769959D01*
D02*
G37*
G36*
X323730D02*
X322379Y769782D01*
X319937Y768770D01*
X317839Y767161D01*
X316230Y765063D01*
X315219Y762621D01*
X315041Y761270D01*
X323730D01*
Y769959D01*
D02*
G37*
G36*
X251040Y765790D02*
X244770D01*
Y760520D01*
X251040D01*
Y765790D01*
D02*
G37*
G36*
X242230D02*
X235960D01*
Y760520D01*
X242230D01*
Y765790D01*
D02*
G37*
G36*
X350400Y769582D02*
X347920Y769256D01*
X345609Y768298D01*
X343625Y766776D01*
X342102Y764791D01*
X341145Y762480D01*
X340818Y760000D01*
X341145Y757520D01*
X342102Y755209D01*
X343625Y753225D01*
X345609Y751702D01*
X347920Y750744D01*
X350400Y750418D01*
X352880Y750744D01*
X355191Y751702D01*
X357175Y753225D01*
X358698Y755209D01*
X359655Y757520D01*
X359982Y760000D01*
X359655Y762480D01*
X358698Y764791D01*
X357175Y766776D01*
X355191Y768298D01*
X352880Y769256D01*
X350400Y769582D01*
D02*
G37*
G36*
X299600D02*
X297120Y769256D01*
X294809Y768298D01*
X292825Y766776D01*
X291302Y764791D01*
X290345Y762480D01*
X290018Y760000D01*
X290345Y757520D01*
X291302Y755209D01*
X292825Y753225D01*
X294809Y751702D01*
X297120Y750744D01*
X299600Y750418D01*
X302080Y750744D01*
X304391Y751702D01*
X306376Y753225D01*
X307898Y755209D01*
X308855Y757520D01*
X309182Y760000D01*
X308855Y762480D01*
X307898Y764791D01*
X306376Y766776D01*
X304391Y768298D01*
X302080Y769256D01*
X299600Y769582D01*
D02*
G37*
G36*
X334959Y758730D02*
X326270D01*
Y750041D01*
X327621Y750218D01*
X330063Y751230D01*
X332161Y752839D01*
X333770Y754937D01*
X334782Y757379D01*
X334959Y758730D01*
D02*
G37*
G36*
X323730D02*
X315041D01*
X315219Y757379D01*
X316230Y754937D01*
X317839Y752839D01*
X319937Y751230D01*
X322379Y750218D01*
X323730Y750041D01*
Y758730D01*
D02*
G37*
G36*
X514540Y751040D02*
X509270D01*
Y744770D01*
X514540D01*
Y751040D01*
D02*
G37*
G36*
X506730D02*
X501460D01*
Y744770D01*
X506730D01*
Y751040D01*
D02*
G37*
G36*
X102500Y749358D02*
X100354Y748931D01*
X98535Y747715D01*
X97319Y745896D01*
X96892Y743750D01*
X97319Y741604D01*
X98535Y739785D01*
X100354Y738569D01*
X102500Y738142D01*
X104646Y738569D01*
X106465Y739785D01*
X107681Y741604D01*
X108108Y743750D01*
X107681Y745896D01*
X106465Y747715D01*
X104646Y748931D01*
X102500Y749358D01*
D02*
G37*
G36*
X88750D02*
X86604Y748931D01*
X84785Y747715D01*
X83569Y745896D01*
X83142Y743750D01*
X83569Y741604D01*
X84785Y739785D01*
X86604Y738569D01*
X88750Y738142D01*
X90896Y738569D01*
X92715Y739785D01*
X93931Y741604D01*
X94358Y743750D01*
X93931Y745896D01*
X92715Y747715D01*
X90896Y748931D01*
X88750Y749358D01*
D02*
G37*
G36*
X74750D02*
X72604Y748931D01*
X70785Y747715D01*
X69569Y745896D01*
X69142Y743750D01*
X69569Y741604D01*
X70785Y739785D01*
X72604Y738569D01*
X74750Y738142D01*
X76896Y738569D01*
X78715Y739785D01*
X79931Y741604D01*
X80358Y743750D01*
X79931Y745896D01*
X78715Y747715D01*
X76896Y748931D01*
X74750Y749358D01*
D02*
G37*
G36*
X514540Y742230D02*
X509270D01*
Y735960D01*
X514540D01*
Y742230D01*
D02*
G37*
G36*
X506730D02*
X501460D01*
Y735960D01*
X506730D01*
Y742230D01*
D02*
G37*
G36*
X148980Y736040D02*
X144710D01*
Y732270D01*
X148980D01*
Y736040D01*
D02*
G37*
G36*
X406040Y729540D02*
X401770D01*
Y725770D01*
X406040D01*
Y729540D01*
D02*
G37*
G36*
X399230D02*
X394960D01*
Y725770D01*
X399230D01*
Y729540D01*
D02*
G37*
G36*
X326520Y734459D02*
Y725770D01*
X335210D01*
X335032Y727121D01*
X334020Y729563D01*
X332411Y731661D01*
X330313Y733270D01*
X327871Y734282D01*
X326520Y734459D01*
D02*
G37*
G36*
X323980Y734459D02*
X322629Y734282D01*
X320187Y733270D01*
X318089Y731661D01*
X316480Y729563D01*
X315469Y727121D01*
X315291Y725770D01*
X323980D01*
Y734459D01*
D02*
G37*
G36*
X612290Y721540D02*
X600270D01*
Y715520D01*
X612290D01*
Y721540D01*
D02*
G37*
G36*
X597730D02*
X585710D01*
Y715520D01*
X597730D01*
Y721540D01*
D02*
G37*
G36*
X350650Y734082D02*
X348170Y733755D01*
X345859Y732798D01*
X343875Y731275D01*
X342352Y729291D01*
X341395Y726980D01*
X341068Y724500D01*
X341395Y722020D01*
X342352Y719709D01*
X343875Y717725D01*
X345859Y716202D01*
X348170Y715245D01*
X350650Y714918D01*
X353130Y715245D01*
X355441Y716202D01*
X357425Y717725D01*
X358948Y719709D01*
X359906Y722020D01*
X360232Y724500D01*
X359906Y726980D01*
X358948Y729291D01*
X357425Y731275D01*
X355441Y732798D01*
X353130Y733755D01*
X350650Y734082D01*
D02*
G37*
G36*
X335209Y723230D02*
X326520D01*
Y714541D01*
X327871Y714718D01*
X330313Y715730D01*
X332411Y717339D01*
X334020Y719437D01*
X335032Y721879D01*
X335209Y723230D01*
D02*
G37*
G36*
X323980D02*
X315291D01*
X315469Y721879D01*
X316480Y719437D01*
X318089Y717339D01*
X320187Y715730D01*
X322629Y714718D01*
X323980Y714541D01*
Y723230D01*
D02*
G37*
G36*
X612290Y712980D02*
X600270D01*
Y706960D01*
X612290D01*
Y712980D01*
D02*
G37*
G36*
X597730D02*
X585710D01*
Y706960D01*
X597730D01*
Y712980D01*
D02*
G37*
G36*
X151750Y714358D02*
X149604Y713931D01*
X147785Y712715D01*
X146569Y710896D01*
X146142Y708750D01*
X146569Y706604D01*
X147785Y704785D01*
X149604Y703569D01*
X151750Y703142D01*
X153896Y703569D01*
X155715Y704785D01*
X156931Y706604D01*
X157358Y708750D01*
X156931Y710896D01*
X155715Y712715D01*
X153896Y713931D01*
X151750Y714358D01*
D02*
G37*
G36*
X364540Y704040D02*
X359270D01*
Y697770D01*
X364540D01*
Y704040D01*
D02*
G37*
G36*
X356730D02*
X351460D01*
Y697770D01*
X356730D01*
Y704040D01*
D02*
G37*
G36*
X115500Y703108D02*
X113354Y702681D01*
X111535Y701465D01*
X110319Y699646D01*
X109892Y697500D01*
X110319Y695354D01*
X111535Y693535D01*
X113354Y692319D01*
X115500Y691892D01*
X117646Y692319D01*
X119465Y693535D01*
X120681Y695354D01*
X121108Y697500D01*
X120681Y699646D01*
X119465Y701465D01*
X117646Y702681D01*
X115500Y703108D01*
D02*
G37*
G36*
X364540Y695230D02*
X359270D01*
Y688960D01*
X364540D01*
Y695230D01*
D02*
G37*
G36*
X356730D02*
X351460D01*
Y688960D01*
X356730D01*
Y695230D01*
D02*
G37*
G36*
X525000Y692108D02*
X522854Y691681D01*
X521035Y690465D01*
X519819Y688646D01*
X519392Y686500D01*
X519819Y684354D01*
X521035Y682535D01*
X522854Y681319D01*
X525000Y680892D01*
X527146Y681319D01*
X528965Y682535D01*
X530181Y684354D01*
X530608Y686500D01*
X530181Y688646D01*
X528965Y690465D01*
X527146Y691681D01*
X525000Y692108D01*
D02*
G37*
G36*
X155500D02*
X153354Y691681D01*
X151535Y690465D01*
X150319Y688646D01*
X149892Y686500D01*
X150319Y684354D01*
X151535Y682535D01*
X153354Y681319D01*
X155500Y680892D01*
X157646Y681319D01*
X159465Y682535D01*
X160681Y684354D01*
X161108Y686500D01*
X160681Y688646D01*
X159465Y690465D01*
X157646Y691681D01*
X155500Y692108D01*
D02*
G37*
G36*
X447765Y688123D02*
X445619Y687696D01*
X443800Y686481D01*
X442584Y684661D01*
X442158Y682515D01*
X442584Y680369D01*
X443800Y678550D01*
X445619Y677335D01*
X447765Y676908D01*
X449911Y677335D01*
X451731Y678550D01*
X452946Y680369D01*
X453373Y682515D01*
X452946Y684661D01*
X451731Y686481D01*
X449911Y687696D01*
X447765Y688123D01*
D02*
G37*
G36*
X587250Y640375D02*
X544227D01*
X540852Y639931D01*
X537477Y640375D01*
X444682D01*
X441307Y639931D01*
X437932Y640375D01*
X345136D01*
X341761Y639931D01*
X338386Y640375D01*
X288650D01*
X288632Y640373D01*
X288614Y640375D01*
X192450D01*
X190759Y640153D01*
X189068Y640375D01*
X146046D01*
X142670Y639931D01*
X139296Y640375D01*
X46500D01*
X43125Y639931D01*
X39750Y640375D01*
X36500D01*
X32715Y639877D01*
X29391Y638500D01*
X20250D01*
Y626933D01*
X9409Y616091D01*
X7084Y613063D01*
X5623Y609535D01*
X5125Y605750D01*
Y415000D01*
Y201750D01*
X5623Y197965D01*
X7084Y194438D01*
X9409Y191409D01*
X49625Y151192D01*
Y80250D01*
Y51645D01*
X50123Y47859D01*
X51584Y44332D01*
X53909Y41303D01*
X68553Y26658D01*
X71582Y24334D01*
X75109Y22873D01*
X78895Y22375D01*
X541355D01*
X545141Y22873D01*
X548668Y24334D01*
X551697Y26658D01*
X566342Y41303D01*
X568666Y44332D01*
X570127Y47859D01*
X570625Y51645D01*
Y78500D01*
X570127Y82285D01*
X568666Y85813D01*
X566342Y88841D01*
X566003Y89180D01*
Y89902D01*
X565602Y92944D01*
X564428Y95778D01*
X562560Y98212D01*
X560126Y100080D01*
X557292Y101254D01*
X554250Y101655D01*
X551208Y101254D01*
X548374Y100080D01*
X545940Y98212D01*
X544072Y95778D01*
X542898Y92944D01*
X542497Y89902D01*
Y88753D01*
X541584Y87563D01*
X540123Y84035D01*
X539625Y80250D01*
X540123Y76465D01*
X541375Y73443D01*
Y57703D01*
X535297Y51625D01*
X84953D01*
X78875Y57703D01*
Y80250D01*
Y157250D01*
X78377Y161035D01*
X76916Y164563D01*
X74591Y167591D01*
X34375Y207808D01*
Y403146D01*
X36336D01*
X36336Y381625D01*
X36336Y381625D01*
X36491Y380845D01*
X36933Y380183D01*
X39058Y378058D01*
X39720Y377616D01*
X40500Y377461D01*
X44135D01*
Y376706D01*
X44591Y374414D01*
X45889Y372470D01*
X47833Y371172D01*
X50125Y370716D01*
X57875D01*
X60167Y371172D01*
X62111Y372470D01*
X63409Y374414D01*
X63865Y376706D01*
Y377461D01*
X69375D01*
X70155Y377616D01*
X70817Y378058D01*
X71259Y378720D01*
X71414Y379500D01*
Y419250D01*
X71414Y419250D01*
X71259Y420030D01*
X70817Y420692D01*
X70817Y420692D01*
X69567Y421942D01*
X68905Y422384D01*
X68125Y422539D01*
X52783D01*
X51809Y423809D01*
X49302Y425732D01*
X46383Y426941D01*
X43250Y427354D01*
X34375D01*
Y599692D01*
X36986Y602303D01*
X38159Y601817D01*
Y589500D01*
X38159Y589500D01*
X38520Y586759D01*
X39578Y584205D01*
X41261Y582011D01*
X62397Y560875D01*
Y556396D01*
X62606Y554812D01*
Y547284D01*
X67615D01*
X67693Y547224D01*
X70247Y546166D01*
X72988Y545805D01*
X75729Y546166D01*
X78283Y547224D01*
X78361Y547284D01*
X109278D01*
Y561182D01*
X111915Y563819D01*
X112804Y563642D01*
X114950Y564069D01*
X116725Y565255D01*
X116989Y565204D01*
X117995Y564833D01*
Y560500D01*
X114500D01*
Y548500D01*
X128500D01*
Y560500D01*
X124112D01*
Y578578D01*
X124113Y578578D01*
X123880Y579749D01*
X123216Y580741D01*
X123216Y580741D01*
X122257Y581701D01*
X122134Y583146D01*
X122715Y583535D01*
X123931Y585354D01*
X124358Y587500D01*
X123931Y589646D01*
X122715Y591465D01*
X120896Y592681D01*
X118750Y593108D01*
X116604Y592681D01*
X114785Y591465D01*
X114346Y590809D01*
X110500D01*
Y592500D01*
X110500D01*
Y593500D01*
X110500D01*
Y602500D01*
X109069D01*
Y611125D01*
X137705D01*
Y589500D01*
X137705Y589500D01*
X138066Y586759D01*
X139124Y584205D01*
X140807Y582011D01*
X158621Y564198D01*
Y556396D01*
X158829Y554812D01*
Y547284D01*
X163838D01*
X163916Y547224D01*
X166470Y546166D01*
X169211Y545805D01*
X171952Y546166D01*
X174506Y547224D01*
X174584Y547284D01*
X205501D01*
Y561182D01*
X208138Y563819D01*
X209027Y563642D01*
X211173Y564069D01*
X212948Y565255D01*
X213212Y565204D01*
X214218Y564833D01*
Y560500D01*
X210850D01*
Y548500D01*
X224850D01*
Y560500D01*
X220336D01*
Y578578D01*
X220336Y578578D01*
X220103Y579749D01*
X219440Y580741D01*
X219440Y580741D01*
X218471Y581710D01*
X218343Y583152D01*
X218915Y583535D01*
X220131Y585354D01*
X220558Y587500D01*
X220131Y589646D01*
X218915Y591465D01*
X217096Y592681D01*
X214950Y593108D01*
X212804Y592681D01*
X210985Y591465D01*
X210546Y590809D01*
X206700D01*
Y592500D01*
X206700D01*
Y593500D01*
X206700D01*
Y602500D01*
X205269D01*
Y611125D01*
X229201D01*
Y599459D01*
X229201Y599458D01*
X229562Y596717D01*
X230620Y594163D01*
X232303Y591970D01*
X254844Y569429D01*
Y556396D01*
X255052Y554812D01*
Y547284D01*
X260061D01*
X260139Y547224D01*
X262693Y546166D01*
X265434Y545805D01*
X268175Y546166D01*
X270730Y547224D01*
X270807Y547284D01*
X301724D01*
Y561182D01*
X304361Y563819D01*
X305250Y563642D01*
X307396Y564069D01*
X309171Y565255D01*
X309435Y565204D01*
X310441Y564833D01*
Y560500D01*
X307200D01*
Y548500D01*
X321200D01*
Y560500D01*
X316559D01*
Y578578D01*
X316559Y578578D01*
X316326Y579749D01*
X315663Y580741D01*
X315663Y580741D01*
X314685Y581720D01*
X314551Y583158D01*
X315115Y583535D01*
X316331Y585354D01*
X316758Y587500D01*
X316331Y589646D01*
X315115Y591465D01*
X313296Y592681D01*
X311150Y593108D01*
X309004Y592681D01*
X307185Y591465D01*
X306746Y590809D01*
X302900D01*
Y592500D01*
X302900D01*
Y593500D01*
X302900D01*
Y602500D01*
X301469D01*
Y611125D01*
X336796D01*
Y589500D01*
X336796Y589500D01*
X337157Y586759D01*
X338215Y584205D01*
X339898Y582011D01*
X351067Y570842D01*
Y556396D01*
X351275Y554812D01*
Y547284D01*
X356284D01*
X356362Y547224D01*
X358917Y546166D01*
X361657Y545805D01*
X364398Y546166D01*
X366953Y547224D01*
X367031Y547284D01*
X397948D01*
Y561182D01*
X400584Y563819D01*
X401473Y563642D01*
X403619Y564069D01*
X405394Y565255D01*
X405658Y565204D01*
X406664Y564833D01*
Y560500D01*
X403550D01*
Y548500D01*
X417550D01*
Y560500D01*
X412782D01*
Y578578D01*
X412782Y578578D01*
X412549Y579749D01*
X411886Y580741D01*
X411886Y580741D01*
X410899Y581729D01*
X410760Y583164D01*
X411315Y583535D01*
X412531Y585354D01*
X412958Y587500D01*
X412531Y589646D01*
X411315Y591465D01*
X409496Y592681D01*
X407350Y593108D01*
X405204Y592681D01*
X403385Y591465D01*
X402946Y590809D01*
X399100D01*
Y592500D01*
X399100D01*
Y593500D01*
X399100D01*
Y602500D01*
X397668D01*
Y611125D01*
X436341D01*
Y589500D01*
X436341Y589500D01*
X436702Y586759D01*
X437760Y584205D01*
X439443Y582011D01*
X447290Y574164D01*
Y556396D01*
X447499Y554812D01*
Y547284D01*
X452508D01*
X452585Y547224D01*
X455140Y546166D01*
X457881Y545805D01*
X460622Y546166D01*
X463176Y547224D01*
X463254Y547284D01*
X494171D01*
Y561182D01*
X496808Y563819D01*
X497696Y563642D01*
X499842Y564069D01*
X501618Y565255D01*
X501881Y565204D01*
X502888Y564833D01*
Y560500D01*
X499900D01*
Y548500D01*
X513900D01*
Y560500D01*
X509005D01*
Y578578D01*
X509005Y578578D01*
X508772Y579749D01*
X508109Y580741D01*
X508109Y580741D01*
X507112Y581738D01*
X506969Y583170D01*
X507515Y583535D01*
X508731Y585354D01*
X509158Y587500D01*
X508731Y589646D01*
X507515Y591465D01*
X505696Y592681D01*
X503550Y593108D01*
X501404Y592681D01*
X499585Y591465D01*
X499146Y590809D01*
X495300D01*
Y592500D01*
X495300D01*
Y593500D01*
X495300D01*
Y602500D01*
X493868D01*
Y611125D01*
X535887D01*
Y589500D01*
X535887Y589500D01*
X536247Y586759D01*
X537305Y584205D01*
X538989Y582011D01*
X543513Y577487D01*
Y557646D01*
X543722Y556062D01*
Y548534D01*
X548731D01*
X548809Y548474D01*
X551363Y547416D01*
X554104Y547055D01*
X556845Y547416D01*
X559399Y548474D01*
X559477Y548534D01*
X590394D01*
Y562432D01*
X593031Y565069D01*
X593919Y564892D01*
X596065Y565319D01*
X597841Y566505D01*
X598105Y566454D01*
X599111Y566084D01*
Y560500D01*
X596250D01*
Y548500D01*
X610250D01*
Y560500D01*
X605228D01*
Y579828D01*
X605228Y579828D01*
X604995Y580999D01*
X604332Y581991D01*
X604332Y581991D01*
X604076Y582248D01*
X603715Y583535D01*
X604019Y583990D01*
X604931Y585354D01*
X605358Y587500D01*
X604931Y589646D01*
X603715Y591465D01*
X601896Y592681D01*
X599750Y593108D01*
X597604Y592681D01*
X595785Y591465D01*
X595346Y590809D01*
X591500D01*
Y592500D01*
X591500D01*
Y593500D01*
X591500D01*
Y602500D01*
X590069D01*
Y611496D01*
X591035Y611623D01*
X594359Y613000D01*
X606750D01*
Y638500D01*
X594359D01*
X591035Y639877D01*
X587250Y640375D01*
D02*
G37*
G36*
X513500Y606608D02*
X511354Y606181D01*
X509535Y604965D01*
X508319Y603146D01*
X507892Y601000D01*
X508319Y598854D01*
X509535Y597035D01*
X511354Y595819D01*
X513500Y595392D01*
X515646Y595819D01*
X517465Y597035D01*
X518681Y598854D01*
X519108Y601000D01*
X518681Y603146D01*
X517465Y604965D01*
X515646Y606181D01*
X513500Y606608D01*
D02*
G37*
G36*
X514440Y545040D02*
X508170D01*
Y539770D01*
X514440D01*
Y545040D01*
D02*
G37*
G36*
X129040D02*
X122770D01*
Y539770D01*
X129040D01*
Y545040D01*
D02*
G37*
G36*
X505630D02*
X499360D01*
Y539770D01*
X505630D01*
Y545040D01*
D02*
G37*
G36*
X120230D02*
X113960D01*
Y539770D01*
X120230D01*
Y545040D01*
D02*
G37*
G36*
X610790Y545040D02*
X604520D01*
Y539770D01*
X610790D01*
Y545040D01*
D02*
G37*
G36*
X601980D02*
X595710D01*
Y539770D01*
X601980D01*
Y545040D01*
D02*
G37*
G36*
X321740Y545040D02*
X315470D01*
Y539770D01*
X321740D01*
Y545040D01*
D02*
G37*
G36*
X312930D02*
X306660D01*
Y539770D01*
X312930D01*
Y545040D01*
D02*
G37*
G36*
X418090Y545040D02*
X411820D01*
Y539770D01*
X418090D01*
Y545040D01*
D02*
G37*
G36*
X409280D02*
X403010D01*
Y539770D01*
X409280D01*
Y545040D01*
D02*
G37*
G36*
X225390D02*
X219120D01*
Y539770D01*
X225390D01*
Y545040D01*
D02*
G37*
G36*
X216580D02*
X210310D01*
Y539770D01*
X216580D01*
Y545040D01*
D02*
G37*
G36*
X514440Y537230D02*
X508170D01*
Y531960D01*
X514440D01*
Y537230D01*
D02*
G37*
G36*
X505630D02*
X499360D01*
Y531960D01*
X505630D01*
Y537230D01*
D02*
G37*
G36*
X321740Y537230D02*
X315470D01*
Y531960D01*
X321740D01*
Y537230D01*
D02*
G37*
G36*
X312930D02*
X306660D01*
Y531960D01*
X312930D01*
Y537230D01*
D02*
G37*
G36*
X129040Y537230D02*
X122770D01*
Y531960D01*
X129040D01*
Y537230D01*
D02*
G37*
G36*
X120230D02*
X113960D01*
Y531960D01*
X120230D01*
Y537230D01*
D02*
G37*
G36*
X610790Y537230D02*
X604520D01*
Y531960D01*
X610790D01*
Y537230D01*
D02*
G37*
G36*
X601980D02*
X595710D01*
Y531960D01*
X601980D01*
Y537230D01*
D02*
G37*
G36*
X418090Y537230D02*
X411820D01*
Y531960D01*
X418090D01*
Y537230D01*
D02*
G37*
G36*
X409280D02*
X403010D01*
Y531960D01*
X409280D01*
Y537230D01*
D02*
G37*
G36*
X225390Y537230D02*
X219120D01*
Y531960D01*
X225390D01*
Y537230D01*
D02*
G37*
G36*
X216580D02*
X210310D01*
Y531960D01*
X216580D01*
Y537230D01*
D02*
G37*
G36*
X590934Y510402D02*
X587886D01*
Y502020D01*
X590934D01*
Y510402D01*
D02*
G37*
G36*
X494711Y509152D02*
X491663D01*
Y500770D01*
X494711D01*
Y509152D01*
D02*
G37*
G36*
X302264D02*
X299216D01*
Y500770D01*
X302264D01*
Y509152D01*
D02*
G37*
G36*
X109818D02*
X106770D01*
Y500770D01*
X109818D01*
Y509152D01*
D02*
G37*
G36*
X398488D02*
X395439D01*
Y500770D01*
X398488D01*
Y509152D01*
D02*
G37*
G36*
X206041D02*
X202993D01*
Y500770D01*
X206041D01*
Y509152D01*
D02*
G37*
G36*
X585346Y510402D02*
X582298D01*
Y509862D01*
X543722D01*
Y506674D01*
X542507Y505742D01*
X541385Y504280D01*
X540680Y502577D01*
X540439Y500750D01*
X540680Y498923D01*
X541385Y497220D01*
X542507Y495758D01*
X543661Y494872D01*
Y487028D01*
X543902Y485201D01*
X544607Y483498D01*
X545729Y482036D01*
X572258Y455508D01*
X573720Y454385D01*
X574835Y453924D01*
Y453875D01*
X575291Y451583D01*
X576589Y449639D01*
X578533Y448341D01*
X580825Y447885D01*
X585888D01*
X597659Y436113D01*
Y284750D01*
X592750D01*
Y244750D01*
X623750D01*
Y284750D01*
X618840D01*
Y440500D01*
X618480Y443241D01*
X617422Y445795D01*
X615739Y447989D01*
X615738Y447989D01*
X611002Y452726D01*
X611025Y452861D01*
X611412Y454112D01*
X612541Y454866D01*
X617634Y459959D01*
X618518Y461282D01*
X618810Y462750D01*
X621750D01*
Y474750D01*
X607750D01*
Y462750D01*
X606909Y461828D01*
X602325D01*
X601909Y463917D01*
X600611Y465861D01*
X598667Y467159D01*
X596375Y467615D01*
X594621D01*
X593741Y467980D01*
X591000Y468341D01*
X588259Y467980D01*
X587379Y467615D01*
X580825D01*
X580550Y467560D01*
X580174D01*
X578857Y468878D01*
X579383Y470148D01*
X595073D01*
X595073Y470148D01*
X596243Y470381D01*
X597236Y471044D01*
X606577Y480385D01*
X607750Y479899D01*
Y478750D01*
X621750D01*
Y490750D01*
X607750D01*
Y489415D01*
X607712D01*
X606347Y489143D01*
X605189Y488370D01*
X604415Y487212D01*
X604332Y486791D01*
X593806Y476266D01*
X579340D01*
X576240Y479366D01*
X576608Y480581D01*
X576815Y480622D01*
X578634Y481838D01*
X579602Y483286D01*
X580839Y483381D01*
X581039Y483325D01*
X581901Y482035D01*
X583720Y480819D01*
X585866Y480392D01*
X588012Y480819D01*
X589831Y482035D01*
X591047Y483854D01*
X591474Y486000D01*
X591047Y488146D01*
X589923Y489828D01*
X590248Y491098D01*
X590934D01*
Y499480D01*
X586616D01*
Y500750D01*
X585346D01*
Y510402D01*
D02*
G37*
G36*
X456375Y468166D02*
X449870D01*
Y459020D01*
X462916D01*
Y461625D01*
X462418Y464128D01*
X461000Y466250D01*
X458878Y467668D01*
X456375Y468166D01*
D02*
G37*
G36*
X261775D02*
X255270D01*
Y459020D01*
X268316D01*
Y461625D01*
X267818Y464128D01*
X266400Y466250D01*
X264278Y467668D01*
X261775Y468166D01*
D02*
G37*
G36*
X359075D02*
X352570D01*
Y459020D01*
X365616D01*
Y461625D01*
X365118Y464128D01*
X363700Y466250D01*
X361578Y467668D01*
X359075Y468166D01*
D02*
G37*
G36*
X553675D02*
X547170D01*
Y459020D01*
X560216D01*
Y461625D01*
X559718Y464128D01*
X558300Y466250D01*
X556178Y467668D01*
X553675Y468166D01*
D02*
G37*
G36*
X544630D02*
X538125D01*
X535622Y467668D01*
X533500Y466250D01*
X532082Y464128D01*
X531584Y461625D01*
Y459020D01*
X544630D01*
Y468166D01*
D02*
G37*
G36*
X350030D02*
X343525D01*
X341022Y467668D01*
X338900Y466250D01*
X337482Y464128D01*
X336984Y461625D01*
Y459020D01*
X350030D01*
Y468166D01*
D02*
G37*
G36*
X447330D02*
X440825D01*
X438322Y467668D01*
X436200Y466250D01*
X434782Y464128D01*
X434284Y461625D01*
Y459020D01*
X447330D01*
Y468166D01*
D02*
G37*
G36*
X252730D02*
X246225D01*
X243722Y467668D01*
X241600Y466250D01*
X240182Y464128D01*
X239684Y461625D01*
Y459020D01*
X252730D01*
Y468166D01*
D02*
G37*
G36*
X164475Y466666D02*
X157970D01*
Y457520D01*
X171016D01*
Y460125D01*
X170518Y462628D01*
X169100Y464750D01*
X166978Y466168D01*
X164475Y466666D01*
D02*
G37*
G36*
X155430D02*
X148925D01*
X146422Y466168D01*
X144300Y464750D01*
X142882Y462628D01*
X142384Y460125D01*
Y457520D01*
X155430D01*
Y466666D01*
D02*
G37*
G36*
X67175Y465916D02*
X60670D01*
Y456770D01*
X73716D01*
Y459375D01*
X73218Y461878D01*
X71800Y464000D01*
X69678Y465418D01*
X67175Y465916D01*
D02*
G37*
G36*
X58130D02*
X51625D01*
X49122Y465418D01*
X47000Y464000D01*
X45582Y461878D01*
X45084Y459375D01*
Y456770D01*
X58130D01*
Y465916D01*
D02*
G37*
G36*
X200453Y509152D02*
X197405D01*
Y508612D01*
X158829D01*
Y505424D01*
X157615Y504492D01*
X156493Y503030D01*
X155787Y501327D01*
X155547Y499500D01*
X155787Y497673D01*
X156493Y495970D01*
X157615Y494508D01*
X158769Y493622D01*
Y485921D01*
X159009Y484094D01*
X159715Y482391D01*
X160837Y480928D01*
X183643Y458122D01*
X183396Y456250D01*
X183809Y453117D01*
X185018Y450198D01*
X186942Y447691D01*
X193646Y440987D01*
Y284750D01*
X190250D01*
Y244750D01*
X221250D01*
Y284750D01*
X217854D01*
Y446000D01*
X217441Y449133D01*
X216232Y452052D01*
X214308Y454558D01*
X213373Y455494D01*
X213667Y456764D01*
X216242D01*
X216243Y456764D01*
X217803Y457075D01*
X219126Y457959D01*
X223918Y462750D01*
X232150D01*
Y474750D01*
X219095D01*
X218569Y476020D01*
X221299Y478750D01*
X232150D01*
Y490750D01*
X218150D01*
Y484253D01*
X208913Y475016D01*
X194447D01*
X191347Y478116D01*
X191716Y479331D01*
X191922Y479372D01*
X193741Y480588D01*
X194709Y482036D01*
X195946Y482131D01*
X196146Y482075D01*
X197008Y480785D01*
X198827Y479569D01*
X200973Y479142D01*
X203119Y479569D01*
X204939Y480785D01*
X206154Y482604D01*
X206581Y484750D01*
X206154Y486896D01*
X205030Y488578D01*
X205355Y489848D01*
X206041D01*
Y498230D01*
X201723D01*
Y499500D01*
X200453D01*
Y509152D01*
D02*
G37*
G36*
X560216Y456480D02*
X547170D01*
Y447334D01*
X553675D01*
X556178Y447832D01*
X558300Y449250D01*
X559718Y451372D01*
X560216Y453875D01*
Y456480D01*
D02*
G37*
G36*
X544630D02*
X531584D01*
Y453875D01*
X532082Y451372D01*
X533500Y449250D01*
X535622Y447832D01*
X538125Y447334D01*
X544630D01*
Y456480D01*
D02*
G37*
G36*
X462916D02*
X449870D01*
Y447334D01*
X456375D01*
X458878Y447832D01*
X461000Y449250D01*
X462418Y451372D01*
X462916Y453875D01*
Y456480D01*
D02*
G37*
G36*
X447330D02*
X434284D01*
Y453875D01*
X434782Y451372D01*
X436200Y449250D01*
X438322Y447832D01*
X440825Y447334D01*
X447330D01*
Y456480D01*
D02*
G37*
G36*
X365616D02*
X352570D01*
Y447334D01*
X359075D01*
X361578Y447832D01*
X363700Y449250D01*
X365118Y451372D01*
X365616Y453875D01*
Y456480D01*
D02*
G37*
G36*
X350030D02*
X336984D01*
Y453875D01*
X337482Y451372D01*
X338900Y449250D01*
X341022Y447832D01*
X343525Y447334D01*
X350030D01*
Y456480D01*
D02*
G37*
G36*
X268316D02*
X255270D01*
Y447334D01*
X261775D01*
X264278Y447832D01*
X266400Y449250D01*
X267818Y451372D01*
X268316Y453875D01*
Y456480D01*
D02*
G37*
G36*
X252730D02*
X239684D01*
Y453875D01*
X240182Y451372D01*
X241600Y449250D01*
X243722Y447832D01*
X246225Y447334D01*
X252730D01*
Y456480D01*
D02*
G37*
G36*
X229450Y457358D02*
X227304Y456931D01*
X225485Y455715D01*
X224269Y453896D01*
X223842Y451750D01*
X224269Y449604D01*
X225485Y447785D01*
X227304Y446569D01*
X229450Y446142D01*
X231596Y446569D01*
X233415Y447785D01*
X234631Y449604D01*
X235058Y451750D01*
X234631Y453896D01*
X233415Y455715D01*
X231596Y456931D01*
X229450Y457358D01*
D02*
G37*
G36*
X104230Y509152D02*
X101182D01*
Y508612D01*
X62606D01*
Y505424D01*
X61392Y504492D01*
X60269Y503030D01*
X59564Y501327D01*
X59324Y499500D01*
X59564Y497673D01*
X60269Y495970D01*
X61392Y494508D01*
X62546Y493622D01*
Y487994D01*
X62786Y486167D01*
X63492Y484464D01*
X64613Y483002D01*
X87233Y460382D01*
X86509Y458633D01*
X86096Y455500D01*
X86509Y452367D01*
X87718Y449448D01*
X89642Y446941D01*
X92148Y445018D01*
X95067Y443809D01*
X98200Y443396D01*
X100487D01*
X159250Y384633D01*
Y361750D01*
X190250D01*
Y401750D01*
X176367D01*
X133026Y445091D01*
X133652Y446261D01*
X134250Y446142D01*
X136396Y446569D01*
X138215Y447785D01*
X139431Y449604D01*
X139858Y451750D01*
X139431Y453896D01*
X138215Y455715D01*
X136396Y456931D01*
X134250Y457358D01*
X132104Y456931D01*
X130285Y455715D01*
X129069Y453896D01*
X128642Y451750D01*
X128761Y451152D01*
X127591Y450526D01*
X120970Y457147D01*
X120976Y457209D01*
X126518Y462750D01*
X134750D01*
Y474750D01*
X122735D01*
X122249Y475923D01*
X125076Y478750D01*
X134750D01*
Y490750D01*
X120750D01*
Y483076D01*
X112690Y475016D01*
X98224D01*
X95124Y478116D01*
X95492Y479331D01*
X95699Y479372D01*
X97518Y480588D01*
X98486Y482036D01*
X99723Y482131D01*
X99923Y482075D01*
X100785Y480785D01*
X102604Y479569D01*
X104750Y479142D01*
X106896Y479569D01*
X108715Y480785D01*
X109931Y482604D01*
X110358Y484750D01*
X109931Y486896D01*
X108807Y488578D01*
X109132Y489848D01*
X109818D01*
Y498230D01*
X105500D01*
Y499500D01*
X104230D01*
Y509152D01*
D02*
G37*
G36*
X171016Y454980D02*
X157970D01*
Y445834D01*
X164475D01*
X166978Y446332D01*
X169100Y447750D01*
X170518Y449872D01*
X171016Y452375D01*
Y454980D01*
D02*
G37*
G36*
X155430D02*
X142384D01*
Y452375D01*
X142882Y449872D01*
X144300Y447750D01*
X146422Y446332D01*
X148925Y445834D01*
X155430D01*
Y454980D01*
D02*
G37*
G36*
X392900Y509152D02*
X389851D01*
Y508612D01*
X351275D01*
Y505424D01*
X350061Y504492D01*
X348939Y503030D01*
X348234Y501327D01*
X347993Y499500D01*
X348234Y497673D01*
X348939Y495970D01*
X350061Y494508D01*
X351215Y493622D01*
Y485725D01*
X351456Y483897D01*
X352161Y482195D01*
X353283Y480732D01*
X378259Y455756D01*
X378409Y454617D01*
X379618Y451698D01*
X381541Y449192D01*
X404396Y426337D01*
Y306263D01*
X401941Y303808D01*
X400018Y301302D01*
X398809Y298383D01*
X398396Y295250D01*
Y284750D01*
X391500D01*
Y244750D01*
X422500D01*
Y267463D01*
X422603Y268250D01*
Y290236D01*
X425059Y292691D01*
X426982Y295198D01*
X428191Y298117D01*
X428604Y301250D01*
Y400310D01*
X429005Y400454D01*
X429874Y400521D01*
X430183Y400058D01*
X443635Y386606D01*
Y376706D01*
X444091Y374414D01*
X445389Y372470D01*
X447333Y371172D01*
X449625Y370716D01*
X457375D01*
X459667Y371172D01*
X461611Y372470D01*
X461771Y372711D01*
X462625D01*
X463405Y372866D01*
X464067Y373308D01*
X464509Y373970D01*
X464664Y374750D01*
X464664Y418000D01*
X464664Y418000D01*
X464509Y418780D01*
X464067Y419442D01*
X464067Y419442D01*
X462817Y420692D01*
X462155Y421134D01*
X461375Y421289D01*
X431625D01*
X430845Y421134D01*
X430183Y420692D01*
X429874Y420229D01*
X429005Y420296D01*
X428604Y420440D01*
Y431350D01*
X428191Y434483D01*
X426982Y437402D01*
X425059Y439908D01*
X420963Y444004D01*
X421589Y445174D01*
X421750Y445142D01*
X423896Y445569D01*
X425715Y446785D01*
X426931Y448604D01*
X427358Y450750D01*
X426931Y452896D01*
X425715Y454715D01*
X423896Y455931D01*
X421750Y456358D01*
X419604Y455931D01*
X417785Y454715D01*
X416569Y452896D01*
X416142Y450750D01*
X416174Y450589D01*
X415004Y449963D01*
X412518Y452449D01*
X412936Y453827D01*
X413718Y453982D01*
X415041Y454866D01*
X422634Y462459D01*
X422634Y462459D01*
X422828Y462750D01*
X426950D01*
Y474750D01*
X412950D01*
Y464311D01*
X410468Y461828D01*
X407725D01*
X407309Y463917D01*
X406011Y465861D01*
X404067Y467159D01*
X401775Y467615D01*
X398275D01*
X398266Y467628D01*
X398919Y468898D01*
X402626D01*
X402626Y468898D01*
X403797Y469131D01*
X404789Y469794D01*
X413745Y478750D01*
X426950D01*
Y490750D01*
X412950D01*
Y486606D01*
X401359Y475016D01*
X386893D01*
X383793Y478116D01*
X384162Y479331D01*
X384369Y479372D01*
X386188Y480588D01*
X387155Y482036D01*
X388392Y482131D01*
X388592Y482075D01*
X389454Y480785D01*
X391273Y479569D01*
X393419Y479142D01*
X395565Y479569D01*
X397385Y480785D01*
X398600Y482604D01*
X399027Y484750D01*
X398600Y486896D01*
X397477Y488578D01*
X397802Y489848D01*
X398488D01*
Y498230D01*
X394170D01*
Y499500D01*
X392900D01*
Y509152D01*
D02*
G37*
G36*
X73716Y454230D02*
X60670D01*
Y445084D01*
X67175D01*
X69678Y445582D01*
X71800Y447000D01*
X73218Y449122D01*
X73716Y451625D01*
Y454230D01*
D02*
G37*
G36*
X58130D02*
X45084D01*
Y451625D01*
X45582Y449122D01*
X47000Y447000D01*
X49122Y445582D01*
X51625Y445084D01*
X58130D01*
Y454230D01*
D02*
G37*
G36*
X296676Y509152D02*
X293628D01*
Y508612D01*
X255052D01*
Y505424D01*
X253838Y504492D01*
X252716Y503030D01*
X252010Y501327D01*
X251770Y499500D01*
X252010Y497673D01*
X252716Y495970D01*
X253838Y494508D01*
X254992Y493622D01*
Y484198D01*
X255233Y482370D01*
X255938Y480668D01*
X257060Y479205D01*
X280758Y455508D01*
X282220Y454385D01*
X282935Y454089D01*
Y453875D01*
X283391Y451583D01*
X284689Y449639D01*
X286246Y448599D01*
Y439900D01*
X286659Y436767D01*
X287868Y433848D01*
X289792Y431342D01*
X303442Y417691D01*
X305948Y415768D01*
X308867Y414559D01*
X312000Y414146D01*
X328987D01*
X358500Y384633D01*
Y361750D01*
X389500D01*
Y401750D01*
X375617D01*
X342559Y434809D01*
X340052Y436732D01*
X337133Y437941D01*
X334000Y438354D01*
X317013D01*
X310453Y444913D01*
Y453172D01*
X320207D01*
X320207Y453172D01*
X320881Y453306D01*
X321379Y452475D01*
X321477Y452130D01*
X320319Y450396D01*
X319892Y448250D01*
X320319Y446104D01*
X321535Y444285D01*
X323354Y443069D01*
X325500Y442642D01*
X327646Y443069D01*
X329465Y444285D01*
X330681Y446104D01*
X331108Y448250D01*
X330681Y450396D01*
X329465Y452215D01*
X327646Y453431D01*
X325500Y453858D01*
X324100Y453579D01*
X323474Y454750D01*
X325434Y456709D01*
X325434Y456709D01*
X326318Y458032D01*
X326628Y459593D01*
Y462750D01*
X329550D01*
Y474750D01*
X315550D01*
Y462750D01*
X318472D01*
Y461328D01*
X310465D01*
Y461625D01*
X310009Y463917D01*
X308711Y465861D01*
X306767Y467159D01*
X304475Y467615D01*
X304461Y467628D01*
X304958Y468898D01*
X306403D01*
X306403Y468898D01*
X307574Y469131D01*
X308566Y469794D01*
X317522Y478750D01*
X329550D01*
Y490750D01*
X315550D01*
Y485429D01*
X305136Y475016D01*
X290670D01*
X287570Y478116D01*
X287939Y479331D01*
X288145Y479372D01*
X289965Y480588D01*
X290932Y482036D01*
X292169Y482131D01*
X292369Y482075D01*
X293231Y480785D01*
X295050Y479569D01*
X297196Y479142D01*
X299342Y479569D01*
X301162Y480785D01*
X302377Y482604D01*
X302804Y484750D01*
X302377Y486896D01*
X301253Y488578D01*
X301578Y489848D01*
X302264D01*
Y498230D01*
X297946D01*
Y499500D01*
X296676D01*
Y509152D01*
D02*
G37*
G36*
X558500Y443608D02*
X556354Y443181D01*
X554535Y441965D01*
X553319Y440146D01*
X552892Y438000D01*
X553319Y435854D01*
X554535Y434035D01*
X556354Y432819D01*
X558500Y432392D01*
X560646Y432819D01*
X562465Y434035D01*
X563681Y435854D01*
X564108Y438000D01*
X563681Y440146D01*
X562465Y441965D01*
X560646Y443181D01*
X558500Y443608D01*
D02*
G37*
G36*
X365500Y443358D02*
X363354Y442931D01*
X361535Y441715D01*
X360319Y439896D01*
X359892Y437750D01*
X360319Y435604D01*
X361535Y433785D01*
X363354Y432569D01*
X365500Y432142D01*
X367646Y432569D01*
X369465Y433785D01*
X370681Y435604D01*
X371108Y437750D01*
X370681Y439896D01*
X369465Y441715D01*
X367646Y442931D01*
X365500Y443358D01*
D02*
G37*
G36*
X578750Y442608D02*
X576604Y442181D01*
X574785Y440965D01*
X573569Y439146D01*
X573142Y437000D01*
X573569Y434854D01*
X574785Y433035D01*
X576604Y431819D01*
X578750Y431392D01*
X580896Y431819D01*
X582715Y433035D01*
X583931Y434854D01*
X584358Y437000D01*
X583931Y439146D01*
X582715Y440965D01*
X580896Y442181D01*
X578750Y442608D01*
D02*
G37*
G36*
X272500Y438108D02*
X270354Y437681D01*
X268535Y436465D01*
X267319Y434646D01*
X266892Y432500D01*
X267319Y430354D01*
X268535Y428535D01*
X270354Y427319D01*
X272500Y426892D01*
X274646Y427319D01*
X276465Y428535D01*
X277681Y430354D01*
X278108Y432500D01*
X277681Y434646D01*
X276465Y436465D01*
X274646Y437681D01*
X272500Y438108D01*
D02*
G37*
G36*
X457500Y437108D02*
X455354Y436681D01*
X453535Y435465D01*
X452319Y433646D01*
X451892Y431500D01*
X452319Y429354D01*
X453535Y427535D01*
X455354Y426319D01*
X457500Y425892D01*
X459646Y426319D01*
X461465Y427535D01*
X462681Y429354D01*
X463108Y431500D01*
X462681Y433646D01*
X461465Y435465D01*
X459646Y436681D01*
X457500Y437108D01*
D02*
G37*
G36*
X92000Y436108D02*
X89854Y435681D01*
X88035Y434465D01*
X86819Y432646D01*
X86392Y430500D01*
X86819Y428354D01*
X88035Y426535D01*
X89854Y425319D01*
X92000Y424892D01*
X94146Y425319D01*
X95965Y426535D01*
X97181Y428354D01*
X97608Y430500D01*
X97181Y432646D01*
X95965Y434465D01*
X94146Y435681D01*
X92000Y436108D01*
D02*
G37*
G36*
X176500Y431358D02*
X174354Y430931D01*
X172535Y429715D01*
X171319Y427896D01*
X170892Y425750D01*
X171319Y423604D01*
X172535Y421785D01*
X174354Y420569D01*
X176500Y420142D01*
X178646Y420569D01*
X180465Y421785D01*
X181681Y423604D01*
X182108Y425750D01*
X181681Y427896D01*
X180465Y429715D01*
X178646Y430931D01*
X176500Y431358D01*
D02*
G37*
G36*
X251875Y419039D02*
X222125D01*
X221345Y418884D01*
X220683Y418442D01*
X220241Y417780D01*
X220086Y417000D01*
Y399250D01*
X220086Y399250D01*
X220241Y398470D01*
X220683Y397808D01*
X241933Y376558D01*
X242595Y376116D01*
X243375Y375961D01*
X243533D01*
X243841Y374414D01*
X245139Y372470D01*
X247083Y371172D01*
X249375Y370716D01*
X257125D01*
X259417Y371172D01*
X261361Y372470D01*
X262659Y374414D01*
X263115Y376706D01*
Y392256D01*
X262789Y393894D01*
Y408125D01*
X262634Y408905D01*
X262192Y409567D01*
X262192Y409567D01*
X253317Y418442D01*
X252655Y418884D01*
X251875Y419039D01*
D02*
G37*
G36*
X489123Y509152D02*
X486075D01*
Y508612D01*
X447499D01*
Y505424D01*
X446284Y504492D01*
X445162Y503030D01*
X444457Y501327D01*
X444216Y499500D01*
X444457Y497673D01*
X445162Y495970D01*
X446284Y494508D01*
X447438Y493622D01*
Y487001D01*
X447679Y485174D01*
X448384Y483471D01*
X449506Y482009D01*
X476008Y455508D01*
X477470Y454385D01*
X477535Y454359D01*
Y453875D01*
X477991Y451583D01*
X479196Y449779D01*
Y443466D01*
X479609Y440333D01*
X480818Y437414D01*
X482741Y434907D01*
X494457Y423191D01*
X496964Y421268D01*
X499883Y420059D01*
X503016Y419646D01*
X522737D01*
X557750Y384633D01*
Y361750D01*
X588750D01*
Y401750D01*
X574867D01*
X536309Y440308D01*
X533802Y442232D01*
X530883Y443441D01*
X527750Y443853D01*
X523538D01*
X523413Y445123D01*
X524396Y445319D01*
X526215Y446535D01*
X527431Y448354D01*
X527858Y450500D01*
X527431Y452646D01*
X526215Y454465D01*
X524396Y455681D01*
X522250Y456108D01*
X520104Y455681D01*
X518285Y454465D01*
X517069Y452646D01*
X516642Y450500D01*
X517069Y448354D01*
X518285Y446535D01*
X520104Y445319D01*
X521087Y445123D01*
X520962Y443853D01*
X508029D01*
X503404Y448479D01*
Y449779D01*
X504609Y451583D01*
X505025Y453672D01*
X512157D01*
X512157Y453672D01*
X513718Y453982D01*
X515041Y454866D01*
X520134Y459959D01*
X521018Y461282D01*
X521310Y462750D01*
X524350D01*
Y474750D01*
X510350D01*
Y462750D01*
X509509Y461828D01*
X505025D01*
X504609Y463917D01*
X503311Y465861D01*
X501367Y467159D01*
X499450Y467540D01*
X499322Y467697D01*
X499815Y469074D01*
X499849Y469097D01*
X500020Y469131D01*
X501012Y469794D01*
X509351Y478132D01*
X510350Y478750D01*
Y478750D01*
X510350Y478750D01*
X524350D01*
Y490750D01*
X510350D01*
Y487494D01*
X509480Y486913D01*
X509480Y486913D01*
X497583Y475016D01*
X483117D01*
X480016Y478116D01*
X480385Y479331D01*
X480592Y479372D01*
X482411Y480588D01*
X483378Y482036D01*
X484616Y482131D01*
X484816Y482075D01*
X485677Y480785D01*
X487497Y479569D01*
X489643Y479142D01*
X491789Y479569D01*
X493608Y480785D01*
X494824Y482604D01*
X495250Y484750D01*
X494824Y486896D01*
X493700Y488578D01*
X494025Y489848D01*
X494711D01*
Y498230D01*
X490393D01*
Y499500D01*
X489123D01*
Y509152D01*
D02*
G37*
G36*
X107250Y401750D02*
X76250D01*
Y379037D01*
X76146Y378250D01*
Y358910D01*
X72771Y355535D01*
X57933D01*
X57875Y355546D01*
X50125D01*
X47833Y355090D01*
X45889Y353792D01*
X44591Y351848D01*
X44135Y349556D01*
Y348637D01*
X43518Y347833D01*
X42309Y344914D01*
X41896Y341781D01*
Y240250D01*
X42309Y237117D01*
X43518Y234198D01*
X45441Y231691D01*
X85500Y191633D01*
Y169750D01*
X87147D01*
Y166250D01*
X85500D01*
Y127250D01*
X87147D01*
Y80250D01*
X87498Y77584D01*
Y70598D01*
X87898Y67556D01*
X89072Y64722D01*
X90940Y62288D01*
X93374Y60420D01*
X96208Y59246D01*
X99250Y58846D01*
X102292Y59246D01*
X105126Y60420D01*
X107560Y62288D01*
X109428Y64722D01*
X110602Y67556D01*
X111003Y70598D01*
Y77584D01*
X111354Y80250D01*
Y181500D01*
X111000Y184186D01*
Y208750D01*
X102617D01*
X66104Y245263D01*
Y331328D01*
X77784D01*
X80917Y331740D01*
X83836Y332949D01*
X86343Y334873D01*
X96809Y345338D01*
X98732Y347845D01*
X99941Y350764D01*
X100353Y353897D01*
Y361750D01*
X107250D01*
Y401750D01*
D02*
G37*
G36*
X472750Y323608D02*
X470604Y323181D01*
X468785Y321965D01*
X467569Y320146D01*
X467142Y318000D01*
X467569Y315854D01*
X468785Y314035D01*
X470604Y312819D01*
X472750Y312392D01*
X474896Y312819D01*
X476715Y314035D01*
X477931Y315854D01*
X478358Y318000D01*
X477931Y320146D01*
X476715Y321965D01*
X474896Y323181D01*
X472750Y323608D01*
D02*
G37*
G36*
X291625Y318484D02*
X283875D01*
X281583Y318028D01*
X279639Y316730D01*
X278341Y314786D01*
X277885Y312494D01*
Y296944D01*
X278341Y294652D01*
X279639Y292708D01*
X281583Y291410D01*
X283875Y290954D01*
X291625D01*
X293917Y291410D01*
X295861Y292708D01*
X297031Y294461D01*
X334875Y294461D01*
X335655Y294616D01*
X336317Y295058D01*
X336759Y295720D01*
X336914Y296500D01*
Y313750D01*
X336914Y313750D01*
X336759Y314530D01*
X336317Y315192D01*
X336317Y315192D01*
X335067Y316442D01*
X334405Y316884D01*
X333625Y317039D01*
X295397D01*
X293917Y318028D01*
X291625Y318484D01*
D02*
G37*
G36*
X128875Y323039D02*
X79250Y323039D01*
X78470Y322884D01*
X77808Y322442D01*
X77366Y321780D01*
X77211Y321000D01*
X77211Y314000D01*
X77323Y313438D01*
X77135Y312494D01*
Y296944D01*
X77591Y294652D01*
X78889Y292708D01*
X80833Y291410D01*
X83125Y290954D01*
X90875D01*
X93167Y291410D01*
X95111Y292708D01*
X96409Y294652D01*
X96865Y296944D01*
Y300461D01*
X130125Y300461D01*
X130905Y300616D01*
X131567Y301058D01*
X132009Y301720D01*
X132164Y302500D01*
Y319750D01*
X132164Y319750D01*
X132009Y320530D01*
X131567Y321192D01*
X131567Y321192D01*
X130317Y322442D01*
X129655Y322884D01*
X128875Y323039D01*
D02*
G37*
G36*
X535625Y315039D02*
X480250Y315039D01*
X479470Y314884D01*
X478808Y314442D01*
X478366Y313780D01*
X478211Y313000D01*
Y306148D01*
X477885Y304510D01*
Y288960D01*
X478341Y286668D01*
X479639Y284724D01*
X481583Y283426D01*
X483875Y282970D01*
X491625D01*
X493917Y283426D01*
X495861Y284724D01*
X497159Y286668D01*
X497615Y288960D01*
Y292461D01*
X536875Y292461D01*
X537655Y292616D01*
X538317Y293058D01*
X538759Y293720D01*
X538914Y294500D01*
Y311750D01*
X538914Y311750D01*
X538759Y312530D01*
X538317Y313192D01*
X538317Y313192D01*
X537067Y314442D01*
X536405Y314884D01*
X535625Y315039D01*
D02*
G37*
G36*
X339500Y284750D02*
X308500D01*
Y275488D01*
X293113D01*
X291625Y275784D01*
X283875D01*
X281583Y275328D01*
X279639Y274030D01*
X278341Y272086D01*
X277885Y269794D01*
Y268875D01*
X277268Y268071D01*
X276059Y265152D01*
X275646Y262019D01*
X275896Y260120D01*
Y236500D01*
X276309Y233367D01*
X277518Y230448D01*
X279442Y227941D01*
X296896Y210487D01*
Y190000D01*
X297000Y189213D01*
Y169750D01*
X297396D01*
Y166250D01*
X297000D01*
Y127250D01*
X297396D01*
Y82149D01*
X297146Y80250D01*
X297498Y77584D01*
Y70598D01*
X297898Y67556D01*
X299072Y64722D01*
X300940Y62288D01*
X303374Y60420D01*
X306208Y59246D01*
X309250Y58846D01*
X312292Y59246D01*
X315126Y60420D01*
X317560Y62288D01*
X319428Y64722D01*
X320602Y67556D01*
X321003Y70598D01*
Y76912D01*
X321191Y77367D01*
X321604Y80500D01*
Y127250D01*
X322500D01*
Y166250D01*
X321604D01*
Y169750D01*
X322500D01*
Y208750D01*
X321104D01*
Y215500D01*
X320691Y218633D01*
X319482Y221552D01*
X317558Y224059D01*
X300104Y241514D01*
Y251281D01*
X308500D01*
Y244750D01*
X339500D01*
Y284750D01*
D02*
G37*
G36*
X138250D02*
X107250D01*
Y275488D01*
X92363D01*
X90875Y275784D01*
X83125D01*
X80833Y275328D01*
X78889Y274030D01*
X77591Y272086D01*
X77135Y269794D01*
Y268875D01*
X76518Y268071D01*
X75309Y265152D01*
X74896Y262019D01*
X75309Y258886D01*
X76518Y255967D01*
X77135Y255163D01*
Y254244D01*
X77146Y254186D01*
Y244000D01*
X77559Y240867D01*
X78768Y237948D01*
X80691Y235441D01*
X97442Y218692D01*
X99948Y216768D01*
X102867Y215559D01*
X106000Y215146D01*
X150986D01*
X155896Y210237D01*
Y190000D01*
X156000Y189213D01*
Y169750D01*
X156896D01*
Y166250D01*
X155250D01*
Y127250D01*
X156896D01*
Y80500D01*
X157309Y77367D01*
X157498Y76912D01*
Y70598D01*
X157898Y67556D01*
X159072Y64722D01*
X160940Y62288D01*
X163374Y60420D01*
X166208Y59246D01*
X169250Y58846D01*
X172292Y59246D01*
X175126Y60420D01*
X177560Y62288D01*
X179428Y64722D01*
X180602Y67556D01*
X181003Y70598D01*
Y77584D01*
X181354Y80250D01*
X181103Y82149D01*
Y169750D01*
X181500D01*
Y208750D01*
X180103D01*
Y215250D01*
X179691Y218383D01*
X178482Y221302D01*
X176558Y223808D01*
X164559Y235809D01*
X162052Y237732D01*
X159133Y238941D01*
X156000Y239354D01*
X111013D01*
X107142Y243225D01*
X107135Y243595D01*
X108236Y244750D01*
X108453Y244750D01*
X138250D01*
Y284750D01*
D02*
G37*
G36*
X177750Y282608D02*
X175604Y282181D01*
X173785Y280965D01*
X172569Y279146D01*
X172142Y277000D01*
X172569Y274854D01*
X173785Y273035D01*
X175604Y271819D01*
X177750Y271392D01*
X179896Y271819D01*
X181715Y273035D01*
X182931Y274854D01*
X183358Y277000D01*
X182931Y279146D01*
X181715Y280965D01*
X179896Y282181D01*
X177750Y282608D01*
D02*
G37*
G36*
X380500Y281358D02*
X378354Y280931D01*
X376535Y279715D01*
X375319Y277896D01*
X374892Y275750D01*
X375319Y273604D01*
X376535Y271785D01*
X378354Y270569D01*
X380500Y270142D01*
X382646Y270569D01*
X384465Y271785D01*
X385681Y273604D01*
X386108Y275750D01*
X385681Y277896D01*
X384465Y279715D01*
X382646Y280931D01*
X380500Y281358D01*
D02*
G37*
G36*
X351750D02*
X349604Y280931D01*
X347785Y279715D01*
X346569Y277896D01*
X346142Y275750D01*
X346569Y273604D01*
X347785Y271785D01*
X349604Y270569D01*
X351750Y270142D01*
X353896Y270569D01*
X355715Y271785D01*
X356931Y273604D01*
X357358Y275750D01*
X356931Y277896D01*
X355715Y279715D01*
X353896Y280931D01*
X351750Y281358D01*
D02*
G37*
G36*
X259000Y280358D02*
X256854Y279931D01*
X255035Y278715D01*
X253819Y276896D01*
X253392Y274750D01*
X253819Y272604D01*
X255035Y270785D01*
X256854Y269569D01*
X259000Y269142D01*
X261146Y269569D01*
X262965Y270785D01*
X264181Y272604D01*
X264608Y274750D01*
X264181Y276896D01*
X262965Y278715D01*
X261146Y279931D01*
X259000Y280358D01*
D02*
G37*
G36*
X540750Y284750D02*
X509750D01*
Y267776D01*
X491748D01*
X491625Y267800D01*
X483875D01*
X481583Y267344D01*
X479639Y266046D01*
X478341Y264102D01*
X477885Y261810D01*
Y260056D01*
X477520Y259176D01*
X477159Y256435D01*
X477159Y256435D01*
Y253137D01*
X445511Y221489D01*
X443828Y219295D01*
X442770Y216741D01*
X442409Y214000D01*
X442409Y214000D01*
Y208750D01*
X438000D01*
Y169750D01*
X440159D01*
Y166250D01*
X438000D01*
Y127250D01*
X439100D01*
Y95815D01*
X439072Y95778D01*
X437898Y92944D01*
X437497Y89902D01*
Y70598D01*
X437898Y67556D01*
X439072Y64722D01*
X440940Y62288D01*
X443374Y60420D01*
X446208Y59246D01*
X449250Y58846D01*
X452292Y59246D01*
X455126Y60420D01*
X457560Y62288D01*
X459428Y64722D01*
X460602Y67556D01*
X461003Y70598D01*
Y89902D01*
X460602Y92944D01*
X460281Y93718D01*
Y127250D01*
X463500D01*
Y166250D01*
X461340D01*
Y169750D01*
X463500D01*
Y190812D01*
X463591Y191500D01*
Y209613D01*
X495239Y241261D01*
X495786Y241975D01*
X495861Y242024D01*
X496106Y242391D01*
X496922Y243455D01*
X497094Y243870D01*
X497159Y243968D01*
X497182Y244083D01*
X497980Y246009D01*
X498057Y246595D01*
X509750D01*
Y244750D01*
X540750D01*
Y284750D01*
D02*
G37*
G36*
X147750Y272108D02*
X145604Y271681D01*
X143785Y270465D01*
X142569Y268646D01*
X142142Y266500D01*
X142569Y264354D01*
X143785Y262535D01*
X145604Y261319D01*
X147750Y260892D01*
X149896Y261319D01*
X151715Y262535D01*
X152931Y264354D01*
X153358Y266500D01*
X152931Y268646D01*
X151715Y270465D01*
X149896Y271681D01*
X147750Y272108D01*
D02*
G37*
G36*
X30520Y102032D02*
Y81520D01*
X41547D01*
Y89902D01*
X41128Y93085D01*
X39900Y96051D01*
X37945Y98597D01*
X35399Y100552D01*
X32433Y101780D01*
X30520Y102032D01*
D02*
G37*
G36*
X27980D02*
X26067Y101780D01*
X23101Y100552D01*
X20555Y98597D01*
X18600Y96051D01*
X17372Y93085D01*
X16953Y89902D01*
Y81520D01*
X27980D01*
Y102032D01*
D02*
G37*
G36*
X520520D02*
Y81520D01*
X531547D01*
Y89902D01*
X531128Y93085D01*
X529900Y96051D01*
X527945Y98597D01*
X525399Y100552D01*
X522433Y101780D01*
X520520Y102032D01*
D02*
G37*
G36*
X517980D02*
X516067Y101780D01*
X513101Y100552D01*
X510555Y98597D01*
X508600Y96051D01*
X507372Y93085D01*
X506953Y89902D01*
Y81520D01*
X517980D01*
Y102032D01*
D02*
G37*
G36*
X498500Y208750D02*
X473000D01*
Y185198D01*
X472559Y184133D01*
X472146Y181000D01*
Y80250D01*
X472497Y77584D01*
Y70598D01*
X472898Y67556D01*
X474072Y64722D01*
X475940Y62288D01*
X478374Y60420D01*
X481208Y59246D01*
X484250Y58846D01*
X487292Y59246D01*
X490126Y60420D01*
X492560Y62288D01*
X494428Y64722D01*
X495602Y67556D01*
X496003Y70598D01*
Y77584D01*
X496353Y80250D01*
Y127250D01*
X498500D01*
Y166250D01*
X496353D01*
Y169750D01*
X498500D01*
Y208750D01*
D02*
G37*
G36*
X428000D02*
X402500D01*
Y184185D01*
X402146Y181500D01*
Y80250D01*
X402497Y77584D01*
Y70598D01*
X402898Y67556D01*
X404072Y64722D01*
X405940Y62288D01*
X408374Y60420D01*
X411208Y59246D01*
X414250Y58846D01*
X417292Y59246D01*
X420126Y60420D01*
X422560Y62288D01*
X424428Y64722D01*
X425602Y67556D01*
X426003Y70598D01*
Y77584D01*
X426354Y80250D01*
Y127500D01*
X428000D01*
Y166500D01*
X426354D01*
Y169750D01*
X428000D01*
Y208750D01*
D02*
G37*
G36*
X505750Y401750D02*
X474750D01*
Y379548D01*
X450748Y355546D01*
X449625D01*
X447333Y355090D01*
X445389Y353792D01*
X444091Y351848D01*
X443635Y349556D01*
Y348637D01*
X443018Y347833D01*
X441809Y344914D01*
X441396Y341781D01*
Y257763D01*
X424236Y240604D01*
X392716D01*
X389583Y240191D01*
X386664Y238982D01*
X384157Y237059D01*
X372441Y225343D01*
X370518Y222836D01*
X369309Y219917D01*
X368896Y216784D01*
Y208750D01*
X367500D01*
Y184185D01*
X367146Y181500D01*
Y80250D01*
X367497Y77584D01*
Y70598D01*
X367898Y67556D01*
X369072Y64722D01*
X370940Y62288D01*
X373374Y60420D01*
X376208Y59246D01*
X379250Y58846D01*
X382292Y59246D01*
X385126Y60420D01*
X387560Y62288D01*
X389428Y64722D01*
X390602Y67556D01*
X391003Y70598D01*
Y77584D01*
X391353Y80250D01*
Y127500D01*
X393000D01*
Y166500D01*
X391353D01*
Y169750D01*
X393000D01*
Y189213D01*
X393103Y190000D01*
Y211771D01*
X397729Y216396D01*
X429250D01*
X432383Y216809D01*
X435302Y218018D01*
X437808Y219942D01*
X462058Y244191D01*
X463982Y246698D01*
X465191Y249617D01*
X465603Y252750D01*
Y336168D01*
X491186Y361750D01*
X505750D01*
Y401750D01*
D02*
G37*
G36*
X357500Y208750D02*
X332000D01*
Y169750D01*
X332396D01*
Y166250D01*
X332000D01*
Y127250D01*
X332396D01*
Y82149D01*
X332146Y80250D01*
X332497Y77584D01*
Y70598D01*
X332898Y67556D01*
X334072Y64722D01*
X335940Y62288D01*
X338374Y60420D01*
X341208Y59246D01*
X344250Y58846D01*
X347292Y59246D01*
X350126Y60420D01*
X352560Y62288D01*
X354428Y64722D01*
X355602Y67556D01*
X356003Y70598D01*
Y76912D01*
X356191Y77367D01*
X356604Y80500D01*
Y127250D01*
X357500D01*
Y166250D01*
X356604D01*
Y169750D01*
X357500D01*
Y208750D01*
D02*
G37*
G36*
X287000D02*
X261500D01*
Y169750D01*
X262146D01*
Y166250D01*
X261500D01*
Y127250D01*
X262146D01*
Y80250D01*
X262498Y77584D01*
Y70598D01*
X262898Y67556D01*
X264072Y64722D01*
X265940Y62288D01*
X268374Y60420D01*
X271208Y59246D01*
X274250Y58846D01*
X277292Y59246D01*
X280126Y60420D01*
X282560Y62288D01*
X284428Y64722D01*
X285602Y67556D01*
X286003Y70598D01*
Y77584D01*
X286354Y80250D01*
Y127250D01*
X287000D01*
Y166250D01*
X286354D01*
Y169750D01*
X287000D01*
Y208750D01*
D02*
G37*
G36*
X306500Y401750D02*
X275500D01*
Y380548D01*
X250498Y355546D01*
X249375D01*
X247083Y355090D01*
X245139Y353792D01*
X243841Y351848D01*
X243404Y349652D01*
X230692Y336940D01*
X228768Y334433D01*
X227559Y331514D01*
X227146Y328381D01*
Y208750D01*
X226500D01*
Y169750D01*
X227146D01*
Y166250D01*
X226500D01*
Y127250D01*
X227146D01*
Y80250D01*
X227498Y77583D01*
Y70598D01*
X227898Y67556D01*
X229072Y64722D01*
X230940Y62288D01*
X233374Y60420D01*
X236208Y59246D01*
X239250Y58846D01*
X242292Y59246D01*
X245126Y60420D01*
X247560Y62288D01*
X249428Y64722D01*
X250602Y67556D01*
X251003Y70598D01*
Y77584D01*
X251354Y80250D01*
X251353Y80250D01*
Y127250D01*
X252000D01*
Y166250D01*
X251353D01*
Y169750D01*
X252000D01*
Y208750D01*
X251353D01*
Y323368D01*
X256002Y328016D01*
X257125D01*
X259417Y328472D01*
X261361Y329770D01*
X262659Y331714D01*
X263096Y333910D01*
X290936Y361750D01*
X306500D01*
Y401750D01*
D02*
G37*
G36*
X216500Y208750D02*
X191000D01*
Y169750D01*
X191896D01*
Y166250D01*
X190250D01*
Y127250D01*
X191896D01*
Y80500D01*
X192309Y77367D01*
X192498Y76912D01*
Y70598D01*
X192898Y67556D01*
X194072Y64722D01*
X195940Y62288D01*
X198374Y60420D01*
X201208Y59246D01*
X204250Y58846D01*
X207292Y59246D01*
X210126Y60420D01*
X212560Y62288D01*
X214428Y64722D01*
X215602Y67556D01*
X216003Y70598D01*
Y77584D01*
X216354Y80250D01*
X216104Y82149D01*
Y169750D01*
X216500D01*
Y208750D01*
D02*
G37*
G36*
X146000D02*
X120500D01*
Y169750D01*
X122147D01*
Y166250D01*
X120500D01*
Y127250D01*
X122147D01*
Y80250D01*
X122498Y77584D01*
Y70598D01*
X122898Y67556D01*
X124072Y64722D01*
X125940Y62288D01*
X128374Y60420D01*
X131208Y59246D01*
X134250Y58846D01*
X137292Y59246D01*
X140126Y60420D01*
X142560Y62288D01*
X144428Y64722D01*
X145602Y67556D01*
X146003Y70598D01*
Y77584D01*
X146354Y80250D01*
Y181500D01*
X146000Y184186D01*
Y208750D01*
D02*
G37*
G36*
X41547Y78980D02*
X30520D01*
Y58468D01*
X32433Y58720D01*
X35399Y59948D01*
X37945Y61903D01*
X39900Y64449D01*
X41128Y67415D01*
X41547Y70598D01*
Y78980D01*
D02*
G37*
G36*
X531547Y78980D02*
X520520D01*
Y58468D01*
X522433Y58720D01*
X525399Y59948D01*
X527945Y61903D01*
X529900Y64449D01*
X531128Y67415D01*
X531547Y70598D01*
Y78980D01*
D02*
G37*
G36*
X517980D02*
X506953D01*
Y70598D01*
X507372Y67415D01*
X508600Y64449D01*
X510555Y61903D01*
X513101Y59948D01*
X516067Y58720D01*
X517980Y58468D01*
Y78980D01*
D02*
G37*
G36*
X27980Y78980D02*
X16953D01*
Y70598D01*
X17372Y67415D01*
X18600Y64449D01*
X20555Y61903D01*
X23101Y59948D01*
X26067Y58720D01*
X27980Y58468D01*
Y78980D01*
D02*
G37*
%LPD*%
G36*
X288650Y611125D02*
X294331D01*
Y602500D01*
X292900D01*
Y593500D01*
X292900D01*
Y592500D01*
X292900D01*
Y583500D01*
X294214D01*
X294554Y582230D01*
X289823Y577499D01*
X288650Y577985D01*
Y585000D01*
X274650D01*
Y581140D01*
X273380Y580709D01*
X272923Y581304D01*
X272923Y581305D01*
X262593Y591634D01*
X263403Y592621D01*
X263854Y592319D01*
X266000Y591892D01*
X268146Y592319D01*
X269965Y593535D01*
X271181Y595354D01*
X271608Y597500D01*
X271181Y599646D01*
X269965Y601465D01*
X268146Y602681D01*
X266000Y603108D01*
X263854Y602681D01*
X262035Y601465D01*
X260819Y599646D01*
X260392Y597500D01*
X260819Y595354D01*
X261121Y594903D01*
X260134Y594093D01*
X250382Y603845D01*
Y611125D01*
X288614D01*
X288632Y611127D01*
X288650Y611125D01*
D02*
G37*
G36*
X101931Y602500D02*
X100500D01*
Y593500D01*
X100500D01*
Y592500D01*
X100500D01*
Y583500D01*
X101814D01*
X102154Y582230D01*
X97423Y577499D01*
X96250Y577985D01*
Y585000D01*
X82250D01*
Y573000D01*
X82883D01*
Y571701D01*
X81613Y571269D01*
X80477Y572751D01*
X80477Y572751D01*
X59341Y593887D01*
Y611125D01*
X101931D01*
Y602500D01*
D02*
G37*
G36*
X582931D02*
X581500D01*
Y593500D01*
X581500D01*
Y592500D01*
X581500D01*
Y583500D01*
X582814D01*
X583154Y582230D01*
X578423Y577499D01*
X577250Y577985D01*
Y585000D01*
X564174D01*
X563276Y587169D01*
X561592Y589362D01*
X561592Y589362D01*
X557068Y593887D01*
Y611125D01*
X582931D01*
Y602500D01*
D02*
G37*
G36*
X486731D02*
X485300D01*
Y593500D01*
X485300D01*
Y592500D01*
X485300D01*
Y583500D01*
X486614D01*
X486954Y582230D01*
X482223Y577499D01*
X481050Y577985D01*
Y585000D01*
X467050D01*
X467050Y585000D01*
Y585000D01*
X465892Y585358D01*
X465369Y586040D01*
X457522Y593887D01*
Y611125D01*
X486731D01*
Y602500D01*
D02*
G37*
G36*
X390531D02*
X389100D01*
Y593500D01*
X389100D01*
Y592500D01*
X389100D01*
Y583500D01*
X390414D01*
X390754Y582230D01*
X386023Y577499D01*
X384850Y577985D01*
Y585000D01*
X370850D01*
Y582583D01*
X369580Y582152D01*
X369146Y582718D01*
X369146Y582718D01*
X357977Y593887D01*
Y611125D01*
X390531D01*
Y602500D01*
D02*
G37*
G36*
X192450Y611125D02*
X198131D01*
Y602500D01*
X196700D01*
Y593500D01*
X196700D01*
Y592500D01*
X196700D01*
Y583500D01*
X198014D01*
X198354Y582230D01*
X193623Y577499D01*
X192450Y577985D01*
Y585000D01*
X178450D01*
Y575878D01*
X177180Y575447D01*
X176700Y576073D01*
X158886Y593887D01*
Y611125D01*
X189068D01*
X190759Y611348D01*
X192450Y611125D01*
D02*
G37*
G36*
X69375Y419250D02*
Y379500D01*
X40500Y379500D01*
X38375Y381625D01*
X38375Y420500D01*
X68125D01*
X69375Y419250D01*
D02*
G37*
%LPC*%
G36*
X168750Y607108D02*
X166604Y606681D01*
X164785Y605465D01*
X163569Y603646D01*
X163142Y601500D01*
X163569Y599354D01*
X164785Y597535D01*
X166604Y596319D01*
X168750Y595892D01*
X170896Y596319D01*
X172715Y597535D01*
X173931Y599354D01*
X174358Y601500D01*
X173931Y603646D01*
X172715Y605465D01*
X170896Y606681D01*
X168750Y607108D01*
D02*
G37*
%LPD*%
G36*
X462625Y418000D02*
X462625Y374750D01*
X458375D01*
X431625Y401500D01*
Y419250D01*
X461375D01*
X462625Y418000D01*
D02*
G37*
G36*
X260750Y408125D02*
Y378000D01*
X243375D01*
X222125Y399250D01*
Y417000D01*
X251875D01*
X260750Y408125D01*
D02*
G37*
G36*
X334875Y313750D02*
Y296500D01*
X284750Y296500D01*
X281250Y300000D01*
X281250Y315000D01*
X333625D01*
X334875Y313750D01*
D02*
G37*
G36*
X130125Y319750D02*
Y302500D01*
X90750Y302500D01*
X79250Y314000D01*
X79250Y321000D01*
X128875Y321000D01*
X130125Y319750D01*
D02*
G37*
G36*
X536875Y311750D02*
Y294500D01*
X480250Y294500D01*
X480250Y313000D01*
X535625Y313000D01*
X536875Y311750D01*
D02*
G37*
D12*
X190250Y796250D02*
X191750Y794750D01*
X435500Y774050D02*
Y803750D01*
X429250Y810000D02*
X435500Y803750D01*
X429000Y774050D02*
Y796500D01*
X418000Y807500D02*
X429000Y796500D01*
X422500Y774050D02*
Y787000D01*
X410000Y799500D02*
X422500Y787000D01*
X414950Y775100D02*
X416000Y774050D01*
X414950Y775100D02*
Y782800D01*
X398000Y799750D02*
X414950Y782800D01*
X566433Y528573D02*
X571256Y523750D01*
X602250D01*
X595073Y473207D02*
X607712Y485846D01*
X578073Y473207D02*
X595073D01*
X79338Y489576D02*
Y499500D01*
X126750Y484750D02*
X127750D01*
X113957Y471957D02*
X126750Y484750D01*
X96957Y471957D02*
X113957D01*
X86457Y482457D02*
X96957Y471957D01*
X86457Y482457D02*
X86457D01*
X79338Y489576D02*
X86457Y482457D01*
X452750Y931250D02*
Y949000D01*
X452750Y949000D02*
X452750Y949000D01*
X469343Y761000D02*
X492500D01*
X468172Y762172D02*
Y773878D01*
Y762172D02*
X469343Y761000D01*
X492500D02*
X500750Y769250D01*
X468000Y774050D02*
X468172Y773878D01*
X159250Y808250D02*
X173000D01*
X188671Y797829D02*
X190250Y796250D01*
X183422Y797829D02*
X188671D01*
X173000Y808250D02*
X183422Y797829D01*
X153250Y802250D02*
X159250Y808250D01*
X153250Y758500D02*
Y802250D01*
Y758500D02*
X169750Y742000D01*
X429750Y695750D02*
X435750D01*
X382500Y688000D02*
X422000D01*
X429750Y695750D01*
X474500Y779800D02*
X483274Y788574D01*
Y789288D01*
X474058Y791750D02*
X474250D01*
X469558Y787250D02*
X474058Y791750D01*
X464000Y787250D02*
X469558D01*
X461500Y784750D02*
X464000Y787250D01*
X455000Y783907D02*
X464843Y793750D01*
X455000Y774050D02*
Y783907D01*
X185675Y691932D02*
Y695825D01*
X184750Y696750D02*
X185675Y695825D01*
Y691932D02*
X195857Y681750D01*
X261750D01*
X169250Y756500D02*
X169859D01*
X178033Y773333D02*
X178750Y774050D01*
X178033Y764674D02*
Y773333D01*
X169859Y756500D02*
X178033Y764674D01*
X196250Y758250D02*
X222112D01*
X169750Y742000D02*
X180000D01*
X196250Y758250D01*
X222112D02*
X228612Y751750D01*
X265950D01*
X176697Y749500D02*
Y750197D01*
X185250Y758750D01*
Y774050D01*
X261750Y681750D02*
X287250Y707250D01*
X375800Y760000D02*
X376250Y759550D01*
Y747000D02*
Y759550D01*
X287250Y707250D02*
Y740078D01*
X288422Y741250D01*
X370500D01*
X376250Y747000D01*
X191750Y774050D02*
Y794750D01*
X395303Y699750D02*
X425250D01*
X395019Y700034D02*
X395303Y699750D01*
X474500Y774050D02*
Y779800D01*
X500750Y769250D02*
Y789000D01*
X461500Y774050D02*
Y784750D01*
X374000Y695500D02*
Y696500D01*
Y695500D02*
X377000Y692500D01*
X378000D01*
X382500Y688000D01*
X435500Y716450D02*
X435625Y716325D01*
Y695875D02*
Y716325D01*
Y695875D02*
X435750Y695750D01*
X429000Y703500D02*
Y716450D01*
X425250Y699750D02*
X429000Y703500D01*
X400500Y714500D02*
X414950D01*
X416000Y715550D01*
Y716450D01*
X376050Y698550D02*
Y724500D01*
X374000Y696500D02*
X376050Y698550D01*
X375800Y760000D02*
Y785450D01*
X374000Y787250D02*
X375800Y785450D01*
X105454Y581204D02*
Y588000D01*
X201654Y581204D02*
Y588000D01*
X394054Y581204D02*
Y588000D01*
X586454Y581204D02*
Y588000D01*
X573554Y556404D02*
Y568304D01*
X174000Y790147D02*
Y791500D01*
X172250Y788397D02*
X174000Y790147D01*
X172250Y774050D02*
Y788397D01*
X164500Y796500D02*
X165125Y795875D01*
Y774675D02*
Y795875D01*
Y774675D02*
X165750Y774050D01*
X178750Y701500D02*
Y716450D01*
X170500Y693250D02*
X178750Y701500D01*
X185000Y716200D02*
X185250Y716450D01*
X185000Y697000D02*
Y716200D01*
X184750Y696750D02*
X185000Y697000D01*
X573546Y556396D02*
X573554Y556404D01*
Y568304D02*
X586454Y581204D01*
X599500Y587750D02*
X599750Y587500D01*
X586750Y587750D02*
X599500D01*
X586500Y588000D02*
X586750Y587750D01*
X477346Y556396D02*
X477354Y556404D01*
Y568304D02*
X490254Y581204D01*
X477354Y556404D02*
Y568304D01*
X503300Y587750D02*
X503550Y587500D01*
X490550Y587750D02*
X503300D01*
X490300Y588000D02*
X490550Y587750D01*
X490254Y581204D02*
Y588000D01*
X381146Y556396D02*
X381154Y556404D01*
Y568304D02*
X394054Y581204D01*
X381154Y556404D02*
Y568304D01*
X407100Y587750D02*
X407350Y587500D01*
X394350Y587750D02*
X407100D01*
X394100Y588000D02*
X394350Y587750D01*
X284946Y556396D02*
X284954Y556404D01*
Y568304D02*
X297854Y581204D01*
X284954Y556404D02*
Y568304D01*
X310900Y587750D02*
X311150Y587500D01*
X298150Y587750D02*
X310900D01*
X297900Y588000D02*
X298150Y587750D01*
X297854Y581204D02*
Y588000D01*
X188746Y556396D02*
X188754Y556404D01*
Y568304D02*
X201654Y581204D01*
X188754Y556404D02*
Y568304D01*
X214700Y587750D02*
X214950Y587500D01*
X201950Y587750D02*
X214700D01*
X201700Y588000D02*
X201950Y587750D01*
X105500Y588000D02*
X105750Y587750D01*
X118500D01*
X118750Y587500D01*
X92554Y556404D02*
Y568304D01*
X105454Y581204D01*
X570058Y580250D02*
X570320D01*
X567058Y577250D02*
X570058Y580250D01*
X567058Y557646D02*
Y577250D01*
X593919Y570284D02*
Y570500D01*
X586616Y562980D02*
X593919Y570284D01*
X586616Y557646D02*
Y562980D01*
X580012Y557646D02*
Y568092D01*
X592920Y581000D01*
X600998D02*
X602169Y579828D01*
Y556450D02*
Y579828D01*
Y556450D02*
X602869Y555750D01*
X592920Y581000D02*
X600998D01*
X473835Y579000D02*
X474096D01*
X470835Y576000D02*
X473835Y579000D01*
X470835Y556396D02*
Y576000D01*
X497696Y569034D02*
Y569250D01*
X490393Y561730D02*
X497696Y569034D01*
X490393Y556396D02*
Y561730D01*
X483789Y556396D02*
Y566842D01*
X496696Y579750D01*
X504775D02*
X505946Y578578D01*
Y555200D02*
Y578578D01*
Y555200D02*
X506646Y554500D01*
X496696Y579750D02*
X504775D01*
X377612Y579000D02*
X377873D01*
X374612Y576000D02*
X377612Y579000D01*
X374612Y556396D02*
Y576000D01*
X401473Y569034D02*
Y569250D01*
X394170Y561730D02*
X401473Y569034D01*
X394170Y556396D02*
Y561730D01*
X387565Y556396D02*
Y566842D01*
X400473Y579750D01*
X408552D02*
X409723Y578578D01*
Y555200D02*
Y578578D01*
Y555200D02*
X410423Y554500D01*
X400473Y579750D02*
X408552D01*
X185165Y579000D02*
X185427D01*
X182165Y576000D02*
X185165Y579000D01*
X182165Y556396D02*
Y576000D01*
X209027Y569034D02*
Y569250D01*
X201723Y561730D02*
X209027Y569034D01*
X201723Y556396D02*
Y561730D01*
X195119Y556396D02*
Y566842D01*
X208027Y579750D01*
X216105D02*
X217277Y578578D01*
Y555200D02*
Y578578D01*
Y555200D02*
X217977Y554500D01*
X208027Y579750D02*
X216105D01*
X88942Y579000D02*
X89204D01*
X85942Y576000D02*
X88942Y579000D01*
X85942Y556396D02*
Y576000D01*
X112804Y569034D02*
Y569250D01*
X105500Y561730D02*
X112804Y569034D01*
X105500Y556396D02*
Y561730D01*
X98896Y556396D02*
Y566842D01*
X111804Y579750D01*
X119882D02*
X121054Y578578D01*
Y555200D02*
Y578578D01*
Y555200D02*
X121754Y554500D01*
X111804Y579750D02*
X119882D01*
X92546Y556396D02*
X92554Y556404D01*
X304250Y579750D02*
X312328D01*
X313500Y555200D02*
X314200Y554500D01*
X313500Y555200D02*
Y578578D01*
X312328Y579750D02*
X313500Y578578D01*
X291342Y566842D02*
X304250Y579750D01*
X291342Y556396D02*
Y566842D01*
X297946Y556396D02*
Y561730D01*
X305250Y569034D01*
Y569250D01*
X278388Y556396D02*
Y576000D01*
X281388Y579000D01*
X281650D01*
X560454Y490826D02*
Y500750D01*
X567573Y483707D02*
X578073Y473207D01*
X567573Y483707D02*
X567573D01*
X560454Y490826D02*
X567573Y483707D01*
X574165Y486307D02*
X574669Y485803D01*
X574165Y486307D02*
Y500247D01*
X573662Y500750D02*
X574165Y500247D01*
X580790Y491076D02*
X585866Y486000D01*
X580790Y491076D02*
Y499972D01*
X580012Y500750D02*
X580790Y499972D01*
X464231Y489576D02*
Y499500D01*
X471350Y482457D02*
X481850Y471957D01*
X471349Y482457D02*
X471350D01*
X464231Y489576D02*
X471349Y482457D01*
X481850Y471957D02*
X498850D01*
X511643Y484750D01*
X512643D01*
X477942Y485057D02*
X478446Y484553D01*
X477942Y485057D02*
Y498997D01*
X477439Y499500D02*
X477942Y498997D01*
X484567Y489826D02*
X489643Y484750D01*
X484567Y489826D02*
Y498722D01*
X483789Y499500D02*
X484567Y498722D01*
X368008Y489576D02*
Y499500D01*
X375126Y482457D02*
X385626Y471957D01*
X375126Y482457D02*
X375126D01*
X368008Y489576D02*
X375126Y482457D01*
X385626Y471957D02*
X402626D01*
X415420Y484750D01*
X416419D01*
X381719Y485057D02*
X382223Y484553D01*
X381719Y485057D02*
Y498997D01*
X381216Y499500D02*
X381719Y498997D01*
X388344Y489826D02*
X393419Y484750D01*
X388344Y489826D02*
Y498722D01*
X387565Y499500D02*
X388344Y498722D01*
X271784Y489576D02*
Y499500D01*
X278903Y482457D02*
X289403Y471957D01*
X278903Y482457D02*
X278903D01*
X271784Y489576D02*
X278903Y482457D01*
X289403Y471957D02*
X306403D01*
X319196Y484750D01*
X320196D01*
X285496Y485057D02*
X285999Y484553D01*
X285496Y485057D02*
Y498997D01*
X284992Y499500D02*
X285496Y498997D01*
X292120Y489826D02*
X297196Y484750D01*
X292120Y489826D02*
Y498722D01*
X291342Y499500D02*
X292120Y498722D01*
X175561Y489576D02*
Y499500D01*
X182680Y482457D02*
X193180Y471957D01*
X182680Y482457D02*
X182680D01*
X175561Y489576D02*
X182680Y482457D01*
X193180Y471957D02*
X210180D01*
X222973Y484750D01*
X223973D01*
X189273Y485057D02*
X189776Y484553D01*
X189273Y485057D02*
Y498997D01*
X188769Y499500D02*
X189273Y498997D01*
X195897Y489826D02*
X200973Y484750D01*
X195897Y489826D02*
Y498722D01*
X195119Y499500D02*
X195897Y498722D01*
X98896Y499500D02*
X99674Y498722D01*
Y489826D02*
Y498722D01*
Y489826D02*
X104750Y484750D01*
X92546Y499500D02*
X93049Y498997D01*
Y485057D02*
Y498997D01*
Y485057D02*
X93553Y484553D01*
D13*
X221500Y819765D02*
Y925250D01*
X230000Y933750D01*
X221500Y819765D02*
X225015Y816250D01*
X265000D01*
X409500Y933750D02*
X417750Y925500D01*
Y901000D02*
X435500Y883250D01*
X417750Y901000D02*
Y925500D01*
X435500Y883250D02*
X502000D01*
X274450Y724500D02*
Y806800D01*
X521250Y863750D02*
X521500D01*
X265000Y816250D02*
X274450Y806800D01*
X230000Y933750D02*
X277750D01*
X402000D02*
X409500D01*
X277750D02*
X402000D01*
X502000Y883250D02*
X518750Y866500D01*
Y866250D02*
Y866500D01*
Y866250D02*
X521250Y863750D01*
D14*
X506000Y806750D02*
Y862286D01*
X507464Y863750D01*
X521250D01*
X503250Y799500D02*
Y804000D01*
X506000Y806750D01*
X482000Y799500D02*
X503250D01*
X210250Y803250D02*
Y891500D01*
X188400Y913350D02*
X210250Y891500D01*
Y794066D02*
Y803250D01*
X267250Y863750D02*
X267500Y864000D01*
X267250Y834750D02*
Y863750D01*
X267000Y834500D02*
X267250Y834750D01*
X267500Y864000D02*
Y894250D01*
X256775Y863275D02*
X257500Y864000D01*
X239075Y863275D02*
X256775D01*
X238350Y862550D02*
X239075Y863275D01*
X257500Y893750D02*
Y894250D01*
X251700Y887950D02*
X257500Y893750D01*
X238350Y887950D02*
X251700D01*
X267250Y922250D02*
X267375Y922125D01*
Y894375D02*
Y922125D01*
Y894375D02*
X267500Y894250D01*
X273125Y929125D02*
X277750Y933750D01*
X273125Y928625D02*
Y929125D01*
X267250Y922750D02*
X273125Y928625D01*
X267250Y922250D02*
Y922750D01*
X257000Y922000D02*
X257250Y922250D01*
X257000Y915500D02*
Y922000D01*
X254850Y913350D02*
X257000Y915500D01*
X238350Y913350D02*
X254850D01*
X257000Y834500D02*
Y834575D01*
X255750Y835825D02*
X257000Y834575D01*
X239675Y835825D02*
X255750D01*
X238350Y837150D02*
X239675Y835825D01*
X399750Y837250D02*
Y863000D01*
X370400Y837200D02*
X389700D01*
X370575Y862775D02*
X389525D01*
X389750Y863000D01*
X370925Y913925D02*
X389175D01*
X389750Y914500D01*
X370750Y888350D02*
X389350D01*
X389750Y888750D01*
X370350Y837150D02*
X370400Y837200D01*
X370350Y887950D02*
X370750Y888350D01*
X370350Y913350D02*
X370925Y913925D01*
X370350Y862550D02*
X370575Y862775D01*
X389700Y837200D02*
X389750Y837250D01*
X510000Y769250D02*
Y792750D01*
X503250Y799500D02*
X510000Y792750D01*
X461500Y690750D02*
X463750Y688500D01*
X463796D02*
X466296Y686000D01*
X501750D01*
X461500Y690750D02*
Y716450D01*
X463750Y688500D02*
X463796D01*
X446000Y798250D02*
X453750D01*
X459750Y804250D01*
X477250D01*
X445750Y798500D02*
X446000Y798250D01*
X444750Y798500D02*
X445750D01*
X477250Y804250D02*
X482000Y799500D01*
X230250Y743250D02*
X243500D01*
X257450D01*
X522250Y824500D02*
Y831250D01*
X204750Y716450D02*
Y738774D01*
X199862Y743662D02*
X204750Y738774D01*
X199862Y743662D02*
Y744138D01*
X274325Y724625D02*
X274450Y724500D01*
X274200Y760000D02*
X274325Y759875D01*
Y724625D02*
Y759875D01*
X478750Y700250D02*
Y700650D01*
X474500Y704900D02*
X478750Y700650D01*
X474500Y704900D02*
Y716450D01*
X224250D02*
X225050Y715650D01*
Y707568D02*
Y715650D01*
Y707568D02*
X227618Y705000D01*
X248500D01*
X492000Y743500D02*
Y751250D01*
X510000Y769250D01*
X197066Y750888D02*
X222612D01*
X230250Y743250D01*
X257450D02*
X265200Y751000D01*
X191250Y745072D02*
X197066Y750888D01*
X191250Y716950D02*
Y745072D01*
X150250Y721000D02*
X161200D01*
X161415Y720786D02*
X164950D01*
X165750Y716450D02*
Y719986D01*
X164950Y720786D02*
X165750Y719986D01*
X161200Y721000D02*
X161415Y720786D01*
X191250Y716950D02*
X191750Y716450D01*
X219000Y741500D02*
Y743250D01*
X211250Y733750D02*
X219000Y741500D01*
X464250Y740250D02*
Y743250D01*
X455000Y731000D02*
X464250Y740250D01*
X437000Y730250D02*
X440536D01*
X442000Y716450D02*
Y728785D01*
X440536Y730250D02*
X442000Y728785D01*
X429250Y738000D02*
X437000Y730250D01*
X429250Y748000D02*
X432250Y751000D01*
X429250Y738000D02*
Y748000D01*
X432250Y751000D02*
X467250D01*
X474750Y743500D01*
X492000D01*
X399750Y888750D02*
Y914500D01*
Y863000D02*
Y888750D01*
X406000Y914500D02*
Y929750D01*
X402000Y933750D02*
X406000Y929750D01*
X399750Y914500D02*
X406000D01*
X228004Y698250D02*
X256750D01*
X218550Y707704D02*
X228004Y698250D01*
X218550Y707704D02*
Y715650D01*
X217750Y716450D02*
X218550Y715650D01*
X448500Y716450D02*
Y730500D01*
X439750Y739250D02*
X448500Y730500D01*
X455000Y716450D02*
Y731000D01*
X501750Y686000D02*
X523000Y707250D01*
X468000Y716450D02*
X468250Y716200D01*
Y696000D02*
Y716200D01*
Y696000D02*
X468500Y695750D01*
X529125Y932225D02*
X529250Y932100D01*
X529125Y932225D02*
Y946125D01*
X529000Y946250D02*
X529125Y946125D01*
X498549Y932100D02*
X498774Y932325D01*
Y946024D01*
X499000Y946250D01*
X528750Y922100D02*
X529250D01*
X519900Y913250D02*
X528750Y922100D01*
X518402Y913250D02*
X519900D01*
X514152Y909000D02*
X518402Y913250D01*
X514152Y908250D02*
Y909000D01*
X498049Y922100D02*
X498549D01*
X489199Y913250D02*
X498049Y922100D01*
X487701Y913250D02*
X489199D01*
X483451Y909000D02*
X487701Y913250D01*
X483451Y908250D02*
Y909000D01*
X467348Y922100D02*
X467848D01*
X458498Y913250D02*
X467348Y922100D01*
X457000Y913250D02*
X458498D01*
X452750Y909000D02*
X457000Y913250D01*
X452750Y908250D02*
Y909000D01*
X442000Y774050D02*
Y795750D01*
X444750Y798500D01*
X445750Y695750D02*
Y701500D01*
X442000Y705250D02*
X445750Y701500D01*
X442000Y705250D02*
Y716450D01*
X162150Y913350D02*
X188400D01*
X198250Y706114D02*
Y716450D01*
Y706114D02*
X205139Y699225D01*
Y697611D02*
Y699225D01*
Y697611D02*
X206000Y696750D01*
X211250Y716450D02*
Y733750D01*
X194750Y696750D02*
X195000Y697000D01*
Y703000D01*
X191750Y706250D02*
Y716450D01*
Y706250D02*
X195000Y703000D01*
X224250Y774050D02*
Y779800D01*
X241639Y797189D01*
Y801889D01*
X242500Y802750D01*
X217750Y774050D02*
Y785600D01*
X229889Y797739D01*
Y802389D01*
X230750Y803250D01*
X211250Y774050D02*
Y786691D01*
X220250Y795691D01*
Y803000D01*
X204750Y774050D02*
Y788566D01*
X210250Y794066D01*
X190250Y812250D02*
X198500D01*
X202000Y808750D01*
X198250Y774050D02*
Y790654D01*
X202000Y794404D01*
Y808750D01*
D17*
X190250Y812250D02*
D03*
Y796250D02*
D03*
X127750Y484750D02*
D03*
Y468750D02*
D03*
X570250Y595000D02*
D03*
Y579000D02*
D03*
X603250Y538500D02*
D03*
Y554500D02*
D03*
X614750Y484750D02*
D03*
Y468750D02*
D03*
X121500Y538500D02*
D03*
Y554500D02*
D03*
X89250Y595000D02*
D03*
Y579000D02*
D03*
X445750Y814500D02*
D03*
Y798500D02*
D03*
X217850Y554500D02*
D03*
Y538500D02*
D03*
X314200Y554500D02*
D03*
Y538500D02*
D03*
X410550Y554500D02*
D03*
Y538500D02*
D03*
X506900Y554500D02*
D03*
Y538500D02*
D03*
X185450Y579000D02*
D03*
Y595000D02*
D03*
X281650Y579000D02*
D03*
Y595000D02*
D03*
X377850Y579000D02*
D03*
Y595000D02*
D03*
X474050Y579000D02*
D03*
Y595000D02*
D03*
X225150Y468750D02*
D03*
Y484750D02*
D03*
X322550Y468750D02*
D03*
Y484750D02*
D03*
X419950Y468750D02*
D03*
Y484750D02*
D03*
X517350Y468750D02*
D03*
Y484750D02*
D03*
X243500Y743250D02*
D03*
Y759250D02*
D03*
D18*
X586500Y598000D02*
D03*
Y588000D02*
D03*
X105500Y598000D02*
D03*
Y588000D02*
D03*
X150250Y731000D02*
D03*
Y721000D02*
D03*
X529250Y922100D02*
D03*
Y932100D02*
D03*
X498549Y922100D02*
D03*
Y932100D02*
D03*
X467848Y922100D02*
D03*
Y932100D02*
D03*
X400500Y724500D02*
D03*
Y714500D02*
D03*
X201700Y588000D02*
D03*
Y598000D02*
D03*
X297900Y588000D02*
D03*
Y598000D02*
D03*
X394100Y588000D02*
D03*
Y598000D02*
D03*
X490300Y588000D02*
D03*
Y598000D02*
D03*
D19*
X567058Y529198D02*
D03*
X85942Y527948D02*
D03*
X182165D02*
D03*
X278388D02*
D03*
X374612D02*
D03*
X470835D02*
D03*
D20*
X547500Y557646D02*
D03*
X554104D02*
D03*
X560454D02*
D03*
X567058D02*
D03*
X573662D02*
D03*
X580012D02*
D03*
X586616D02*
D03*
Y500750D02*
D03*
X580012D02*
D03*
X573662D02*
D03*
X567058D02*
D03*
X560454D02*
D03*
X554104D02*
D03*
X547500D02*
D03*
X66384Y556396D02*
D03*
X72988D02*
D03*
X79338D02*
D03*
X85942D02*
D03*
X92546D02*
D03*
X98896D02*
D03*
X105500D02*
D03*
Y499500D02*
D03*
X98896D02*
D03*
X92546D02*
D03*
X85942D02*
D03*
X79338D02*
D03*
X72988D02*
D03*
X66384D02*
D03*
X162607D02*
D03*
X169211D02*
D03*
X175561D02*
D03*
X182165D02*
D03*
X188769D02*
D03*
X195119D02*
D03*
X201723D02*
D03*
Y556396D02*
D03*
X195119D02*
D03*
X188769D02*
D03*
X182165D02*
D03*
X175561D02*
D03*
X169211D02*
D03*
X162607D02*
D03*
X258830Y499500D02*
D03*
X265434D02*
D03*
X271784D02*
D03*
X278388D02*
D03*
X284992D02*
D03*
X291342D02*
D03*
X297946D02*
D03*
Y556396D02*
D03*
X291342D02*
D03*
X284992D02*
D03*
X278388D02*
D03*
X271784D02*
D03*
X265434D02*
D03*
X258830D02*
D03*
X355053Y499500D02*
D03*
X361657D02*
D03*
X368008D02*
D03*
X374612D02*
D03*
X381216D02*
D03*
X387565D02*
D03*
X394170D02*
D03*
Y556396D02*
D03*
X387565D02*
D03*
X381216D02*
D03*
X374612D02*
D03*
X368008D02*
D03*
X361657D02*
D03*
X355053D02*
D03*
X451277Y499500D02*
D03*
X457881D02*
D03*
X464231D02*
D03*
X470835D02*
D03*
X477439D02*
D03*
X483789D02*
D03*
X490393D02*
D03*
Y556396D02*
D03*
X483789D02*
D03*
X477439D02*
D03*
X470835D02*
D03*
X464231D02*
D03*
X457881D02*
D03*
X451277D02*
D03*
D21*
X545900Y457750D02*
D03*
X588600D02*
D03*
X59400Y455500D02*
D03*
X102100D02*
D03*
X199400Y456250D02*
D03*
X156700D02*
D03*
X296700Y457750D02*
D03*
X254000D02*
D03*
X394000D02*
D03*
X351300D02*
D03*
X491300D02*
D03*
X448600D02*
D03*
D22*
X39750Y660750D02*
D03*
Y625750D02*
D03*
X587250Y660750D02*
D03*
Y625750D02*
D03*
X487705D02*
D03*
Y660750D02*
D03*
X338386Y625750D02*
D03*
Y660750D02*
D03*
X238841Y625750D02*
D03*
Y660750D02*
D03*
X139296Y625750D02*
D03*
Y660750D02*
D03*
X537477Y625750D02*
D03*
Y660750D02*
D03*
X437932Y625750D02*
D03*
Y660750D02*
D03*
X388159Y625750D02*
D03*
Y660750D02*
D03*
X288614Y625750D02*
D03*
Y660750D02*
D03*
X189068Y625750D02*
D03*
Y660750D02*
D03*
X89523Y625750D02*
D03*
Y660750D02*
D03*
D23*
X445750Y695750D02*
D03*
X435750D02*
D03*
X194750Y696750D02*
D03*
X184750D02*
D03*
X389750Y914500D02*
D03*
X399750D02*
D03*
X389750Y888750D02*
D03*
X399750D02*
D03*
X389750Y863000D02*
D03*
X399750D02*
D03*
X389750Y837250D02*
D03*
X399750D02*
D03*
X257000Y834500D02*
D03*
X267000D02*
D03*
X257000Y864000D02*
D03*
X267000D02*
D03*
X257000Y894250D02*
D03*
X267000D02*
D03*
X257000Y922250D02*
D03*
X267000D02*
D03*
D24*
X374000Y696500D02*
D03*
X358000D02*
D03*
Y787250D02*
D03*
X374000D02*
D03*
X492000Y743500D02*
D03*
X508000D02*
D03*
D25*
X165750Y774050D02*
D03*
X172250D02*
D03*
X178750D02*
D03*
X185250D02*
D03*
X191750D02*
D03*
X198250D02*
D03*
X204750D02*
D03*
X211250D02*
D03*
X217750D02*
D03*
X224250D02*
D03*
Y716450D02*
D03*
X217750D02*
D03*
X211250D02*
D03*
X204750D02*
D03*
X198250D02*
D03*
X191750D02*
D03*
X185250D02*
D03*
X178750D02*
D03*
X172250D02*
D03*
X165750D02*
D03*
X416000Y774050D02*
D03*
X422500D02*
D03*
X429000D02*
D03*
X435500D02*
D03*
X442000D02*
D03*
X448500D02*
D03*
X455000D02*
D03*
X461500D02*
D03*
X468000D02*
D03*
X474500D02*
D03*
Y716450D02*
D03*
X468000D02*
D03*
X461500D02*
D03*
X455000D02*
D03*
X448500D02*
D03*
X442000D02*
D03*
X435500D02*
D03*
X429000D02*
D03*
X422500D02*
D03*
X416000D02*
D03*
D26*
X514152Y908250D02*
D03*
Y931250D02*
D03*
X483451Y908250D02*
D03*
Y931250D02*
D03*
X452750Y908250D02*
D03*
Y931250D02*
D03*
D27*
X487250Y831250D02*
D03*
X522250D02*
D03*
X450750Y189250D02*
D03*
X485750D02*
D03*
X450750Y146750D02*
D03*
X485750D02*
D03*
X98250D02*
D03*
X133250D02*
D03*
X98250Y189250D02*
D03*
X133250D02*
D03*
X168000Y146750D02*
D03*
X203000D02*
D03*
X168750Y189250D02*
D03*
X203750D02*
D03*
X239250Y146750D02*
D03*
X274250D02*
D03*
X239250Y189250D02*
D03*
X274250D02*
D03*
X309750Y146750D02*
D03*
X344750D02*
D03*
X309750Y189250D02*
D03*
X344750D02*
D03*
X380250Y147000D02*
D03*
X415250D02*
D03*
X380250Y189250D02*
D03*
X415250D02*
D03*
D28*
X541000Y737250D02*
D03*
D29*
X599000Y760250D02*
D03*
Y737250D02*
D03*
Y714250D02*
D03*
D30*
X487750Y296735D02*
D03*
Y254035D02*
D03*
X287750Y304719D02*
D03*
Y262019D02*
D03*
X87000Y304719D02*
D03*
Y262019D02*
D03*
X54000Y384481D02*
D03*
Y341781D02*
D03*
X453500Y384481D02*
D03*
Y341781D02*
D03*
X253250Y384481D02*
D03*
Y341781D02*
D03*
D31*
X205750Y264750D02*
D03*
X122750D02*
D03*
X174750Y381750D02*
D03*
X91750D02*
D03*
X374000D02*
D03*
X291000D02*
D03*
X573250D02*
D03*
X490250D02*
D03*
X608250Y264750D02*
D03*
X525250D02*
D03*
X407000D02*
D03*
X324000D02*
D03*
D51*
X294150Y837150D02*
X345600D01*
X422500Y716450D02*
Y728750D01*
X397500Y753750D02*
X422500Y728750D01*
X397500Y753750D02*
Y785250D01*
X345600Y837150D02*
X397500Y785250D01*
X607712Y485846D02*
X613654D01*
X614750Y484750D01*
X105500Y598000D02*
Y624250D01*
X107000Y625750D01*
X201700Y598000D02*
Y616500D01*
X192450Y625750D02*
X201700Y616500D01*
X189068Y625750D02*
X192450D01*
X297900Y598000D02*
Y616500D01*
X288650Y625750D02*
X297900Y616500D01*
X288614Y625750D02*
X288650D01*
X394100Y598000D02*
Y619809D01*
X388159Y625750D02*
X394100Y619809D01*
X490300Y598000D02*
Y623155D01*
X487705Y625750D02*
X490300Y623155D01*
X586500Y598000D02*
Y625000D01*
X587250Y625750D01*
X147750Y749500D02*
Y824250D01*
X171700Y717000D02*
X172250Y716450D01*
X147750Y749500D02*
X171700Y725550D01*
Y717000D02*
Y725550D01*
X160650Y837150D02*
X162150D01*
X147750Y824250D02*
X160650Y837150D01*
D52*
X98200Y455500D02*
X102793Y460093D01*
X118092D01*
X126750Y468750D01*
X127750D01*
X265200Y751000D02*
X274200Y760000D01*
X512157Y457750D02*
X517250Y462843D01*
X491300Y457750D02*
X512157D01*
X609657D02*
X614750Y462843D01*
X591000Y457750D02*
X609657D01*
X588600D02*
X591000D01*
X614750Y462843D02*
Y468750D01*
X585850Y460500D02*
X588600Y457750D01*
X614750Y468750D02*
X614750Y468750D01*
X517250Y462843D02*
Y468650D01*
X488550Y460500D02*
X491300Y457750D01*
X517250Y468650D02*
X517350Y468750D01*
X419750Y465343D02*
Y468550D01*
X391250Y460500D02*
X394000Y457750D01*
X412157D01*
X419750Y465343D01*
Y468550D02*
X419950Y468750D01*
X322550Y459593D02*
Y468750D01*
X296700Y457750D02*
X297200Y457250D01*
X320207D01*
X322550Y459593D01*
X224150Y468750D02*
X225150D01*
X216243Y460843D02*
X224150Y468750D01*
X203993Y460843D02*
X216243D01*
X199400Y456250D02*
X203993Y460843D01*
D53*
X95450Y458250D02*
Y462150D01*
X69606Y487994D02*
X95450Y462150D01*
Y458250D02*
X98200Y455500D01*
X69606Y487994D02*
Y497388D01*
X83000Y907050D02*
X108400D01*
X561350D02*
X586750D01*
X561350Y805450D02*
X586750D01*
X599000Y760250D02*
Y791847D01*
X586750Y804097D02*
X599000Y791847D01*
X586750Y804097D02*
Y805450D01*
X541000Y737250D02*
X599000D01*
X550722Y487028D02*
X577250Y460500D01*
X550722Y487028D02*
Y498638D01*
X577250Y460500D02*
X585850D01*
X481000D02*
X488550D01*
X454499Y487001D02*
X481000Y460500D01*
X358275Y485725D02*
Y497388D01*
X383500Y460500D02*
X391250D01*
X358275Y485725D02*
X383500Y460500D01*
X285750D02*
X293950D01*
X262052Y484198D02*
Y497388D01*
Y484198D02*
X285750Y460500D01*
X293950D02*
X296700Y457750D01*
X165829Y485921D02*
Y497388D01*
Y485921D02*
X195500Y456250D01*
X66384Y499500D02*
X67494D01*
X69606Y497388D01*
X162607Y499500D02*
X163717D01*
X165829Y497388D01*
X258830Y499500D02*
X259940D01*
X262052Y497388D01*
X355053Y499500D02*
X356163D01*
X358275Y497388D01*
X454499Y487001D02*
Y497388D01*
X451277Y499500D02*
X452387D01*
X454499Y497388D01*
X547500Y500750D02*
X548610D01*
X550722Y498638D01*
D54*
X134250Y80250D02*
Y181500D01*
X20000Y415250D02*
X43250D01*
X19750Y415000D02*
X20000Y415250D01*
X204000Y80500D02*
Y189000D01*
X484250Y80250D02*
Y181000D01*
X414250Y80250D02*
Y181500D01*
X344500Y80500D02*
Y189000D01*
X274250Y80250D02*
Y189250D01*
X390100Y457750D02*
X416500Y431350D01*
X297200Y457250D02*
X298350Y456100D01*
X195500Y456250D02*
X205750Y446000D01*
X414250Y181500D02*
X415250Y182500D01*
Y189250D01*
X453500Y341781D02*
X454100D01*
X486069Y373750D01*
X486750D01*
X490250Y377250D01*
Y381750D01*
X379250Y80250D02*
Y181500D01*
X453500Y252750D02*
Y341781D01*
X429250Y228500D02*
X453500Y252750D01*
X392716Y228500D02*
X429250D01*
X381000Y190000D02*
Y216784D01*
X392716Y228500D01*
X380250Y189250D02*
X381000Y190000D01*
X379250Y181500D02*
X380250Y182500D01*
Y189250D01*
X99250Y80250D02*
Y181500D01*
X169000Y80500D02*
Y189000D01*
X239250Y80250D02*
Y189250D01*
X309500Y80500D02*
Y189000D01*
X312000Y426250D02*
X334000D01*
X298350Y439900D02*
Y456100D01*
Y439900D02*
X312000Y426250D01*
X503016Y431750D02*
X527750D01*
X491300Y443466D02*
Y457750D01*
Y443466D02*
X503016Y431750D01*
X573250Y381750D02*
Y386250D01*
X527750Y431750D02*
X573250Y386250D01*
X416500Y301250D02*
Y431350D01*
X410500Y295250D02*
X416500Y301250D01*
X407000Y264750D02*
X410500Y268250D01*
Y295250D01*
X374000Y381750D02*
Y386250D01*
X334000Y426250D02*
X374000Y386250D01*
X205750Y264750D02*
Y446000D01*
X102100Y455500D02*
X105500D01*
X98200D02*
X102100D01*
X174750Y381750D02*
Y386250D01*
X105500Y455500D02*
X174750Y386250D01*
X287750Y262019D02*
X289116Y263385D01*
X322635D01*
X324000Y264750D01*
X287750Y262019D02*
X288000Y261769D01*
Y236500D02*
Y261769D01*
X309000Y190000D02*
X309750Y189250D01*
X309000Y190000D02*
Y215500D01*
X288000Y236500D02*
X309000Y215500D01*
X253250Y341781D02*
X253850D01*
X285819Y373750D01*
X287500D01*
X291000Y377250D01*
Y381750D01*
X239250Y189250D02*
Y328381D01*
X252650Y341781D01*
X253250D01*
X87000Y262019D02*
X88365Y263385D01*
X121384D01*
X122750Y264750D01*
X87000Y262019D02*
X87600D01*
X89250Y260369D01*
Y244000D02*
Y260369D01*
Y244000D02*
X106000Y227250D01*
X156000D01*
X168000Y190000D02*
Y215250D01*
X156000Y227250D02*
X168000Y215250D01*
Y190000D02*
X168750Y189250D01*
X484250Y181000D02*
X485750Y182500D01*
Y189250D01*
X344250Y80250D02*
X344500Y80500D01*
Y189000D02*
X344750Y189250D01*
X309250Y80250D02*
X309500Y80500D01*
Y189000D02*
X309750Y189250D01*
X274250D02*
X274250Y189250D01*
X239250Y80250D02*
X239250Y80250D01*
X239250Y189250D02*
X239250Y189250D01*
X204000Y80500D02*
X204250Y80250D01*
X203750Y189250D02*
X204000Y189000D01*
X169000Y80500D02*
X169250Y80250D01*
X168750Y189250D02*
X169000Y189000D01*
X133250Y182500D02*
X134250Y181500D01*
X133250Y182500D02*
Y189250D01*
X55650Y343431D02*
X77784D01*
X88250Y378250D02*
X91750Y381750D01*
X88250Y353897D02*
Y378250D01*
X77784Y343431D02*
X88250Y353897D01*
X54000Y341781D02*
X55650Y343431D01*
X98250Y189250D02*
Y196000D01*
X54000Y240250D02*
X98250Y196000D01*
X54000Y240250D02*
Y341781D01*
X98250Y182500D02*
X99250Y181500D01*
X98250Y182500D02*
Y189250D01*
D55*
X522000Y831500D02*
Y863250D01*
Y831500D02*
X522250Y831250D01*
X521500Y863750D02*
X522000Y863250D01*
X541000Y737250D02*
Y783750D01*
X525250Y799500D02*
X541000Y783750D01*
X525250Y799500D02*
Y822250D01*
X522000Y825500D02*
X525250Y822250D01*
D56*
X107000Y625750D02*
X139296D01*
X89523D02*
X107000D01*
X192450D02*
X238841D01*
X288650D02*
X338386D01*
X19750Y415000D02*
Y605750D01*
Y201750D02*
Y415000D01*
X78895Y37000D02*
X541355D01*
X554250Y80250D02*
X556000Y78500D01*
Y51645D02*
Y78500D01*
X541355Y37000D02*
X556000Y51645D01*
X64250D02*
Y80250D01*
Y51645D02*
X78895Y37000D01*
X544227Y625750D02*
X587250D01*
X444682D02*
X487705D01*
X345136D02*
X388159D01*
X146046D02*
X189068D01*
X46500D02*
X89523D01*
X487705D02*
X537477D01*
X388159D02*
X437932D01*
X238841D02*
X288614D01*
X36500D02*
X39750D01*
X34750Y624000D02*
X36500Y625750D01*
X34750Y620750D02*
Y624000D01*
X19750Y605750D02*
X34750Y620750D01*
X19750Y201750D02*
X64250Y157250D01*
Y80250D02*
Y157250D01*
X85942Y527948D02*
X86567Y528573D01*
D57*
X591000Y457750D02*
X608250Y440500D01*
Y264750D02*
Y440500D01*
X449691Y188191D02*
X453000Y191500D01*
X449691Y146750D02*
X450750Y147809D01*
X453000Y191500D02*
Y214000D01*
X450750Y147809D02*
Y187132D01*
X453000Y214000D02*
X487750Y248750D01*
X449691Y188191D02*
X450750Y187132D01*
X487750Y248750D02*
Y256435D01*
X449691Y80691D02*
Y146750D01*
X487750Y256435D02*
X488500Y257185D01*
X265434Y556396D02*
Y573816D01*
X239792Y599458D02*
X265434Y573816D01*
X239792Y599458D02*
Y624799D01*
X238841Y625750D02*
X239792Y624799D01*
X554104Y557646D02*
Y581873D01*
X546477Y589500D02*
X554104Y581873D01*
X546477Y589500D02*
Y623500D01*
X544227Y625750D02*
X546477Y623500D01*
X537477Y625750D02*
X544227D01*
X457881Y556396D02*
Y578551D01*
X446932Y589500D02*
X457881Y578551D01*
X446932Y589500D02*
Y623500D01*
X444682Y625750D02*
X446932Y623500D01*
X437932Y625750D02*
X444682D01*
X361657Y556396D02*
Y575229D01*
X347386Y589500D02*
X361657Y575229D01*
X347386Y589500D02*
Y623500D01*
X345136Y625750D02*
X347386Y623500D01*
X338386Y625750D02*
X345136D01*
X169211Y556396D02*
Y568584D01*
X148295Y589500D02*
X169211Y568584D01*
X148295Y589500D02*
Y623500D01*
X146046Y625750D02*
X148295Y623500D01*
X139296Y625750D02*
X146046D01*
X72988Y556396D02*
Y565262D01*
X48750Y589500D02*
X72988Y565262D01*
X48750Y589500D02*
Y623500D01*
X46500Y625750D02*
X48750Y623500D01*
X39750Y625750D02*
X46500D01*
X488500Y257185D02*
X520250D01*
X525250Y262185D01*
Y264750D01*
X449250Y80250D02*
X449691Y80691D01*
D58*
X274200Y760000D02*
D03*
X299600D02*
D03*
X325000D02*
D03*
X350400D02*
D03*
X274450Y724500D02*
D03*
X299850D02*
D03*
X325250D02*
D03*
X350650D02*
D03*
X370350Y837150D02*
D03*
Y862550D02*
D03*
Y887950D02*
D03*
Y913350D02*
D03*
X294150Y837150D02*
D03*
Y862550D02*
D03*
Y887950D02*
D03*
X238350Y837150D02*
D03*
Y862550D02*
D03*
Y887950D02*
D03*
Y913350D02*
D03*
X162150Y837150D02*
D03*
Y862550D02*
D03*
Y887950D02*
D03*
X586750Y830850D02*
D03*
X561350D02*
D03*
X586750Y907050D02*
D03*
X561350Y881650D02*
D03*
X586750D02*
D03*
X561350Y856250D02*
D03*
X586750D02*
D03*
X561350Y805450D02*
D03*
X586750D02*
D03*
X83000Y881650D02*
D03*
X108400D02*
D03*
X83000Y805450D02*
D03*
X108400Y830850D02*
D03*
X83000D02*
D03*
X108400Y856250D02*
D03*
X83000D02*
D03*
X108400Y907050D02*
D03*
X83000D02*
D03*
D59*
X375800Y760000D02*
D03*
X376050Y724500D02*
D03*
X294150Y913350D02*
D03*
X162150D02*
D03*
D60*
X561350Y907050D02*
D03*
X108400Y805450D02*
D03*
D61*
X554250Y80250D02*
D03*
X519250D02*
D03*
X484250D02*
D03*
X449250D02*
D03*
X414250D02*
D03*
X379250D02*
D03*
X344250D02*
D03*
X309250D02*
D03*
X274250D02*
D03*
X239250D02*
D03*
X204250D02*
D03*
X169250D02*
D03*
X134250D02*
D03*
X99250D02*
D03*
X64250D02*
D03*
X29250D02*
D03*
D62*
X278000Y825750D02*
D03*
X412500Y828250D02*
D03*
X413250Y847250D02*
D03*
X429250Y810000D02*
D03*
X418000Y807500D02*
D03*
X410000Y799500D02*
D03*
X398000Y799750D02*
D03*
X272500Y432500D02*
D03*
X147750Y266500D02*
D03*
X452750Y949000D02*
D03*
X447765Y682515D02*
D03*
X483274Y789288D02*
D03*
X478750Y700250D02*
D03*
X474250Y791750D02*
D03*
X464843Y793750D02*
D03*
X168750Y601500D02*
D03*
X199862Y744138D02*
D03*
X151750Y708750D02*
D03*
X176697Y749500D02*
D03*
X169250Y756500D02*
D03*
X219000Y743250D02*
D03*
X464250D02*
D03*
X213000Y688250D02*
D03*
X525000Y686500D02*
D03*
X115500Y697500D02*
D03*
X155500Y686500D02*
D03*
X266000Y597500D02*
D03*
X256750Y698250D02*
D03*
X439750Y739250D02*
D03*
X523000Y707250D02*
D03*
X468500Y695750D02*
D03*
X513500Y601000D02*
D03*
X395019Y700034D02*
D03*
X500750Y789000D02*
D03*
X453750Y847250D02*
D03*
Y862000D02*
D03*
X453500Y874500D02*
D03*
X529000Y946250D02*
D03*
X499000D02*
D03*
X102500Y743750D02*
D03*
X88750D02*
D03*
X74750D02*
D03*
X248500Y705000D02*
D03*
X164500Y796500D02*
D03*
X174000Y791500D02*
D03*
X206000Y696750D02*
D03*
X242500Y802750D02*
D03*
X230750Y803250D02*
D03*
X220250Y803000D02*
D03*
X210250Y803250D02*
D03*
X170500Y693250D02*
D03*
X599750Y587500D02*
D03*
X503550D02*
D03*
X407350D02*
D03*
X311150D02*
D03*
X214950D02*
D03*
X118750D02*
D03*
X472750Y318000D02*
D03*
X380500Y275750D02*
D03*
X351750D02*
D03*
X259000Y274750D02*
D03*
X177750Y277000D02*
D03*
X578750Y437000D02*
D03*
X325500Y448250D02*
D03*
X421750Y450750D02*
D03*
X522250Y450500D02*
D03*
X229450Y451750D02*
D03*
X134250D02*
D03*
X92000Y430500D02*
D03*
X176500Y425750D02*
D03*
X365500Y437750D02*
D03*
X457500Y431500D02*
D03*
X558500Y438000D02*
D03*
X593919Y570500D02*
D03*
X497696Y569250D02*
D03*
X401473D02*
D03*
X209027D02*
D03*
X112804D02*
D03*
X305250D02*
D03*
X574669Y485803D02*
D03*
X585866Y486000D02*
D03*
X478446Y484553D02*
D03*
X489643Y484750D02*
D03*
X382223Y484553D02*
D03*
X393419Y484750D02*
D03*
X285999Y484553D02*
D03*
X297196Y484750D02*
D03*
X189776Y484553D02*
D03*
X200973Y484750D02*
D03*
X104750D02*
D03*
X93553Y484553D02*
D03*
D63*
X129000Y603250D02*
D03*
X244000Y486500D02*
D03*
X234250Y430250D02*
D03*
X42500Y493750D02*
D03*
X123000Y507750D02*
D03*
X218500Y602750D02*
D03*
X227500Y511500D02*
D03*
X319500Y602000D02*
D03*
X332000Y505000D02*
D03*
X317250Y517000D02*
D03*
X433500Y508250D02*
D03*
X412000Y519250D02*
D03*
X515250Y589500D02*
D03*
X602250Y523750D02*
D03*
X512500Y510750D02*
D03*
X558500Y952875D02*
D03*
Y940000D02*
D03*
X572062Y952875D02*
D03*
Y940000D02*
D03*
X585625Y952875D02*
D03*
Y940000D02*
D03*
X599187D02*
D03*
Y952875D02*
D03*
X50500Y751250D02*
D03*
Y738375D02*
D03*
Y725500D02*
D03*
Y712625D02*
D03*
Y699750D02*
D03*
X36937D02*
D03*
Y712625D02*
D03*
Y725500D02*
D03*
Y738375D02*
D03*
Y751250D02*
D03*
X563000Y192750D02*
D03*
Y179875D02*
D03*
Y167000D02*
D03*
Y154125D02*
D03*
Y141250D02*
D03*
X576562Y192750D02*
D03*
Y179875D02*
D03*
Y167000D02*
D03*
Y154125D02*
D03*
Y141250D02*
D03*
X590125Y192750D02*
D03*
Y179875D02*
D03*
Y167000D02*
D03*
Y154125D02*
D03*
Y141250D02*
D03*
X603687Y192750D02*
D03*
Y179875D02*
D03*
Y167000D02*
D03*
Y154125D02*
D03*
Y141250D02*
D03*
X617250D02*
D03*
Y154125D02*
D03*
Y167000D02*
D03*
Y179875D02*
D03*
Y192750D02*
D03*
X575500Y606000D02*
D03*
X562250D02*
D03*
X480000Y606250D02*
D03*
X462000Y606000D02*
D03*
X382750D02*
D03*
X364500Y605250D02*
D03*
X94750Y606500D02*
D03*
X83500Y606250D02*
D03*
X178750Y605000D02*
D03*
X189750Y605250D02*
D03*
X277000Y606250D02*
D03*
X289500Y606500D02*
D03*
X247750Y402750D02*
D03*
X43250Y415250D02*
D03*
X510750Y307750D02*
D03*
X521125D02*
D03*
X531500D02*
D03*
X510750Y298750D02*
D03*
X521125D02*
D03*
X531500D02*
D03*
X436500Y414000D02*
D03*
X446875D02*
D03*
X457250D02*
D03*
X436500Y405000D02*
D03*
X446875D02*
D03*
X457250D02*
D03*
X53625Y415250D02*
D03*
X64000D02*
D03*
X43250Y406250D02*
D03*
X53625D02*
D03*
X64000D02*
D03*
X308750Y309750D02*
D03*
X319125D02*
D03*
X329500D02*
D03*
X308750Y300750D02*
D03*
X319125D02*
D03*
X329500D02*
D03*
X227000Y411750D02*
D03*
X237375D02*
D03*
X247750D02*
D03*
X227000Y402750D02*
D03*
X237375D02*
D03*
X104000Y315750D02*
D03*
X114375D02*
D03*
X124750D02*
D03*
X104000Y306750D02*
D03*
X114375D02*
D03*
X124750D02*
D03*
M02*
