G04*
G04 #@! TF.GenerationSoftware,Altium Limited,Altium Designer,20.0.13 (296)*
G04*
G04 Layer_Physical_Order=3*
G04 Layer_Color=16440176*
%FSLAX44Y44*%
%MOMM*%
G71*
G01*
G75*
%ADD12C,0.2000*%
%ADD14C,0.2500*%
%ADD51C,0.3000*%
%ADD58C,1.5000*%
%ADD59R,1.5000X1.5000*%
%ADD61O,1.9304X3.8608*%
%ADD62C,0.7000*%
%ADD63C,0.8000*%
G36*
X626432Y3569D02*
X3569D01*
Y996431D01*
X626431D01*
X626432Y3569D01*
D02*
G37*
%LPC*%
G36*
X517500Y961319D02*
X479500D01*
X478134Y961047D01*
X476977Y960273D01*
X462272Y945569D01*
X458419D01*
X457820Y946689D01*
X457931Y946854D01*
X458358Y949000D01*
X457931Y951146D01*
X456715Y952965D01*
X454896Y954181D01*
X452750Y954608D01*
X450604Y954181D01*
X448785Y952965D01*
X447569Y951146D01*
X447142Y949000D01*
X447569Y946854D01*
X447680Y946689D01*
X447081Y945569D01*
X148750D01*
X147384Y945297D01*
X146227Y944523D01*
X134727Y933023D01*
X133953Y931866D01*
X133681Y930500D01*
Y862050D01*
X133953Y860684D01*
X134727Y859527D01*
X153401Y840852D01*
X152894Y839630D01*
X152568Y837150D01*
X152894Y834670D01*
X153852Y832359D01*
X155374Y830375D01*
X157359Y828852D01*
X159670Y827895D01*
X162150Y827568D01*
X164630Y827895D01*
X166941Y828852D01*
X168925Y830375D01*
X170448Y832359D01*
X171405Y834670D01*
X171732Y837150D01*
X171405Y839630D01*
X170448Y841941D01*
X168925Y843925D01*
X166941Y845448D01*
X164630Y846405D01*
X162150Y846732D01*
X159670Y846405D01*
X158448Y845899D01*
X140819Y863528D01*
Y929022D01*
X150228Y938431D01*
X463750D01*
X464331Y938547D01*
X464956Y937376D01*
X463144Y935564D01*
X275000D01*
X273732Y935311D01*
X272657Y934593D01*
X265657Y927593D01*
X264939Y926518D01*
X264686Y925250D01*
Y863300D01*
X264939Y862032D01*
X265657Y860957D01*
X285506Y841107D01*
X284895Y839630D01*
X284568Y837150D01*
X284895Y834670D01*
X285852Y832359D01*
X287375Y830375D01*
X287516Y830266D01*
X287107Y829064D01*
X282401D01*
X281965Y829715D01*
X280146Y830931D01*
X278000Y831358D01*
X275854Y830931D01*
X274035Y829715D01*
X272819Y827896D01*
X272392Y825750D01*
X272819Y823604D01*
X274035Y821785D01*
X274686Y821349D01*
Y791873D01*
X254407Y771593D01*
X253689Y770518D01*
X253436Y769250D01*
Y709624D01*
X252166Y709165D01*
X250646Y710181D01*
X248500Y710608D01*
X246354Y710181D01*
X244535Y708965D01*
X243319Y707146D01*
X242892Y705000D01*
X243319Y702854D01*
X244535Y701035D01*
X244931Y700770D01*
Y667000D01*
X245203Y665634D01*
X245977Y664477D01*
X296181Y614272D01*
Y597478D01*
X280772Y582069D01*
X219007D01*
X218622Y583339D01*
X218915Y583535D01*
X220131Y585354D01*
X220558Y587500D01*
X220131Y589646D01*
X218915Y591465D01*
X217096Y592681D01*
X214950Y593108D01*
X212804Y592681D01*
X210985Y591465D01*
X209769Y589646D01*
X209342Y587500D01*
X209769Y585354D01*
X210985Y583535D01*
X211278Y583339D01*
X210893Y582069D01*
X193228D01*
X174265Y601032D01*
X174358Y601500D01*
X173931Y603646D01*
X172715Y605465D01*
X170896Y606681D01*
X168750Y607108D01*
X166604Y606681D01*
X164785Y605465D01*
X163569Y603646D01*
X163142Y601500D01*
X163569Y599354D01*
X164785Y597535D01*
X166604Y596319D01*
X168750Y595892D01*
X169218Y595985D01*
X189227Y575977D01*
X190384Y575203D01*
X191750Y574931D01*
X205344D01*
X205729Y573661D01*
X205062Y573215D01*
X203846Y571396D01*
X203419Y569250D01*
X203846Y567104D01*
X205062Y565285D01*
X206881Y564069D01*
X209027Y563642D01*
X211173Y564069D01*
X212992Y565285D01*
X214208Y567104D01*
X214635Y569250D01*
X214208Y571396D01*
X212992Y573215D01*
X212324Y573661D01*
X212710Y574931D01*
X282250D01*
X283616Y575203D01*
X284773Y575977D01*
X302273Y593477D01*
X303047Y594634D01*
X303319Y596000D01*
Y615750D01*
X303047Y617116D01*
X302273Y618273D01*
X252069Y668478D01*
Y693244D01*
X253339Y693915D01*
X254604Y693069D01*
X256750Y692642D01*
X258896Y693069D01*
X260715Y694285D01*
X261931Y696104D01*
X262358Y698250D01*
X261931Y700396D01*
X260715Y702215D01*
X260064Y702651D01*
Y767877D01*
X280343Y788157D01*
X281061Y789232D01*
X281314Y790500D01*
Y821349D01*
X281965Y821785D01*
X282401Y822436D01*
X313377D01*
X344907Y790907D01*
X345982Y790189D01*
X347250Y789936D01*
X369627D01*
X463045Y696519D01*
X462892Y695750D01*
X463319Y693604D01*
X464535Y691785D01*
X466354Y690569D01*
X468500Y690142D01*
X470646Y690569D01*
X472465Y691785D01*
X473681Y693604D01*
X474021Y695315D01*
X475105Y695884D01*
X475337Y695916D01*
X476604Y695069D01*
X478750Y694642D01*
X480896Y695069D01*
X482715Y696285D01*
X483931Y698104D01*
X484358Y700250D01*
X483931Y702396D01*
X482715Y704215D01*
X480896Y705431D01*
X478750Y705858D01*
X476604Y705431D01*
X474785Y704215D01*
X473569Y702396D01*
X473229Y700685D01*
X472145Y700116D01*
X471913Y700084D01*
X470646Y700931D01*
X468500Y701358D01*
X467731Y701205D01*
X373343Y795593D01*
X372268Y796311D01*
X371000Y796564D01*
X348623D01*
X317093Y828093D01*
X316018Y828811D01*
X314750Y829064D01*
X301193D01*
X300784Y830266D01*
X300926Y830375D01*
X302448Y832359D01*
X303405Y834670D01*
X303732Y837150D01*
X303405Y839630D01*
X302448Y841941D01*
X300926Y843925D01*
X298941Y845448D01*
X296630Y846405D01*
X294150Y846732D01*
X291670Y846405D01*
X290193Y845794D01*
X271314Y864672D01*
Y923877D01*
X276373Y928936D01*
X303881D01*
X304266Y927666D01*
X303887Y927413D01*
X303887Y927413D01*
X299324Y922850D01*
X284650D01*
Y903850D01*
X303650D01*
Y918524D01*
X307317Y922191D01*
X364180D01*
X364612Y920921D01*
X363575Y920125D01*
X362052Y918141D01*
X361095Y915830D01*
X360768Y913350D01*
X361095Y910870D01*
X362052Y908559D01*
X363575Y906574D01*
X365559Y905052D01*
X367870Y904094D01*
X370350Y903768D01*
X372830Y904094D01*
X375141Y905052D01*
X377126Y906574D01*
X378648Y908559D01*
X379605Y910870D01*
X379932Y913350D01*
X379605Y915830D01*
X378648Y918141D01*
X377126Y920125D01*
X376088Y920921D01*
X376520Y922191D01*
X416733D01*
X424441Y914483D01*
Y854267D01*
X420483Y850309D01*
X417821D01*
X417215Y851215D01*
X415396Y852431D01*
X413250Y852858D01*
X411104Y852431D01*
X409285Y851215D01*
X408069Y849396D01*
X407642Y847250D01*
X408069Y845104D01*
X409285Y843285D01*
X411104Y842069D01*
X413250Y841642D01*
X415396Y842069D01*
X417215Y843285D01*
X417821Y844191D01*
X421750D01*
X421750Y844191D01*
X422920Y844424D01*
X423913Y845087D01*
X429663Y850837D01*
X430326Y851830D01*
X430559Y853000D01*
X430559Y853000D01*
Y915750D01*
X430326Y916920D01*
X429663Y917913D01*
X429663Y917913D01*
X420163Y927413D01*
X419784Y927666D01*
X420169Y928936D01*
X464516D01*
X465784Y929189D01*
X466859Y929907D01*
X479889Y942936D01*
X494599D01*
X495035Y942285D01*
X496854Y941069D01*
X499000Y940642D01*
X501146Y941069D01*
X502965Y942285D01*
X504181Y944104D01*
X504608Y946250D01*
X504181Y948396D01*
X502965Y950215D01*
X501146Y951431D01*
X499000Y951858D01*
X496854Y951431D01*
X495035Y950215D01*
X494599Y949564D01*
X478516D01*
X478067Y949474D01*
X477441Y950645D01*
X480978Y954181D01*
X516022D01*
X523485Y946718D01*
X523392Y946250D01*
X523819Y944104D01*
X525035Y942285D01*
X526854Y941069D01*
X529000Y940642D01*
X531146Y941069D01*
X532965Y942285D01*
X534181Y944104D01*
X534608Y946250D01*
X534181Y948396D01*
X532965Y950215D01*
X531146Y951431D01*
X529000Y951858D01*
X528532Y951765D01*
X520023Y960273D01*
X518866Y961047D01*
X517500Y961319D01*
D02*
G37*
G36*
X171650Y922850D02*
X152650D01*
Y903850D01*
X171650D01*
Y922850D01*
D02*
G37*
G36*
X238350Y922932D02*
X235870Y922605D01*
X233559Y921648D01*
X231574Y920125D01*
X230052Y918141D01*
X229095Y915830D01*
X228768Y913350D01*
X229095Y910870D01*
X230052Y908559D01*
X231574Y906574D01*
X233559Y905052D01*
X235870Y904094D01*
X238350Y903768D01*
X240830Y904094D01*
X243141Y905052D01*
X245125Y906574D01*
X246648Y908559D01*
X247605Y910870D01*
X247932Y913350D01*
X247605Y915830D01*
X246648Y918141D01*
X245125Y920125D01*
X243141Y921648D01*
X240830Y922605D01*
X238350Y922932D01*
D02*
G37*
G36*
X570850Y916550D02*
X551850D01*
Y897550D01*
X570850D01*
Y916550D01*
D02*
G37*
G36*
X586750Y916632D02*
X584270Y916305D01*
X581959Y915348D01*
X579975Y913826D01*
X578452Y911841D01*
X577495Y909530D01*
X577168Y907050D01*
X577495Y904570D01*
X578452Y902259D01*
X579975Y900275D01*
X581959Y898752D01*
X584270Y897794D01*
X586750Y897468D01*
X589230Y897794D01*
X591541Y898752D01*
X593526Y900275D01*
X595048Y902259D01*
X596006Y904570D01*
X596332Y907050D01*
X596006Y909530D01*
X595048Y911841D01*
X593526Y913826D01*
X591541Y915348D01*
X589230Y916305D01*
X586750Y916632D01*
D02*
G37*
G36*
X108400D02*
X105920Y916305D01*
X103609Y915348D01*
X101624Y913826D01*
X100102Y911841D01*
X99144Y909530D01*
X98818Y907050D01*
X99144Y904570D01*
X100102Y902259D01*
X101624Y900275D01*
X103609Y898752D01*
X105920Y897794D01*
X108400Y897468D01*
X110880Y897794D01*
X113191Y898752D01*
X115175Y900275D01*
X116698Y902259D01*
X117655Y904570D01*
X117982Y907050D01*
X117655Y909530D01*
X116698Y911841D01*
X115175Y913826D01*
X113191Y915348D01*
X110880Y916305D01*
X108400Y916632D01*
D02*
G37*
G36*
X83000D02*
X80520Y916305D01*
X78209Y915348D01*
X76224Y913826D01*
X74702Y911841D01*
X73745Y909530D01*
X73418Y907050D01*
X73745Y904570D01*
X74702Y902259D01*
X76224Y900275D01*
X78209Y898752D01*
X80520Y897794D01*
X83000Y897468D01*
X85480Y897794D01*
X87791Y898752D01*
X89775Y900275D01*
X91298Y902259D01*
X92255Y904570D01*
X92582Y907050D01*
X92255Y909530D01*
X91298Y911841D01*
X89775Y913826D01*
X87791Y915348D01*
X85480Y916305D01*
X83000Y916632D01*
D02*
G37*
G36*
X109670Y891609D02*
Y882920D01*
X118359D01*
X118182Y884271D01*
X117170Y886713D01*
X115561Y888811D01*
X113463Y890420D01*
X111021Y891432D01*
X109670Y891609D01*
D02*
G37*
G36*
X84270D02*
Y882920D01*
X92959D01*
X92782Y884271D01*
X91770Y886713D01*
X90161Y888811D01*
X88063Y890420D01*
X85621Y891432D01*
X84270Y891609D01*
D02*
G37*
G36*
X588020D02*
Y882920D01*
X596709D01*
X596532Y884271D01*
X595520Y886713D01*
X593911Y888811D01*
X591813Y890420D01*
X589371Y891432D01*
X588020Y891609D01*
D02*
G37*
G36*
X562620D02*
Y882920D01*
X571309D01*
X571132Y884271D01*
X570120Y886713D01*
X568511Y888811D01*
X566413Y890420D01*
X563971Y891432D01*
X562620Y891609D01*
D02*
G37*
G36*
X585480D02*
X584129Y891432D01*
X581687Y890420D01*
X579589Y888811D01*
X577980Y886713D01*
X576968Y884271D01*
X576791Y882920D01*
X585480D01*
Y891609D01*
D02*
G37*
G36*
X560080D02*
X558729Y891432D01*
X556287Y890420D01*
X554189Y888811D01*
X552580Y886713D01*
X551568Y884271D01*
X551391Y882920D01*
X560080D01*
Y891609D01*
D02*
G37*
G36*
X81730D02*
X80379Y891432D01*
X77937Y890420D01*
X75839Y888811D01*
X74230Y886713D01*
X73218Y884271D01*
X73040Y882920D01*
X81730D01*
Y891609D01*
D02*
G37*
G36*
X107130D02*
X105779Y891432D01*
X103337Y890420D01*
X101239Y888811D01*
X99630Y886713D01*
X98618Y884271D01*
X98441Y882920D01*
X107130D01*
Y891609D01*
D02*
G37*
G36*
X370350Y897532D02*
X367870Y897205D01*
X365559Y896248D01*
X363575Y894725D01*
X362052Y892741D01*
X361095Y890430D01*
X360768Y887950D01*
X361095Y885470D01*
X362052Y883159D01*
X363575Y881174D01*
X365559Y879652D01*
X367870Y878695D01*
X370350Y878368D01*
X372830Y878695D01*
X375141Y879652D01*
X377126Y881174D01*
X378648Y883159D01*
X379605Y885470D01*
X379932Y887950D01*
X379605Y890430D01*
X378648Y892741D01*
X377126Y894725D01*
X375141Y896248D01*
X372830Y897205D01*
X370350Y897532D01*
D02*
G37*
G36*
X238350D02*
X235870Y897205D01*
X233559Y896248D01*
X231574Y894725D01*
X230052Y892741D01*
X229095Y890430D01*
X228768Y887950D01*
X229095Y885470D01*
X230052Y883159D01*
X231574Y881174D01*
X233559Y879652D01*
X235870Y878695D01*
X238350Y878368D01*
X240830Y878695D01*
X243141Y879652D01*
X245125Y881174D01*
X246648Y883159D01*
X247605Y885470D01*
X247932Y887950D01*
X247605Y890430D01*
X246648Y892741D01*
X245125Y894725D01*
X243141Y896248D01*
X240830Y897205D01*
X238350Y897532D01*
D02*
G37*
G36*
X162150D02*
X159670Y897205D01*
X157359Y896248D01*
X155374Y894725D01*
X153852Y892741D01*
X152894Y890430D01*
X152568Y887950D01*
X152894Y885470D01*
X153852Y883159D01*
X155374Y881174D01*
X157359Y879652D01*
X159670Y878695D01*
X162150Y878368D01*
X164630Y878695D01*
X166941Y879652D01*
X168925Y881174D01*
X170448Y883159D01*
X171405Y885470D01*
X171732Y887950D01*
X171405Y890430D01*
X170448Y892741D01*
X168925Y894725D01*
X166941Y896248D01*
X164630Y897205D01*
X162150Y897532D01*
D02*
G37*
G36*
X118359Y880380D02*
X109670D01*
Y871691D01*
X111021Y871868D01*
X113463Y872880D01*
X115561Y874489D01*
X117170Y876587D01*
X118182Y879029D01*
X118359Y880380D01*
D02*
G37*
G36*
X92959D02*
X84270D01*
Y871691D01*
X85621Y871868D01*
X88063Y872880D01*
X90161Y874489D01*
X91770Y876587D01*
X92782Y879029D01*
X92959Y880380D01*
D02*
G37*
G36*
X596709D02*
X588020D01*
Y871691D01*
X589371Y871868D01*
X591813Y872880D01*
X593911Y874489D01*
X595520Y876587D01*
X596532Y879029D01*
X596709Y880380D01*
D02*
G37*
G36*
X571309D02*
X562620D01*
Y871691D01*
X563971Y871868D01*
X566413Y872880D01*
X568511Y874489D01*
X570120Y876587D01*
X571132Y879029D01*
X571309Y880380D01*
D02*
G37*
G36*
X585480D02*
X576791D01*
X576968Y879029D01*
X577980Y876587D01*
X579589Y874489D01*
X581687Y872880D01*
X584129Y871868D01*
X585480Y871691D01*
Y880380D01*
D02*
G37*
G36*
X560080D02*
X551391D01*
X551568Y879029D01*
X552580Y876587D01*
X554189Y874489D01*
X556287Y872880D01*
X558729Y871868D01*
X560080Y871691D01*
Y880380D01*
D02*
G37*
G36*
X81730D02*
X73041D01*
X73218Y879029D01*
X74230Y876587D01*
X75839Y874489D01*
X77937Y872880D01*
X80379Y871868D01*
X81730Y871691D01*
Y880380D01*
D02*
G37*
G36*
X107130D02*
X98441D01*
X98618Y879029D01*
X99630Y876587D01*
X101239Y874489D01*
X103337Y872880D01*
X105779Y871868D01*
X107130Y871691D01*
Y880380D01*
D02*
G37*
G36*
X370350Y872132D02*
X367870Y871805D01*
X365559Y870848D01*
X363575Y869325D01*
X362052Y867341D01*
X361095Y865030D01*
X360768Y862550D01*
X361095Y860070D01*
X362052Y857759D01*
X363575Y855775D01*
X365559Y854252D01*
X367870Y853295D01*
X370350Y852968D01*
X372830Y853295D01*
X375141Y854252D01*
X377126Y855775D01*
X378648Y857759D01*
X379605Y860070D01*
X379932Y862550D01*
X379605Y865030D01*
X378648Y867341D01*
X377126Y869325D01*
X375141Y870848D01*
X372830Y871805D01*
X370350Y872132D01*
D02*
G37*
G36*
X238350D02*
X235870Y871805D01*
X233559Y870848D01*
X231574Y869325D01*
X230052Y867341D01*
X229095Y865030D01*
X228768Y862550D01*
X229095Y860070D01*
X230052Y857759D01*
X231574Y855775D01*
X233559Y854252D01*
X235870Y853295D01*
X238350Y852968D01*
X240830Y853295D01*
X243141Y854252D01*
X245125Y855775D01*
X246648Y857759D01*
X247605Y860070D01*
X247932Y862550D01*
X247605Y865030D01*
X246648Y867341D01*
X245125Y869325D01*
X243141Y870848D01*
X240830Y871805D01*
X238350Y872132D01*
D02*
G37*
G36*
X586750Y865832D02*
X584270Y865506D01*
X581959Y864548D01*
X579975Y863026D01*
X578452Y861041D01*
X577495Y858730D01*
X577168Y856250D01*
X577495Y853770D01*
X578452Y851459D01*
X579975Y849475D01*
X581959Y847952D01*
X584270Y846994D01*
X586750Y846668D01*
X589230Y846994D01*
X591541Y847952D01*
X593526Y849475D01*
X595048Y851459D01*
X596006Y853770D01*
X596332Y856250D01*
X596006Y858730D01*
X595048Y861041D01*
X593526Y863026D01*
X591541Y864548D01*
X589230Y865506D01*
X586750Y865832D01*
D02*
G37*
G36*
X561350D02*
X558870Y865506D01*
X556559Y864548D01*
X554575Y863026D01*
X553052Y861041D01*
X552095Y858730D01*
X551768Y856250D01*
X552095Y853770D01*
X553052Y851459D01*
X554575Y849475D01*
X556559Y847952D01*
X558870Y846994D01*
X561350Y846668D01*
X563830Y846994D01*
X566141Y847952D01*
X568125Y849475D01*
X569648Y851459D01*
X570606Y853770D01*
X570932Y856250D01*
X570606Y858730D01*
X569648Y861041D01*
X568125Y863026D01*
X566141Y864548D01*
X563830Y865506D01*
X561350Y865832D01*
D02*
G37*
G36*
X108400D02*
X105920Y865506D01*
X103609Y864548D01*
X101624Y863026D01*
X100102Y861041D01*
X99144Y858730D01*
X98818Y856250D01*
X99144Y853770D01*
X100102Y851459D01*
X101624Y849475D01*
X103609Y847952D01*
X105920Y846994D01*
X108400Y846668D01*
X110880Y846994D01*
X113191Y847952D01*
X115175Y849475D01*
X116698Y851459D01*
X117655Y853770D01*
X117982Y856250D01*
X117655Y858730D01*
X116698Y861041D01*
X115175Y863026D01*
X113191Y864548D01*
X110880Y865506D01*
X108400Y865832D01*
D02*
G37*
G36*
X83000D02*
X80520Y865506D01*
X78209Y864548D01*
X76224Y863026D01*
X74702Y861041D01*
X73745Y858730D01*
X73418Y856250D01*
X73745Y853770D01*
X74702Y851459D01*
X76224Y849475D01*
X78209Y847952D01*
X80520Y846994D01*
X83000Y846668D01*
X85480Y846994D01*
X87791Y847952D01*
X89775Y849475D01*
X91298Y851459D01*
X92255Y853770D01*
X92582Y856250D01*
X92255Y858730D01*
X91298Y861041D01*
X89775Y863026D01*
X87791Y864548D01*
X85480Y865506D01*
X83000Y865832D01*
D02*
G37*
G36*
X109670Y840809D02*
Y832120D01*
X118359D01*
X118182Y833471D01*
X117170Y835913D01*
X115561Y838011D01*
X113463Y839620D01*
X111021Y840632D01*
X109670Y840809D01*
D02*
G37*
G36*
X84270D02*
Y832120D01*
X92959D01*
X92782Y833471D01*
X91770Y835913D01*
X90161Y838011D01*
X88063Y839620D01*
X85621Y840632D01*
X84270Y840809D01*
D02*
G37*
G36*
X588020D02*
Y832120D01*
X596709D01*
X596532Y833471D01*
X595520Y835913D01*
X593911Y838011D01*
X591813Y839620D01*
X589371Y840632D01*
X588020Y840809D01*
D02*
G37*
G36*
X562620D02*
Y832120D01*
X571309D01*
X571132Y833471D01*
X570120Y835913D01*
X568511Y838011D01*
X566413Y839620D01*
X563971Y840632D01*
X562620Y840809D01*
D02*
G37*
G36*
X585480D02*
X584129Y840632D01*
X581687Y839620D01*
X579589Y838011D01*
X577980Y835913D01*
X576968Y833471D01*
X576791Y832120D01*
X585480D01*
Y840809D01*
D02*
G37*
G36*
X560080D02*
X558729Y840632D01*
X556287Y839620D01*
X554189Y838011D01*
X552580Y835913D01*
X551568Y833471D01*
X551391Y832120D01*
X560080D01*
Y840809D01*
D02*
G37*
G36*
X107130D02*
X105779Y840632D01*
X103337Y839620D01*
X101239Y838011D01*
X99630Y835913D01*
X98618Y833471D01*
X98441Y832120D01*
X107130D01*
Y840809D01*
D02*
G37*
G36*
X81730D02*
X80379Y840632D01*
X77937Y839620D01*
X75839Y838011D01*
X74230Y835913D01*
X73218Y833471D01*
X73040Y832120D01*
X81730D01*
Y840809D01*
D02*
G37*
G36*
X238350Y846732D02*
X235870Y846405D01*
X233559Y845448D01*
X231574Y843925D01*
X230052Y841941D01*
X229095Y839630D01*
X228768Y837150D01*
X229095Y834670D01*
X230052Y832359D01*
X231574Y830375D01*
X233559Y828852D01*
X235870Y827895D01*
X238350Y827568D01*
X240830Y827895D01*
X243141Y828852D01*
X245125Y830375D01*
X246648Y832359D01*
X247605Y834670D01*
X247932Y837150D01*
X247605Y839630D01*
X246648Y841941D01*
X245125Y843925D01*
X243141Y845448D01*
X240830Y846405D01*
X238350Y846732D01*
D02*
G37*
G36*
X294150Y897532D02*
X291670Y897205D01*
X289359Y896248D01*
X287375Y894725D01*
X285852Y892741D01*
X284895Y890430D01*
X284568Y887950D01*
X284895Y885470D01*
X285852Y883159D01*
X287375Y881174D01*
X289359Y879652D01*
X291670Y878695D01*
X294150Y878368D01*
X296630Y878695D01*
X298362Y879412D01*
X352946Y824829D01*
X352462Y823559D01*
X337467D01*
X302688Y858338D01*
X303405Y860070D01*
X303732Y862550D01*
X303405Y865030D01*
X302448Y867341D01*
X300926Y869325D01*
X298941Y870848D01*
X296630Y871805D01*
X294150Y872132D01*
X291670Y871805D01*
X289359Y870848D01*
X287375Y869325D01*
X285852Y867341D01*
X284895Y865030D01*
X284568Y862550D01*
X284895Y860070D01*
X285852Y857759D01*
X287375Y855775D01*
X289359Y854252D01*
X291670Y853295D01*
X294150Y852968D01*
X296630Y853295D01*
X298362Y854012D01*
X334037Y818337D01*
X335029Y817674D01*
X336200Y817441D01*
X468675D01*
X495470Y790647D01*
X495142Y789000D01*
X495569Y786854D01*
X496785Y785035D01*
X498604Y783819D01*
X500750Y783392D01*
X502896Y783819D01*
X503671Y784337D01*
X504941Y783658D01*
Y677044D01*
X413968Y586071D01*
X412798Y586697D01*
X412958Y587500D01*
X412531Y589646D01*
X411315Y591465D01*
X409496Y592681D01*
X407350Y593108D01*
X405204Y592681D01*
X403385Y591465D01*
X402169Y589646D01*
X401742Y587500D01*
X402169Y585354D01*
X403385Y583535D01*
X405204Y582319D01*
X407350Y581892D01*
X408153Y582052D01*
X408779Y580882D01*
X402542Y574645D01*
X401473Y574858D01*
X399327Y574431D01*
X397508Y573215D01*
X396292Y571396D01*
X395866Y569250D01*
X396292Y567104D01*
X397508Y565285D01*
X399327Y564069D01*
X401473Y563642D01*
X403619Y564069D01*
X405438Y565285D01*
X406654Y567104D01*
X407081Y569250D01*
X406868Y570319D01*
X510163Y673614D01*
X510826Y674606D01*
X511059Y675777D01*
X511059Y675777D01*
Y793000D01*
X511059Y793000D01*
X510826Y794171D01*
X510163Y795163D01*
X510163Y795163D01*
X459145Y846181D01*
X459358Y847250D01*
X458931Y849396D01*
X457715Y851215D01*
X455896Y852431D01*
X453750Y852858D01*
X451604Y852431D01*
X449785Y851215D01*
X448569Y849396D01*
X448142Y847250D01*
X448569Y845104D01*
X449785Y843285D01*
X451604Y842069D01*
X453750Y841642D01*
X454819Y841855D01*
X499870Y796804D01*
X499446Y795432D01*
X499353Y795415D01*
X472105Y822663D01*
X471113Y823326D01*
X469942Y823559D01*
X469942Y823559D01*
X417491D01*
X416829Y824829D01*
X417681Y826104D01*
X418108Y828250D01*
X417681Y830396D01*
X416465Y832215D01*
X414646Y833431D01*
X412500Y833858D01*
X410354Y833431D01*
X408535Y832215D01*
X407319Y830396D01*
X407182Y829709D01*
X378215D01*
X377589Y830979D01*
X378648Y832359D01*
X379605Y834670D01*
X379932Y837150D01*
X379605Y839630D01*
X378648Y841941D01*
X377126Y843925D01*
X375141Y845448D01*
X372830Y846405D01*
X370350Y846732D01*
X367870Y846405D01*
X365559Y845448D01*
X363575Y843925D01*
X362052Y841941D01*
X361095Y839630D01*
X360768Y837150D01*
X361095Y834670D01*
X362052Y832359D01*
X363111Y830979D01*
X362485Y829709D01*
X356717D01*
X302688Y883738D01*
X303405Y885470D01*
X303732Y887950D01*
X303405Y890430D01*
X302448Y892741D01*
X300926Y894725D01*
X298941Y896248D01*
X296630Y897205D01*
X294150Y897532D01*
D02*
G37*
G36*
X118359Y829580D02*
X109670D01*
Y820891D01*
X111021Y821068D01*
X113463Y822080D01*
X115561Y823689D01*
X117170Y825787D01*
X118182Y828229D01*
X118359Y829580D01*
D02*
G37*
G36*
X92959D02*
X84270D01*
Y820891D01*
X85621Y821068D01*
X88063Y822080D01*
X90161Y823689D01*
X91770Y825787D01*
X92782Y828229D01*
X92959Y829580D01*
D02*
G37*
G36*
X571309D02*
X562620D01*
Y820891D01*
X563971Y821068D01*
X566413Y822080D01*
X568511Y823689D01*
X570120Y825787D01*
X571132Y828229D01*
X571309Y829580D01*
D02*
G37*
G36*
X596709D02*
X588020D01*
Y820891D01*
X589371Y821068D01*
X591813Y822080D01*
X593911Y823689D01*
X595520Y825787D01*
X596532Y828229D01*
X596709Y829580D01*
D02*
G37*
G36*
X585480D02*
X576791D01*
X576968Y828229D01*
X577980Y825787D01*
X579589Y823689D01*
X581687Y822080D01*
X584129Y821068D01*
X585480Y820891D01*
Y829580D01*
D02*
G37*
G36*
X560080D02*
X551391D01*
X551568Y828229D01*
X552580Y825787D01*
X554189Y823689D01*
X556287Y822080D01*
X558729Y821068D01*
X560080Y820891D01*
Y829580D01*
D02*
G37*
G36*
X81730D02*
X73041D01*
X73218Y828229D01*
X74230Y825787D01*
X75839Y823689D01*
X77937Y822080D01*
X80379Y821068D01*
X81730Y820891D01*
Y829580D01*
D02*
G37*
G36*
X107130D02*
X98441D01*
X98618Y828229D01*
X99630Y825787D01*
X101239Y823689D01*
X103337Y822080D01*
X105779Y821068D01*
X107130Y820891D01*
Y829580D01*
D02*
G37*
G36*
X429250Y815608D02*
X427104Y815181D01*
X425285Y813965D01*
X424069Y812146D01*
X423833Y810957D01*
X422484Y810688D01*
X421965Y811465D01*
X420146Y812681D01*
X418000Y813108D01*
X415854Y812681D01*
X414035Y811465D01*
X412819Y809646D01*
X412392Y807500D01*
X412738Y805759D01*
X412632Y805565D01*
X411935Y804868D01*
X411741Y804762D01*
X410000Y805108D01*
X407854Y804681D01*
X406035Y803465D01*
X404819Y801646D01*
X404672Y800908D01*
X403377D01*
X403181Y801896D01*
X401965Y803715D01*
X400146Y804931D01*
X398000Y805358D01*
X395854Y804931D01*
X394035Y803715D01*
X392819Y801896D01*
X392392Y799750D01*
X392819Y797604D01*
X394035Y795785D01*
X395854Y794569D01*
X398000Y794142D01*
X400146Y794569D01*
X401965Y795785D01*
X403181Y797604D01*
X403328Y798342D01*
X404623D01*
X404819Y797354D01*
X406035Y795535D01*
X407854Y794319D01*
X410000Y793892D01*
X412146Y794319D01*
X413965Y795535D01*
X415181Y797354D01*
X415608Y799500D01*
X415261Y801241D01*
X415368Y801435D01*
X416065Y802132D01*
X416259Y802238D01*
X418000Y801892D01*
X420146Y802319D01*
X421965Y803535D01*
X423181Y805354D01*
X423417Y806543D01*
X424766Y806812D01*
X425285Y806035D01*
X427104Y804819D01*
X429250Y804392D01*
X431396Y804819D01*
X433215Y806035D01*
X434431Y807854D01*
X434858Y810000D01*
X434431Y812146D01*
X433215Y813965D01*
X431396Y815181D01*
X429250Y815608D01*
D02*
G37*
G36*
X162150Y872132D02*
X159670Y871805D01*
X157359Y870848D01*
X155374Y869325D01*
X153852Y867341D01*
X152894Y865030D01*
X152568Y862550D01*
X152894Y860070D01*
X153852Y857759D01*
X155374Y855775D01*
X157359Y854252D01*
X159670Y853295D01*
X162150Y852968D01*
X164630Y853295D01*
X166941Y854252D01*
X168925Y855775D01*
X170448Y857759D01*
X171405Y860070D01*
X171453Y860431D01*
X183272D01*
X227181Y816522D01*
Y807480D01*
X226785Y807215D01*
X226180Y806311D01*
X224653D01*
X224215Y806965D01*
X222396Y808181D01*
X220250Y808608D01*
X218104Y808181D01*
X216285Y806965D01*
X215968Y806492D01*
X214699D01*
X214215Y807215D01*
X212396Y808431D01*
X210250Y808858D01*
X208104Y808431D01*
X206285Y807215D01*
X205069Y805396D01*
X204642Y803250D01*
X204735Y802782D01*
X182022Y780069D01*
X81500D01*
X80134Y779797D01*
X78977Y779023D01*
X72227Y772273D01*
X71453Y771116D01*
X71181Y769750D01*
Y747980D01*
X70785Y747715D01*
X69569Y745896D01*
X69142Y743750D01*
X69569Y741604D01*
X70785Y739785D01*
X72604Y738569D01*
X74750Y738142D01*
X76896Y738569D01*
X78715Y739785D01*
X79931Y741604D01*
X80358Y743750D01*
X79931Y745896D01*
X78715Y747715D01*
X78319Y747980D01*
Y768272D01*
X82978Y772931D01*
X95720D01*
X95855Y772563D01*
X95932Y771661D01*
X94977Y771023D01*
X86227Y762273D01*
X85453Y761116D01*
X85181Y759750D01*
Y747980D01*
X84785Y747715D01*
X83569Y745896D01*
X83142Y743750D01*
X83569Y741604D01*
X84785Y739785D01*
X86604Y738569D01*
X88750Y738142D01*
X90896Y738569D01*
X92715Y739785D01*
X93931Y741604D01*
X94358Y743750D01*
X93931Y745896D01*
X92715Y747715D01*
X92319Y747980D01*
Y758272D01*
X98978Y764931D01*
X116975D01*
X117461Y763758D01*
X102968Y749265D01*
X102500Y749358D01*
X100354Y748931D01*
X98535Y747715D01*
X97319Y745896D01*
X96892Y743750D01*
X97319Y741604D01*
X98535Y739785D01*
X100354Y738569D01*
X102500Y738142D01*
X104646Y738569D01*
X106465Y739785D01*
X107681Y741604D01*
X108108Y743750D01*
X108015Y744218D01*
X123728Y759931D01*
X163581D01*
X164180Y758811D01*
X164069Y758646D01*
X163642Y756500D01*
X164069Y754354D01*
X165285Y752535D01*
X167104Y751319D01*
X169250Y750892D01*
X170105Y751062D01*
X171185Y749982D01*
X171089Y749500D01*
X171516Y747354D01*
X172731Y745535D01*
X174551Y744319D01*
X176697Y743892D01*
X178843Y744319D01*
X180662Y745535D01*
X181878Y747354D01*
X182304Y749500D01*
X181878Y751646D01*
X180662Y753465D01*
X178843Y754681D01*
X176697Y755108D01*
X175842Y754938D01*
X174762Y756018D01*
X174858Y756500D01*
X174431Y758646D01*
X174320Y758811D01*
X174919Y759931D01*
X191000D01*
X192366Y760203D01*
X193523Y760977D01*
X230282Y797735D01*
X230750Y797642D01*
X232896Y798069D01*
X234715Y799285D01*
X235926Y801097D01*
X235961Y801104D01*
X237223Y801089D01*
X237319Y800604D01*
X238535Y798785D01*
X239186Y798349D01*
Y744373D01*
X231157Y736343D01*
X230439Y735268D01*
X230186Y734000D01*
Y630000D01*
X230439Y628732D01*
X231157Y627657D01*
X260545Y598269D01*
X260392Y597500D01*
X260819Y595354D01*
X262035Y593535D01*
X263854Y592319D01*
X266000Y591892D01*
X268146Y592319D01*
X269965Y593535D01*
X271181Y595354D01*
X271608Y597500D01*
X271181Y599646D01*
X269965Y601465D01*
X268146Y602681D01*
X266000Y603108D01*
X265231Y602955D01*
X236814Y631372D01*
Y732627D01*
X244843Y740657D01*
X245561Y741732D01*
X245814Y743000D01*
Y798349D01*
X246465Y798785D01*
X247681Y800604D01*
X248108Y802750D01*
X247681Y804896D01*
X246465Y806715D01*
X244646Y807931D01*
X242500Y808358D01*
X240354Y807931D01*
X238535Y806715D01*
X237324Y804903D01*
X237289Y804896D01*
X236027Y804911D01*
X235931Y805396D01*
X234715Y807215D01*
X234319Y807480D01*
Y818000D01*
X234047Y819366D01*
X233273Y820523D01*
X187273Y866523D01*
X186116Y867297D01*
X184750Y867569D01*
X170273D01*
X168925Y869325D01*
X166941Y870848D01*
X164630Y871805D01*
X162150Y872132D01*
D02*
G37*
G36*
X117900Y814950D02*
X98900D01*
Y795950D01*
X117900D01*
Y814950D01*
D02*
G37*
G36*
X586750Y815032D02*
X584270Y814706D01*
X581959Y813748D01*
X579975Y812225D01*
X578452Y810241D01*
X577495Y807930D01*
X577168Y805450D01*
X577495Y802970D01*
X578452Y800659D01*
X579975Y798675D01*
X581959Y797152D01*
X584270Y796195D01*
X586750Y795868D01*
X589230Y796195D01*
X591541Y797152D01*
X593526Y798675D01*
X595048Y800659D01*
X596006Y802970D01*
X596332Y805450D01*
X596006Y807930D01*
X595048Y810241D01*
X593526Y812225D01*
X591541Y813748D01*
X589230Y814706D01*
X586750Y815032D01*
D02*
G37*
G36*
X561350D02*
X558870Y814706D01*
X556559Y813748D01*
X554575Y812225D01*
X553052Y810241D01*
X552095Y807930D01*
X551768Y805450D01*
X552095Y802970D01*
X553052Y800659D01*
X554575Y798675D01*
X556559Y797152D01*
X558870Y796195D01*
X561350Y795868D01*
X563830Y796195D01*
X566141Y797152D01*
X568125Y798675D01*
X569648Y800659D01*
X570606Y802970D01*
X570932Y805450D01*
X570606Y807930D01*
X569648Y810241D01*
X568125Y812225D01*
X566141Y813748D01*
X563830Y814706D01*
X561350Y815032D01*
D02*
G37*
G36*
X83000D02*
X80520Y814706D01*
X78209Y813748D01*
X76224Y812225D01*
X74702Y810241D01*
X73745Y807930D01*
X73418Y805450D01*
X73745Y802970D01*
X74702Y800659D01*
X76224Y798675D01*
X78209Y797152D01*
X80520Y796195D01*
X83000Y795868D01*
X85480Y796195D01*
X87791Y797152D01*
X89775Y798675D01*
X91298Y800659D01*
X92255Y802970D01*
X92582Y805450D01*
X92255Y807930D01*
X91298Y810241D01*
X89775Y812225D01*
X87791Y813748D01*
X85480Y814706D01*
X83000Y815032D01*
D02*
G37*
G36*
X164500Y802108D02*
X162354Y801681D01*
X160535Y800465D01*
X159319Y798646D01*
X158892Y796500D01*
X159319Y794354D01*
X160535Y792535D01*
X162354Y791319D01*
X164500Y790892D01*
X166646Y791319D01*
X167163Y791665D01*
X167383Y791635D01*
X168487Y791022D01*
X168819Y789354D01*
X170035Y787535D01*
X171854Y786319D01*
X174000Y785892D01*
X176146Y786319D01*
X177965Y787535D01*
X179181Y789354D01*
X179608Y791500D01*
X179181Y793646D01*
X177965Y795465D01*
X176146Y796681D01*
X174000Y797108D01*
X171854Y796681D01*
X171337Y796335D01*
X171117Y796365D01*
X170013Y796978D01*
X169681Y798646D01*
X168465Y800465D01*
X166646Y801681D01*
X164500Y802108D01*
D02*
G37*
G36*
X326270Y769959D02*
Y761270D01*
X334959D01*
X334782Y762621D01*
X333770Y765063D01*
X332161Y767161D01*
X330063Y768770D01*
X327621Y769782D01*
X326270Y769959D01*
D02*
G37*
G36*
X323730D02*
X322379Y769782D01*
X319937Y768770D01*
X317839Y767161D01*
X316230Y765063D01*
X315219Y762621D01*
X315041Y761270D01*
X323730D01*
Y769959D01*
D02*
G37*
G36*
X385300Y769500D02*
X366300D01*
Y750500D01*
X385300D01*
Y769500D01*
D02*
G37*
G36*
X350400Y769582D02*
X347920Y769256D01*
X345609Y768298D01*
X343625Y766776D01*
X342102Y764791D01*
X341145Y762480D01*
X340818Y760000D01*
X341145Y757520D01*
X342102Y755209D01*
X343625Y753225D01*
X345609Y751702D01*
X347920Y750744D01*
X350400Y750418D01*
X352880Y750744D01*
X355191Y751702D01*
X357175Y753225D01*
X358698Y755209D01*
X359655Y757520D01*
X359982Y760000D01*
X359655Y762480D01*
X358698Y764791D01*
X357175Y766776D01*
X355191Y768298D01*
X352880Y769256D01*
X350400Y769582D01*
D02*
G37*
G36*
X299600D02*
X297120Y769256D01*
X294809Y768298D01*
X292825Y766776D01*
X291302Y764791D01*
X290345Y762480D01*
X290018Y760000D01*
X290345Y757520D01*
X291302Y755209D01*
X292825Y753225D01*
X294809Y751702D01*
X297120Y750744D01*
X299600Y750418D01*
X302080Y750744D01*
X304391Y751702D01*
X306376Y753225D01*
X307898Y755209D01*
X308855Y757520D01*
X309182Y760000D01*
X308855Y762480D01*
X307898Y764791D01*
X306376Y766776D01*
X304391Y768298D01*
X302080Y769256D01*
X299600Y769582D01*
D02*
G37*
G36*
X274200D02*
X271720Y769256D01*
X269409Y768298D01*
X267425Y766776D01*
X265902Y764791D01*
X264945Y762480D01*
X264618Y760000D01*
X264945Y757520D01*
X265902Y755209D01*
X267425Y753225D01*
X269409Y751702D01*
X271720Y750744D01*
X274200Y750418D01*
X276680Y750744D01*
X278991Y751702D01*
X280975Y753225D01*
X282498Y755209D01*
X283456Y757520D01*
X283782Y760000D01*
X283456Y762480D01*
X282498Y764791D01*
X280975Y766776D01*
X278991Y768298D01*
X276680Y769256D01*
X274200Y769582D01*
D02*
G37*
G36*
X334959Y758730D02*
X326270D01*
Y750041D01*
X327621Y750218D01*
X330063Y751230D01*
X332161Y752839D01*
X333770Y754937D01*
X334782Y757379D01*
X334959Y758730D01*
D02*
G37*
G36*
X323730D02*
X315041D01*
X315219Y757379D01*
X316230Y754937D01*
X317839Y752839D01*
X319937Y751230D01*
X322379Y750218D01*
X323730Y750041D01*
Y758730D01*
D02*
G37*
G36*
X199862Y749746D02*
X197716Y749319D01*
X195896Y748104D01*
X194681Y746284D01*
X194254Y744138D01*
X194681Y741992D01*
X195896Y740173D01*
X197716Y738957D01*
X199862Y738531D01*
X202008Y738957D01*
X203827Y740173D01*
X205043Y741992D01*
X205469Y744138D01*
X205043Y746284D01*
X203827Y748104D01*
X202008Y749319D01*
X199862Y749746D01*
D02*
G37*
G36*
X464250Y748858D02*
X462104Y748431D01*
X460285Y747215D01*
X459069Y745396D01*
X458642Y743250D01*
X459069Y741104D01*
X460285Y739285D01*
X462104Y738069D01*
X464250Y737642D01*
X466396Y738069D01*
X468215Y739285D01*
X469431Y741104D01*
X469858Y743250D01*
X469431Y745396D01*
X468215Y747215D01*
X466396Y748431D01*
X464250Y748858D01*
D02*
G37*
G36*
X219000D02*
X216854Y748431D01*
X215035Y747215D01*
X213819Y745396D01*
X213392Y743250D01*
X213819Y741104D01*
X215035Y739285D01*
X216854Y738069D01*
X219000Y737642D01*
X221146Y738069D01*
X222965Y739285D01*
X224181Y741104D01*
X224608Y743250D01*
X224181Y745396D01*
X222965Y747215D01*
X221146Y748431D01*
X219000Y748858D01*
D02*
G37*
G36*
X439750Y744858D02*
X437604Y744431D01*
X435785Y743215D01*
X434569Y741396D01*
X434142Y739250D01*
X434569Y737104D01*
X435785Y735285D01*
X437604Y734069D01*
X439750Y733642D01*
X441896Y734069D01*
X443715Y735285D01*
X444931Y737104D01*
X445358Y739250D01*
X444931Y741396D01*
X443715Y743215D01*
X441896Y744431D01*
X439750Y744858D01*
D02*
G37*
G36*
X326520Y734459D02*
Y725770D01*
X335210D01*
X335032Y727121D01*
X334020Y729563D01*
X332411Y731661D01*
X330313Y733270D01*
X327871Y734282D01*
X326520Y734459D01*
D02*
G37*
G36*
X323980Y734459D02*
X322629Y734282D01*
X320187Y733270D01*
X318089Y731661D01*
X316480Y729563D01*
X315469Y727121D01*
X315291Y725770D01*
X323980D01*
Y734459D01*
D02*
G37*
G36*
X385550Y734000D02*
X366550D01*
Y715000D01*
X385550D01*
Y734000D01*
D02*
G37*
G36*
X350650Y734082D02*
X348170Y733755D01*
X345859Y732798D01*
X343875Y731275D01*
X342352Y729291D01*
X341395Y726980D01*
X341068Y724500D01*
X341395Y722020D01*
X342352Y719709D01*
X343875Y717725D01*
X345859Y716202D01*
X348170Y715245D01*
X350650Y714918D01*
X353130Y715245D01*
X355441Y716202D01*
X357425Y717725D01*
X358948Y719709D01*
X359906Y722020D01*
X360232Y724500D01*
X359906Y726980D01*
X358948Y729291D01*
X357425Y731275D01*
X355441Y732798D01*
X353130Y733755D01*
X350650Y734082D01*
D02*
G37*
G36*
X299850D02*
X297370Y733755D01*
X295059Y732798D01*
X293075Y731275D01*
X291552Y729291D01*
X290595Y726980D01*
X290268Y724500D01*
X290595Y722020D01*
X291552Y719709D01*
X293075Y717725D01*
X295059Y716202D01*
X297370Y715245D01*
X299850Y714918D01*
X302330Y715245D01*
X304641Y716202D01*
X306625Y717725D01*
X308148Y719709D01*
X309105Y722020D01*
X309432Y724500D01*
X309105Y726980D01*
X308148Y729291D01*
X306625Y731275D01*
X304641Y732798D01*
X302330Y733755D01*
X299850Y734082D01*
D02*
G37*
G36*
X274450D02*
X271970Y733755D01*
X269659Y732798D01*
X267675Y731275D01*
X266152Y729291D01*
X265195Y726980D01*
X264868Y724500D01*
X265195Y722020D01*
X266152Y719709D01*
X267675Y717725D01*
X269659Y716202D01*
X271970Y715245D01*
X274450Y714918D01*
X276930Y715245D01*
X279241Y716202D01*
X281225Y717725D01*
X282748Y719709D01*
X283706Y722020D01*
X284032Y724500D01*
X283706Y726980D01*
X282748Y729291D01*
X281225Y731275D01*
X279241Y732798D01*
X276930Y733755D01*
X274450Y734082D01*
D02*
G37*
G36*
X335209Y723230D02*
X326520D01*
Y714541D01*
X327871Y714718D01*
X330313Y715730D01*
X332411Y717339D01*
X334020Y719437D01*
X335032Y721879D01*
X335209Y723230D01*
D02*
G37*
G36*
X323980D02*
X315291D01*
X315469Y721879D01*
X316480Y719437D01*
X318089Y717339D01*
X320187Y715730D01*
X322629Y714718D01*
X323980Y714541D01*
Y723230D01*
D02*
G37*
G36*
X151750Y714358D02*
X149604Y713931D01*
X147785Y712715D01*
X146569Y710896D01*
X146142Y708750D01*
X146569Y706604D01*
X147785Y704785D01*
X149604Y703569D01*
X151750Y703142D01*
X153896Y703569D01*
X155715Y704785D01*
X156931Y706604D01*
X157358Y708750D01*
X156931Y710896D01*
X155715Y712715D01*
X153896Y713931D01*
X151750Y714358D01*
D02*
G37*
G36*
X523000Y712858D02*
X520854Y712431D01*
X519035Y711215D01*
X517819Y709396D01*
X517392Y707250D01*
X517819Y705104D01*
X519035Y703285D01*
X520854Y702069D01*
X523000Y701642D01*
X525146Y702069D01*
X526965Y703285D01*
X528181Y705104D01*
X528608Y707250D01*
X528181Y709396D01*
X526965Y711215D01*
X525146Y712431D01*
X523000Y712858D01*
D02*
G37*
G36*
X395019Y705642D02*
X392873Y705215D01*
X391054Y703999D01*
X389838Y702180D01*
X389412Y700034D01*
X389838Y697888D01*
X391054Y696069D01*
X392873Y694853D01*
X395019Y694426D01*
X397165Y694853D01*
X398984Y696069D01*
X400200Y697888D01*
X400627Y700034D01*
X400200Y702180D01*
X398984Y703999D01*
X397165Y705215D01*
X395019Y705642D01*
D02*
G37*
G36*
X170500Y698858D02*
X168354Y698431D01*
X166535Y697215D01*
X165319Y695396D01*
X164892Y693250D01*
X165319Y691104D01*
X166535Y689285D01*
X168354Y688069D01*
X170500Y687642D01*
X172646Y688069D01*
X174465Y689285D01*
X175681Y691104D01*
X176108Y693250D01*
X175681Y695396D01*
X174465Y697215D01*
X172646Y698431D01*
X170500Y698858D01*
D02*
G37*
G36*
X159250Y725569D02*
X98429D01*
X97063Y725297D01*
X95906Y724523D01*
X68477Y697094D01*
X67703Y695937D01*
X67431Y694571D01*
Y542000D01*
X67703Y540634D01*
X68477Y539477D01*
X130681Y477272D01*
Y455980D01*
X130285Y455715D01*
X129069Y453896D01*
X128642Y451750D01*
X129069Y449604D01*
X130285Y447785D01*
X130681Y447520D01*
Y319959D01*
X129411Y319573D01*
X129076Y320076D01*
X127091Y321402D01*
X124750Y321868D01*
X122409Y321402D01*
X120424Y320076D01*
X120197Y319736D01*
X118927D01*
X118701Y320076D01*
X116716Y321402D01*
X114375Y321868D01*
X112034Y321402D01*
X110049Y320076D01*
X109823Y319736D01*
X108553D01*
X108326Y320076D01*
X106341Y321402D01*
X104000Y321868D01*
X101659Y321402D01*
X99674Y320076D01*
X98348Y318091D01*
X97882Y315750D01*
X98348Y313409D01*
X99130Y312239D01*
X99593Y311250D01*
X99130Y310261D01*
X98348Y309091D01*
X97882Y306750D01*
X98348Y304409D01*
X99674Y302424D01*
X101659Y301098D01*
X104000Y300632D01*
X106341Y301098D01*
X108326Y302424D01*
X108553Y302764D01*
X109823D01*
X110049Y302424D01*
X112034Y301098D01*
X114375Y300632D01*
X116716Y301098D01*
X118701Y302424D01*
X118927Y302764D01*
X120197D01*
X120424Y302424D01*
X122409Y301098D01*
X124750Y300632D01*
X127091Y301098D01*
X129076Y302424D01*
X129411Y302927D01*
X130681Y302541D01*
Y282000D01*
X130953Y280634D01*
X131727Y279477D01*
X142567Y268636D01*
X142142Y266500D01*
X142569Y264354D01*
X143785Y262535D01*
X145604Y261319D01*
X147750Y260892D01*
X149896Y261319D01*
X151715Y262535D01*
X152931Y264354D01*
X153358Y266500D01*
X152931Y268646D01*
X151715Y270465D01*
X149896Y271681D01*
X149546Y271750D01*
X137819Y283478D01*
Y447520D01*
X138215Y447785D01*
X139431Y449604D01*
X139858Y451750D01*
X139431Y453896D01*
X138215Y455715D01*
X137819Y455980D01*
Y478750D01*
X137547Y480116D01*
X136773Y481273D01*
X74569Y543478D01*
Y693093D01*
X99907Y718431D01*
X157772D01*
X190477Y685727D01*
X191634Y684953D01*
X193000Y684681D01*
X208770D01*
X209035Y684285D01*
X210854Y683069D01*
X213000Y682642D01*
X215146Y683069D01*
X216965Y684285D01*
X218181Y686104D01*
X218608Y688250D01*
X218181Y690396D01*
X216965Y692215D01*
X215146Y693431D01*
X213000Y693858D01*
X212089Y693676D01*
X211652Y694123D01*
X211220Y694799D01*
X211608Y696750D01*
X211181Y698896D01*
X209965Y700715D01*
X208146Y701931D01*
X206000Y702358D01*
X203854Y701931D01*
X202035Y700715D01*
X200819Y698896D01*
X200392Y696750D01*
X200819Y694604D01*
X201832Y693089D01*
X201369Y691819D01*
X194478D01*
X161773Y724523D01*
X160616Y725297D01*
X159250Y725569D01*
D02*
G37*
G36*
X117250Y716319D02*
X104500D01*
X103134Y716047D01*
X101977Y715273D01*
X94477Y707773D01*
X93703Y706616D01*
X93431Y705250D01*
Y694500D01*
X93703Y693134D01*
X94477Y691977D01*
X143681Y642772D01*
Y505750D01*
X143953Y504384D01*
X144727Y503227D01*
X199227Y448727D01*
X200384Y447953D01*
X201750Y447681D01*
X218675D01*
X219161Y446508D01*
X194227Y421573D01*
X193453Y420416D01*
X193181Y419050D01*
Y297478D01*
X178218Y282515D01*
X177750Y282608D01*
X175604Y282181D01*
X173785Y280965D01*
X172569Y279146D01*
X172142Y277000D01*
X172569Y274854D01*
X173785Y273035D01*
X175604Y271819D01*
X177750Y271392D01*
X179896Y271819D01*
X181715Y273035D01*
X182931Y274854D01*
X183358Y277000D01*
X183265Y277468D01*
X199273Y293477D01*
X200047Y294634D01*
X200319Y296000D01*
Y417572D01*
X228982Y446235D01*
X229450Y446142D01*
X231596Y446569D01*
X233415Y447785D01*
X234631Y449604D01*
X235058Y451750D01*
X234631Y453896D01*
X233415Y455715D01*
X231596Y456931D01*
X229450Y457358D01*
X227304Y456931D01*
X225485Y455715D01*
X224886Y454819D01*
X203228D01*
X150819Y507228D01*
Y644250D01*
X150547Y645616D01*
X149773Y646773D01*
X100569Y695978D01*
Y703772D01*
X105978Y709181D01*
X115772D01*
X140977Y683977D01*
X142134Y683203D01*
X143500Y682931D01*
X151270D01*
X151535Y682535D01*
X153354Y681319D01*
X155500Y680892D01*
X157646Y681319D01*
X159465Y682535D01*
X160681Y684354D01*
X161108Y686500D01*
X160681Y688646D01*
X159465Y690465D01*
X157646Y691681D01*
X155500Y692108D01*
X153354Y691681D01*
X151535Y690465D01*
X151270Y690069D01*
X144978D01*
X119773Y715273D01*
X118616Y716047D01*
X117250Y716319D01*
D02*
G37*
G36*
X447765Y688123D02*
X445619Y687696D01*
X443800Y686481D01*
X442584Y684661D01*
X442158Y682515D01*
X442584Y680369D01*
X443800Y678550D01*
X445619Y677335D01*
X447765Y676908D01*
X449911Y677335D01*
X451731Y678550D01*
X452946Y680369D01*
X453373Y682515D01*
X452946Y684661D01*
X451731Y686481D01*
X449911Y687696D01*
X447765Y688123D01*
D02*
G37*
G36*
X464843Y799358D02*
X462697Y798931D01*
X460878Y797715D01*
X459662Y795896D01*
X459235Y793750D01*
X459662Y791604D01*
X460878Y789785D01*
X462697Y788569D01*
X464843Y788142D01*
X466989Y788569D01*
X467930Y789197D01*
X468982Y789573D01*
X469557Y788874D01*
X470285Y787785D01*
X472104Y786569D01*
X474250Y786142D01*
X476396Y786569D01*
X476938Y786932D01*
X478468Y786581D01*
X479308Y785323D01*
X481128Y784108D01*
X483185Y783698D01*
X488691Y778192D01*
Y696517D01*
X383587Y591413D01*
X382924Y590420D01*
X382691Y589250D01*
X382691Y589250D01*
Y564500D01*
X382691Y564500D01*
X382924Y563330D01*
X383587Y562337D01*
X393337Y552587D01*
X393337Y552587D01*
X394329Y551924D01*
X395500Y551691D01*
X395500Y551691D01*
X440750D01*
X440750Y551691D01*
X441921Y551924D01*
X442913Y552587D01*
X488267Y597941D01*
X508929D01*
X509535Y597035D01*
X511354Y595819D01*
X513500Y595392D01*
X515646Y595819D01*
X517465Y597035D01*
X518681Y598854D01*
X519108Y601000D01*
X518681Y603146D01*
X517465Y604965D01*
X515646Y606181D01*
X513500Y606608D01*
X511354Y606181D01*
X509535Y604965D01*
X508929Y604059D01*
X487000D01*
X485829Y603826D01*
X484837Y603163D01*
X484837Y603163D01*
X439483Y557809D01*
X396767D01*
X388809Y565767D01*
Y587983D01*
X493913Y693087D01*
X493913Y693087D01*
X494576Y694080D01*
X494809Y695250D01*
X494809Y695250D01*
Y779459D01*
X494576Y780630D01*
X493913Y781622D01*
X488430Y787105D01*
X488454Y787142D01*
X488881Y789288D01*
X488454Y791434D01*
X487239Y793254D01*
X485420Y794469D01*
X483274Y794896D01*
X481128Y794469D01*
X480585Y794107D01*
X479056Y794457D01*
X478215Y795715D01*
X476396Y796931D01*
X474250Y797358D01*
X472104Y796931D01*
X471164Y796302D01*
X470111Y795927D01*
X469536Y796626D01*
X468808Y797715D01*
X466989Y798931D01*
X464843Y799358D01*
D02*
G37*
G36*
X599750Y593108D02*
X597604Y592681D01*
X595785Y591465D01*
X594569Y589646D01*
X594142Y587500D01*
X594569Y585354D01*
X595785Y583535D01*
X597604Y582319D01*
X599750Y581892D01*
X601896Y582319D01*
X603715Y583535D01*
X604931Y585354D01*
X605358Y587500D01*
X604931Y589646D01*
X603715Y591465D01*
X601896Y592681D01*
X599750Y593108D01*
D02*
G37*
G36*
X311150D02*
X309004Y592681D01*
X307185Y591465D01*
X305969Y589646D01*
X305542Y587500D01*
X305969Y585354D01*
X307185Y583535D01*
X309004Y582319D01*
X311150Y581892D01*
X313296Y582319D01*
X315115Y583535D01*
X316331Y585354D01*
X316758Y587500D01*
X316331Y589646D01*
X315115Y591465D01*
X313296Y592681D01*
X311150Y593108D01*
D02*
G37*
G36*
X118750D02*
X116604Y592681D01*
X114785Y591465D01*
X113569Y589646D01*
X113142Y587500D01*
X113569Y585354D01*
X114785Y583535D01*
X116604Y582319D01*
X118750Y581892D01*
X120896Y582319D01*
X122715Y583535D01*
X123931Y585354D01*
X124358Y587500D01*
X123931Y589646D01*
X122715Y591465D01*
X120896Y592681D01*
X118750Y593108D01*
D02*
G37*
G36*
X453500Y880108D02*
X451354Y879681D01*
X449535Y878465D01*
X448319Y876646D01*
X447892Y874500D01*
X448319Y872354D01*
X449535Y870535D01*
X451354Y869319D01*
X453500Y868892D01*
X453741Y868940D01*
X453830Y868820D01*
X453823Y868712D01*
X453225Y867503D01*
X451604Y867181D01*
X449785Y865965D01*
X448569Y864146D01*
X448142Y862000D01*
X448569Y859854D01*
X449785Y858035D01*
X451604Y856819D01*
X453750Y856392D01*
X454819Y856605D01*
X532191Y779233D01*
Y579189D01*
X525311Y572309D01*
X502267D01*
X501662Y573215D01*
X501368Y573411D01*
X501753Y574681D01*
X517000D01*
X518366Y574953D01*
X519523Y575727D01*
X528023Y584227D01*
X528797Y585384D01*
X529069Y586750D01*
Y682689D01*
X530181Y684354D01*
X530608Y686500D01*
X530181Y688646D01*
X528965Y690465D01*
X527146Y691681D01*
X525000Y692108D01*
X522854Y691681D01*
X521035Y690465D01*
X519819Y688646D01*
X519392Y686500D01*
X519819Y684354D01*
X521035Y682535D01*
X521931Y681936D01*
Y588228D01*
X515522Y581819D01*
X507233D01*
X506847Y583089D01*
X507515Y583535D01*
X508731Y585354D01*
X509158Y587500D01*
X508731Y589646D01*
X507515Y591465D01*
X505696Y592681D01*
X503550Y593108D01*
X501404Y592681D01*
X499585Y591465D01*
X498369Y589646D01*
X497942Y587500D01*
X498369Y585354D01*
X499585Y583535D01*
X500252Y583089D01*
X499867Y581819D01*
X489500D01*
X488134Y581547D01*
X486977Y580773D01*
X419227Y513023D01*
X418453Y511866D01*
X418181Y510500D01*
Y454980D01*
X417785Y454715D01*
X417186Y453819D01*
X361250D01*
X359884Y453547D01*
X358727Y452773D01*
X349227Y443273D01*
X348453Y442116D01*
X348181Y440750D01*
Y279980D01*
X347785Y279715D01*
X346569Y277896D01*
X346142Y275750D01*
X346569Y273604D01*
X347785Y271785D01*
X349604Y270569D01*
X351750Y270142D01*
X353896Y270569D01*
X355715Y271785D01*
X356931Y273604D01*
X357358Y275750D01*
X356931Y277896D01*
X355715Y279715D01*
X355319Y279980D01*
Y439272D01*
X362728Y446681D01*
X417939D01*
X419604Y445569D01*
X421750Y445142D01*
X423896Y445569D01*
X425715Y446785D01*
X426931Y448604D01*
X427358Y450750D01*
X426931Y452896D01*
X425715Y454715D01*
X425319Y454980D01*
Y509022D01*
X490978Y574681D01*
X493639D01*
X494025Y573411D01*
X493731Y573215D01*
X492515Y571396D01*
X492089Y569250D01*
X492515Y567104D01*
X493731Y565285D01*
X495550Y564069D01*
X497696Y563642D01*
X499842Y564069D01*
X501662Y565285D01*
X502267Y566191D01*
X526578D01*
X526578Y566191D01*
X527749Y566424D01*
X528741Y567087D01*
X537413Y575759D01*
X538076Y576751D01*
X538309Y577922D01*
X538309Y577922D01*
Y780500D01*
X538076Y781671D01*
X537413Y782663D01*
X537413Y782663D01*
X459145Y860931D01*
X459358Y862000D01*
X459229Y862650D01*
X460399Y863275D01*
X584691Y738983D01*
Y576670D01*
X584691Y576670D01*
X584924Y575499D01*
X585587Y574507D01*
X588525Y571569D01*
X588312Y570500D01*
X588739Y568354D01*
X589954Y566535D01*
X591773Y565319D01*
X593919Y564892D01*
X596065Y565319D01*
X597885Y566535D01*
X599100Y568354D01*
X599527Y570500D01*
X599100Y572646D01*
X597885Y574465D01*
X596065Y575681D01*
X593919Y576108D01*
X592850Y575895D01*
X590809Y577937D01*
Y740250D01*
X590809Y740250D01*
X590576Y741421D01*
X589913Y742413D01*
X458895Y873431D01*
X459108Y874500D01*
X458681Y876646D01*
X457465Y878465D01*
X455646Y879681D01*
X453500Y880108D01*
D02*
G37*
G36*
X305250Y574858D02*
X303104Y574431D01*
X301285Y573215D01*
X300069Y571396D01*
X299642Y569250D01*
X300069Y567104D01*
X301285Y565285D01*
X303104Y564069D01*
X305250Y563642D01*
X307396Y564069D01*
X309215Y565285D01*
X310431Y567104D01*
X310858Y569250D01*
X310431Y571396D01*
X309215Y573215D01*
X307396Y574431D01*
X305250Y574858D01*
D02*
G37*
G36*
X112804D02*
X110658Y574431D01*
X108838Y573215D01*
X107623Y571396D01*
X107196Y569250D01*
X107623Y567104D01*
X108838Y565285D01*
X110658Y564069D01*
X112804Y563642D01*
X114950Y564069D01*
X116769Y565285D01*
X117985Y567104D01*
X118411Y569250D01*
X117985Y571396D01*
X116769Y573215D01*
X114950Y574431D01*
X112804Y574858D01*
D02*
G37*
G36*
X585866Y491608D02*
X583720Y491181D01*
X581901Y489965D01*
X580933Y488517D01*
X579696Y488423D01*
X579496Y488479D01*
X578634Y489768D01*
X576815Y490984D01*
X574669Y491411D01*
X572523Y490984D01*
X570704Y489768D01*
X569488Y487949D01*
X569061Y485803D01*
X569488Y483657D01*
X570704Y481838D01*
X572523Y480622D01*
X574669Y480195D01*
X576815Y480622D01*
X578634Y481838D01*
X579602Y483286D01*
X580839Y483381D01*
X581039Y483325D01*
X581901Y482035D01*
X583720Y480819D01*
X585866Y480392D01*
X588012Y480819D01*
X589831Y482035D01*
X591047Y483854D01*
X591474Y486000D01*
X591047Y488146D01*
X589831Y489965D01*
X588012Y491181D01*
X585866Y491608D01*
D02*
G37*
G36*
X489643Y490358D02*
X487497Y489931D01*
X485677Y488715D01*
X484710Y487267D01*
X483473Y487173D01*
X483273Y487229D01*
X482411Y488518D01*
X480592Y489734D01*
X478446Y490161D01*
X476300Y489734D01*
X474481Y488518D01*
X473265Y486699D01*
X472838Y484553D01*
X473265Y482407D01*
X474481Y480588D01*
X476300Y479372D01*
X478446Y478945D01*
X480592Y479372D01*
X482411Y480588D01*
X483378Y482036D01*
X484616Y482131D01*
X484816Y482075D01*
X485677Y480785D01*
X487497Y479569D01*
X489643Y479142D01*
X491789Y479569D01*
X493608Y480785D01*
X494824Y482604D01*
X495250Y484750D01*
X494824Y486896D01*
X493608Y488715D01*
X491789Y489931D01*
X489643Y490358D01*
D02*
G37*
G36*
X393419D02*
X391273Y489931D01*
X389454Y488715D01*
X388487Y487267D01*
X387250Y487173D01*
X387050Y487229D01*
X386188Y488518D01*
X384369Y489734D01*
X382223Y490161D01*
X380077Y489734D01*
X378257Y488518D01*
X377042Y486699D01*
X376615Y484553D01*
X377042Y482407D01*
X378257Y480588D01*
X380077Y479372D01*
X382223Y478945D01*
X384369Y479372D01*
X386188Y480588D01*
X387155Y482036D01*
X388392Y482131D01*
X388592Y482075D01*
X389454Y480785D01*
X391273Y479569D01*
X393419Y479142D01*
X395565Y479569D01*
X397385Y480785D01*
X398600Y482604D01*
X399027Y484750D01*
X398600Y486896D01*
X397385Y488715D01*
X395565Y489931D01*
X393419Y490358D01*
D02*
G37*
G36*
X200973D02*
X198827Y489931D01*
X197008Y488715D01*
X196040Y487267D01*
X194804Y487173D01*
X194603Y487229D01*
X193741Y488518D01*
X191922Y489734D01*
X189776Y490161D01*
X187630Y489734D01*
X185811Y488518D01*
X184595Y486699D01*
X184168Y484553D01*
X184595Y482407D01*
X185811Y480588D01*
X187630Y479372D01*
X189776Y478945D01*
X191922Y479372D01*
X193741Y480588D01*
X194709Y482036D01*
X195946Y482131D01*
X196146Y482075D01*
X197008Y480785D01*
X198827Y479569D01*
X200973Y479142D01*
X203119Y479569D01*
X204939Y480785D01*
X206154Y482604D01*
X206581Y484750D01*
X206154Y486896D01*
X204939Y488715D01*
X203119Y489931D01*
X200973Y490358D01*
D02*
G37*
G36*
X104750D02*
X102604Y489931D01*
X100785Y488715D01*
X99817Y487267D01*
X98580Y487173D01*
X98380Y487229D01*
X97518Y488518D01*
X95699Y489734D01*
X93553Y490161D01*
X91407Y489734D01*
X89588Y488518D01*
X88372Y486699D01*
X87945Y484553D01*
X88372Y482407D01*
X89588Y480588D01*
X91407Y479372D01*
X93553Y478945D01*
X95699Y479372D01*
X97518Y480588D01*
X98486Y482036D01*
X99723Y482131D01*
X99923Y482075D01*
X100785Y480785D01*
X102604Y479569D01*
X104750Y479142D01*
X106896Y479569D01*
X108715Y480785D01*
X109931Y482604D01*
X110358Y484750D01*
X109931Y486896D01*
X108715Y488715D01*
X106896Y489931D01*
X104750Y490358D01*
D02*
G37*
G36*
X297196D02*
X295050Y489931D01*
X293231Y488715D01*
X292264Y487267D01*
X291027Y487173D01*
X290826Y487229D01*
X289965Y488518D01*
X288145Y489734D01*
X285999Y490161D01*
X283853Y489734D01*
X282034Y488518D01*
X280819Y486699D01*
X280392Y484553D01*
X280819Y482407D01*
X282034Y480588D01*
X283853Y479372D01*
X285999Y478945D01*
X288145Y479372D01*
X289965Y480588D01*
X290932Y482036D01*
X292169Y482131D01*
X292369Y482075D01*
X293231Y480785D01*
X295050Y479569D01*
X297196Y479142D01*
X299342Y479569D01*
X301162Y480785D01*
X302377Y482604D01*
X302804Y484750D01*
X302377Y486896D01*
X301162Y488715D01*
X299342Y489931D01*
X297196Y490358D01*
D02*
G37*
G36*
X522250Y456108D02*
X520104Y455681D01*
X518285Y454465D01*
X518020Y454069D01*
X455000D01*
X453634Y453797D01*
X452477Y453023D01*
X377977Y378523D01*
X377203Y377366D01*
X376931Y376000D01*
Y279980D01*
X376535Y279715D01*
X375319Y277896D01*
X374892Y275750D01*
X375319Y273604D01*
X376535Y271785D01*
X378354Y270569D01*
X380500Y270142D01*
X382646Y270569D01*
X384465Y271785D01*
X385681Y273604D01*
X386108Y275750D01*
X385681Y277896D01*
X384465Y279715D01*
X384069Y279980D01*
Y374522D01*
X456478Y446931D01*
X518020D01*
X518285Y446535D01*
X520104Y445319D01*
X522250Y444892D01*
X524396Y445319D01*
X526215Y446535D01*
X527431Y448354D01*
X527858Y450500D01*
X527431Y452646D01*
X526215Y454465D01*
X524396Y455681D01*
X522250Y456108D01*
D02*
G37*
G36*
X115500Y703108D02*
X113354Y702681D01*
X111535Y701465D01*
X110319Y699646D01*
X109892Y697500D01*
X110319Y695354D01*
X111535Y693535D01*
X112862Y692648D01*
X112977Y692477D01*
X152431Y653022D01*
Y554750D01*
X152703Y553384D01*
X153477Y552227D01*
X258470Y447233D01*
X256477Y445239D01*
X255703Y444082D01*
X255431Y442716D01*
Y278980D01*
X255035Y278715D01*
X253819Y276896D01*
X253392Y274750D01*
X253819Y272604D01*
X255035Y270785D01*
X256854Y269569D01*
X259000Y269142D01*
X261146Y269569D01*
X262965Y270785D01*
X264181Y272604D01*
X264608Y274750D01*
X264181Y276896D01*
X262965Y278715D01*
X262569Y278980D01*
Y441238D01*
X266262Y444931D01*
X321103D01*
X321535Y444285D01*
X323354Y443069D01*
X325500Y442642D01*
X327646Y443069D01*
X329465Y444285D01*
X330681Y446104D01*
X331108Y448250D01*
X330681Y450396D01*
X329465Y452215D01*
X327646Y453431D01*
X325500Y453858D01*
X323354Y453431D01*
X321535Y452215D01*
X321437Y452069D01*
X263728D01*
X159569Y556228D01*
Y654500D01*
X159297Y655866D01*
X158523Y657023D01*
X120485Y695061D01*
X120681Y695354D01*
X121108Y697500D01*
X120681Y699646D01*
X119465Y701465D01*
X117646Y702681D01*
X115500Y703108D01*
D02*
G37*
G36*
X565000Y454319D02*
X540000D01*
X538634Y454047D01*
X537477Y453273D01*
X492477Y408273D01*
X491703Y407116D01*
X491431Y405750D01*
Y341728D01*
X473218Y323515D01*
X472750Y323608D01*
X470604Y323181D01*
X468785Y321965D01*
X467569Y320146D01*
X467142Y318000D01*
X467569Y315854D01*
X468785Y314035D01*
X470604Y312819D01*
X472750Y312392D01*
X474896Y312819D01*
X476715Y314035D01*
X477931Y315854D01*
X478358Y318000D01*
X478265Y318468D01*
X497523Y337727D01*
X498297Y338884D01*
X498569Y340250D01*
Y404272D01*
X541478Y447181D01*
X563522D01*
X573235Y437468D01*
X573142Y437000D01*
X573569Y434854D01*
X574785Y433035D01*
X576604Y431819D01*
X578750Y431392D01*
X580896Y431819D01*
X582715Y433035D01*
X583931Y434854D01*
X584358Y437000D01*
X583931Y439146D01*
X582715Y440965D01*
X580896Y442181D01*
X578750Y442608D01*
X578282Y442515D01*
X567523Y453273D01*
X566366Y454047D01*
X565000Y454319D01*
D02*
G37*
G36*
X176500Y431358D02*
X174354Y430931D01*
X172535Y429715D01*
X171319Y427896D01*
X170892Y425750D01*
X170985Y425282D01*
X158477Y412773D01*
X157703Y411616D01*
X157431Y410250D01*
Y99181D01*
X157703Y97815D01*
X158477Y96657D01*
X159195Y95939D01*
X159072Y95778D01*
X157898Y92944D01*
X157498Y89902D01*
Y70598D01*
X157898Y67556D01*
X159072Y64722D01*
X160940Y62288D01*
X163374Y60420D01*
X166208Y59246D01*
X169250Y58846D01*
X172292Y59246D01*
X175126Y60420D01*
X177560Y62288D01*
X179428Y64722D01*
X180602Y67556D01*
X181003Y70598D01*
Y89902D01*
X180602Y92944D01*
X179428Y95778D01*
X177560Y98212D01*
X175126Y100080D01*
X172292Y101254D01*
X169250Y101655D01*
X166208Y101254D01*
X165839Y101101D01*
X164569Y101950D01*
Y408772D01*
X176032Y420235D01*
X176500Y420142D01*
X178646Y420569D01*
X180465Y421785D01*
X181681Y423604D01*
X182108Y425750D01*
X181681Y427896D01*
X180465Y429715D01*
X178646Y430931D01*
X176500Y431358D01*
D02*
G37*
G36*
X64000Y421367D02*
X61659Y420902D01*
X59674Y419576D01*
X59447Y419236D01*
X58177D01*
X57951Y419576D01*
X55966Y420902D01*
X53625Y421367D01*
X51284Y420902D01*
X49299Y419576D01*
X49072Y419236D01*
X47803D01*
X47576Y419576D01*
X45591Y420902D01*
X43250Y421367D01*
X40909Y420902D01*
X38924Y419576D01*
X37598Y417591D01*
X37132Y415250D01*
X37598Y412909D01*
X38380Y411739D01*
X38843Y410750D01*
X38380Y409761D01*
X37598Y408591D01*
X37132Y406250D01*
X37598Y403909D01*
X38924Y401924D01*
X40909Y400598D01*
X43250Y400132D01*
X45591Y400598D01*
X47576Y401924D01*
X47803Y402264D01*
X49072D01*
X49299Y401924D01*
X51284Y400598D01*
X53625Y400132D01*
X55966Y400598D01*
X57951Y401924D01*
X58177Y402264D01*
X59447D01*
X59674Y401924D01*
X61659Y400598D01*
X64000Y400132D01*
X66341Y400598D01*
X68326Y401924D01*
X69652Y403909D01*
X70118Y406250D01*
X69652Y408591D01*
X68870Y409761D01*
X68407Y410750D01*
X68870Y411739D01*
X69652Y412909D01*
X70118Y415250D01*
X69652Y417591D01*
X68326Y419576D01*
X66341Y420902D01*
X64000Y421367D01*
D02*
G37*
G36*
X457250Y420117D02*
X454909Y419652D01*
X452924Y418326D01*
X452697Y417986D01*
X451427D01*
X451201Y418326D01*
X449216Y419652D01*
X446875Y420117D01*
X444534Y419652D01*
X442549Y418326D01*
X442323Y417986D01*
X441053D01*
X440826Y418326D01*
X438841Y419652D01*
X436500Y420117D01*
X434159Y419652D01*
X432174Y418326D01*
X430848Y416341D01*
X430382Y414000D01*
X430848Y411659D01*
X431630Y410489D01*
X432093Y409500D01*
X431630Y408511D01*
X430848Y407341D01*
X430382Y405000D01*
X430848Y402659D01*
X432174Y400674D01*
X434159Y399348D01*
X436500Y398882D01*
X438841Y399348D01*
X440826Y400674D01*
X441053Y401014D01*
X442323D01*
X442549Y400674D01*
X444534Y399348D01*
X446875Y398882D01*
X449216Y399348D01*
X451201Y400674D01*
X451427Y401014D01*
X452697D01*
X452924Y400674D01*
X454909Y399348D01*
X457250Y398882D01*
X459591Y399348D01*
X461576Y400674D01*
X462902Y402659D01*
X463368Y405000D01*
X462902Y407341D01*
X462120Y408511D01*
X461657Y409500D01*
X462120Y410489D01*
X462902Y411659D01*
X463368Y414000D01*
X462902Y416341D01*
X461576Y418326D01*
X459591Y419652D01*
X457250Y420117D01*
D02*
G37*
G36*
X247750Y417868D02*
X245409Y417402D01*
X243424Y416076D01*
X243197Y415736D01*
X241928D01*
X241701Y416076D01*
X239716Y417402D01*
X237375Y417868D01*
X235034Y417402D01*
X233049Y416076D01*
X232822Y415736D01*
X231553D01*
X231326Y416076D01*
X229341Y417402D01*
X227000Y417868D01*
X224659Y417402D01*
X222674Y416076D01*
X221348Y414091D01*
X220882Y411750D01*
X221348Y409409D01*
X222130Y408239D01*
X222593Y407250D01*
X222130Y406261D01*
X221348Y405091D01*
X220882Y402750D01*
X221348Y400409D01*
X222674Y398424D01*
X224659Y397098D01*
X227000Y396632D01*
X229341Y397098D01*
X231326Y398424D01*
X231553Y398764D01*
X232822D01*
X233049Y398424D01*
X235034Y397098D01*
X237375Y396632D01*
X239716Y397098D01*
X241701Y398424D01*
X241928Y398764D01*
X243197D01*
X243424Y398424D01*
X245409Y397098D01*
X247750Y396632D01*
X250091Y397098D01*
X252076Y398424D01*
X253402Y400409D01*
X253868Y402750D01*
X253402Y405091D01*
X252620Y406261D01*
X252157Y407250D01*
X252620Y408239D01*
X253402Y409409D01*
X253868Y411750D01*
X253402Y414091D01*
X252076Y416076D01*
X250091Y417402D01*
X247750Y417868D01*
D02*
G37*
G36*
X329500Y315868D02*
X327159Y315402D01*
X325174Y314076D01*
X324948Y313736D01*
X323677D01*
X323451Y314076D01*
X321466Y315402D01*
X319125Y315868D01*
X316784Y315402D01*
X314799Y314076D01*
X314573Y313736D01*
X313302D01*
X313076Y314076D01*
X311091Y315402D01*
X308750Y315868D01*
X306409Y315402D01*
X304424Y314076D01*
X303098Y312091D01*
X302633Y309750D01*
X303098Y307409D01*
X303880Y306239D01*
X304343Y305250D01*
X303880Y304261D01*
X303098Y303091D01*
X302633Y300750D01*
X303098Y298409D01*
X304424Y296424D01*
X306409Y295098D01*
X308750Y294632D01*
X311091Y295098D01*
X313076Y296424D01*
X313302Y296764D01*
X314573D01*
X314799Y296424D01*
X316784Y295098D01*
X319125Y294632D01*
X321466Y295098D01*
X323451Y296424D01*
X323677Y296764D01*
X324948D01*
X325174Y296424D01*
X327159Y295098D01*
X329500Y294632D01*
X331841Y295098D01*
X333826Y296424D01*
X335152Y298409D01*
X335618Y300750D01*
X335152Y303091D01*
X334370Y304261D01*
X333907Y305250D01*
X334370Y306239D01*
X335152Y307409D01*
X335618Y309750D01*
X335152Y312091D01*
X333826Y314076D01*
X331841Y315402D01*
X329500Y315868D01*
D02*
G37*
G36*
X531500Y313867D02*
X529159Y313402D01*
X527174Y312076D01*
X526948Y311736D01*
X525677D01*
X525451Y312076D01*
X523466Y313402D01*
X521125Y313867D01*
X518784Y313402D01*
X516799Y312076D01*
X516572Y311736D01*
X515303D01*
X515076Y312076D01*
X513091Y313402D01*
X510750Y313867D01*
X508409Y313402D01*
X506424Y312076D01*
X505098Y310091D01*
X504632Y307750D01*
X505098Y305409D01*
X505880Y304239D01*
X506343Y303250D01*
X505880Y302261D01*
X505098Y301091D01*
X504632Y298750D01*
X505098Y296409D01*
X506424Y294424D01*
X508409Y293098D01*
X510750Y292633D01*
X513091Y293098D01*
X515076Y294424D01*
X515303Y294764D01*
X516572D01*
X516799Y294424D01*
X518784Y293098D01*
X521125Y292633D01*
X523466Y293098D01*
X525451Y294424D01*
X525677Y294764D01*
X526948D01*
X527174Y294424D01*
X529159Y293098D01*
X531500Y292633D01*
X533841Y293098D01*
X535826Y294424D01*
X537152Y296409D01*
X537618Y298750D01*
X537152Y301091D01*
X536370Y302261D01*
X535907Y303250D01*
X536370Y304239D01*
X537152Y305409D01*
X537618Y307750D01*
X537152Y310091D01*
X535826Y312076D01*
X533841Y313402D01*
X531500Y313867D01*
D02*
G37*
G36*
X30520Y102032D02*
Y81520D01*
X41547D01*
Y89902D01*
X41128Y93085D01*
X39900Y96051D01*
X37945Y98597D01*
X35399Y100552D01*
X32433Y101780D01*
X30520Y102032D01*
D02*
G37*
G36*
X27980D02*
X26067Y101780D01*
X23101Y100552D01*
X20555Y98597D01*
X18600Y96051D01*
X17372Y93085D01*
X16953Y89902D01*
Y81520D01*
X27980D01*
Y102032D01*
D02*
G37*
G36*
X520520D02*
Y81520D01*
X531547D01*
Y89902D01*
X531128Y93085D01*
X529900Y96051D01*
X527945Y98597D01*
X525399Y100552D01*
X522433Y101780D01*
X520520Y102032D01*
D02*
G37*
G36*
X517980D02*
X516067Y101780D01*
X513101Y100552D01*
X510555Y98597D01*
X508600Y96051D01*
X507372Y93085D01*
X506953Y89902D01*
Y81520D01*
X517980D01*
Y102032D01*
D02*
G37*
G36*
X554250Y101655D02*
X551208Y101254D01*
X548374Y100080D01*
X545940Y98212D01*
X544072Y95778D01*
X542898Y92944D01*
X542497Y89902D01*
Y70598D01*
X542898Y67556D01*
X544072Y64722D01*
X545940Y62288D01*
X548374Y60420D01*
X551208Y59246D01*
X554250Y58846D01*
X557292Y59246D01*
X560126Y60420D01*
X562560Y62288D01*
X564428Y64722D01*
X565602Y67556D01*
X566003Y70598D01*
Y89902D01*
X565602Y92944D01*
X564428Y95778D01*
X562560Y98212D01*
X560126Y100080D01*
X557292Y101254D01*
X554250Y101655D01*
D02*
G37*
G36*
X484250D02*
X481208Y101254D01*
X478374Y100080D01*
X475940Y98212D01*
X474072Y95778D01*
X472898Y92944D01*
X472497Y89902D01*
Y70598D01*
X472898Y67556D01*
X474072Y64722D01*
X475940Y62288D01*
X478374Y60420D01*
X481208Y59246D01*
X484250Y58846D01*
X487292Y59246D01*
X490126Y60420D01*
X492560Y62288D01*
X494428Y64722D01*
X495602Y67556D01*
X496003Y70598D01*
Y89902D01*
X495602Y92944D01*
X494428Y95778D01*
X492560Y98212D01*
X490126Y100080D01*
X487292Y101254D01*
X484250Y101655D01*
D02*
G37*
G36*
X558500Y443608D02*
X556354Y443181D01*
X554535Y441965D01*
X553319Y440146D01*
X552892Y438000D01*
X553319Y435854D01*
X554535Y434035D01*
X554931Y433770D01*
Y277728D01*
X446727Y169523D01*
X445953Y168366D01*
X445681Y167000D01*
Y101036D01*
X443374Y100080D01*
X440940Y98212D01*
X439072Y95778D01*
X437898Y92944D01*
X437497Y89902D01*
Y70598D01*
X437898Y67556D01*
X439072Y64722D01*
X440940Y62288D01*
X443374Y60420D01*
X446208Y59246D01*
X449250Y58846D01*
X452292Y59246D01*
X455126Y60420D01*
X457560Y62288D01*
X459428Y64722D01*
X460602Y67556D01*
X461003Y70598D01*
Y89902D01*
X460602Y92944D01*
X459428Y95778D01*
X457560Y98212D01*
X455126Y100080D01*
X452819Y101036D01*
Y165522D01*
X561023Y273727D01*
X561797Y274884D01*
X562069Y276250D01*
Y433770D01*
X562465Y434035D01*
X563681Y435854D01*
X564108Y438000D01*
X563681Y440146D01*
X562465Y441965D01*
X560646Y443181D01*
X558500Y443608D01*
D02*
G37*
G36*
X414250Y101655D02*
X411208Y101254D01*
X408374Y100080D01*
X405940Y98212D01*
X404072Y95778D01*
X402898Y92944D01*
X402497Y89902D01*
Y70598D01*
X402898Y67556D01*
X404072Y64722D01*
X405940Y62288D01*
X408374Y60420D01*
X411208Y59246D01*
X414250Y58846D01*
X417292Y59246D01*
X420126Y60420D01*
X422560Y62288D01*
X424428Y64722D01*
X425602Y67556D01*
X426003Y70598D01*
Y89902D01*
X425602Y92944D01*
X424428Y95778D01*
X422560Y98212D01*
X420126Y100080D01*
X417292Y101254D01*
X414250Y101655D01*
D02*
G37*
G36*
X457500Y437108D02*
X455354Y436681D01*
X453535Y435465D01*
X452319Y433646D01*
X451892Y431500D01*
X452319Y429354D01*
X453535Y427535D01*
X455354Y426319D01*
X457500Y425892D01*
X457968Y425985D01*
X467681Y416272D01*
Y358978D01*
X402727Y294023D01*
X401953Y292866D01*
X401681Y291500D01*
Y153728D01*
X374727Y126773D01*
X373953Y125616D01*
X373681Y124250D01*
Y100207D01*
X373374Y100080D01*
X370940Y98212D01*
X369072Y95778D01*
X367898Y92944D01*
X367497Y89902D01*
Y70598D01*
X367898Y67556D01*
X369072Y64722D01*
X370940Y62288D01*
X373374Y60420D01*
X376208Y59246D01*
X379250Y58846D01*
X382292Y59246D01*
X385126Y60420D01*
X387560Y62288D01*
X389428Y64722D01*
X390602Y67556D01*
X391003Y70598D01*
Y89902D01*
X390602Y92944D01*
X389428Y95778D01*
X387560Y98212D01*
X385126Y100080D01*
X382292Y101254D01*
X380819Y101448D01*
Y122772D01*
X407773Y149727D01*
X408547Y150884D01*
X408819Y152250D01*
Y290022D01*
X473773Y354977D01*
X474547Y356134D01*
X474819Y357500D01*
Y417750D01*
X474547Y419116D01*
X473773Y420273D01*
X463015Y431032D01*
X463108Y431500D01*
X462681Y433646D01*
X461465Y435465D01*
X459646Y436681D01*
X457500Y437108D01*
D02*
G37*
G36*
X344250Y101655D02*
X341208Y101254D01*
X338374Y100080D01*
X335940Y98212D01*
X334072Y95778D01*
X332898Y92944D01*
X332497Y89902D01*
Y70598D01*
X332898Y67556D01*
X334072Y64722D01*
X335940Y62288D01*
X338374Y60420D01*
X341208Y59246D01*
X344250Y58846D01*
X347292Y59246D01*
X350126Y60420D01*
X352560Y62288D01*
X354428Y64722D01*
X355602Y67556D01*
X356003Y70598D01*
Y89902D01*
X355602Y92944D01*
X354428Y95778D01*
X352560Y98212D01*
X350126Y100080D01*
X347292Y101254D01*
X344250Y101655D01*
D02*
G37*
G36*
X365500Y443358D02*
X363354Y442931D01*
X361535Y441715D01*
X360319Y439896D01*
X359892Y437750D01*
X360319Y435604D01*
X361535Y433785D01*
X361931Y433520D01*
Y207728D01*
X306727Y152523D01*
X305953Y151366D01*
X305681Y150000D01*
Y101036D01*
X303374Y100080D01*
X300940Y98212D01*
X299072Y95778D01*
X297898Y92944D01*
X297498Y89902D01*
Y70598D01*
X297898Y67556D01*
X299072Y64722D01*
X300940Y62288D01*
X303374Y60420D01*
X306208Y59246D01*
X309250Y58846D01*
X312292Y59246D01*
X315126Y60420D01*
X317560Y62288D01*
X319428Y64722D01*
X320602Y67556D01*
X321003Y70598D01*
Y89902D01*
X320602Y92944D01*
X319428Y95778D01*
X317560Y98212D01*
X315126Y100080D01*
X312819Y101036D01*
Y148522D01*
X368023Y203727D01*
X368797Y204884D01*
X369069Y206250D01*
Y433520D01*
X369465Y433785D01*
X370681Y435604D01*
X371108Y437750D01*
X370681Y439896D01*
X369465Y441715D01*
X367646Y442931D01*
X365500Y443358D01*
D02*
G37*
G36*
X274250Y101655D02*
X271208Y101254D01*
X268374Y100080D01*
X265940Y98212D01*
X264072Y95778D01*
X262898Y92944D01*
X262498Y89902D01*
Y70598D01*
X262898Y67556D01*
X264072Y64722D01*
X265940Y62288D01*
X268374Y60420D01*
X271208Y59246D01*
X274250Y58846D01*
X277292Y59246D01*
X280126Y60420D01*
X282560Y62288D01*
X284428Y64722D01*
X285602Y67556D01*
X286003Y70598D01*
Y89902D01*
X285602Y92944D01*
X284428Y95778D01*
X282560Y98212D01*
X280126Y100080D01*
X277292Y101254D01*
X274250Y101655D01*
D02*
G37*
G36*
X272500Y438108D02*
X270354Y437681D01*
X268535Y436465D01*
X267319Y434646D01*
X266892Y432500D01*
X267319Y430354D01*
X268535Y428535D01*
X269561Y427849D01*
X269977Y427227D01*
X277931Y419272D01*
Y212228D01*
X235727Y170023D01*
X234953Y168866D01*
X234681Y167500D01*
Y100622D01*
X233374Y100080D01*
X230940Y98212D01*
X229072Y95778D01*
X227898Y92944D01*
X227498Y89902D01*
Y70598D01*
X227898Y67556D01*
X229072Y64722D01*
X230940Y62288D01*
X233374Y60420D01*
X236208Y59246D01*
X239250Y58846D01*
X242292Y59246D01*
X245126Y60420D01*
X247560Y62288D01*
X249428Y64722D01*
X250602Y67556D01*
X251003Y70598D01*
Y89902D01*
X250602Y92944D01*
X249428Y95778D01*
X247560Y98212D01*
X245126Y100080D01*
X242292Y101254D01*
X241819Y101316D01*
Y166022D01*
X284023Y208227D01*
X284797Y209384D01*
X285069Y210750D01*
Y420750D01*
X284797Y422116D01*
X284023Y423273D01*
X277385Y429911D01*
X277681Y430354D01*
X278108Y432500D01*
X277681Y434646D01*
X276465Y436465D01*
X274646Y437681D01*
X272500Y438108D01*
D02*
G37*
G36*
X204250Y101655D02*
X201208Y101254D01*
X198374Y100080D01*
X195940Y98212D01*
X194072Y95778D01*
X192898Y92944D01*
X192498Y89902D01*
Y70598D01*
X192898Y67556D01*
X194072Y64722D01*
X195940Y62288D01*
X198374Y60420D01*
X201208Y59246D01*
X204250Y58846D01*
X207292Y59246D01*
X210126Y60420D01*
X212560Y62288D01*
X214428Y64722D01*
X215602Y67556D01*
X216003Y70598D01*
Y89902D01*
X215602Y92944D01*
X214428Y95778D01*
X212560Y98212D01*
X210126Y100080D01*
X207292Y101254D01*
X204250Y101655D01*
D02*
G37*
G36*
X134250D02*
X131208Y101254D01*
X128374Y100080D01*
X125940Y98212D01*
X124072Y95778D01*
X122898Y92944D01*
X122498Y89902D01*
Y70598D01*
X122898Y67556D01*
X124072Y64722D01*
X125940Y62288D01*
X128374Y60420D01*
X131208Y59246D01*
X134250Y58846D01*
X137292Y59246D01*
X140126Y60420D01*
X142560Y62288D01*
X144428Y64722D01*
X145602Y67556D01*
X146003Y70598D01*
Y89902D01*
X145602Y92944D01*
X144428Y95778D01*
X142560Y98212D01*
X140126Y100080D01*
X137292Y101254D01*
X134250Y101655D01*
D02*
G37*
G36*
X92000Y436108D02*
X89854Y435681D01*
X88035Y434465D01*
X86819Y432646D01*
X86392Y430500D01*
X86819Y428354D01*
X88035Y426535D01*
X88431Y426270D01*
Y99811D01*
X88703Y98446D01*
X89477Y97288D01*
X89903Y96861D01*
X89072Y95778D01*
X87898Y92944D01*
X87498Y89902D01*
Y70598D01*
X87898Y67556D01*
X89072Y64722D01*
X90940Y62288D01*
X93374Y60420D01*
X96208Y59246D01*
X99250Y58846D01*
X102292Y59246D01*
X105126Y60420D01*
X107560Y62288D01*
X109428Y64722D01*
X110602Y67556D01*
X111003Y70598D01*
Y89902D01*
X110602Y92944D01*
X109428Y95778D01*
X107560Y98212D01*
X105126Y100080D01*
X102292Y101254D01*
X99250Y101655D01*
X96839Y101337D01*
X95690Y102154D01*
X95569Y102364D01*
Y426270D01*
X95965Y426535D01*
X97181Y428354D01*
X97608Y430500D01*
X97181Y432646D01*
X95965Y434465D01*
X94146Y435681D01*
X92000Y436108D01*
D02*
G37*
G36*
X64250Y101655D02*
X61208Y101254D01*
X58374Y100080D01*
X55940Y98212D01*
X54072Y95778D01*
X52898Y92944D01*
X52498Y89902D01*
Y70598D01*
X52898Y67556D01*
X54072Y64722D01*
X55940Y62288D01*
X58374Y60420D01*
X61208Y59246D01*
X64250Y58846D01*
X67292Y59246D01*
X70126Y60420D01*
X72560Y62288D01*
X74428Y64722D01*
X75602Y67556D01*
X76002Y70598D01*
Y89902D01*
X75602Y92944D01*
X74428Y95778D01*
X72560Y98212D01*
X70126Y100080D01*
X67292Y101254D01*
X64250Y101655D01*
D02*
G37*
G36*
X41547Y78980D02*
X30520D01*
Y58468D01*
X32433Y58720D01*
X35399Y59948D01*
X37945Y61903D01*
X39900Y64449D01*
X41128Y67415D01*
X41547Y70598D01*
Y78980D01*
D02*
G37*
G36*
X531547Y78980D02*
X520520D01*
Y58468D01*
X522433Y58720D01*
X525399Y59948D01*
X527945Y61903D01*
X529900Y64449D01*
X531128Y67415D01*
X531547Y70598D01*
Y78980D01*
D02*
G37*
G36*
X517980D02*
X506953D01*
Y70598D01*
X507372Y67415D01*
X508600Y64449D01*
X510555Y61903D01*
X513101Y59948D01*
X516067Y58720D01*
X517980Y58468D01*
Y78980D01*
D02*
G37*
G36*
X27980Y78980D02*
X16953D01*
Y70598D01*
X17372Y67415D01*
X18600Y64449D01*
X20555Y61903D01*
X23101Y59948D01*
X26067Y58720D01*
X27980Y58468D01*
Y78980D01*
D02*
G37*
%LPD*%
D12*
X411147Y828250D02*
X412500D01*
X409547Y826650D02*
X411147Y828250D01*
X355450Y826650D02*
X409547D01*
X294150Y887950D02*
X355450Y826650D01*
X413250Y847250D02*
X421750D01*
X427500Y853000D01*
Y915750D01*
X336200Y820500D02*
X469942D01*
X500750Y789692D01*
Y789000D02*
Y789692D01*
X306050Y925250D02*
X418000D01*
X427500Y915750D01*
X294150Y862550D02*
X336200Y820500D01*
X294150Y913350D02*
X306050Y925250D01*
X401473Y569250D02*
Y569250D01*
X508000Y675777D02*
Y793000D01*
X401473Y569250D02*
X508000Y675777D01*
X385750Y564500D02*
Y589250D01*
X491750Y695250D02*
Y779459D01*
X385750Y589250D02*
X491750Y695250D01*
X483274Y787935D02*
X491750Y779459D01*
X483274Y787935D02*
Y789288D01*
X587750Y576670D02*
X593919Y570500D01*
X453500Y874500D02*
X587750Y740250D01*
Y576670D02*
Y740250D01*
X440750Y554750D02*
X487000Y601000D01*
X385750Y564500D02*
X395500Y554750D01*
X440750D01*
X453750Y862000D02*
X535250Y780500D01*
X526578Y569250D02*
X535250Y577922D01*
Y780500D01*
X487000Y601000D02*
X513500D01*
X453750Y847250D02*
X508000Y793000D01*
X497696Y569250D02*
X526578D01*
D14*
X278000Y790500D02*
Y825750D01*
X256750Y769250D02*
X278000Y790500D01*
Y825750D02*
X314750D01*
X347250Y793250D01*
X464516Y932250D02*
X478516Y946250D01*
X268000Y925250D02*
X275000Y932250D01*
X268000Y863300D02*
X294150Y837150D01*
X268000Y863300D02*
Y925250D01*
X275000Y932250D02*
X464516D01*
X478516Y946250D02*
X499000D01*
X347250Y793250D02*
X371000D01*
X468500Y695750D01*
X256750Y698250D02*
Y769250D01*
X233500Y630000D02*
X266000Y597500D01*
X233500Y630000D02*
Y734000D01*
X242500Y743000D02*
Y802750D01*
X233500Y734000D02*
X242500Y743000D01*
D51*
X272500Y429750D02*
Y432500D01*
Y429750D02*
X281500Y420750D01*
X259000Y442716D02*
X264784Y448500D01*
X325250D01*
X259000Y274750D02*
Y442716D01*
X263000Y448500D02*
X264784D01*
X134250Y451750D02*
Y478750D01*
X71000Y542000D02*
Y694571D01*
Y542000D02*
X134250Y478750D01*
X147750Y266500D02*
Y268500D01*
X134250Y282000D02*
X147750Y268500D01*
X134250Y282000D02*
Y451750D01*
X161000Y99181D02*
Y410250D01*
Y99181D02*
X169250Y90931D01*
X161000Y410250D02*
X176500Y425750D01*
X169250Y80250D02*
Y90931D01*
X177750Y277000D02*
X196750Y296000D01*
Y419050D02*
X228950Y451250D01*
X196750Y296000D02*
Y419050D01*
X238250Y167500D02*
X281500Y210750D01*
Y420750D01*
X97000Y694500D02*
Y705250D01*
X104500Y712750D02*
X117250D01*
X97000Y705250D02*
X104500Y712750D01*
X97000Y694500D02*
X147250Y644250D01*
X117250Y712750D02*
X143500Y686500D01*
X159250Y722000D02*
X193000Y688250D01*
X98429Y722000D02*
X159250D01*
X193000Y688250D02*
X213000D01*
X71000Y694571D02*
X98429Y722000D01*
X168750Y601500D02*
X191750Y578500D01*
X282250D02*
X299750Y596000D01*
X191750Y578500D02*
X282250D01*
X248500Y667000D02*
X299750Y615750D01*
Y596000D02*
Y615750D01*
X248500Y667000D02*
Y705000D01*
X156000Y554750D02*
X262250Y448500D01*
X115500Y695000D02*
X156000Y654500D01*
Y554750D02*
Y654500D01*
X147250Y505750D02*
X201750Y451250D01*
X147250Y505750D02*
Y644250D01*
X122250Y763500D02*
X191000D01*
X102500Y743750D02*
X122250Y763500D01*
X191000D02*
X230750Y803250D01*
X88750Y759750D02*
X97500Y768500D01*
X185750D02*
X220250Y803000D01*
X97500Y768500D02*
X185750D01*
X525000Y686500D02*
X525500Y686000D01*
Y586750D02*
Y686000D01*
X517000Y578250D02*
X525500Y586750D01*
X489500Y578250D02*
X517000D01*
X421750Y450750D02*
Y510500D01*
X489500Y578250D01*
X115500Y695000D02*
Y697500D01*
X143500Y686500D02*
X155500D01*
X517500Y957750D02*
X529000Y946250D01*
X479500Y957750D02*
X517500D01*
X148750Y942000D02*
X463750D01*
X479500Y957750D01*
X137250Y862050D02*
Y930500D01*
X148750Y942000D01*
X137250Y862050D02*
X162150Y837150D01*
Y862550D02*
X163600Y864000D01*
X184750D01*
X230750Y803250D02*
Y818000D01*
X184750Y864000D02*
X230750Y818000D01*
X88750Y743750D02*
Y759750D01*
X183500Y776500D02*
X210250Y803250D01*
X81500Y776500D02*
X183500D01*
X74750Y769750D02*
X81500Y776500D01*
X74750Y743750D02*
Y769750D01*
X228950Y451250D02*
X229450Y451750D01*
X201750Y451250D02*
X228950D01*
X262250Y448500D02*
X263000D01*
X99250Y80250D02*
Y92561D01*
X92000Y99811D02*
Y430500D01*
Y99811D02*
X99250Y92561D01*
X405250Y152250D02*
Y291500D01*
X471250Y357500D02*
Y417750D01*
X405250Y291500D02*
X471250Y357500D01*
X457500Y431500D02*
X471250Y417750D01*
X472750Y318000D02*
X495000Y340250D01*
Y405750D02*
X540000Y450750D01*
X495000Y340250D02*
Y405750D01*
X325250Y448500D02*
X325500Y448250D01*
X421250Y450250D02*
X421750Y450750D01*
X361250Y450250D02*
X421250D01*
X351750Y275750D02*
Y440750D01*
X361250Y450250D01*
X455000Y450500D02*
X522250D01*
X380500Y376000D02*
X455000Y450500D01*
X380500Y275750D02*
Y376000D01*
X565000Y450750D02*
X578750Y437000D01*
X540000Y450750D02*
X565000D01*
X377250Y82250D02*
X379250Y80250D01*
X377250Y82250D02*
Y124250D01*
X405250Y152250D01*
X238250Y81250D02*
X239250Y80250D01*
X238250Y81250D02*
Y167500D01*
X309250Y80250D02*
Y150000D01*
X365500Y206250D02*
Y437750D01*
X309250Y150000D02*
X365500Y206250D01*
X449250Y80250D02*
Y167000D01*
X558500Y276250D02*
Y438000D01*
X449250Y167000D02*
X558500Y276250D01*
D58*
X325000Y760000D02*
D03*
X325250Y724500D02*
D03*
X294150Y837150D02*
D03*
Y862550D02*
D03*
Y887950D02*
D03*
X162150Y837150D02*
D03*
Y862550D02*
D03*
X586750Y830850D02*
D03*
X561350D02*
D03*
Y881650D02*
D03*
X586750D02*
D03*
X83000D02*
D03*
X108400D02*
D03*
Y830850D02*
D03*
X83000D02*
D03*
D59*
X294150Y913350D02*
D03*
D61*
X519250Y80250D02*
D03*
X449250D02*
D03*
X379250D02*
D03*
X309250D02*
D03*
X239250D02*
D03*
X169250D02*
D03*
X99250D02*
D03*
X29250D02*
D03*
D62*
X278000Y825750D02*
D03*
X412500Y828250D02*
D03*
X413250Y847250D02*
D03*
X272500Y432500D02*
D03*
X147750Y266500D02*
D03*
X483274Y789288D02*
D03*
X168750Y601500D02*
D03*
X213000Y688250D02*
D03*
X525000Y686500D02*
D03*
X115500Y697500D02*
D03*
X155500Y686500D02*
D03*
X266000Y597500D02*
D03*
X256750Y698250D02*
D03*
X468500Y695750D02*
D03*
X513500Y601000D02*
D03*
X500750Y789000D02*
D03*
X453750Y847250D02*
D03*
Y862000D02*
D03*
X453500Y874500D02*
D03*
X529000Y946250D02*
D03*
X499000D02*
D03*
X102500Y743750D02*
D03*
X88750D02*
D03*
X74750D02*
D03*
X248500Y705000D02*
D03*
X242500Y802750D02*
D03*
X230750Y803250D02*
D03*
X220250Y803000D02*
D03*
X210250Y803250D02*
D03*
X472750Y318000D02*
D03*
X380500Y275750D02*
D03*
X351750D02*
D03*
X259000Y274750D02*
D03*
X177750Y277000D02*
D03*
X578750Y437000D02*
D03*
X325500Y448250D02*
D03*
X421750Y450750D02*
D03*
X522250Y450500D02*
D03*
X229450Y451750D02*
D03*
X134250D02*
D03*
X92000Y430500D02*
D03*
X176500Y425750D02*
D03*
X365500Y437750D02*
D03*
X457500Y431500D02*
D03*
X558500Y438000D02*
D03*
X593919Y570500D02*
D03*
X497696Y569250D02*
D03*
X401473D02*
D03*
D63*
X129000Y603250D02*
D03*
X244000Y486500D02*
D03*
X234250Y430250D02*
D03*
X42500Y493750D02*
D03*
X123000Y507750D02*
D03*
X218500Y602750D02*
D03*
X227500Y511500D02*
D03*
X319500Y602000D02*
D03*
X332000Y505000D02*
D03*
X317250Y517000D02*
D03*
X433500Y508250D02*
D03*
X412000Y519250D02*
D03*
X515250Y589500D02*
D03*
X602250Y523750D02*
D03*
X512500Y510750D02*
D03*
X558500Y952875D02*
D03*
Y940000D02*
D03*
X572062Y952875D02*
D03*
Y940000D02*
D03*
X585625Y952875D02*
D03*
Y940000D02*
D03*
X599187D02*
D03*
Y952875D02*
D03*
X50500Y751250D02*
D03*
Y738375D02*
D03*
Y725500D02*
D03*
Y712625D02*
D03*
Y699750D02*
D03*
X36937D02*
D03*
Y712625D02*
D03*
Y725500D02*
D03*
Y738375D02*
D03*
Y751250D02*
D03*
X563000Y192750D02*
D03*
Y179875D02*
D03*
Y167000D02*
D03*
Y154125D02*
D03*
Y141250D02*
D03*
X576562Y192750D02*
D03*
Y179875D02*
D03*
Y167000D02*
D03*
Y154125D02*
D03*
Y141250D02*
D03*
X590125Y192750D02*
D03*
Y179875D02*
D03*
Y167000D02*
D03*
Y154125D02*
D03*
Y141250D02*
D03*
X603687Y192750D02*
D03*
Y179875D02*
D03*
Y167000D02*
D03*
Y154125D02*
D03*
Y141250D02*
D03*
X617250D02*
D03*
Y154125D02*
D03*
Y167000D02*
D03*
Y179875D02*
D03*
Y192750D02*
D03*
X575500Y606000D02*
D03*
X562250D02*
D03*
X480000Y606250D02*
D03*
X462000Y606000D02*
D03*
X382750D02*
D03*
X364500Y605250D02*
D03*
X94750Y606500D02*
D03*
X83500Y606250D02*
D03*
X178750Y605000D02*
D03*
X189750Y605250D02*
D03*
X277000Y606250D02*
D03*
X289500Y606500D02*
D03*
M02*
