G04*
G04 #@! TF.GenerationSoftware,Altium Limited,Altium Designer,20.0.13 (296)*
G04*
G04 Layer_Color=65535*
%FSLAX44Y44*%
%MOMM*%
G71*
G01*
G75*
%ADD10C,0.1500*%
%ADD11C,0.0000*%
%ADD12C,0.2000*%
%ADD13C,0.6000*%
%ADD14C,0.2500*%
%ADD15C,0.1524*%
%ADD16C,0.1270*%
D10*
X198263Y819955D02*
G03*
X182350Y819850I-7877J-12168D01*
G01*
X182237Y788845D02*
G03*
X198150Y788950I7877J12168D01*
G01*
X135763Y492454D02*
G03*
X119850Y492350I-7877J-12168D01*
G01*
X119738Y461345D02*
G03*
X135650Y461450I7877J12168D01*
G01*
X578262Y602705D02*
G03*
X562350Y602600I-7877J-12168D01*
G01*
X562237Y571595D02*
G03*
X578150Y571700I7877J12168D01*
G01*
X595237Y530796D02*
G03*
X611150Y530900I7877J12168D01*
G01*
X611263Y561904D02*
G03*
X595350Y561800I-7877J-12168D01*
G01*
X622762Y492454D02*
G03*
X606850Y492350I-7877J-12168D01*
G01*
X606737Y461345D02*
G03*
X622650Y461450I7877J12168D01*
G01*
X113488Y530796D02*
G03*
X129400Y530900I7877J12168D01*
G01*
X129513Y561904D02*
G03*
X113600Y561800I-7877J-12168D01*
G01*
X97262Y602705D02*
G03*
X81350Y602600I-7877J-12168D01*
G01*
X81237Y571595D02*
G03*
X97150Y571700I7877J12168D01*
G01*
X381704Y688487D02*
G03*
X381600Y704400I-12168J7877D01*
G01*
X350595Y704512D02*
G03*
X350700Y688600I12168J-7877D01*
G01*
X453763Y822205D02*
G03*
X437850Y822100I-7877J-12168D01*
G01*
X437738Y791095D02*
G03*
X453650Y791200I7877J12168D01*
G01*
X225863Y561904D02*
G03*
X209950Y561800I-7877J-12168D01*
G01*
X209837Y530796D02*
G03*
X225750Y530900I7877J12168D01*
G01*
X322212Y561904D02*
G03*
X306300Y561800I-7877J-12168D01*
G01*
X306187Y530796D02*
G03*
X322100Y530900I7877J12168D01*
G01*
X418563Y561904D02*
G03*
X402650Y561800I-7877J-12168D01*
G01*
X402537Y530796D02*
G03*
X418450Y530900I7877J12168D01*
G01*
X514912Y561904D02*
G03*
X499000Y561800I-7877J-12168D01*
G01*
X498887Y530796D02*
G03*
X514800Y530900I7877J12168D01*
G01*
X177437Y571595D02*
G03*
X193350Y571700I7877J12168D01*
G01*
X193463Y602705D02*
G03*
X177550Y602600I-7877J-12168D01*
G01*
X273637Y571595D02*
G03*
X289550Y571700I7877J12168D01*
G01*
X289662Y602705D02*
G03*
X273750Y602600I-7877J-12168D01*
G01*
X369837Y571595D02*
G03*
X385750Y571700I7877J12168D01*
G01*
X385863Y602705D02*
G03*
X369950Y602600I-7877J-12168D01*
G01*
X466037Y571595D02*
G03*
X481950Y571700I7877J12168D01*
G01*
X482062Y602705D02*
G03*
X466150Y602600I-7877J-12168D01*
G01*
X217138Y461345D02*
G03*
X233050Y461450I7877J12168D01*
G01*
X233162Y492454D02*
G03*
X217250Y492350I-7877J-12168D01*
G01*
X314537Y461345D02*
G03*
X330450Y461450I7877J12168D01*
G01*
X330563Y492454D02*
G03*
X314650Y492350I-7877J-12168D01*
G01*
X411937Y461345D02*
G03*
X427850Y461450I7877J12168D01*
G01*
X427962Y492454D02*
G03*
X412050Y492350I-7877J-12168D01*
G01*
X509337Y461345D02*
G03*
X525250Y461450I7877J12168D01*
G01*
X525363Y492454D02*
G03*
X509450Y492350I-7877J-12168D01*
G01*
X235487Y735845D02*
G03*
X251400Y735950I7877J12168D01*
G01*
X251513Y766954D02*
G03*
X235600Y766850I-7877J-12168D01*
G01*
X350595Y795263D02*
G03*
X350700Y779350I12168J-7877D01*
G01*
X381704Y779238D02*
G03*
X381600Y795150I-12168J7877D01*
G01*
X484595Y751513D02*
G03*
X484700Y735600I12168J-7877D01*
G01*
X515704Y735488D02*
G03*
X515600Y751400I-12168J7877D01*
G01*
X187550Y805650D02*
X192850D01*
X187550Y802850D02*
X192850D01*
X182250Y789000D02*
Y819750D01*
X198250Y789000D02*
Y819750D01*
X125050Y478150D02*
X130350D01*
X125050Y475350D02*
X130350D01*
X119750Y461500D02*
Y492250D01*
X135750Y461500D02*
Y492250D01*
X567550Y588400D02*
X572850D01*
X567550Y585600D02*
X572850D01*
X562250Y571750D02*
Y602500D01*
X578250Y571750D02*
Y602500D01*
X600650Y545100D02*
X605950D01*
X600650Y547900D02*
X605950D01*
X611250Y531000D02*
Y561750D01*
X595250Y531000D02*
Y561750D01*
X612050Y478150D02*
X617350D01*
X612050Y475350D02*
X617350D01*
X606750Y461500D02*
Y492250D01*
X622750Y461500D02*
Y492250D01*
X118900Y545100D02*
X124200D01*
X118900Y547900D02*
X124200D01*
X129500Y531000D02*
Y561750D01*
X113500Y531000D02*
Y561750D01*
X86550Y588400D02*
X91850D01*
X86550Y585600D02*
X91850D01*
X81250Y571750D02*
Y602500D01*
X97250Y571750D02*
Y602500D01*
X367400Y693900D02*
Y699200D01*
X364600Y693900D02*
Y699200D01*
X350750Y704500D02*
X381500D01*
X350750Y688500D02*
X381500D01*
X443050Y807900D02*
X448350D01*
X443050Y805100D02*
X448350D01*
X437750Y791250D02*
Y822000D01*
X453750Y791250D02*
Y822000D01*
X209850Y531000D02*
Y561750D01*
X225850Y531000D02*
Y561750D01*
X215250Y547900D02*
X220550D01*
X215250Y545100D02*
X220550D01*
X306200Y531000D02*
Y561750D01*
X322200Y531000D02*
Y561750D01*
X311600Y547900D02*
X316900D01*
X311600Y545100D02*
X316900D01*
X402550Y531000D02*
Y561750D01*
X418550Y531000D02*
Y561750D01*
X407950Y547900D02*
X413250D01*
X407950Y545100D02*
X413250D01*
X498900Y531000D02*
Y561750D01*
X514900Y531000D02*
Y561750D01*
X504300Y547900D02*
X509600D01*
X504300Y545100D02*
X509600D01*
X193450Y571750D02*
Y602500D01*
X177450Y571750D02*
Y602500D01*
X182750Y585600D02*
X188050D01*
X182750Y588400D02*
X188050D01*
X289650Y571750D02*
Y602500D01*
X273650Y571750D02*
Y602500D01*
X278950Y585600D02*
X284250D01*
X278950Y588400D02*
X284250D01*
X385850Y571750D02*
Y602500D01*
X369850Y571750D02*
Y602500D01*
X375150Y585600D02*
X380450D01*
X375150Y588400D02*
X380450D01*
X482050Y571750D02*
Y602500D01*
X466050Y571750D02*
Y602500D01*
X471350Y585600D02*
X476650D01*
X471350Y588400D02*
X476650D01*
X233150Y461500D02*
Y492250D01*
X217150Y461500D02*
Y492250D01*
X222450Y475350D02*
X227750D01*
X222450Y478150D02*
X227750D01*
X330550Y461500D02*
Y492250D01*
X314550Y461500D02*
Y492250D01*
X319850Y475350D02*
X325150D01*
X319850Y478150D02*
X325150D01*
X427950Y461500D02*
Y492250D01*
X411950Y461500D02*
Y492250D01*
X417250Y475350D02*
X422550D01*
X417250Y478150D02*
X422550D01*
X525350Y461500D02*
Y492250D01*
X509350Y461500D02*
Y492250D01*
X514650Y475350D02*
X519950D01*
X514650Y478150D02*
X519950D01*
X251500Y736000D02*
Y766750D01*
X235500Y736000D02*
Y766750D01*
X240800Y749850D02*
X246100D01*
X240800Y752650D02*
X246100D01*
X350750Y779250D02*
X381500D01*
X350750Y795250D02*
X381500D01*
X364600Y784650D02*
Y789950D01*
X367400Y784650D02*
Y789950D01*
X484750Y735500D02*
X515500D01*
X484750Y751500D02*
X515500D01*
X498600Y740900D02*
Y746200D01*
X501400Y740900D02*
Y746200D01*
D11*
X542166Y526150D02*
G03*
X542166Y532246I0J3048D01*
G01*
X61050Y524900D02*
G03*
X61050Y530996I0J3048D01*
G01*
X157273Y524900D02*
G03*
X157273Y530996I0J3048D01*
G01*
X253496Y524900D02*
G03*
X253496Y530996I0J3048D01*
G01*
X349720Y524900D02*
G03*
X349720Y530996I0J3048D01*
G01*
X445943Y524900D02*
G03*
X445943Y530996I0J3048D01*
G01*
D12*
X608250Y457750D02*
G03*
X608250Y457750I-1000J0D01*
G01*
X121750Y455500D02*
G03*
X121750Y455500I-1000J0D01*
G01*
X166000Y703250D02*
G03*
X166000Y703250I-1000J0D01*
G01*
X617000Y714250D02*
G03*
X617000Y714250I-1000J0D01*
G01*
X416250Y703250D02*
G03*
X416250Y703250I-1000J0D01*
G01*
X325900Y926750D02*
G03*
X338600Y926750I6350J0D01*
G01*
X193900D02*
G03*
X206600Y926750I6350J0D01*
G01*
X488750Y315385D02*
G03*
X488750Y315385I-1000J0D01*
G01*
X288750Y323369D02*
G03*
X288750Y323369I-1000J0D01*
G01*
X88000D02*
G03*
X88000Y323369I-1000J0D01*
G01*
X55000Y403131D02*
G03*
X55000Y403131I-1000J0D01*
G01*
X454500D02*
G03*
X454500Y403131I-1000J0D01*
G01*
X254250D02*
G03*
X254250Y403131I-1000J0D01*
G01*
X219050Y456250D02*
G03*
X219050Y456250I-1000J0D01*
G01*
X316350Y457750D02*
G03*
X316350Y457750I-1000J0D01*
G01*
X413650D02*
G03*
X413650Y457750I-1000J0D01*
G01*
X510950D02*
G03*
X510950Y457750I-1000J0D01*
G01*
X581000Y583000D02*
X592000D01*
X581000D02*
Y603000D01*
X592000D01*
Y583000D02*
Y603000D01*
X100000Y583000D02*
X111000D01*
X100000D02*
Y603000D01*
X111000D01*
Y583000D02*
Y603000D01*
X56250Y640250D02*
Y646250D01*
X23250Y640250D02*
Y646250D01*
X603750Y640250D02*
Y646250D01*
X570750Y640250D02*
Y646250D01*
X430750Y690250D02*
Y701250D01*
X450750D01*
Y690250D02*
Y701250D01*
X430750Y690250D02*
X450750D01*
X388500Y747300D02*
Y772700D01*
X261500Y747300D02*
X388500D01*
X261500Y772700D02*
X388500D01*
X261500Y747300D02*
Y772700D01*
X388750Y711800D02*
Y737200D01*
X261750Y711800D02*
X388750D01*
X261750Y737200D02*
X388750D01*
X261750Y711800D02*
Y737200D01*
X179750Y691250D02*
Y702250D01*
X199750D01*
Y691250D02*
Y702250D01*
X179750Y691250D02*
X199750D01*
X144750Y716000D02*
X155750D01*
X144750D02*
Y736000D01*
X155750D01*
Y716000D02*
Y736000D01*
X523750Y937100D02*
X534750D01*
Y917100D02*
Y937100D01*
X523750Y917100D02*
X534750D01*
X523750D02*
Y937100D01*
X509152Y921500D02*
X519152D01*
X493049Y937100D02*
X504049D01*
Y917100D02*
Y937100D01*
X493049Y917100D02*
X504049D01*
X493049D02*
Y937100D01*
X478451Y921500D02*
X488451D01*
X462348Y937100D02*
X473348D01*
Y917100D02*
Y937100D01*
X462348Y917100D02*
X473348D01*
X462348D02*
Y937100D01*
X447750Y921500D02*
X457750D01*
X501750Y847750D02*
X507750D01*
X501750Y814750D02*
X507750D01*
X395000Y709500D02*
X406000D01*
X395000D02*
Y729500D01*
X406000D01*
Y709500D02*
Y729500D01*
X404750Y909000D02*
Y920000D01*
X384750Y909000D02*
X404750D01*
X384750D02*
Y920000D01*
X404750D01*
Y883250D02*
Y894250D01*
X384750Y883250D02*
X404750D01*
X384750D02*
Y894250D01*
X404750D01*
Y857500D02*
Y868500D01*
X384750Y857500D02*
X404750D01*
X384750D02*
Y868500D01*
X404750D01*
Y831750D02*
Y842750D01*
X384750Y831750D02*
X404750D01*
X384750D02*
Y842750D01*
X404750D01*
X305750Y823750D02*
X358750D01*
X338600Y926750D02*
X358750D01*
X305750D02*
X325900D01*
X358750Y823750D02*
Y926750D01*
X305750Y823750D02*
Y926750D01*
X173750Y823750D02*
X226750D01*
X206600Y926750D02*
X226750D01*
X173750D02*
X193900D01*
X226750Y823750D02*
Y926750D01*
X173750Y823750D02*
Y926750D01*
X272000Y829000D02*
Y840000D01*
X252000Y829000D02*
X272000D01*
X252000D02*
Y840000D01*
X272000D01*
Y858500D02*
Y869500D01*
X252000Y858500D02*
X272000D01*
X252000D02*
Y869500D01*
X272000D01*
Y888750D02*
Y899750D01*
X252000Y888750D02*
X272000D01*
X252000D02*
Y899750D01*
X272000D01*
Y916750D02*
Y927750D01*
X252000Y916750D02*
X272000D01*
X252000D02*
Y927750D01*
X272000D01*
X548650Y792750D02*
X599450D01*
X548650Y919750D02*
X599450D01*
Y792750D02*
Y919750D01*
X548650Y792750D02*
Y919750D01*
X599450Y792750D02*
X688350D01*
Y919750D01*
X599450D02*
X688350D01*
X23734Y911284D02*
X57600D01*
X19500Y907050D02*
X23734Y911284D01*
X19500Y907050D02*
X23734Y902817D01*
X57600D01*
X70300Y919750D02*
X121100D01*
X70300Y792750D02*
X121100D01*
X70300D02*
Y919750D01*
X121100Y792750D02*
Y919750D01*
X19500Y805450D02*
X23734Y801217D01*
X19500Y805450D02*
X23734Y809684D01*
Y826617D02*
X57600D01*
X19500Y830850D02*
X23734Y826617D01*
X19500Y830850D02*
X23734Y835084D01*
X57600D01*
X23734Y809684D02*
X57600D01*
X23734Y801217D02*
X57600D01*
X19500Y856250D02*
X23734Y852017D01*
X19500Y856250D02*
X23734Y860484D01*
Y877417D02*
X57600D01*
X19500Y881650D02*
X23734Y877417D01*
X19500Y881650D02*
X23734Y885884D01*
X57600D01*
X23734Y860484D02*
X57600D01*
X23734Y852017D02*
X57600D01*
Y792750D02*
X70300D01*
X57600D02*
Y919750D01*
X70300D01*
X207200Y583000D02*
Y603000D01*
X196200D02*
X207200D01*
X196200Y583000D02*
Y603000D01*
Y583000D02*
X207200D01*
X303400D02*
Y603000D01*
X292400D02*
X303400D01*
X292400Y583000D02*
Y603000D01*
Y583000D02*
X303400D01*
X399600D02*
Y603000D01*
X388600D02*
X399600D01*
X388600Y583000D02*
Y603000D01*
Y583000D02*
X399600D01*
X495800D02*
Y603000D01*
X484800D02*
X495800D01*
X484800Y583000D02*
Y603000D01*
Y583000D02*
X495800D01*
X465250Y205750D02*
X471250D01*
X465250Y172750D02*
X471250D01*
X465250Y163250D02*
X471250D01*
X465250Y130250D02*
X471250D01*
X112750Y163250D02*
X118750D01*
X112750Y130250D02*
X118750D01*
X112750Y205750D02*
X118750D01*
X112750Y172750D02*
X118750D01*
X182500Y163250D02*
X188500D01*
X182500Y130250D02*
X188500D01*
X183250Y205750D02*
X189250D01*
X183250Y172750D02*
X189250D01*
X253750Y163250D02*
X259750D01*
X253750Y130250D02*
X259750D01*
X253750Y205750D02*
X259750D01*
X253750Y172750D02*
X259750D01*
X324250Y163250D02*
X330250D01*
X324250Y130250D02*
X330250D01*
X324250Y205750D02*
X330250D01*
X324250Y172750D02*
X330250D01*
X394750Y163500D02*
X400750D01*
X394750Y130500D02*
X400750D01*
X394750Y205750D02*
X400750D01*
X394750Y172750D02*
X400750D01*
X471204Y640250D02*
Y646250D01*
X504204Y640250D02*
Y646250D01*
X321886Y640250D02*
Y646250D01*
X354886Y640250D02*
Y646250D01*
X222341Y640250D02*
Y646250D01*
X255341Y640250D02*
Y646250D01*
X122795Y640250D02*
Y646250D01*
X155795Y640250D02*
Y646250D01*
X520977Y640250D02*
Y646250D01*
X553977Y640250D02*
Y646250D01*
X421432Y640250D02*
Y646250D01*
X454432Y640250D02*
Y646250D01*
X371659Y640250D02*
Y646250D01*
X404659Y640250D02*
Y646250D01*
X272114Y640250D02*
Y646250D01*
X305114Y640250D02*
Y646250D01*
X172568Y640250D02*
Y646250D01*
X205568Y640250D02*
Y646250D01*
X73023Y640250D02*
Y646250D01*
X106023Y640250D02*
Y646250D01*
X90419Y932249D02*
X95084Y925251D01*
Y932249D02*
X90419Y925251D01*
X100915D02*
Y932249D01*
X97416Y928750D01*
X102081D01*
X557419Y932749D02*
X562084Y925751D01*
Y932749D02*
X557419Y925751D01*
X564416Y931583D02*
X565583Y932749D01*
X567915D01*
X569081Y931583D01*
Y930416D01*
X567915Y929250D01*
X566749D01*
X567915D01*
X569081Y928084D01*
Y926917D01*
X567915Y925751D01*
X565583D01*
X564416Y926917D01*
X149001Y762918D02*
X154833D01*
X155999Y764085D01*
Y766417D01*
X154833Y767584D01*
X149001D01*
X155999Y773415D02*
X149001D01*
X152500Y769916D01*
Y774581D01*
X399751Y765169D02*
X405583D01*
X406749Y766335D01*
Y768667D01*
X405583Y769834D01*
X399751D01*
X400917Y772166D02*
X399751Y773333D01*
Y775665D01*
X400917Y776832D01*
X402084D01*
X403250Y775665D01*
Y774499D01*
Y775665D01*
X404416Y776832D01*
X405583D01*
X406749Y775665D01*
Y773333D01*
X405583Y772166D01*
X44668Y511756D02*
X50499D01*
X51666Y512923D01*
Y515255D01*
X50499Y516421D01*
X44668D01*
X51666Y518754D02*
Y521087D01*
Y519920D01*
X44668D01*
X45834Y518754D01*
X52832Y524585D02*
Y529251D01*
X47000Y536248D02*
Y532749D01*
X48167Y531583D01*
X50499D01*
X51666Y532749D01*
Y536248D01*
X44668Y538581D02*
X51666D01*
X48167D01*
X47000Y539747D01*
Y542080D01*
X48167Y543246D01*
X51666D01*
X44668Y550244D02*
X45834Y547911D01*
X48167Y545579D01*
X50499D01*
X51666Y546745D01*
Y549077D01*
X50499Y550244D01*
X49333D01*
X48167Y549077D01*
Y545579D01*
X525918Y512923D02*
X531749D01*
X532916Y514089D01*
Y516421D01*
X531749Y517588D01*
X525918D01*
X532916Y519920D02*
Y522253D01*
Y521087D01*
X525918D01*
X527084Y519920D01*
X534082Y525752D02*
Y530417D01*
X528251Y537415D02*
Y533916D01*
X529417Y532749D01*
X531749D01*
X532916Y533916D01*
Y537415D01*
X525918Y539747D02*
X532916D01*
X529417D01*
X528251Y540914D01*
Y543246D01*
X529417Y544412D01*
X532916D01*
Y546745D02*
Y549077D01*
Y547911D01*
X525918D01*
X527084Y546745D01*
X200584Y942083D02*
X199417Y943249D01*
X197085D01*
X195919Y942083D01*
Y940916D01*
X197085Y939750D01*
X199417D01*
X200584Y938584D01*
Y937417D01*
X199417Y936251D01*
X197085D01*
X195919Y937417D01*
X207581Y936251D02*
X202916D01*
X207581Y940916D01*
Y942083D01*
X206415Y943249D01*
X204083D01*
X202916Y942083D01*
X333750Y940333D02*
X332584Y941499D01*
X330251D01*
X329085Y940333D01*
Y939166D01*
X330251Y938000D01*
X332584D01*
X333750Y936834D01*
Y935667D01*
X332584Y934501D01*
X330251D01*
X329085Y935667D01*
X336083Y934501D02*
X338415D01*
X337249D01*
Y941499D01*
X336083Y940333D01*
X116673Y594834D02*
Y601832D01*
X120172D01*
X121338Y600666D01*
Y598333D01*
X120172Y597167D01*
X116673D01*
X119006D02*
X121338Y594834D01*
X128336D02*
X123671D01*
X128336Y599500D01*
Y600666D01*
X127170Y601832D01*
X124837D01*
X123671Y600666D01*
X130668Y593668D02*
X135334D01*
X142331Y599500D02*
X138833D01*
X137666Y598333D01*
Y596001D01*
X138833Y594834D01*
X142331D01*
X144664Y601832D02*
Y594834D01*
Y598333D01*
X145830Y599500D01*
X148163D01*
X149329Y598333D01*
Y594834D01*
X156327Y601832D02*
X153994Y600666D01*
X151662Y598333D01*
Y596001D01*
X152828Y594834D01*
X155161D01*
X156327Y596001D01*
Y597167D01*
X155161Y598333D01*
X151662D01*
X605416Y571839D02*
X598418D01*
Y575338D01*
X599584Y576505D01*
X601917D01*
X603083Y575338D01*
Y571839D01*
Y574172D02*
X605416Y576505D01*
Y583502D02*
Y578837D01*
X600751Y583502D01*
X599584D01*
X598418Y582336D01*
Y580003D01*
X599584Y578837D01*
X606582Y585835D02*
Y590500D01*
X600751Y597498D02*
Y593999D01*
X601917Y592833D01*
X604249D01*
X605416Y593999D01*
Y597498D01*
X598418Y599830D02*
X605416D01*
X601917D01*
X600751Y600997D01*
Y603329D01*
X601917Y604496D01*
X605416D01*
Y606828D02*
Y609161D01*
Y607994D01*
X598418D01*
X599584Y606828D01*
X114256Y423332D02*
Y416334D01*
X118921D01*
X121254D02*
X123587D01*
X122420D01*
Y423332D01*
X121254Y422166D01*
X127085Y415168D02*
X131751D01*
X138748Y420999D02*
X135249D01*
X134083Y419833D01*
Y417501D01*
X135249Y416334D01*
X138748D01*
X141081Y423332D02*
Y416334D01*
Y419833D01*
X142247Y420999D01*
X144580D01*
X145746Y419833D01*
Y416334D01*
X152744Y423332D02*
X150411Y422166D01*
X148079Y419833D01*
Y417501D01*
X149245Y416334D01*
X151578D01*
X152744Y417501D01*
Y418667D01*
X151578Y419833D01*
X148079D01*
X139506Y305832D02*
Y298834D01*
X144171D01*
X146504D02*
X148836D01*
X147670D01*
Y305832D01*
X146504Y304666D01*
X152335Y297668D02*
X157001D01*
X163998Y303500D02*
X160499D01*
X159333Y302333D01*
Y300001D01*
X160499Y298834D01*
X163998D01*
X166331Y305832D02*
Y298834D01*
Y302333D01*
X167497Y303500D01*
X169830D01*
X170996Y302333D01*
Y298834D01*
X177994Y305832D02*
X173329D01*
Y302333D01*
X175661Y303500D01*
X176828D01*
X177994Y302333D01*
Y300001D01*
X176828Y298834D01*
X174495D01*
X173329Y300001D01*
X302756Y421832D02*
Y414834D01*
X307421D01*
X309754D02*
X312087D01*
X310920D01*
Y421832D01*
X309754Y420666D01*
X315585Y413668D02*
X320251D01*
X327248Y419500D02*
X323749D01*
X322583Y418333D01*
Y416001D01*
X323749Y414834D01*
X327248D01*
X329581Y421832D02*
Y414834D01*
Y418333D01*
X330747Y419500D01*
X333080D01*
X334246Y418333D01*
Y414834D01*
X340078D02*
Y421832D01*
X336579Y418333D01*
X341244D01*
X345256Y301332D02*
Y294334D01*
X349921D01*
X352254D02*
X354586D01*
X353420D01*
Y301332D01*
X352254Y300166D01*
X358085Y293168D02*
X362751D01*
X369748Y299000D02*
X366250D01*
X365083Y297833D01*
Y295501D01*
X366250Y294334D01*
X369748D01*
X372081Y301332D02*
Y294334D01*
Y297833D01*
X373247Y299000D01*
X375580D01*
X376746Y297833D01*
Y294334D01*
X379079Y300166D02*
X380245Y301332D01*
X382578D01*
X383744Y300166D01*
Y299000D01*
X382578Y297833D01*
X381411D01*
X382578D01*
X383744Y296667D01*
Y295501D01*
X382578Y294334D01*
X380245D01*
X379079Y295501D01*
X509256Y421832D02*
Y414834D01*
X513921D01*
X516254D02*
X518587D01*
X517420D01*
Y421832D01*
X516254Y420666D01*
X522085Y413668D02*
X526751D01*
X533748Y419500D02*
X530249D01*
X529083Y418333D01*
Y416001D01*
X530249Y414834D01*
X533748D01*
X536081Y421832D02*
Y414834D01*
Y418333D01*
X537247Y419500D01*
X539580D01*
X540746Y418333D01*
Y414834D01*
X547744D02*
X543079D01*
X547744Y419500D01*
Y420666D01*
X546577Y421832D01*
X544245D01*
X543079Y420666D01*
X549422Y302332D02*
Y295334D01*
X554088D01*
X556420D02*
X558753D01*
X557587D01*
Y302332D01*
X556420Y301166D01*
X562252Y294168D02*
X566917D01*
X573915Y300000D02*
X570416D01*
X569249Y298833D01*
Y296501D01*
X570416Y295334D01*
X573915D01*
X576247Y302332D02*
Y295334D01*
Y298833D01*
X577413Y300000D01*
X579746D01*
X580912Y298833D01*
Y295334D01*
X583245D02*
X585578D01*
X584411D01*
Y302332D01*
X583245Y301166D01*
X19586Y37749D02*
Y30751D01*
X23085D01*
X24251Y31917D01*
Y36583D01*
X23085Y37749D01*
X19586D01*
X31249Y36583D02*
X30083Y37749D01*
X27750D01*
X26584Y36583D01*
Y31917D01*
X27750Y30751D01*
X30083D01*
X31249Y31917D01*
Y34250D01*
X28916D01*
X33582Y30751D02*
X35914D01*
X34748D01*
Y37749D01*
X33582Y36583D01*
X31668Y436923D02*
X38666D01*
Y440422D01*
X37499Y441588D01*
X32834D01*
X31668Y440422D01*
Y436923D01*
X38666Y448586D02*
Y443921D01*
X34000Y448586D01*
X32834D01*
X31668Y447420D01*
Y445087D01*
X32834Y443921D01*
X39832Y450919D02*
Y455584D01*
X34000Y462581D02*
Y459083D01*
X35167Y457916D01*
X37499D01*
X38666Y459083D01*
Y462581D01*
X31668Y464914D02*
X38666D01*
X35167D01*
X34000Y466080D01*
Y468413D01*
X35167Y469579D01*
X38666D01*
X31668Y476577D02*
X32834Y474244D01*
X35167Y471912D01*
X37499D01*
X38666Y473078D01*
Y475411D01*
X37499Y476577D01*
X36333D01*
X35167Y475411D01*
Y471912D01*
X543339Y485082D02*
Y478084D01*
X546838D01*
X548004Y479251D01*
Y483916D01*
X546838Y485082D01*
X543339D01*
X555002Y478084D02*
X550337D01*
X555002Y482749D01*
Y483916D01*
X553836Y485082D01*
X551503D01*
X550337Y483916D01*
X557335Y476918D02*
X562000D01*
X568998Y482749D02*
X565499D01*
X564333Y481583D01*
Y479251D01*
X565499Y478084D01*
X568998D01*
X571330Y485082D02*
Y478084D01*
Y481583D01*
X572497Y482749D01*
X574829D01*
X575995Y481583D01*
Y478084D01*
X578328D02*
X580661D01*
X579494D01*
Y485082D01*
X578328Y483916D01*
X44918Y280756D02*
X51916D01*
Y284255D01*
X50749Y285421D01*
X46084D01*
X44918Y284255D01*
Y280756D01*
X51916Y287754D02*
Y290086D01*
Y288920D01*
X44918D01*
X46084Y287754D01*
X53082Y293585D02*
Y298251D01*
X47251Y305248D02*
Y301749D01*
X48417Y300583D01*
X50749D01*
X51916Y301749D01*
Y305248D01*
X44918Y307581D02*
X51916D01*
X48417D01*
X47251Y308747D01*
Y311080D01*
X48417Y312246D01*
X51916D01*
X44918Y319244D02*
X46084Y316911D01*
X48417Y314579D01*
X50749D01*
X51916Y315745D01*
Y318078D01*
X50749Y319244D01*
X49583D01*
X48417Y318078D01*
Y314579D01*
X55668Y236506D02*
X62666D01*
Y240005D01*
X61499Y241171D01*
X56834D01*
X55668Y240005D01*
Y236506D01*
X62666Y243504D02*
Y245837D01*
Y244670D01*
X55668D01*
X56834Y243504D01*
X63832Y249335D02*
Y254001D01*
X58000Y260998D02*
Y257500D01*
X59167Y256333D01*
X61499D01*
X62666Y257500D01*
Y260998D01*
X55668Y263331D02*
X62666D01*
X59167D01*
X58000Y264497D01*
Y266830D01*
X59167Y267996D01*
X62666D01*
X55668Y274994D02*
Y270329D01*
X59167D01*
X58000Y272661D01*
Y273827D01*
X59167Y274994D01*
X61499D01*
X62666Y273827D01*
Y271495D01*
X61499Y270329D01*
X220668Y341756D02*
X227666D01*
Y345255D01*
X226499Y346421D01*
X221834D01*
X220668Y345255D01*
Y341756D01*
X227666Y348754D02*
Y351087D01*
Y349920D01*
X220668D01*
X221834Y348754D01*
X228832Y354585D02*
Y359251D01*
X223001Y366248D02*
Y362749D01*
X224167Y361583D01*
X226499D01*
X227666Y362749D01*
Y366248D01*
X220668Y368581D02*
X227666D01*
X224167D01*
X223001Y369747D01*
Y372080D01*
X224167Y373246D01*
X227666D01*
Y379078D02*
X220668D01*
X224167Y375579D01*
Y380244D01*
X255918Y260756D02*
X262916D01*
Y264255D01*
X261749Y265421D01*
X257084D01*
X255918Y264255D01*
Y260756D01*
X262916Y267754D02*
Y270087D01*
Y268920D01*
X255918D01*
X257084Y267754D01*
X264082Y273585D02*
Y278251D01*
X258251Y285248D02*
Y281749D01*
X259417Y280583D01*
X261749D01*
X262916Y281749D01*
Y285248D01*
X255918Y287581D02*
X262916D01*
X259417D01*
X258251Y288747D01*
Y291080D01*
X259417Y292246D01*
X262916D01*
X257084Y294579D02*
X255918Y295745D01*
Y298078D01*
X257084Y299244D01*
X258251D01*
X259417Y298078D01*
Y296911D01*
Y298078D01*
X260583Y299244D01*
X261749D01*
X262916Y298078D01*
Y295745D01*
X261749Y294579D01*
X420418Y343006D02*
X427416D01*
Y346505D01*
X426249Y347671D01*
X421584D01*
X420418Y346505D01*
Y343006D01*
X427416Y350004D02*
Y352337D01*
Y351170D01*
X420418D01*
X421584Y350004D01*
X428582Y355835D02*
Y360501D01*
X422751Y367498D02*
Y363999D01*
X423917Y362833D01*
X426249D01*
X427416Y363999D01*
Y367498D01*
X420418Y369831D02*
X427416D01*
X423917D01*
X422751Y370997D01*
Y373330D01*
X423917Y374496D01*
X427416D01*
Y381494D02*
Y376829D01*
X422751Y381494D01*
X421584D01*
X420418Y380327D01*
Y377995D01*
X421584Y376829D01*
X457168Y256922D02*
X464166D01*
Y260421D01*
X462999Y261588D01*
X458334D01*
X457168Y260421D01*
Y256922D01*
X464166Y263920D02*
Y266253D01*
Y265086D01*
X457168D01*
X458334Y263920D01*
X465332Y269752D02*
Y274417D01*
X459501Y281415D02*
Y277916D01*
X460667Y276749D01*
X462999D01*
X464166Y277916D01*
Y281415D01*
X457168Y283747D02*
X464166D01*
X460667D01*
X459501Y284914D01*
Y287246D01*
X460667Y288412D01*
X464166D01*
Y290745D02*
Y293078D01*
Y291911D01*
X457168D01*
X458334Y290745D01*
X135334Y532588D02*
X134168Y531422D01*
Y529089D01*
X135334Y527923D01*
X139999D01*
X141166Y529089D01*
Y531422D01*
X139999Y532588D01*
X134168Y534921D02*
Y539586D01*
X135334D01*
X139999Y534921D01*
X141166D01*
X142332Y541919D02*
Y546584D01*
X136501Y553582D02*
Y550083D01*
X137667Y548916D01*
X139999D01*
X141166Y550083D01*
Y553582D01*
X134168Y555914D02*
X141166D01*
X137667D01*
X136501Y557080D01*
Y559413D01*
X137667Y560579D01*
X141166D01*
X134168Y567577D02*
X135334Y565244D01*
X137667Y562912D01*
X139999D01*
X141166Y564078D01*
Y566411D01*
X139999Y567577D01*
X138833D01*
X137667Y566411D01*
Y562912D01*
X617084Y530755D02*
X615918Y529588D01*
Y527256D01*
X617084Y526089D01*
X621749D01*
X622916Y527256D01*
Y529588D01*
X621749Y530755D01*
X615918Y533087D02*
Y537752D01*
X617084D01*
X621749Y533087D01*
X622916D01*
X624082Y540085D02*
Y544750D01*
X618251Y551748D02*
Y548249D01*
X619417Y547083D01*
X621749D01*
X622916Y548249D01*
Y551748D01*
X615918Y554080D02*
X622916D01*
X619417D01*
X618251Y555247D01*
Y557579D01*
X619417Y558745D01*
X622916D01*
Y561078D02*
Y563411D01*
Y562244D01*
X615918D01*
X617084Y561078D01*
X37338Y150166D02*
X36172Y151332D01*
X33839D01*
X32673Y150166D01*
Y145501D01*
X33839Y144334D01*
X36172D01*
X37338Y145501D01*
X44336Y151332D02*
X42003Y150166D01*
X39671Y147833D01*
Y145501D01*
X40837Y144334D01*
X43170D01*
X44336Y145501D01*
Y146667D01*
X43170Y147833D01*
X39671D01*
X46669Y143168D02*
X51334D01*
X58331Y148999D02*
X54833D01*
X53666Y147833D01*
Y145501D01*
X54833Y144334D01*
X58331D01*
X60664Y151332D02*
Y144334D01*
Y147833D01*
X61830Y148999D01*
X64163D01*
X65329Y147833D01*
Y144334D01*
X72327Y151332D02*
X69994Y150166D01*
X67662Y147833D01*
Y145501D01*
X68828Y144334D01*
X71161D01*
X72327Y145501D01*
Y146667D01*
X71161Y147833D01*
X67662D01*
X514005Y150666D02*
X512838Y151832D01*
X510506D01*
X509339Y150666D01*
Y146001D01*
X510506Y144834D01*
X512838D01*
X514005Y146001D01*
X521002Y151832D02*
X518670Y150666D01*
X516337Y148333D01*
Y146001D01*
X517503Y144834D01*
X519836D01*
X521002Y146001D01*
Y147167D01*
X519836Y148333D01*
X516337D01*
X523335Y143668D02*
X528000D01*
X534998Y149499D02*
X531499D01*
X530333Y148333D01*
Y146001D01*
X531499Y144834D01*
X534998D01*
X537330Y151832D02*
Y144834D01*
Y148333D01*
X538497Y149499D01*
X540829D01*
X541996Y148333D01*
Y144834D01*
X544328D02*
X546661D01*
X545494D01*
Y151832D01*
X544328Y150666D01*
X38088Y191916D02*
X36922Y193082D01*
X34589D01*
X33423Y191916D01*
Y187251D01*
X34589Y186084D01*
X36922D01*
X38088Y187251D01*
X45086Y193082D02*
X40421D01*
Y189583D01*
X42753Y190749D01*
X43920D01*
X45086Y189583D01*
Y187251D01*
X43920Y186084D01*
X41587D01*
X40421Y187251D01*
X47418Y184918D02*
X52084D01*
X59082Y190749D02*
X55583D01*
X54416Y189583D01*
Y187251D01*
X55583Y186084D01*
X59082D01*
X61414Y193082D02*
Y186084D01*
Y189583D01*
X62580Y190749D01*
X64913D01*
X66079Y189583D01*
Y186084D01*
X73077Y193082D02*
X70744Y191916D01*
X68412Y189583D01*
Y187251D01*
X69578Y186084D01*
X71911D01*
X73077Y187251D01*
Y188417D01*
X71911Y189583D01*
X68412D01*
X515005Y193916D02*
X513838Y195082D01*
X511506D01*
X510339Y193916D01*
Y189251D01*
X511506Y188084D01*
X513838D01*
X515005Y189251D01*
X522002Y195082D02*
X517337D01*
Y191583D01*
X519670Y192749D01*
X520836D01*
X522002Y191583D01*
Y189251D01*
X520836Y188084D01*
X518503D01*
X517337Y189251D01*
X524335Y186918D02*
X529000D01*
X535998Y192749D02*
X532499D01*
X531333Y191583D01*
Y189251D01*
X532499Y188084D01*
X535998D01*
X538330Y195082D02*
Y188084D01*
Y191583D01*
X539497Y192749D01*
X541829D01*
X542995Y191583D01*
Y188084D01*
X545328D02*
X547661D01*
X546494D01*
Y195082D01*
X545328Y193916D01*
X66334Y573588D02*
X65168Y572422D01*
Y570089D01*
X66334Y568923D01*
X70999D01*
X72166Y570089D01*
Y572422D01*
X70999Y573588D01*
X72166Y580586D02*
Y575921D01*
X67501Y580586D01*
X66334D01*
X65168Y579420D01*
Y577087D01*
X66334Y575921D01*
X73332Y582919D02*
Y587584D01*
X67501Y594581D02*
Y591083D01*
X68667Y589916D01*
X70999D01*
X72166Y591083D01*
Y594581D01*
X65168Y596914D02*
X72166D01*
X68667D01*
X67501Y598080D01*
Y600413D01*
X68667Y601579D01*
X72166D01*
X65168Y608577D02*
X66334Y606244D01*
X68667Y603912D01*
X70999D01*
X72166Y605078D01*
Y607411D01*
X70999Y608577D01*
X69833D01*
X68667Y607411D01*
Y603912D01*
X547334Y577755D02*
X546168Y576588D01*
Y574256D01*
X547334Y573089D01*
X551999D01*
X553166Y574256D01*
Y576588D01*
X551999Y577755D01*
X553166Y584752D02*
Y580087D01*
X548501Y584752D01*
X547334D01*
X546168Y583586D01*
Y581253D01*
X547334Y580087D01*
X554332Y587085D02*
Y591750D01*
X548501Y598748D02*
Y595249D01*
X549667Y594083D01*
X551999D01*
X553166Y595249D01*
Y598748D01*
X546168Y601080D02*
X553166D01*
X549667D01*
X548501Y602247D01*
Y604579D01*
X549667Y605746D01*
X553166D01*
Y608078D02*
Y610411D01*
Y609244D01*
X546168D01*
X547334Y608078D01*
X141334Y477171D02*
X140168Y476005D01*
Y473672D01*
X141334Y472506D01*
X145999D01*
X147166Y473672D01*
Y476005D01*
X145999Y477171D01*
X147166Y479504D02*
Y481837D01*
Y480670D01*
X140168D01*
X141334Y479504D01*
X148332Y485335D02*
Y490001D01*
X142501Y496998D02*
Y493499D01*
X143667Y492333D01*
X145999D01*
X147166Y493499D01*
Y496998D01*
X140168Y499331D02*
X147166D01*
X143667D01*
X142501Y500497D01*
Y502830D01*
X143667Y503996D01*
X147166D01*
X140168Y510994D02*
X141334Y508661D01*
X143667Y506329D01*
X145999D01*
X147166Y507495D01*
Y509827D01*
X145999Y510994D01*
X144833D01*
X143667Y509827D01*
Y506329D01*
X613084Y419088D02*
X611918Y417921D01*
Y415589D01*
X613084Y414422D01*
X617749D01*
X618916Y415589D01*
Y417921D01*
X617749Y419088D01*
X618916Y421420D02*
Y423753D01*
Y422587D01*
X611918D01*
X613084Y421420D01*
X620082Y427252D02*
Y431917D01*
X614251Y438915D02*
Y435416D01*
X615417Y434249D01*
X617749D01*
X618916Y435416D01*
Y438915D01*
X611918Y441247D02*
X618916D01*
X615417D01*
X614251Y442413D01*
Y444746D01*
X615417Y445912D01*
X618916D01*
Y448245D02*
Y450578D01*
Y449411D01*
X611918D01*
X613084Y448245D01*
X510751Y878170D02*
X515416D01*
X517749Y880502D01*
X515416Y882835D01*
X510751D01*
Y885167D02*
X517749D01*
Y888666D01*
X516583Y889833D01*
X511917D01*
X510751Y888666D01*
Y885167D01*
X511917Y892165D02*
X510751Y893331D01*
Y895664D01*
X511917Y896830D01*
X513084D01*
X514250Y895664D01*
Y894498D01*
Y895664D01*
X515416Y896830D01*
X516583D01*
X517749Y895664D01*
Y893331D01*
X516583Y892165D01*
X480001Y878920D02*
X484666D01*
X486999Y881252D01*
X484666Y883585D01*
X480001D01*
Y885917D02*
X486999D01*
Y889416D01*
X485832Y890583D01*
X481167D01*
X480001Y889416D01*
Y885917D01*
X486999Y897580D02*
Y892915D01*
X482334Y897580D01*
X481167D01*
X480001Y896414D01*
Y894081D01*
X481167Y892915D01*
X532999Y942420D02*
X526001D01*
Y945919D01*
X527167Y947085D01*
X529500D01*
X530666Y945919D01*
Y942420D01*
Y944752D02*
X532999Y947085D01*
Y952916D02*
X526001D01*
X529500Y949417D01*
Y954083D01*
X527167Y956415D02*
X526001Y957581D01*
Y959914D01*
X527167Y961080D01*
X531833D01*
X532999Y959914D01*
Y957581D01*
X531833Y956415D01*
X527167D01*
X502499Y943420D02*
X495501D01*
Y946918D01*
X496667Y948085D01*
X499000D01*
X500166Y946918D01*
Y943420D01*
Y945752D02*
X502499Y948085D01*
Y955083D02*
Y950417D01*
X497834Y955083D01*
X496667D01*
X495501Y953916D01*
Y951584D01*
X496667Y950417D01*
X501333Y957415D02*
X502499Y958581D01*
Y960914D01*
X501333Y962080D01*
X496667D01*
X495501Y960914D01*
Y958581D01*
X496667Y957415D01*
X497834D01*
X499000Y958581D01*
Y962080D01*
X295835Y705499D02*
X300500Y698501D01*
Y705499D02*
X295835Y698501D01*
X302833D02*
X305165D01*
X303999D01*
Y705499D01*
X302833Y704333D01*
X292918Y785999D02*
X297584Y779001D01*
Y785999D02*
X292918Y779001D01*
X304582D02*
X299916D01*
X304582Y783666D01*
Y784833D01*
X303415Y785999D01*
X301083D01*
X299916Y784833D01*
X560086Y699999D02*
Y695334D01*
X562419Y693001D01*
X564751Y695334D01*
Y699999D01*
X567084Y693001D02*
Y699999D01*
X570583D01*
X571749Y698833D01*
Y696500D01*
X570583Y695334D01*
X567084D01*
X569416D02*
X571749Y693001D01*
X574081D02*
X576414D01*
X575248D01*
Y699999D01*
X574081Y698833D01*
X252920Y933001D02*
Y939999D01*
X256418D01*
X257585Y938833D01*
Y936500D01*
X256418Y935334D01*
X252920D01*
X255252D02*
X257585Y933001D01*
X259917Y938833D02*
X261084Y939999D01*
X263416D01*
X264583Y938833D01*
Y937666D01*
X263416Y936500D01*
X262250D01*
X263416D01*
X264583Y935334D01*
Y934167D01*
X263416Y933001D01*
X261084D01*
X259917Y934167D01*
X271580Y939999D02*
X269248Y938833D01*
X266915Y936500D01*
Y934167D01*
X268081Y933001D01*
X270414D01*
X271580Y934167D01*
Y935334D01*
X270414Y936500D01*
X266915D01*
X179920Y678501D02*
Y685499D01*
X183419D01*
X184585Y684333D01*
Y682000D01*
X183419Y680834D01*
X179920D01*
X182252D02*
X184585Y678501D01*
X186917Y684333D02*
X188084Y685499D01*
X190416D01*
X191583Y684333D01*
Y683166D01*
X190416Y682000D01*
X189250D01*
X190416D01*
X191583Y680834D01*
Y679667D01*
X190416Y678501D01*
X188084D01*
X186917Y679667D01*
X197414Y678501D02*
Y685499D01*
X193915Y682000D01*
X198580D01*
X138499Y719420D02*
X131501D01*
Y722918D01*
X132667Y724085D01*
X135000D01*
X136166Y722918D01*
Y719420D01*
Y721752D02*
X138499Y724085D01*
X132667Y726417D02*
X131501Y727584D01*
Y729916D01*
X132667Y731083D01*
X133834D01*
X135000Y729916D01*
Y728750D01*
Y729916D01*
X136166Y731083D01*
X137333D01*
X138499Y729916D01*
Y727584D01*
X137333Y726417D01*
X131501Y738080D02*
Y733415D01*
X135000D01*
X133834Y735748D01*
Y736914D01*
X135000Y738080D01*
X137333D01*
X138499Y736914D01*
Y734581D01*
X137333Y733415D01*
X252670Y844751D02*
Y851749D01*
X256169D01*
X257335Y850583D01*
Y848250D01*
X256169Y847084D01*
X252670D01*
X255002D02*
X257335Y844751D01*
X259667Y850583D02*
X260834Y851749D01*
X263166D01*
X264333Y850583D01*
Y849416D01*
X263166Y848250D01*
X262000D01*
X263166D01*
X264333Y847084D01*
Y845917D01*
X263166Y844751D01*
X260834D01*
X259667Y845917D01*
X266665D02*
X267831Y844751D01*
X270164D01*
X271330Y845917D01*
Y850583D01*
X270164Y851749D01*
X267831D01*
X266665Y850583D01*
Y849416D01*
X267831Y848250D01*
X271330D01*
X418420Y833001D02*
Y839999D01*
X421918D01*
X423085Y838833D01*
Y836500D01*
X421918Y835334D01*
X418420D01*
X420752D02*
X423085Y833001D01*
X430083D02*
X425417D01*
X430083Y837666D01*
Y838833D01*
X428916Y839999D01*
X426584D01*
X425417Y838833D01*
X432415D02*
X433582Y839999D01*
X435914D01*
X437080Y838833D01*
Y837666D01*
X435914Y836500D01*
X437080Y835334D01*
Y834167D01*
X435914Y833001D01*
X433582D01*
X432415Y834167D01*
Y835334D01*
X433582Y836500D01*
X432415Y837666D01*
Y838833D01*
X433582Y836500D02*
X435914D01*
X252420Y874751D02*
Y881749D01*
X255919D01*
X257085Y880583D01*
Y878250D01*
X255919Y877084D01*
X252420D01*
X254752D02*
X257085Y874751D01*
X259417Y880583D02*
X260584Y881749D01*
X262916D01*
X264083Y880583D01*
Y879416D01*
X262916Y878250D01*
X261750D01*
X262916D01*
X264083Y877084D01*
Y875917D01*
X262916Y874751D01*
X260584D01*
X259417Y875917D01*
X266415Y880583D02*
X267582Y881749D01*
X269914D01*
X271080Y880583D01*
Y879416D01*
X269914Y878250D01*
X271080Y877084D01*
Y875917D01*
X269914Y874751D01*
X267582D01*
X266415Y875917D01*
Y877084D01*
X267582Y878250D01*
X266415Y879416D01*
Y880583D01*
X267582Y878250D02*
X269914D01*
X252420Y904501D02*
Y911499D01*
X255919D01*
X257085Y910333D01*
Y908000D01*
X255919Y906834D01*
X252420D01*
X254752D02*
X257085Y904501D01*
X259417Y910333D02*
X260584Y911499D01*
X262916D01*
X264083Y910333D01*
Y909166D01*
X262916Y908000D01*
X261750D01*
X262916D01*
X264083Y906834D01*
Y905667D01*
X262916Y904501D01*
X260584D01*
X259417Y905667D01*
X266415Y911499D02*
X271080D01*
Y910333D01*
X266415Y905667D01*
Y904501D01*
X417420Y860001D02*
Y866999D01*
X420919D01*
X422085Y865833D01*
Y863500D01*
X420919Y862334D01*
X417420D01*
X419752D02*
X422085Y860001D01*
X429083D02*
X424417D01*
X429083Y864666D01*
Y865833D01*
X427916Y866999D01*
X425584D01*
X424417Y865833D01*
X431415Y866999D02*
X436080D01*
Y865833D01*
X431415Y861167D01*
Y860001D01*
X415920Y911001D02*
Y917999D01*
X419418D01*
X420585Y916833D01*
Y914500D01*
X419418Y913334D01*
X415920D01*
X418252D02*
X420585Y911001D01*
X427583D02*
X422917D01*
X427583Y915666D01*
Y916833D01*
X426416Y917999D01*
X424084D01*
X422917Y916833D01*
X434580Y917999D02*
X429915D01*
Y914500D01*
X432248Y915666D01*
X433414D01*
X434580Y914500D01*
Y912167D01*
X433414Y911001D01*
X431082D01*
X429915Y912167D01*
X416670Y885751D02*
Y892749D01*
X420169D01*
X421335Y891583D01*
Y889250D01*
X420169Y888084D01*
X416670D01*
X419002D02*
X421335Y885751D01*
X428333D02*
X423667D01*
X428333Y890416D01*
Y891583D01*
X427166Y892749D01*
X424834D01*
X423667Y891583D01*
X435330Y892749D02*
X432998Y891583D01*
X430665Y889250D01*
Y886917D01*
X431832Y885751D01*
X434164D01*
X435330Y886917D01*
Y888084D01*
X434164Y889250D01*
X430665D01*
X501918Y863333D02*
X500752Y864499D01*
X498419D01*
X497253Y863333D01*
Y858667D01*
X498419Y857501D01*
X500752D01*
X501918Y858667D01*
X504251Y857501D02*
X506583D01*
X505417D01*
Y864499D01*
X504251Y863333D01*
X513581Y857501D02*
Y864499D01*
X510082Y861000D01*
X514747D01*
X170667Y802668D02*
X169501Y801502D01*
Y799169D01*
X170667Y798003D01*
X175333D01*
X176499Y799169D01*
Y801502D01*
X175333Y802668D01*
X176499Y805001D02*
Y807333D01*
Y806167D01*
X169501D01*
X170667Y805001D01*
X176499Y815497D02*
Y810832D01*
X171834Y815497D01*
X170667D01*
X169501Y814331D01*
Y811998D01*
X170667Y810832D01*
X329168Y698333D02*
X328002Y699499D01*
X325669D01*
X324503Y698333D01*
Y693667D01*
X325669Y692501D01*
X328002D01*
X329168Y693667D01*
X331501Y692501D02*
X333833D01*
X332667D01*
Y699499D01*
X331501Y698333D01*
X337332D02*
X338498Y699499D01*
X340831D01*
X341997Y698333D01*
Y693667D01*
X340831Y692501D01*
X338498D01*
X337332Y693667D01*
Y698333D01*
X241391Y783070D02*
X240225Y784236D01*
X237892D01*
X236726Y783070D01*
Y778404D01*
X237892Y777238D01*
X240225D01*
X241391Y778404D01*
X243724Y777238D02*
X246056D01*
X244890D01*
Y784236D01*
X243724Y783070D01*
X249555Y777238D02*
X251888D01*
X250721D01*
Y784236D01*
X249555Y783070D01*
X354167Y808978D02*
X353001Y810144D01*
X350668D01*
X349502Y808978D01*
Y804312D01*
X350668Y803146D01*
X353001D01*
X354167Y804312D01*
X356500Y803146D02*
X358832D01*
X357666D01*
Y810144D01*
X356500Y808978D01*
X362331D02*
X363498Y810144D01*
X365830D01*
X366996Y808978D01*
Y807811D01*
X365830Y806645D01*
X364664D01*
X365830D01*
X366996Y805479D01*
Y804312D01*
X365830Y803146D01*
X363498D01*
X362331Y804312D01*
X449001Y880336D02*
X453666D01*
X455999Y882669D01*
X453666Y885001D01*
X449001D01*
Y887334D02*
X455999D01*
Y890833D01*
X454832Y891999D01*
X450167D01*
X449001Y890833D01*
Y887334D01*
X455999Y894332D02*
Y896664D01*
Y895498D01*
X449001D01*
X450167Y894332D01*
X421170Y678501D02*
Y685499D01*
X424669D01*
X425835Y684333D01*
Y682000D01*
X424669Y680834D01*
X421170D01*
X423502D02*
X425835Y678501D01*
X432833D02*
X428167D01*
X432833Y683166D01*
Y684333D01*
X431666Y685499D01*
X429334D01*
X428167Y684333D01*
X435165D02*
X436331Y685499D01*
X438664D01*
X439830Y684333D01*
Y683166D01*
X438664Y682000D01*
X437498D01*
X438664D01*
X439830Y680834D01*
Y679667D01*
X438664Y678501D01*
X436331D01*
X435165Y679667D01*
X402999Y736920D02*
X396001D01*
Y740418D01*
X397167Y741585D01*
X399500D01*
X400666Y740418D01*
Y736920D01*
Y739252D02*
X402999Y741585D01*
Y748583D02*
Y743917D01*
X398334Y748583D01*
X397167D01*
X396001Y747416D01*
Y745084D01*
X397167Y743917D01*
X402999Y754414D02*
X396001D01*
X399500Y750915D01*
Y755580D01*
X470749Y942420D02*
X463751D01*
Y945919D01*
X464917Y947085D01*
X467250D01*
X468416Y945919D01*
Y942420D01*
Y944752D02*
X470749Y947085D01*
Y954083D02*
Y949417D01*
X466084Y954083D01*
X464917D01*
X463751Y952916D01*
Y950584D01*
X464917Y949417D01*
X470749Y961080D02*
Y956415D01*
X466084Y961080D01*
X464917D01*
X463751Y959914D01*
Y957581D01*
X464917Y956415D01*
X488279Y765290D02*
X487113Y766456D01*
X484780D01*
X483614Y765290D01*
Y760624D01*
X484780Y759458D01*
X487113D01*
X488279Y760624D01*
X490612D02*
X491778Y759458D01*
X494111D01*
X495277Y760624D01*
Y765290D01*
X494111Y766456D01*
X491778D01*
X490612Y765290D01*
Y764123D01*
X491778Y762957D01*
X495277D01*
X459917Y810334D02*
X458751Y809167D01*
Y806835D01*
X459917Y805668D01*
X464582D01*
X465749Y806835D01*
Y809167D01*
X464582Y810334D01*
X459917Y812666D02*
X458751Y813833D01*
Y816165D01*
X459917Y817331D01*
X461084D01*
X462250Y816165D01*
X463416Y817331D01*
X464582D01*
X465749Y816165D01*
Y813833D01*
X464582Y812666D01*
X463416D01*
X462250Y813833D01*
X461084Y812666D01*
X459917D01*
X462250Y813833D02*
Y816165D01*
X611834Y630005D02*
X610668Y628838D01*
Y626506D01*
X611834Y625339D01*
X616499D01*
X617666Y626506D01*
Y628838D01*
X616499Y630005D01*
X617666Y635836D02*
X610668D01*
X614167Y632337D01*
Y637002D01*
X618832Y639335D02*
Y644000D01*
X613001Y650998D02*
Y647499D01*
X614167Y646333D01*
X616499D01*
X617666Y647499D01*
Y650998D01*
X610668Y653330D02*
X617666D01*
X614167D01*
X613001Y654497D01*
Y656829D01*
X614167Y657996D01*
X617666D01*
Y660328D02*
Y662661D01*
Y661494D01*
X610668D01*
X611834Y660328D01*
X9584Y628338D02*
X8418Y627172D01*
Y624839D01*
X9584Y623673D01*
X14249D01*
X15416Y624839D01*
Y627172D01*
X14249Y628338D01*
X15416Y634170D02*
X8418D01*
X11917Y630671D01*
Y635336D01*
X16582Y637669D02*
Y642334D01*
X10750Y649332D02*
Y645833D01*
X11917Y644666D01*
X14249D01*
X15416Y645833D01*
Y649332D01*
X8418Y651664D02*
X15416D01*
X11917D01*
X10750Y652830D01*
Y655163D01*
X11917Y656329D01*
X15416D01*
X8418Y663327D02*
X9584Y660994D01*
X11917Y658662D01*
X14249D01*
X15416Y659828D01*
Y662161D01*
X14249Y663327D01*
X13083D01*
X11917Y662161D01*
Y658662D01*
D13*
X318750Y916750D02*
G03*
X318750Y916750I-3000J0D01*
G01*
X186750D02*
G03*
X186750Y916750I-3000J0D01*
G01*
D14*
X295400Y926350D02*
G03*
X295400Y926350I-1250J0D01*
G01*
X163400D02*
G03*
X163400Y926350I-1250J0D01*
G01*
D15*
X542166Y507100D02*
Y526150D01*
Y532246D01*
Y551296D01*
X591950Y507100D02*
Y551296D01*
X61050Y505850D02*
Y524900D01*
Y530996D01*
Y550046D01*
X110834Y505850D02*
Y550046D01*
X207057Y505850D02*
Y550046D01*
X157273Y530996D02*
Y550046D01*
Y524900D02*
Y530996D01*
Y505850D02*
Y524900D01*
X303280Y505850D02*
Y550046D01*
X253496Y530996D02*
Y550046D01*
Y524900D02*
Y530996D01*
Y505850D02*
Y524900D01*
X399504Y505850D02*
Y550046D01*
X349720Y530996D02*
Y550046D01*
Y524900D02*
Y530996D01*
Y505850D02*
Y524900D01*
X495727Y505850D02*
Y550046D01*
X445943Y530996D02*
Y550046D01*
Y524900D02*
Y530996D01*
Y505850D02*
Y524900D01*
D16*
X541250Y472350D02*
X593250D01*
X541250Y443150D02*
X593250D01*
X54750Y470100D02*
X106750D01*
X54750Y440900D02*
X106750D01*
X228000Y722750D02*
Y767750D01*
X162000Y722750D02*
Y767750D01*
X552500Y769750D02*
X587500D01*
X552500Y757350D02*
Y769750D01*
Y704750D02*
X587500D01*
X552500D02*
Y717150D01*
X478250Y722750D02*
Y767750D01*
X412250Y722750D02*
Y767750D01*
X502350Y249385D02*
Y301385D01*
X473150Y249385D02*
Y301385D01*
X302350Y257369D02*
Y309369D01*
X273150Y257369D02*
Y309369D01*
X101600Y257369D02*
Y309369D01*
X72400Y257369D02*
Y309369D01*
X112250Y212750D02*
X216250D01*
X112250Y316750D02*
X216250D01*
X112250Y212750D02*
Y243550D01*
Y285950D02*
Y316750D01*
X216250Y212750D02*
Y243550D01*
Y285950D02*
Y316750D01*
X81250Y329750D02*
X185250D01*
X81250Y433750D02*
X185250D01*
X81250Y329750D02*
Y360550D01*
Y402950D02*
Y433750D01*
X185250Y329750D02*
Y360550D01*
Y402950D02*
Y433750D01*
X68600Y337131D02*
Y389131D01*
X39400Y337131D02*
Y389131D01*
X468100Y337131D02*
Y389131D01*
X438900Y337131D02*
Y389131D01*
X267850Y337131D02*
Y389131D01*
X238650Y337131D02*
Y389131D01*
X280500Y329750D02*
X384500D01*
X280500Y433750D02*
X384500D01*
X280500Y329750D02*
Y360550D01*
Y402950D02*
Y433750D01*
X384500Y329750D02*
Y360550D01*
Y402950D02*
Y433750D01*
X479750Y329750D02*
X583750D01*
X479750Y433750D02*
X583750D01*
X479750Y329750D02*
Y360550D01*
Y402950D02*
Y433750D01*
X583750Y329750D02*
Y360550D01*
Y402950D02*
Y433750D01*
X514750Y212750D02*
X618750D01*
X514750Y316750D02*
X618750D01*
X514750Y212750D02*
Y243550D01*
Y285950D02*
Y316750D01*
X618750Y212750D02*
Y243550D01*
Y285950D02*
Y316750D01*
X313500Y212750D02*
X417500D01*
X313500Y316750D02*
X417500D01*
X313500Y212750D02*
Y243550D01*
Y285950D02*
Y316750D01*
X417500Y212750D02*
Y243550D01*
Y285950D02*
Y316750D01*
X8150Y122160D02*
X575750Y122160D01*
X8150Y49200D02*
Y122160D01*
Y49200D02*
X575750D01*
Y122160D01*
X152050Y441650D02*
X204050D01*
X152050Y470850D02*
X204050D01*
X249350Y443150D02*
X301350D01*
X249350Y472350D02*
X301350D01*
X346650Y443150D02*
X398650D01*
X346650Y472350D02*
X398650D01*
X443950Y443150D02*
X495950D01*
X443950Y472350D02*
X495950D01*
M02*
