G04*
G04 #@! TF.GenerationSoftware,Altium Limited,Altium Designer,20.0.13 (296)*
G04*
G04 Layer_Color=8421504*
%FSLAX44Y44*%
%MOMM*%
G71*
G01*
G75*
%ADD17R,1.0000X0.8000*%
%ADD18R,0.6000X0.5000*%
%ADD19R,3.0988X2.9972*%
%ADD20R,0.3556X1.4224*%
G04:AMPARAMS|DCode=21|XSize=2.33mm|YSize=1.55mm|CornerRadius=0.3875mm|HoleSize=0mm|Usage=FLASHONLY|Rotation=180.000|XOffset=0mm|YOffset=0mm|HoleType=Round|Shape=RoundedRectangle|*
%AMROUNDEDRECTD21*
21,1,2.3300,0.7750,0,0,180.0*
21,1,1.5550,1.5500,0,0,180.0*
1,1,0.7750,-0.7775,0.3875*
1,1,0.7750,0.7775,0.3875*
1,1,0.7750,0.7775,-0.3875*
1,1,0.7750,-0.7775,-0.3875*
%
%ADD21ROUNDEDRECTD21*%
%ADD22R,3.5000X2.1500*%
%ADD23R,0.5000X0.6000*%
%ADD24R,0.8000X1.0000*%
%ADD25R,0.4100X1.5600*%
%ADD26R,1.1000X1.2500*%
%ADD27R,2.1500X3.5000*%
%ADD28R,2.1500X3.2500*%
%ADD29R,2.1500X0.9500*%
G04:AMPARAMS|DCode=30|XSize=2.33mm|YSize=1.55mm|CornerRadius=0.3875mm|HoleSize=0mm|Usage=FLASHONLY|Rotation=270.000|XOffset=0mm|YOffset=0mm|HoleType=Round|Shape=RoundedRectangle|*
%AMROUNDEDRECTD30*
21,1,2.3300,0.7750,0,0,270.0*
21,1,1.5550,1.5500,0,0,270.0*
1,1,0.7750,-0.3875,-0.7775*
1,1,0.7750,-0.3875,0.7775*
1,1,0.7750,0.3875,0.7775*
1,1,0.7750,0.3875,-0.7775*
%
%ADD30ROUNDEDRECTD30*%
%ADD31R,2.7000X3.6000*%
D17*
X190250Y812250D02*
D03*
Y796250D02*
D03*
X127750Y484750D02*
D03*
Y468750D02*
D03*
X570250Y595000D02*
D03*
Y579000D02*
D03*
X603250Y538500D02*
D03*
Y554500D02*
D03*
X614750Y484750D02*
D03*
Y468750D02*
D03*
X121500Y538500D02*
D03*
Y554500D02*
D03*
X89250Y595000D02*
D03*
Y579000D02*
D03*
X445750Y814500D02*
D03*
Y798500D02*
D03*
X217850Y554500D02*
D03*
Y538500D02*
D03*
X314200Y554500D02*
D03*
Y538500D02*
D03*
X410550Y554500D02*
D03*
Y538500D02*
D03*
X506900Y554500D02*
D03*
Y538500D02*
D03*
X185450Y579000D02*
D03*
Y595000D02*
D03*
X281650Y579000D02*
D03*
Y595000D02*
D03*
X377850Y579000D02*
D03*
Y595000D02*
D03*
X474050Y579000D02*
D03*
Y595000D02*
D03*
X225150Y468750D02*
D03*
Y484750D02*
D03*
X322550Y468750D02*
D03*
Y484750D02*
D03*
X419950Y468750D02*
D03*
Y484750D02*
D03*
X517350Y468750D02*
D03*
Y484750D02*
D03*
X243500Y743250D02*
D03*
Y759250D02*
D03*
D18*
X586500Y598000D02*
D03*
Y588000D02*
D03*
X105500Y598000D02*
D03*
Y588000D02*
D03*
X150250Y731000D02*
D03*
Y721000D02*
D03*
X529250Y922100D02*
D03*
Y932100D02*
D03*
X498549Y922100D02*
D03*
Y932100D02*
D03*
X467848Y922100D02*
D03*
Y932100D02*
D03*
X400500Y724500D02*
D03*
Y714500D02*
D03*
X201700Y588000D02*
D03*
Y598000D02*
D03*
X297900Y588000D02*
D03*
Y598000D02*
D03*
X394100Y588000D02*
D03*
Y598000D02*
D03*
X490300Y588000D02*
D03*
Y598000D02*
D03*
D19*
X567058Y529198D02*
D03*
X85942Y527948D02*
D03*
X182165D02*
D03*
X278388D02*
D03*
X374612D02*
D03*
X470835D02*
D03*
D20*
X547500Y557646D02*
D03*
X554104D02*
D03*
X560454D02*
D03*
X567058D02*
D03*
X573662D02*
D03*
X580012D02*
D03*
X586616D02*
D03*
Y500750D02*
D03*
X580012D02*
D03*
X573662D02*
D03*
X567058D02*
D03*
X560454D02*
D03*
X554104D02*
D03*
X547500D02*
D03*
X66384Y556396D02*
D03*
X72988D02*
D03*
X79338D02*
D03*
X85942D02*
D03*
X92546D02*
D03*
X98896D02*
D03*
X105500D02*
D03*
Y499500D02*
D03*
X98896D02*
D03*
X92546D02*
D03*
X85942D02*
D03*
X79338D02*
D03*
X72988D02*
D03*
X66384D02*
D03*
X162607D02*
D03*
X169211D02*
D03*
X175561D02*
D03*
X182165D02*
D03*
X188769D02*
D03*
X195119D02*
D03*
X201723D02*
D03*
Y556396D02*
D03*
X195119D02*
D03*
X188769D02*
D03*
X182165D02*
D03*
X175561D02*
D03*
X169211D02*
D03*
X162607D02*
D03*
X258830Y499500D02*
D03*
X265434D02*
D03*
X271784D02*
D03*
X278388D02*
D03*
X284992D02*
D03*
X291342D02*
D03*
X297946D02*
D03*
Y556396D02*
D03*
X291342D02*
D03*
X284992D02*
D03*
X278388D02*
D03*
X271784D02*
D03*
X265434D02*
D03*
X258830D02*
D03*
X355053Y499500D02*
D03*
X361657D02*
D03*
X368008D02*
D03*
X374612D02*
D03*
X381216D02*
D03*
X387565D02*
D03*
X394170D02*
D03*
Y556396D02*
D03*
X387565D02*
D03*
X381216D02*
D03*
X374612D02*
D03*
X368008D02*
D03*
X361657D02*
D03*
X355053D02*
D03*
X451277Y499500D02*
D03*
X457881D02*
D03*
X464231D02*
D03*
X470835D02*
D03*
X477439D02*
D03*
X483789D02*
D03*
X490393D02*
D03*
Y556396D02*
D03*
X483789D02*
D03*
X477439D02*
D03*
X470835D02*
D03*
X464231D02*
D03*
X457881D02*
D03*
X451277D02*
D03*
D21*
X545900Y457750D02*
D03*
X588600D02*
D03*
X59400Y455500D02*
D03*
X102100D02*
D03*
X199400Y456250D02*
D03*
X156700D02*
D03*
X296700Y457750D02*
D03*
X254000D02*
D03*
X394000D02*
D03*
X351300D02*
D03*
X491300D02*
D03*
X448600D02*
D03*
D22*
X39750Y660750D02*
D03*
Y625750D02*
D03*
X587250Y660750D02*
D03*
Y625750D02*
D03*
X487705D02*
D03*
Y660750D02*
D03*
X338386Y625750D02*
D03*
Y660750D02*
D03*
X238841Y625750D02*
D03*
Y660750D02*
D03*
X139296Y625750D02*
D03*
Y660750D02*
D03*
X537477Y625750D02*
D03*
Y660750D02*
D03*
X437932Y625750D02*
D03*
Y660750D02*
D03*
X388159Y625750D02*
D03*
Y660750D02*
D03*
X288614Y625750D02*
D03*
Y660750D02*
D03*
X189068Y625750D02*
D03*
Y660750D02*
D03*
X89523Y625750D02*
D03*
Y660750D02*
D03*
D23*
X445750Y695750D02*
D03*
X435750D02*
D03*
X194750Y696750D02*
D03*
X184750D02*
D03*
X389750Y914500D02*
D03*
X399750D02*
D03*
X389750Y888750D02*
D03*
X399750D02*
D03*
X389750Y863000D02*
D03*
X399750D02*
D03*
X389750Y837250D02*
D03*
X399750D02*
D03*
X257000Y834500D02*
D03*
X267000D02*
D03*
X257000Y864000D02*
D03*
X267000D02*
D03*
X257000Y894250D02*
D03*
X267000D02*
D03*
X257000Y922250D02*
D03*
X267000D02*
D03*
D24*
X374000Y696500D02*
D03*
X358000D02*
D03*
Y787250D02*
D03*
X374000D02*
D03*
X492000Y743500D02*
D03*
X508000D02*
D03*
D25*
X165750Y774050D02*
D03*
X172250D02*
D03*
X178750D02*
D03*
X185250D02*
D03*
X191750D02*
D03*
X198250D02*
D03*
X204750D02*
D03*
X211250D02*
D03*
X217750D02*
D03*
X224250D02*
D03*
Y716450D02*
D03*
X217750D02*
D03*
X211250D02*
D03*
X204750D02*
D03*
X198250D02*
D03*
X191750D02*
D03*
X185250D02*
D03*
X178750D02*
D03*
X172250D02*
D03*
X165750D02*
D03*
X416000Y774050D02*
D03*
X422500D02*
D03*
X429000D02*
D03*
X435500D02*
D03*
X442000D02*
D03*
X448500D02*
D03*
X455000D02*
D03*
X461500D02*
D03*
X468000D02*
D03*
X474500D02*
D03*
Y716450D02*
D03*
X468000D02*
D03*
X461500D02*
D03*
X455000D02*
D03*
X448500D02*
D03*
X442000D02*
D03*
X435500D02*
D03*
X429000D02*
D03*
X422500D02*
D03*
X416000D02*
D03*
D26*
X514152Y908250D02*
D03*
Y931250D02*
D03*
X483451Y908250D02*
D03*
Y931250D02*
D03*
X452750Y908250D02*
D03*
Y931250D02*
D03*
D27*
X487250Y831250D02*
D03*
X522250D02*
D03*
X450750Y189250D02*
D03*
X485750D02*
D03*
X450750Y146750D02*
D03*
X485750D02*
D03*
X98250D02*
D03*
X133250D02*
D03*
X98250Y189250D02*
D03*
X133250D02*
D03*
X168000Y146750D02*
D03*
X203000D02*
D03*
X168750Y189250D02*
D03*
X203750D02*
D03*
X239250Y146750D02*
D03*
X274250D02*
D03*
X239250Y189250D02*
D03*
X274250D02*
D03*
X309750Y146750D02*
D03*
X344750D02*
D03*
X309750Y189250D02*
D03*
X344750D02*
D03*
X380250Y147000D02*
D03*
X415250D02*
D03*
X380250Y189250D02*
D03*
X415250D02*
D03*
D28*
X541000Y737250D02*
D03*
D29*
X599000Y760250D02*
D03*
Y737250D02*
D03*
Y714250D02*
D03*
D30*
X487750Y296735D02*
D03*
Y254035D02*
D03*
X287750Y304719D02*
D03*
Y262019D02*
D03*
X87000Y304719D02*
D03*
Y262019D02*
D03*
X54000Y384481D02*
D03*
Y341781D02*
D03*
X453500Y384481D02*
D03*
Y341781D02*
D03*
X253250Y384481D02*
D03*
Y341781D02*
D03*
D31*
X205750Y264750D02*
D03*
X122750D02*
D03*
X174750Y381750D02*
D03*
X91750D02*
D03*
X374000D02*
D03*
X291000D02*
D03*
X573250D02*
D03*
X490250D02*
D03*
X608250Y264750D02*
D03*
X525250D02*
D03*
X407000D02*
D03*
X324000D02*
D03*
M02*
