G04*
G04 #@! TF.GenerationSoftware,Altium Limited,Altium Designer,20.0.13 (296)*
G04*
G04 Layer_Color=128*
%FSLAX44Y44*%
%MOMM*%
G71*
G01*
G75*
%ADD22R,0.7000X0.9000*%
%ADD27R,0.8000X1.0000*%
%ADD31R,1.0000X0.8000*%
%ADD34R,0.9000X0.7000*%
%ADD97R,0.6000X0.5000*%
D22*
X94250Y273500D02*
D03*
X110250D02*
D03*
X94250Y259000D02*
D03*
X110250D02*
D03*
X94250Y244500D02*
D03*
X110250D02*
D03*
X272750Y849250D02*
D03*
X256750D02*
D03*
D27*
X151000Y802250D02*
D03*
X135000D02*
D03*
X98250Y762500D02*
D03*
X82250D02*
D03*
D31*
X245500Y830500D02*
D03*
Y814500D02*
D03*
X263250Y830500D02*
D03*
Y814500D02*
D03*
X125500Y685750D02*
D03*
Y669750D02*
D03*
D34*
X281000Y811000D02*
D03*
Y795000D02*
D03*
X125500Y768750D02*
D03*
Y784750D02*
D03*
X184250Y758250D02*
D03*
Y774250D02*
D03*
X184500Y556250D02*
D03*
Y572250D02*
D03*
X51250Y556250D02*
D03*
Y572250D02*
D03*
X102250Y622500D02*
D03*
Y606500D02*
D03*
X133750Y621000D02*
D03*
Y605000D02*
D03*
D97*
X361750Y921000D02*
D03*
Y931000D02*
D03*
X333750Y921000D02*
D03*
Y930999D02*
D03*
X305750Y921000D02*
D03*
Y930999D02*
D03*
X277750Y921000D02*
D03*
Y930999D02*
D03*
X249750Y921000D02*
D03*
Y930999D02*
D03*
X221750Y921000D02*
D03*
Y930999D02*
D03*
X193750Y921000D02*
D03*
Y930999D02*
D03*
X165750Y921000D02*
D03*
Y931000D02*
D03*
M02*
