G04*
G04 #@! TF.GenerationSoftware,Altium Limited,Altium Designer,20.0.13 (296)*
G04*
G04 Layer_Physical_Order=1*
G04 Layer_Color=255*
%FSLAX44Y44*%
%MOMM*%
G71*
G01*
G75*
%ADD10C,0.2500*%
%ADD11C,0.2000*%
%ADD15C,0.3000*%
%ADD17C,0.2540*%
%ADD22R,0.7000X0.9000*%
%ADD23R,0.6000X2.2000*%
%ADD24R,0.6000X4.2000*%
%ADD25R,1.0500X3.2000*%
%ADD26R,10.4500X8.3000*%
%ADD27R,0.8000X1.0000*%
%ADD28R,3.2500X2.1500*%
%ADD29R,0.9500X2.1500*%
%ADD30R,3.8100X2.7940*%
%ADD31R,1.0000X0.8000*%
%ADD32R,1.1000X1.3000*%
%ADD33R,1.2500X1.1000*%
%ADD34R,0.9000X0.7000*%
G04:AMPARAMS|DCode=35|XSize=1.56mm|YSize=0.28mm|CornerRadius=0.035mm|HoleSize=0mm|Usage=FLASHONLY|Rotation=270.000|XOffset=0mm|YOffset=0mm|HoleType=Round|Shape=RoundedRectangle|*
%AMROUNDEDRECTD35*
21,1,1.5600,0.2100,0,0,270.0*
21,1,1.4900,0.2800,0,0,270.0*
1,1,0.0700,-0.1050,-0.7450*
1,1,0.0700,-0.1050,0.7450*
1,1,0.0700,0.1050,0.7450*
1,1,0.0700,0.1050,-0.7450*
%
%ADD35ROUNDEDRECTD35*%
G04:AMPARAMS|DCode=36|XSize=1.56mm|YSize=0.28mm|CornerRadius=0.035mm|HoleSize=0mm|Usage=FLASHONLY|Rotation=0.000|XOffset=0mm|YOffset=0mm|HoleType=Round|Shape=RoundedRectangle|*
%AMROUNDEDRECTD36*
21,1,1.5600,0.2100,0,0,0.0*
21,1,1.4900,0.2800,0,0,0.0*
1,1,0.0700,0.7450,-0.1050*
1,1,0.0700,-0.7450,-0.1050*
1,1,0.0700,-0.7450,0.1050*
1,1,0.0700,0.7450,0.1050*
%
%ADD36ROUNDEDRECTD36*%
%ADD37R,1.0000X1.4000*%
G04:AMPARAMS|DCode=38|XSize=0.28mm|YSize=0.69mm|CornerRadius=0.07mm|HoleSize=0mm|Usage=FLASHONLY|Rotation=180.000|XOffset=0mm|YOffset=0mm|HoleType=Round|Shape=RoundedRectangle|*
%AMROUNDEDRECTD38*
21,1,0.2800,0.5500,0,0,180.0*
21,1,0.1400,0.6900,0,0,180.0*
1,1,0.1400,-0.0700,0.2750*
1,1,0.1400,0.0700,0.2750*
1,1,0.1400,0.0700,-0.2750*
1,1,0.1400,-0.0700,-0.2750*
%
%ADD38ROUNDEDRECTD38*%
G04:AMPARAMS|DCode=39|XSize=0.28mm|YSize=0.69mm|CornerRadius=0.07mm|HoleSize=0mm|Usage=FLASHONLY|Rotation=270.000|XOffset=0mm|YOffset=0mm|HoleType=Round|Shape=RoundedRectangle|*
%AMROUNDEDRECTD39*
21,1,0.2800,0.5500,0,0,270.0*
21,1,0.1400,0.6900,0,0,270.0*
1,1,0.1400,-0.2750,-0.0700*
1,1,0.1400,-0.2750,0.0700*
1,1,0.1400,0.2750,0.0700*
1,1,0.1400,0.2750,-0.0700*
%
%ADD39ROUNDEDRECTD39*%
%ADD40R,2.2860X2.2860*%
%ADD41R,1.5000X2.4000*%
%ADD42R,2.4000X1.5000*%
%ADD43R,2.1500X3.5000*%
%ADD44R,4.0000X7.0000*%
%ADD45R,1.4000X1.0000*%
%ADD81C,0.5000*%
%ADD82C,0.4000*%
%ADD83C,1.0000*%
%ADD84C,1.5000*%
%ADD85R,1.5000X1.5000*%
%ADD86C,1.4000*%
%ADD87R,1.4000X1.4000*%
%ADD88C,1.6000*%
%ADD89R,1.6000X1.6000*%
%ADD90R,1.3980X1.3980*%
%ADD91C,1.3980*%
%ADD92C,1.5300*%
%ADD93C,2.4450*%
%ADD94C,3.2500*%
%ADD95C,0.7000*%
%ADD96C,0.8000*%
G36*
X496432Y903993D02*
X495162Y903910D01*
X494977Y905312D01*
X494272Y907015D01*
X493149Y908478D01*
X489635Y911992D01*
X488172Y913114D01*
X486469Y913820D01*
X484642Y914060D01*
X469545D01*
X469059Y915234D01*
X482075Y928250D01*
X488750D01*
Y941250D01*
X477750D01*
Y932576D01*
X474020Y928846D01*
X472750Y929372D01*
Y941250D01*
X461750D01*
Y937309D01*
X450750D01*
Y941750D01*
X434250D01*
Y926750D01*
X450750D01*
Y931191D01*
X461750D01*
Y928250D01*
X471628D01*
X472154Y926980D01*
X460683Y915509D01*
X458880Y916255D01*
X456400Y916582D01*
X453920Y916255D01*
X451609Y915298D01*
X449996Y914060D01*
X440500D01*
Y916500D01*
X421500D01*
Y897500D01*
X440500D01*
Y899940D01*
X449996D01*
X451609Y898702D01*
X453920Y897745D01*
X456400Y897418D01*
X458880Y897745D01*
X461191Y898702D01*
X462804Y899940D01*
X481097D01*
Y633331D01*
X454257Y606492D01*
X453135Y605030D01*
X452430Y603327D01*
X452189Y601500D01*
Y590750D01*
X450250D01*
Y572750D01*
X452189D01*
Y561907D01*
X452430Y560080D01*
X453135Y558377D01*
X454257Y556915D01*
X481097Y530075D01*
Y384081D01*
X467765Y370750D01*
X463250D01*
Y334750D01*
X477750D01*
Y360765D01*
X493149Y376165D01*
X494272Y377627D01*
X494977Y379330D01*
X495162Y380732D01*
X496432Y380649D01*
Y3569D01*
X3569D01*
Y996432D01*
X496432D01*
Y903993D01*
D02*
G37*
%LPC*%
G36*
X361350Y960182D02*
X358870Y959856D01*
X356559Y958898D01*
X354575Y957376D01*
X353052Y955391D01*
X352095Y953080D01*
X351768Y950600D01*
X352095Y948120D01*
X353052Y945809D01*
X354575Y943825D01*
X356559Y942302D01*
X358870Y941345D01*
X361350Y941018D01*
X363830Y941345D01*
X366141Y942302D01*
X368125Y943825D01*
X369648Y945809D01*
X370606Y948120D01*
X370932Y950600D01*
X370606Y953080D01*
X369648Y955391D01*
X368125Y957376D01*
X366141Y958898D01*
X363830Y959856D01*
X361350Y960182D01*
D02*
G37*
G36*
X335950D02*
X333470Y959856D01*
X331159Y958898D01*
X329175Y957376D01*
X327652Y955391D01*
X326695Y953080D01*
X326368Y950600D01*
X326695Y948120D01*
X327652Y945809D01*
X329175Y943825D01*
X331159Y942302D01*
X333470Y941345D01*
X335950Y941018D01*
X338430Y941345D01*
X340741Y942302D01*
X342725Y943825D01*
X344248Y945809D01*
X345205Y948120D01*
X345532Y950600D01*
X345205Y953080D01*
X344248Y955391D01*
X342725Y957376D01*
X340741Y958898D01*
X338430Y959856D01*
X335950Y960182D01*
D02*
G37*
G36*
X310550D02*
X308070Y959856D01*
X305759Y958898D01*
X303775Y957376D01*
X302252Y955391D01*
X301295Y953080D01*
X300968Y950600D01*
X301295Y948120D01*
X302252Y945809D01*
X303775Y943825D01*
X305759Y942302D01*
X308070Y941345D01*
X310550Y941018D01*
X313030Y941345D01*
X315341Y942302D01*
X317325Y943825D01*
X318848Y945809D01*
X319806Y948120D01*
X320132Y950600D01*
X319806Y953080D01*
X318848Y955391D01*
X317325Y957376D01*
X315341Y958898D01*
X313030Y959856D01*
X310550Y960182D01*
D02*
G37*
G36*
X285150D02*
X282670Y959856D01*
X280359Y958898D01*
X278375Y957376D01*
X276852Y955391D01*
X275895Y953080D01*
X275568Y950600D01*
X275895Y948120D01*
X276852Y945809D01*
X278375Y943825D01*
X280359Y942302D01*
X282670Y941345D01*
X285150Y941018D01*
X287630Y941345D01*
X289941Y942302D01*
X291926Y943825D01*
X293448Y945809D01*
X294405Y948120D01*
X294732Y950600D01*
X294405Y953080D01*
X293448Y955391D01*
X291926Y957376D01*
X289941Y958898D01*
X287630Y959856D01*
X285150Y960182D01*
D02*
G37*
G36*
X241600D02*
X239120Y959856D01*
X236809Y958898D01*
X234824Y957376D01*
X233302Y955391D01*
X232344Y953080D01*
X232018Y950600D01*
X232344Y948120D01*
X233302Y945809D01*
X234824Y943825D01*
X236809Y942302D01*
X239120Y941345D01*
X241600Y941018D01*
X244080Y941345D01*
X246391Y942302D01*
X248375Y943825D01*
X249898Y945809D01*
X250855Y948120D01*
X251182Y950600D01*
X250855Y953080D01*
X249898Y955391D01*
X248375Y957376D01*
X246391Y958898D01*
X244080Y959856D01*
X241600Y960182D01*
D02*
G37*
G36*
X216200D02*
X213720Y959856D01*
X211409Y958898D01*
X209424Y957376D01*
X207901Y955391D01*
X206944Y953080D01*
X206618Y950600D01*
X206944Y948120D01*
X207901Y945809D01*
X209424Y943825D01*
X211409Y942302D01*
X213720Y941345D01*
X216200Y941018D01*
X218680Y941345D01*
X220991Y942302D01*
X222975Y943825D01*
X224498Y945809D01*
X225455Y948120D01*
X225782Y950600D01*
X225455Y953080D01*
X224498Y955391D01*
X222975Y957376D01*
X220991Y958898D01*
X218680Y959856D01*
X216200Y960182D01*
D02*
G37*
G36*
X190800D02*
X188320Y959856D01*
X186009Y958898D01*
X184024Y957376D01*
X182502Y955391D01*
X181544Y953080D01*
X181218Y950600D01*
X181544Y948120D01*
X182502Y945809D01*
X184024Y943825D01*
X186009Y942302D01*
X188320Y941345D01*
X190800Y941018D01*
X193280Y941345D01*
X195591Y942302D01*
X197575Y943825D01*
X199098Y945809D01*
X200055Y948120D01*
X200382Y950600D01*
X200055Y953080D01*
X199098Y955391D01*
X197575Y957376D01*
X195591Y958898D01*
X193280Y959856D01*
X190800Y960182D01*
D02*
G37*
G36*
X165400D02*
X162920Y959856D01*
X160609Y958898D01*
X158624Y957376D01*
X157101Y955391D01*
X156144Y953080D01*
X155818Y950600D01*
X156144Y948120D01*
X157101Y945809D01*
X158624Y943825D01*
X160609Y942302D01*
X162920Y941345D01*
X165400Y941018D01*
X167880Y941345D01*
X170191Y942302D01*
X172175Y943825D01*
X173698Y945809D01*
X174655Y948120D01*
X174982Y950600D01*
X174655Y953080D01*
X173698Y955391D01*
X172175Y957376D01*
X170191Y958898D01*
X167880Y959856D01*
X165400Y960182D01*
D02*
G37*
G36*
X428290Y942290D02*
X420770D01*
Y935520D01*
X428290D01*
Y942290D01*
D02*
G37*
G36*
X418230D02*
X410710D01*
Y935520D01*
X418230D01*
Y942290D01*
D02*
G37*
G36*
X428290Y932980D02*
X420770D01*
Y926210D01*
X428290D01*
Y932980D01*
D02*
G37*
G36*
X418230D02*
X410710D01*
Y926210D01*
X418230D01*
Y932980D01*
D02*
G37*
G36*
X108500Y916582D02*
X106020Y916255D01*
X103709Y915298D01*
X101725Y913775D01*
X100202Y911791D01*
X99245Y909480D01*
X98918Y907000D01*
X99245Y904520D01*
X100202Y902209D01*
X101725Y900225D01*
X103709Y898702D01*
X106020Y897745D01*
X108500Y897418D01*
X110980Y897745D01*
X113291Y898702D01*
X115276Y900225D01*
X116798Y902209D01*
X117756Y904520D01*
X118082Y907000D01*
X117756Y909480D01*
X116798Y911791D01*
X115276Y913775D01*
X113291Y915298D01*
X110980Y916255D01*
X108500Y916582D01*
D02*
G37*
G36*
X83100D02*
X80620Y916255D01*
X78309Y915298D01*
X76325Y913775D01*
X74802Y911791D01*
X73845Y909480D01*
X73518Y907000D01*
X73845Y904520D01*
X74802Y902209D01*
X76325Y900225D01*
X78309Y898702D01*
X80620Y897745D01*
X83100Y897418D01*
X85580Y897745D01*
X87891Y898702D01*
X89876Y900225D01*
X91398Y902209D01*
X92356Y904520D01*
X92682Y907000D01*
X92356Y909480D01*
X91398Y911791D01*
X89876Y913775D01*
X87891Y915298D01*
X85580Y916255D01*
X83100Y916582D01*
D02*
G37*
G36*
X109770Y891559D02*
Y882870D01*
X118460D01*
X118282Y884221D01*
X117270Y886663D01*
X115661Y888761D01*
X113563Y890370D01*
X111121Y891382D01*
X109770Y891559D01*
D02*
G37*
G36*
X84370D02*
Y882870D01*
X93060D01*
X92882Y884221D01*
X91870Y886663D01*
X90261Y888761D01*
X88163Y890370D01*
X85721Y891382D01*
X84370Y891559D01*
D02*
G37*
G36*
X457670D02*
Y882870D01*
X466359D01*
X466181Y884221D01*
X465170Y886663D01*
X463560Y888761D01*
X461463Y890370D01*
X459021Y891382D01*
X457670Y891559D01*
D02*
G37*
G36*
X432270D02*
Y882870D01*
X440959D01*
X440782Y884221D01*
X439770Y886663D01*
X438161Y888761D01*
X436063Y890370D01*
X433621Y891382D01*
X432270Y891559D01*
D02*
G37*
G36*
X455130D02*
X453779Y891382D01*
X451337Y890370D01*
X449239Y888761D01*
X447630Y886663D01*
X446618Y884221D01*
X446441Y882870D01*
X455130D01*
Y891559D01*
D02*
G37*
G36*
X429730D02*
X428379Y891382D01*
X425937Y890370D01*
X423839Y888761D01*
X422230Y886663D01*
X421218Y884221D01*
X421040Y882870D01*
X429730D01*
Y891559D01*
D02*
G37*
G36*
X107230D02*
X105879Y891382D01*
X103437Y890370D01*
X101340Y888761D01*
X99730Y886663D01*
X98719Y884221D01*
X98541Y882870D01*
X107230D01*
Y891559D01*
D02*
G37*
G36*
X81830D02*
X80479Y891382D01*
X78037Y890370D01*
X75940Y888761D01*
X74330Y886663D01*
X73319Y884221D01*
X73141Y882870D01*
X81830D01*
Y891559D01*
D02*
G37*
G36*
X285000Y911564D02*
X217250D01*
X215982Y911311D01*
X214907Y910593D01*
X200907Y896593D01*
X200189Y895518D01*
X199937Y894250D01*
Y880184D01*
X198666Y879753D01*
X197575Y881176D01*
X195591Y882698D01*
X193280Y883656D01*
X190800Y883982D01*
X188320Y883656D01*
X186009Y882698D01*
X184024Y881176D01*
X182502Y879191D01*
X181544Y876880D01*
X181218Y874400D01*
X181544Y871920D01*
X182502Y869609D01*
X184024Y867625D01*
X186009Y866102D01*
X186118Y866057D01*
X186183Y865923D01*
X185319Y864800D01*
X185250Y864814D01*
X176134D01*
X174900Y864900D01*
X174900Y866084D01*
Y883900D01*
X155900D01*
X155900Y864900D01*
X154666Y864814D01*
X142500D01*
Y867000D01*
X129500D01*
Y856000D01*
X142500D01*
Y858186D01*
X156761D01*
X157147Y856916D01*
X156285Y856340D01*
X155069Y854521D01*
X154642Y852375D01*
X154849Y851339D01*
X153706Y850575D01*
X152625Y851297D01*
X150479Y851724D01*
X148333Y851297D01*
X146514Y850081D01*
X146102Y849465D01*
X145465D01*
X143646Y850681D01*
X141500Y851108D01*
X139354Y850681D01*
X137535Y849465D01*
X136319Y847646D01*
X135892Y845500D01*
X136135Y844280D01*
X136121Y844248D01*
X135034Y843302D01*
X133500Y843608D01*
X131354Y843181D01*
X129535Y841965D01*
X128319Y840146D01*
X127892Y838000D01*
X128319Y835854D01*
X129535Y834035D01*
X130710Y833249D01*
Y831751D01*
X129535Y830965D01*
X128319Y829146D01*
X127892Y827000D01*
X128319Y824854D01*
X128410Y824718D01*
X127924Y823544D01*
X127354Y823431D01*
X125535Y822215D01*
X124319Y820396D01*
X123892Y818250D01*
X124319Y816104D01*
X125535Y814285D01*
X127354Y813069D01*
X129500Y812642D01*
X131646Y813069D01*
X132371Y813553D01*
X144637Y801287D01*
X144637Y801287D01*
X145629Y800624D01*
X146800Y800391D01*
X151104D01*
X151378Y799987D01*
X151593Y799121D01*
X149788Y797316D01*
X149019Y797469D01*
X146873Y797042D01*
X145054Y795826D01*
X143838Y794007D01*
X143411Y791861D01*
X143838Y789715D01*
X143952Y789545D01*
X143353Y788425D01*
X129447D01*
X128179Y788172D01*
X127688Y787845D01*
X127104Y787454D01*
X120012Y780363D01*
X119293Y779288D01*
X119293Y779288D01*
X119293Y779288D01*
X119041Y778020D01*
Y776000D01*
X113250D01*
Y764946D01*
X112573Y764811D01*
X111498Y764093D01*
X94953Y747549D01*
X94235Y746474D01*
X94134Y745966D01*
X93597Y745429D01*
X93597Y745429D01*
X93597Y745429D01*
X93252Y744912D01*
X93057Y744621D01*
X92991Y744565D01*
X92006Y744275D01*
X91560Y744235D01*
X90234Y745253D01*
X88047Y746159D01*
X85700Y746468D01*
X83353Y746159D01*
X81166Y745253D01*
X79288Y743812D01*
X77847Y741934D01*
X76941Y739747D01*
X76633Y737400D01*
X76941Y735053D01*
X77847Y732866D01*
X79288Y730988D01*
X81166Y729547D01*
X82387Y729042D01*
Y724645D01*
X82393Y724613D01*
X81657Y723715D01*
X81294Y723626D01*
X80049Y723379D01*
X78974Y722660D01*
X77304Y720990D01*
X64010D01*
Y703010D01*
X81990D01*
Y715555D01*
X82059Y715633D01*
X83260Y716184D01*
X83886Y715766D01*
X85154Y715514D01*
X88982D01*
X89579Y714620D01*
X89628Y714244D01*
X89333Y712000D01*
X89642Y709653D01*
X90547Y707466D01*
X91988Y705588D01*
X93866Y704147D01*
X96053Y703242D01*
X98400Y702933D01*
X100747Y703242D01*
X101967Y703747D01*
X106297Y699417D01*
X107372Y698699D01*
X107372Y698699D01*
X108640Y698446D01*
X128041D01*
X129310Y698699D01*
X130385Y699417D01*
X136383Y705415D01*
X137101Y706490D01*
X137353Y707758D01*
Y710719D01*
X139021Y712386D01*
X140167Y711736D01*
X140442Y709653D01*
X141347Y707466D01*
X142788Y705588D01*
X144666Y704147D01*
X146853Y703242D01*
X149200Y702933D01*
X151547Y703242D01*
X153734Y704147D01*
X155612Y705588D01*
X157053Y707466D01*
X157959Y709653D01*
X158268Y712000D01*
X157959Y714347D01*
X157053Y716534D01*
X156284Y717536D01*
X156910Y718806D01*
X168229D01*
X169497Y719059D01*
X170572Y719777D01*
X190738Y739943D01*
X191456Y741018D01*
X191709Y742286D01*
Y745214D01*
X192978Y745893D01*
X193997Y745213D01*
X195629Y744888D01*
X195643Y744853D01*
X195217Y742707D01*
X195643Y740561D01*
X196859Y738741D01*
X198678Y737526D01*
X200824Y737099D01*
X202970Y737526D01*
X204790Y738741D01*
X204904Y738912D01*
X214500D01*
Y736088D01*
X206000D01*
X204244Y735739D01*
X202756Y734744D01*
X195650Y727639D01*
X194604Y727431D01*
X192785Y726215D01*
X191569Y724396D01*
X191142Y722250D01*
X191569Y720104D01*
X192785Y718285D01*
X194604Y717069D01*
X196750Y716642D01*
X198896Y717069D01*
X200715Y718285D01*
X201931Y720104D01*
X202139Y721150D01*
X207900Y726912D01*
X221000D01*
X222756Y727261D01*
X224244Y728256D01*
X226295Y730306D01*
X227289Y731795D01*
X227639Y733550D01*
Y734000D01*
X242500D01*
Y738912D01*
X288500D01*
X290256Y739261D01*
X291744Y740256D01*
X303366Y751877D01*
X304360Y753366D01*
X304709Y755122D01*
Y799809D01*
X305710Y800460D01*
X305979Y800460D01*
X314480D01*
Y815000D01*
Y829540D01*
X305710D01*
Y814430D01*
X304440Y814305D01*
X304360Y814706D01*
X303366Y816194D01*
X301315Y818244D01*
X299827Y819239D01*
X298071Y819588D01*
X296250D01*
Y829000D01*
X291569D01*
Y836250D01*
X294000D01*
Y850250D01*
X292891D01*
X292365Y851520D01*
X300343Y859498D01*
X301061Y860573D01*
X301314Y861841D01*
Y868746D01*
X302584Y869177D01*
X303775Y867625D01*
X305759Y866102D01*
X308070Y865145D01*
X310550Y864818D01*
X313030Y865145D01*
X315341Y866102D01*
X317325Y867625D01*
X318848Y869609D01*
X319806Y871920D01*
X320132Y874400D01*
X319806Y876880D01*
X318848Y879191D01*
X317325Y881176D01*
X315341Y882698D01*
X313030Y883656D01*
X310550Y883982D01*
X308070Y883656D01*
X305759Y882698D01*
X303775Y881176D01*
X302584Y879623D01*
X301314Y880055D01*
Y895250D01*
X301061Y896518D01*
X300343Y897593D01*
X287343Y910593D01*
X286268Y911311D01*
X286058Y911353D01*
X285000Y911564D01*
D02*
G37*
G36*
X143040Y883540D02*
X137270D01*
Y878770D01*
X143040D01*
Y883540D01*
D02*
G37*
G36*
X134730D02*
X128960D01*
Y878770D01*
X134730D01*
Y883540D01*
D02*
G37*
G36*
X118460Y880330D02*
X109770D01*
Y871641D01*
X111121Y871818D01*
X113563Y872830D01*
X115661Y874439D01*
X117270Y876537D01*
X118282Y878979D01*
X118460Y880330D01*
D02*
G37*
G36*
X93060D02*
X84370D01*
Y871641D01*
X85721Y871818D01*
X88163Y872830D01*
X90261Y874439D01*
X91870Y876537D01*
X92882Y878979D01*
X93060Y880330D01*
D02*
G37*
G36*
X466359D02*
X457670D01*
Y871641D01*
X459021Y871818D01*
X461463Y872830D01*
X463560Y874439D01*
X465170Y876537D01*
X466181Y878979D01*
X466359Y880330D01*
D02*
G37*
G36*
X440959D02*
X432270D01*
Y871641D01*
X433621Y871818D01*
X436063Y872830D01*
X438161Y874439D01*
X439770Y876537D01*
X440782Y878979D01*
X440959Y880330D01*
D02*
G37*
G36*
X455130D02*
X446441D01*
X446618Y878979D01*
X447630Y876537D01*
X449239Y874439D01*
X451337Y872830D01*
X453779Y871818D01*
X455130Y871641D01*
Y880330D01*
D02*
G37*
G36*
X429730D02*
X421040D01*
X421218Y878979D01*
X422230Y876537D01*
X423839Y874439D01*
X425937Y872830D01*
X428379Y871818D01*
X429730Y871641D01*
Y880330D01*
D02*
G37*
G36*
X107230D02*
X98541D01*
X98719Y878979D01*
X99730Y876537D01*
X101340Y874439D01*
X103437Y872830D01*
X105879Y871818D01*
X107230Y871641D01*
Y880330D01*
D02*
G37*
G36*
X81830D02*
X73141D01*
X73319Y878979D01*
X74330Y876537D01*
X75940Y874439D01*
X78037Y872830D01*
X80479Y871818D01*
X81830Y871641D01*
Y880330D01*
D02*
G37*
G36*
X143040Y876230D02*
X137270D01*
Y871460D01*
X143040D01*
Y876230D01*
D02*
G37*
G36*
X134730D02*
X128960D01*
Y871460D01*
X134730D01*
Y876230D01*
D02*
G37*
G36*
X361350Y883982D02*
X358870Y883656D01*
X356559Y882698D01*
X354575Y881176D01*
X353052Y879191D01*
X352095Y876880D01*
X351768Y874400D01*
X352095Y871920D01*
X353052Y869609D01*
X354575Y867625D01*
X356559Y866102D01*
X358870Y865145D01*
X361350Y864818D01*
X363830Y865145D01*
X366141Y866102D01*
X368125Y867625D01*
X369648Y869609D01*
X370606Y871920D01*
X370932Y874400D01*
X370606Y876880D01*
X369648Y879191D01*
X368125Y881176D01*
X366141Y882698D01*
X363830Y883656D01*
X361350Y883982D01*
D02*
G37*
G36*
X335950D02*
X333470Y883656D01*
X331159Y882698D01*
X329175Y881176D01*
X327652Y879191D01*
X326695Y876880D01*
X326368Y874400D01*
X326695Y871920D01*
X327652Y869609D01*
X329175Y867625D01*
X331159Y866102D01*
X333470Y865145D01*
X335950Y864818D01*
X338430Y865145D01*
X340741Y866102D01*
X342725Y867625D01*
X344248Y869609D01*
X345205Y871920D01*
X345532Y874400D01*
X345205Y876880D01*
X344248Y879191D01*
X342725Y881176D01*
X340741Y882698D01*
X338430Y883656D01*
X335950Y883982D01*
D02*
G37*
G36*
X456400Y865782D02*
X453920Y865455D01*
X451609Y864498D01*
X449624Y862975D01*
X448102Y860991D01*
X447145Y858680D01*
X446818Y856200D01*
X447145Y853720D01*
X448102Y851409D01*
X449624Y849425D01*
X451609Y847902D01*
X453920Y846945D01*
X456400Y846618D01*
X458880Y846945D01*
X461191Y847902D01*
X463175Y849425D01*
X464698Y851409D01*
X465655Y853720D01*
X465982Y856200D01*
X465655Y858680D01*
X464698Y860991D01*
X463175Y862975D01*
X461191Y864498D01*
X458880Y865455D01*
X456400Y865782D01*
D02*
G37*
G36*
X431000D02*
X428520Y865455D01*
X426209Y864498D01*
X424225Y862975D01*
X422702Y860991D01*
X421744Y858680D01*
X421418Y856200D01*
X421744Y853720D01*
X422702Y851409D01*
X424225Y849425D01*
X426209Y847902D01*
X428520Y846945D01*
X431000Y846618D01*
X433480Y846945D01*
X435791Y847902D01*
X437775Y849425D01*
X439298Y851409D01*
X440255Y853720D01*
X440582Y856200D01*
X440255Y858680D01*
X439298Y860991D01*
X437775Y862975D01*
X435791Y864498D01*
X433480Y865455D01*
X431000Y865782D01*
D02*
G37*
G36*
X108500D02*
X106020Y865455D01*
X103709Y864498D01*
X101725Y862975D01*
X100202Y860991D01*
X99245Y858680D01*
X98918Y856200D01*
X99245Y853720D01*
X100202Y851409D01*
X101725Y849425D01*
X103709Y847902D01*
X106020Y846945D01*
X108500Y846618D01*
X110980Y846945D01*
X113291Y847902D01*
X115276Y849425D01*
X116798Y851409D01*
X117756Y853720D01*
X118082Y856200D01*
X117756Y858680D01*
X116798Y860991D01*
X115276Y862975D01*
X113291Y864498D01*
X110980Y865455D01*
X108500Y865782D01*
D02*
G37*
G36*
X83100D02*
X80620Y865455D01*
X78309Y864498D01*
X76325Y862975D01*
X74802Y860991D01*
X73845Y858680D01*
X73518Y856200D01*
X73845Y853720D01*
X74802Y851409D01*
X76325Y849425D01*
X78309Y847902D01*
X80620Y846945D01*
X83100Y846618D01*
X85580Y846945D01*
X87891Y847902D01*
X89876Y849425D01*
X91398Y851409D01*
X92356Y853720D01*
X92682Y856200D01*
X92356Y858680D01*
X91398Y860991D01*
X89876Y862975D01*
X87891Y864498D01*
X85580Y865455D01*
X83100Y865782D01*
D02*
G37*
G36*
X310540Y850790D02*
X305270D01*
Y844520D01*
X310540D01*
Y850790D01*
D02*
G37*
G36*
X302730D02*
X297460D01*
Y844520D01*
X302730D01*
Y850790D01*
D02*
G37*
G36*
X310540Y841980D02*
X305270D01*
Y835710D01*
X310540D01*
Y841980D01*
D02*
G37*
G36*
X302730D02*
X297460D01*
Y835710D01*
X302730D01*
Y841980D01*
D02*
G37*
G36*
X109770Y840759D02*
Y832070D01*
X118460D01*
X118282Y833421D01*
X117270Y835863D01*
X115661Y837961D01*
X113563Y839570D01*
X111121Y840582D01*
X109770Y840759D01*
D02*
G37*
G36*
X84370D02*
Y832070D01*
X93060D01*
X92882Y833421D01*
X91870Y835863D01*
X90261Y837961D01*
X88163Y839570D01*
X85721Y840582D01*
X84370Y840759D01*
D02*
G37*
G36*
X457670D02*
Y832070D01*
X466359D01*
X466181Y833421D01*
X465170Y835863D01*
X463560Y837961D01*
X461463Y839570D01*
X459021Y840582D01*
X457670Y840759D01*
D02*
G37*
G36*
X432270D02*
Y832070D01*
X440959D01*
X440782Y833421D01*
X439770Y835863D01*
X438161Y837961D01*
X436063Y839570D01*
X433621Y840582D01*
X432270Y840759D01*
D02*
G37*
G36*
X455130D02*
X453779Y840582D01*
X451337Y839570D01*
X449239Y837961D01*
X447630Y835863D01*
X446618Y833421D01*
X446441Y832070D01*
X455130D01*
Y840759D01*
D02*
G37*
G36*
X429730D02*
X428379Y840582D01*
X425937Y839570D01*
X423839Y837961D01*
X422230Y835863D01*
X421218Y833421D01*
X421040Y832070D01*
X429730D01*
Y840759D01*
D02*
G37*
G36*
X107230D02*
X105879Y840582D01*
X103437Y839570D01*
X101340Y837961D01*
X99730Y835863D01*
X98719Y833421D01*
X98541Y832070D01*
X107230D01*
Y840759D01*
D02*
G37*
G36*
X81830D02*
X80479Y840582D01*
X78037Y839570D01*
X75940Y837961D01*
X74330Y835863D01*
X73319Y833421D01*
X73141Y832070D01*
X81830D01*
Y840759D01*
D02*
G37*
G36*
X118460Y829530D02*
X109770D01*
Y820841D01*
X111121Y821018D01*
X113563Y822030D01*
X115661Y823639D01*
X117270Y825737D01*
X118282Y828179D01*
X118460Y829530D01*
D02*
G37*
G36*
X93060D02*
X84370D01*
Y820841D01*
X85721Y821018D01*
X88163Y822030D01*
X90261Y823639D01*
X91870Y825737D01*
X92882Y828179D01*
X93060Y829530D01*
D02*
G37*
G36*
X466359D02*
X457670D01*
Y820841D01*
X459021Y821018D01*
X461463Y822030D01*
X463560Y823639D01*
X465170Y825737D01*
X466181Y828179D01*
X466359Y829530D01*
D02*
G37*
G36*
X440959D02*
X432270D01*
Y820841D01*
X433621Y821018D01*
X436063Y822030D01*
X438161Y823639D01*
X439770Y825737D01*
X440782Y828179D01*
X440959Y829530D01*
D02*
G37*
G36*
X455130D02*
X446441D01*
X446618Y828179D01*
X447630Y825737D01*
X449239Y823639D01*
X451337Y822030D01*
X453779Y821018D01*
X455130Y820841D01*
Y829530D01*
D02*
G37*
G36*
X429730D02*
X421040D01*
X421218Y828179D01*
X422230Y825737D01*
X423839Y823639D01*
X425937Y822030D01*
X428379Y821018D01*
X429730Y820841D01*
Y829530D01*
D02*
G37*
G36*
X107230D02*
X98541D01*
X98719Y828179D01*
X99730Y825737D01*
X101340Y823639D01*
X103437Y822030D01*
X105879Y821018D01*
X107230Y820841D01*
Y829530D01*
D02*
G37*
G36*
X81830D02*
X73141D01*
X73319Y828179D01*
X74330Y825737D01*
X75940Y823639D01*
X78037Y822030D01*
X80479Y821018D01*
X81830Y820841D01*
Y829530D01*
D02*
G37*
G36*
X325790Y829540D02*
X317020D01*
Y816270D01*
X325790D01*
Y829540D01*
D02*
G37*
G36*
Y813730D02*
X317020D01*
Y800460D01*
X325790D01*
Y813730D01*
D02*
G37*
G36*
X118000Y814900D02*
X99000D01*
Y795900D01*
X118000D01*
Y814900D01*
D02*
G37*
G36*
X456400Y814982D02*
X453920Y814655D01*
X451609Y813698D01*
X449624Y812175D01*
X448102Y810191D01*
X447145Y807880D01*
X446818Y805400D01*
X447145Y802920D01*
X448102Y800609D01*
X449624Y798624D01*
X451609Y797102D01*
X453920Y796144D01*
X456400Y795818D01*
X458880Y796144D01*
X461191Y797102D01*
X463175Y798624D01*
X464698Y800609D01*
X465655Y802920D01*
X465982Y805400D01*
X465655Y807880D01*
X464698Y810191D01*
X463175Y812175D01*
X461191Y813698D01*
X458880Y814655D01*
X456400Y814982D01*
D02*
G37*
G36*
X431000D02*
X428520Y814655D01*
X426209Y813698D01*
X424225Y812175D01*
X422702Y810191D01*
X421744Y807880D01*
X421418Y805400D01*
X421744Y802920D01*
X422702Y800609D01*
X424225Y798624D01*
X426209Y797102D01*
X428520Y796144D01*
X431000Y795818D01*
X433480Y796144D01*
X435791Y797102D01*
X437775Y798624D01*
X439298Y800609D01*
X440255Y802920D01*
X440582Y805400D01*
X440255Y807880D01*
X439298Y810191D01*
X437775Y812175D01*
X435791Y813698D01*
X433480Y814655D01*
X431000Y814982D01*
D02*
G37*
G36*
X83100D02*
X80620Y814655D01*
X78309Y813698D01*
X76325Y812175D01*
X74802Y810191D01*
X73845Y807880D01*
X73518Y805400D01*
X73845Y802920D01*
X74802Y800609D01*
X76325Y798624D01*
X78309Y797102D01*
X80620Y796144D01*
X83100Y795818D01*
X85580Y796144D01*
X87891Y797102D01*
X89876Y798624D01*
X91398Y800609D01*
X92356Y802920D01*
X92682Y805400D01*
X92356Y807880D01*
X91398Y810191D01*
X89876Y812175D01*
X87891Y813698D01*
X85580Y814655D01*
X83100Y814982D01*
D02*
G37*
G36*
X102500Y788608D02*
X100354Y788181D01*
X98535Y786965D01*
X97319Y785146D01*
X96892Y783000D01*
X97319Y780854D01*
X98037Y779780D01*
Y776000D01*
X97250D01*
Y763000D01*
X108250D01*
Y776000D01*
X107213D01*
Y780154D01*
X107681Y780854D01*
X108108Y783000D01*
X107681Y785146D01*
X106466Y786965D01*
X104646Y788181D01*
X102500Y788608D01*
D02*
G37*
G36*
X243040Y724540D02*
X229770D01*
Y715770D01*
X243040D01*
Y724540D01*
D02*
G37*
G36*
X227230D02*
X213960D01*
Y715770D01*
X227230D01*
Y724540D01*
D02*
G37*
G36*
X243040Y713230D02*
X229770D01*
Y704460D01*
X243040D01*
Y713230D01*
D02*
G37*
G36*
X227230D02*
X213960D01*
Y704460D01*
X227230D01*
Y713230D01*
D02*
G37*
G36*
X196220Y693711D02*
Y680270D01*
X209662D01*
X209501Y681894D01*
X208657Y684678D01*
X207286Y687243D01*
X205441Y689491D01*
X203193Y691336D01*
X200628Y692707D01*
X197845Y693551D01*
X196220Y693711D01*
D02*
G37*
G36*
X41320D02*
Y680270D01*
X54762D01*
X54602Y681894D01*
X53757Y684678D01*
X52386Y687243D01*
X50541Y689491D01*
X48293Y691336D01*
X45728Y692707D01*
X42945Y693551D01*
X41320Y693711D01*
D02*
G37*
G36*
X193680D02*
X192056Y693551D01*
X189272Y692707D01*
X186707Y691336D01*
X184459Y689491D01*
X182614Y687243D01*
X181243Y684678D01*
X180399Y681894D01*
X180239Y680270D01*
X193680D01*
Y693711D01*
D02*
G37*
G36*
X38780D02*
X37156Y693551D01*
X34373Y692707D01*
X31808Y691336D01*
X29559Y689491D01*
X27714Y687243D01*
X26343Y684678D01*
X25499Y681894D01*
X25339Y680270D01*
X38780D01*
Y693711D01*
D02*
G37*
G36*
X209662Y677730D02*
X196220D01*
Y664289D01*
X197845Y664449D01*
X200628Y665293D01*
X203193Y666664D01*
X205441Y668509D01*
X207286Y670757D01*
X208657Y673322D01*
X209501Y676105D01*
X209662Y677730D01*
D02*
G37*
G36*
X54762D02*
X41320D01*
Y664289D01*
X42945Y664449D01*
X45728Y665293D01*
X48293Y666664D01*
X50541Y668509D01*
X52386Y670757D01*
X53757Y673322D01*
X54602Y676105D01*
X54762Y677730D01*
D02*
G37*
G36*
X193680D02*
X180239D01*
X180399Y676105D01*
X181243Y673322D01*
X182614Y670757D01*
X184459Y668509D01*
X186707Y666664D01*
X189272Y665293D01*
X192056Y664449D01*
X193680Y664289D01*
Y677730D01*
D02*
G37*
G36*
X38780D02*
X25339D01*
X25499Y676105D01*
X26343Y673322D01*
X27714Y670757D01*
X29559Y668509D01*
X31808Y666664D01*
X34373Y665293D01*
X37156Y664449D01*
X38780Y664289D01*
Y677730D01*
D02*
G37*
G36*
X174650Y666838D02*
X171072Y666486D01*
X167632Y665443D01*
X164462Y663748D01*
X161683Y661467D01*
X159402Y658688D01*
X157708Y655518D01*
X156664Y652078D01*
X156312Y648500D01*
X156664Y644922D01*
X157708Y641482D01*
X159402Y638312D01*
X161683Y635533D01*
X164462Y633252D01*
X167632Y631558D01*
X171072Y630514D01*
X174650Y630162D01*
X178228Y630514D01*
X181668Y631558D01*
X184838Y633252D01*
X187617Y635533D01*
X189898Y638312D01*
X191592Y641482D01*
X192636Y644922D01*
X192988Y648500D01*
X192636Y652078D01*
X191592Y655518D01*
X189898Y658688D01*
X187617Y661467D01*
X184838Y663748D01*
X181668Y665443D01*
X178228Y666486D01*
X174650Y666838D01*
D02*
G37*
G36*
X60350D02*
X56772Y666486D01*
X53332Y665443D01*
X50162Y663748D01*
X47383Y661467D01*
X45102Y658688D01*
X43408Y655518D01*
X42364Y652078D01*
X42012Y648500D01*
X42364Y644922D01*
X43408Y641482D01*
X45102Y638312D01*
X47383Y635533D01*
X50162Y633252D01*
X53332Y631558D01*
X56772Y630514D01*
X60350Y630162D01*
X63928Y630514D01*
X67368Y631558D01*
X70538Y633252D01*
X73317Y635533D01*
X75598Y638312D01*
X77292Y641482D01*
X78336Y644922D01*
X78688Y648500D01*
X78336Y652078D01*
X77292Y655518D01*
X75598Y658688D01*
X73317Y661467D01*
X70538Y663748D01*
X67368Y665443D01*
X63928Y666486D01*
X60350Y666838D01*
D02*
G37*
G36*
X183750Y609233D02*
X181231Y608902D01*
X178884Y607929D01*
X176868Y606382D01*
X175321Y604367D01*
X174349Y602019D01*
X174017Y599500D01*
X174349Y596981D01*
X175321Y594633D01*
X176868Y592617D01*
X178884Y591071D01*
X181231Y590098D01*
X183750Y589767D01*
X186269Y590098D01*
X188617Y591071D01*
X190633Y592617D01*
X192180Y594633D01*
X193152Y596981D01*
X193484Y599500D01*
X193152Y602019D01*
X192180Y604367D01*
X190633Y606382D01*
X188617Y607929D01*
X186269Y608902D01*
X183750Y609233D01*
D02*
G37*
G36*
X158350D02*
X155831Y608902D01*
X153484Y607929D01*
X151468Y606382D01*
X149921Y604367D01*
X148949Y602019D01*
X148617Y599500D01*
X148949Y596981D01*
X149921Y594633D01*
X151468Y592617D01*
X153484Y591071D01*
X155831Y590098D01*
X158350Y589767D01*
X160869Y590098D01*
X163217Y591071D01*
X165233Y592617D01*
X166779Y594633D01*
X167752Y596981D01*
X168083Y599500D01*
X167752Y602019D01*
X166779Y604367D01*
X165233Y606382D01*
X163217Y607929D01*
X160869Y608902D01*
X158350Y609233D01*
D02*
G37*
G36*
X76650D02*
X74131Y608902D01*
X71783Y607929D01*
X69768Y606382D01*
X68221Y604367D01*
X67249Y602019D01*
X66917Y599500D01*
X67249Y596981D01*
X68221Y594633D01*
X69768Y592617D01*
X71783Y591071D01*
X74131Y590098D01*
X76650Y589767D01*
X79169Y590098D01*
X81517Y591071D01*
X83533Y592617D01*
X85079Y594633D01*
X86052Y596981D01*
X86383Y599500D01*
X86052Y602019D01*
X85079Y604367D01*
X83533Y606382D01*
X81517Y607929D01*
X79169Y608902D01*
X76650Y609233D01*
D02*
G37*
G36*
X51250D02*
X48731Y608902D01*
X46384Y607929D01*
X44368Y606382D01*
X42821Y604367D01*
X41849Y602019D01*
X41517Y599500D01*
X41849Y596981D01*
X42821Y594633D01*
X44368Y592617D01*
X46384Y591071D01*
X48731Y590098D01*
X51250Y589767D01*
X53769Y590098D01*
X56117Y591071D01*
X58133Y592617D01*
X59679Y594633D01*
X60652Y596981D01*
X60983Y599500D01*
X60652Y602019D01*
X59679Y604367D01*
X58133Y606382D01*
X56117Y607929D01*
X53769Y608902D01*
X51250Y609233D01*
D02*
G37*
G36*
X293770Y591205D02*
Y583020D01*
X301955D01*
X301794Y584240D01*
X300833Y586561D01*
X299304Y588554D01*
X297311Y590083D01*
X294990Y591044D01*
X293770Y591205D01*
D02*
G37*
G36*
X410520D02*
Y583020D01*
X418705D01*
X418544Y584240D01*
X417583Y586561D01*
X416054Y588554D01*
X414061Y590083D01*
X411740Y591044D01*
X410520Y591205D01*
D02*
G37*
G36*
X291230D02*
X290009Y591044D01*
X287689Y590083D01*
X285696Y588554D01*
X284167Y586561D01*
X283205Y584240D01*
X283045Y583020D01*
X291230D01*
Y591205D01*
D02*
G37*
G36*
X407980D02*
X406759Y591044D01*
X404439Y590083D01*
X402446Y588554D01*
X400917Y586561D01*
X399955Y584240D01*
X399795Y583020D01*
X407980D01*
Y591205D01*
D02*
G37*
G36*
X418705Y580480D02*
X410520D01*
Y572295D01*
X411740Y572455D01*
X414061Y573417D01*
X416054Y574946D01*
X417583Y576939D01*
X418544Y579259D01*
X418705Y580480D01*
D02*
G37*
G36*
X301955D02*
X293770D01*
Y572295D01*
X294990Y572455D01*
X297311Y573417D01*
X299304Y574946D01*
X300833Y576939D01*
X301794Y579259D01*
X301955Y580480D01*
D02*
G37*
G36*
X407980D02*
X399795D01*
X399955Y579259D01*
X400917Y576939D01*
X402446Y574946D01*
X404439Y573417D01*
X406759Y572455D01*
X407980Y572295D01*
Y580480D01*
D02*
G37*
G36*
X291230D02*
X283045D01*
X283205Y579259D01*
X284167Y576939D01*
X285696Y574946D01*
X287689Y573417D01*
X290009Y572455D01*
X291230Y572295D01*
Y580480D01*
D02*
G37*
G36*
X465090Y526195D02*
X444770D01*
Y510955D01*
X465090D01*
Y526195D01*
D02*
G37*
G36*
X442230D02*
X421910D01*
Y510955D01*
X442230D01*
Y526195D01*
D02*
G37*
G36*
X465090Y508415D02*
X444770D01*
Y493175D01*
X465090D01*
Y508415D01*
D02*
G37*
G36*
X442230D02*
X421910D01*
Y493175D01*
X442230D01*
Y508415D01*
D02*
G37*
G36*
X111000Y435107D02*
X108854Y434681D01*
X107035Y433465D01*
X105819Y431646D01*
X105392Y429500D01*
X105545Y428731D01*
X70657Y393843D01*
X69939Y392769D01*
X69686Y391500D01*
Y382500D01*
X66500D01*
Y371610D01*
X66329Y371576D01*
X65337Y370913D01*
X65337Y370913D01*
X59983Y365559D01*
X55750D01*
Y368500D01*
X41750D01*
Y365309D01*
X37321D01*
X36715Y366216D01*
X34896Y367431D01*
X32750Y367858D01*
X30604Y367431D01*
X28784Y366216D01*
X27569Y364396D01*
X27142Y362250D01*
X27569Y360104D01*
X28784Y358285D01*
X30604Y357069D01*
X32750Y356642D01*
X34896Y357069D01*
X36715Y358285D01*
X37321Y359192D01*
X41750D01*
Y356500D01*
X45691D01*
Y348750D01*
X45691Y348750D01*
X45924Y347580D01*
X46587Y346587D01*
X46587Y346587D01*
X60113Y333062D01*
Y308810D01*
X58843Y307908D01*
X58650Y307946D01*
X43750D01*
X42833Y307763D01*
X42056Y307244D01*
X41536Y306467D01*
X41354Y305550D01*
Y303450D01*
X41536Y302533D01*
X41568Y302486D01*
X41027Y301678D01*
X40847Y300770D01*
X51200D01*
Y298230D01*
X40847D01*
X41027Y297322D01*
X41568Y296514D01*
X41536Y296467D01*
X41354Y295550D01*
Y293450D01*
X41536Y292533D01*
X41892Y292000D01*
X41536Y291467D01*
X41354Y290550D01*
Y288450D01*
X41536Y287533D01*
X41892Y287000D01*
X41536Y286467D01*
X41354Y285550D01*
Y283450D01*
X41536Y282533D01*
X41892Y282000D01*
X41536Y281467D01*
X41354Y280550D01*
Y278450D01*
X41536Y277533D01*
X41892Y277000D01*
X41536Y276467D01*
X41354Y275550D01*
Y273450D01*
X41536Y272533D01*
X41892Y272000D01*
X41536Y271467D01*
X41354Y270550D01*
Y268450D01*
X41536Y267533D01*
X41892Y267000D01*
X41536Y266467D01*
X41354Y265550D01*
Y263450D01*
X41536Y262533D01*
X41892Y262000D01*
X41536Y261467D01*
X41354Y260550D01*
Y258450D01*
X41536Y257533D01*
X41892Y257000D01*
X41536Y256467D01*
X41354Y255550D01*
Y253450D01*
X41536Y252533D01*
X41892Y252000D01*
X41536Y251467D01*
X41354Y250550D01*
Y248450D01*
X41536Y247533D01*
X41892Y247000D01*
X41536Y246467D01*
X41354Y245550D01*
Y243450D01*
X41536Y242533D01*
X41892Y242000D01*
X41536Y241467D01*
X41354Y240550D01*
Y238450D01*
X41536Y237533D01*
X41892Y237000D01*
X41536Y236467D01*
X41354Y235550D01*
Y233450D01*
X41536Y232533D01*
X41892Y232000D01*
X41536Y231467D01*
X41354Y230550D01*
Y228450D01*
X41536Y227533D01*
X41892Y227000D01*
X41536Y226467D01*
X41354Y225550D01*
Y223450D01*
X41536Y222533D01*
X41892Y222000D01*
X41536Y221467D01*
X41354Y220550D01*
Y218450D01*
X41536Y217533D01*
X41892Y217000D01*
X41536Y216467D01*
X41354Y215550D01*
Y213450D01*
X41536Y212533D01*
X41892Y212000D01*
X41536Y211467D01*
X41354Y210550D01*
Y208450D01*
X41536Y207533D01*
X41892Y207000D01*
X41536Y206467D01*
X41354Y205550D01*
Y203450D01*
X41536Y202533D01*
X41892Y202000D01*
X41536Y201467D01*
X41354Y200550D01*
Y198450D01*
X41536Y197533D01*
X41892Y197000D01*
X41536Y196467D01*
X41354Y195550D01*
Y193450D01*
X40622Y192558D01*
X32750D01*
Y194750D01*
X14750D01*
Y180750D01*
X32750D01*
Y186441D01*
X40623D01*
X41354Y185550D01*
Y183450D01*
X41536Y182533D01*
X42056Y181756D01*
X42833Y181236D01*
X43750Y181054D01*
X48141D01*
Y169217D01*
X38837Y159913D01*
X38174Y158920D01*
X37941Y157750D01*
X37941Y157750D01*
Y150500D01*
X34750D01*
Y136500D01*
X46750D01*
Y140441D01*
X51679D01*
X52285Y139535D01*
X54104Y138319D01*
X56250Y137892D01*
X58396Y138319D01*
X60215Y139535D01*
X61431Y141354D01*
X61858Y143500D01*
X61431Y145646D01*
X60215Y147465D01*
X58396Y148681D01*
X56250Y149108D01*
X54104Y148681D01*
X52285Y147465D01*
X51679Y146559D01*
X46750D01*
Y150500D01*
X44059D01*
Y156483D01*
X53363Y165787D01*
X53363Y165787D01*
X54026Y166779D01*
X54259Y167950D01*
X54259Y167950D01*
Y181054D01*
X58650D01*
X59567Y181236D01*
X60344Y181756D01*
X60863Y182533D01*
X61046Y183450D01*
Y185550D01*
X60863Y186467D01*
X60507Y187000D01*
X60863Y187533D01*
X61046Y188450D01*
Y190550D01*
X60863Y191467D01*
X60798Y191565D01*
X61008Y192074D01*
X62001Y192737D01*
X73163Y203899D01*
X73826Y204892D01*
X74059Y206062D01*
Y222929D01*
X74965Y223535D01*
X76181Y225354D01*
X76608Y227500D01*
X76181Y229646D01*
X74965Y231465D01*
X73146Y232681D01*
X71000Y233108D01*
X68854Y232681D01*
X67035Y231465D01*
X65819Y229646D01*
X65392Y227500D01*
X65819Y225354D01*
X67035Y223535D01*
X67941Y222929D01*
Y207329D01*
X62759Y202147D01*
X61151Y202200D01*
X60863Y202533D01*
X61046Y203450D01*
Y205550D01*
X60863Y206467D01*
X60507Y207000D01*
X60863Y207533D01*
X61046Y208450D01*
Y210550D01*
X60863Y211467D01*
X60507Y212000D01*
X60863Y212533D01*
X61046Y213450D01*
Y215550D01*
X60863Y216467D01*
X60507Y217000D01*
X60863Y217533D01*
X61046Y218450D01*
Y220550D01*
X60863Y221467D01*
X60507Y222000D01*
X60863Y222533D01*
X61046Y223450D01*
Y225550D01*
X60863Y226467D01*
X60507Y227000D01*
X60863Y227533D01*
X61046Y228450D01*
Y230550D01*
X60863Y231467D01*
X60507Y232000D01*
X60863Y232533D01*
X61046Y233450D01*
Y235550D01*
X60863Y236467D01*
X60507Y237000D01*
X60863Y237533D01*
X61046Y238450D01*
Y240550D01*
X60863Y241467D01*
X60507Y242000D01*
X60863Y242533D01*
X61046Y243450D01*
Y245550D01*
X60863Y246467D01*
X60507Y247000D01*
X60863Y247533D01*
X61046Y248450D01*
Y250550D01*
X60863Y251467D01*
X60507Y252000D01*
X60863Y252533D01*
X61046Y253450D01*
Y255550D01*
X60863Y256467D01*
X60803Y256557D01*
X61233Y257607D01*
X62508Y257916D01*
X73578Y246846D01*
X73077Y246096D01*
X72650Y243950D01*
X73077Y241804D01*
X74292Y239985D01*
X76112Y238769D01*
X78258Y238342D01*
X80404Y238769D01*
X82223Y239985D01*
X83439Y241804D01*
X83865Y243950D01*
X83439Y246096D01*
X82223Y247915D01*
X80404Y249131D01*
X79831Y249245D01*
X63905Y265171D01*
X64431Y266441D01*
X65733D01*
X66912Y265262D01*
X66912Y265262D01*
X67905Y264599D01*
X68660Y264448D01*
X68670Y264398D01*
X69886Y262578D01*
X71705Y261363D01*
X73851Y260936D01*
X75997Y261363D01*
X77817Y262578D01*
X79032Y264398D01*
X79459Y266544D01*
X79269Y267500D01*
X80243Y268989D01*
X80646Y269069D01*
X82465Y270285D01*
X83681Y272104D01*
X84108Y274250D01*
X83681Y276396D01*
X82465Y278215D01*
X80646Y279431D01*
X78500Y279858D01*
X76354Y279431D01*
X74535Y278215D01*
X73968Y277366D01*
X73000Y277559D01*
X73000Y277559D01*
X61778D01*
X61046Y278450D01*
Y280550D01*
X60863Y281467D01*
X60507Y282000D01*
X60863Y282533D01*
X61046Y283450D01*
Y285550D01*
X60863Y286467D01*
X60507Y287000D01*
X60863Y287533D01*
X61046Y288450D01*
Y290550D01*
X61394Y290974D01*
X62001Y291441D01*
X62634Y291567D01*
X63170Y291674D01*
X63171Y291674D01*
X63171Y291674D01*
X63631Y291982D01*
X64163Y292337D01*
X64163Y292337D01*
X64163Y292337D01*
X65334Y293509D01*
X65334Y293509D01*
X65334Y293509D01*
X65335Y293509D01*
X65645Y293974D01*
X65997Y294501D01*
X65997Y294502D01*
X65998Y294502D01*
X66127Y295153D01*
X66230Y295672D01*
Y295672D01*
X66230Y295672D01*
X66230Y295673D01*
Y302785D01*
X67403Y303271D01*
X78355Y292319D01*
X78142Y291250D01*
X78569Y289104D01*
X79785Y287285D01*
X81604Y286069D01*
X83750Y285642D01*
X85896Y286069D01*
X87715Y287285D01*
X88931Y289104D01*
X89358Y291250D01*
X88931Y293396D01*
X87715Y295215D01*
X85896Y296431D01*
X86069Y297691D01*
X96429D01*
X97035Y296785D01*
X98854Y295569D01*
X101000Y295142D01*
X103146Y295569D01*
X104965Y296785D01*
X106181Y298604D01*
X106608Y300750D01*
X106181Y302896D01*
X104965Y304715D01*
X103146Y305931D01*
X101000Y306358D01*
X98854Y305931D01*
X97035Y304715D01*
X96429Y303809D01*
X87017D01*
X81266Y309559D01*
X81313Y310931D01*
X81950Y311454D01*
X84050D01*
X84967Y311636D01*
X85500Y311992D01*
X86033Y311636D01*
X86950Y311454D01*
X89050D01*
X89967Y311636D01*
X90014Y311668D01*
X90822Y311128D01*
X91730Y310947D01*
Y321300D01*
Y331877D01*
X91059Y332428D01*
Y356750D01*
X96500D01*
Y359691D01*
X99500D01*
Y357000D01*
X99941D01*
Y347692D01*
X95837Y343588D01*
X95174Y342595D01*
X94941Y341425D01*
X94941Y341425D01*
Y332428D01*
X94270Y331877D01*
Y321300D01*
Y310947D01*
X95178Y311128D01*
X95986Y311668D01*
X96033Y311636D01*
X96950Y311454D01*
X99050D01*
X99967Y311636D01*
X100500Y311992D01*
X101033Y311636D01*
X101950Y311454D01*
X104050D01*
X104967Y311636D01*
X105500Y311992D01*
X106033Y311636D01*
X106950Y311454D01*
X109050D01*
X109967Y311636D01*
X110500Y311992D01*
X111033Y311636D01*
X111950Y311454D01*
X114050D01*
X114967Y311636D01*
X115500Y311992D01*
X116033Y311636D01*
X116950Y311454D01*
X119050D01*
X119967Y311636D01*
X120500Y311992D01*
X121033Y311636D01*
X121950Y311454D01*
X124050D01*
X124967Y311636D01*
X125500Y311992D01*
X126033Y311636D01*
X126950Y311454D01*
X129050D01*
X129967Y311636D01*
X130500Y311992D01*
X131033Y311636D01*
X131950Y311454D01*
X134050D01*
X134967Y311636D01*
X135500Y311992D01*
X136033Y311636D01*
X136950Y311454D01*
X139050D01*
X139967Y311636D01*
X140014Y311668D01*
X140822Y311128D01*
X141730Y310947D01*
Y321300D01*
X144270D01*
Y310723D01*
X144942Y310172D01*
Y298250D01*
X144941Y298250D01*
X145174Y297079D01*
X145837Y296087D01*
X174941Y266983D01*
Y261321D01*
X174035Y260715D01*
X172819Y258896D01*
X172392Y256750D01*
X172819Y254604D01*
X174035Y252785D01*
X175854Y251569D01*
X178000Y251142D01*
X180146Y251569D01*
X181965Y252785D01*
X183181Y254604D01*
X183608Y256750D01*
X183181Y258896D01*
X181965Y260715D01*
X181059Y261321D01*
Y263456D01*
X182329Y263841D01*
X183035Y262785D01*
X184854Y261569D01*
X187000Y261142D01*
X189146Y261569D01*
X190965Y262785D01*
X192181Y264604D01*
X192608Y266750D01*
X192181Y268896D01*
X190965Y270715D01*
X190059Y271321D01*
Y273650D01*
X190059Y273651D01*
X189826Y274821D01*
X189163Y275814D01*
X189163Y275814D01*
X183725Y281252D01*
X184350Y282422D01*
X184500Y282392D01*
X186646Y282819D01*
X188465Y284035D01*
X189681Y285854D01*
X190108Y288000D01*
X189681Y290146D01*
X188465Y291965D01*
X186646Y293181D01*
X186575Y293195D01*
X186534Y293304D01*
X186441Y294516D01*
X187965Y295535D01*
X189181Y297354D01*
X189608Y299500D01*
X189181Y301646D01*
X187965Y303465D01*
X186146Y304681D01*
X184000Y305108D01*
X181854Y304681D01*
X180035Y303465D01*
X179429Y302559D01*
X176361D01*
X168586Y310334D01*
X168665Y310524D01*
X169227Y311489D01*
X169967Y311636D01*
X170500Y311992D01*
X171033Y311636D01*
X171950Y311454D01*
X174050D01*
X174967Y311636D01*
X175500Y311992D01*
X176033Y311636D01*
X176950Y311454D01*
X179050D01*
X179967Y311636D01*
X180500Y311992D01*
X181033Y311636D01*
X181950Y311454D01*
X184050D01*
X184967Y311636D01*
X185500Y311992D01*
X186033Y311636D01*
X186950Y311454D01*
X189050D01*
X189967Y311636D01*
X190744Y312156D01*
X191264Y312933D01*
X191446Y313850D01*
Y318241D01*
X202800D01*
X202800Y318241D01*
X203971Y318474D01*
X204344Y318724D01*
X204963Y319137D01*
X204963Y319137D01*
X214163Y328337D01*
X214163Y328337D01*
X214826Y329330D01*
X215059Y330500D01*
Y335750D01*
X217500D01*
Y348750D01*
X206500D01*
Y335750D01*
X208941D01*
Y331767D01*
X201533Y324359D01*
X191446D01*
Y328750D01*
X191264Y329667D01*
X190744Y330444D01*
X189967Y330964D01*
X189050Y331146D01*
X186950D01*
X186033Y330964D01*
X185500Y330607D01*
X184967Y330964D01*
X184050Y331146D01*
X181950D01*
X181033Y330964D01*
X180500Y330607D01*
X179967Y330964D01*
X179050Y331146D01*
X176950D01*
X176033Y330964D01*
X175500Y330607D01*
X174967Y330964D01*
X174050Y331146D01*
X171950D01*
X171033Y330964D01*
X170500Y330607D01*
X169967Y330964D01*
X169050Y331146D01*
X166950D01*
X166059Y331878D01*
Y338483D01*
X196576Y369000D01*
X206250D01*
Y381000D01*
X192250D01*
Y373326D01*
X183232Y364308D01*
X182059Y364794D01*
Y369250D01*
X186000D01*
Y381250D01*
X172000D01*
Y378309D01*
X170559D01*
Y383820D01*
X171460Y384710D01*
X171829Y384710D01*
X177730D01*
Y391250D01*
Y397790D01*
X171829D01*
X171460Y397790D01*
X170559Y398680D01*
Y419233D01*
X172681Y421355D01*
X173750Y421142D01*
X175896Y421569D01*
X177715Y422785D01*
X178931Y424604D01*
X179358Y426750D01*
X178931Y428896D01*
X177715Y430715D01*
X175896Y431931D01*
X173750Y432358D01*
X171604Y431931D01*
X169785Y430715D01*
X168569Y428896D01*
X168142Y426750D01*
X168355Y425681D01*
X165337Y422663D01*
X164674Y421670D01*
X164441Y420500D01*
X164441Y420500D01*
Y407327D01*
X163290Y407040D01*
X163171Y407040D01*
X156520D01*
Y398000D01*
Y388960D01*
X163171D01*
X163290Y388960D01*
X164441Y388674D01*
Y376422D01*
X164441Y376422D01*
X164674Y375251D01*
X165337Y374259D01*
X166509Y373087D01*
X166509Y373087D01*
X167501Y372424D01*
X168672Y372191D01*
X168672Y372191D01*
X172000D01*
Y369250D01*
X175941D01*
Y363767D01*
X156983Y344809D01*
X143575D01*
X143575Y344809D01*
X142404Y344576D01*
X141412Y343913D01*
X141412Y343913D01*
X138382Y340882D01*
X137287Y341397D01*
X137211Y341508D01*
X137309Y341999D01*
X137309Y342000D01*
X137309Y342000D01*
Y348500D01*
X141000D01*
Y352728D01*
X141163Y352837D01*
X144286Y355961D01*
X145460Y355475D01*
Y347960D01*
X150230D01*
Y355000D01*
X151500D01*
Y356270D01*
X157540D01*
Y362040D01*
X151525D01*
X151039Y363213D01*
X152916Y365091D01*
X152916Y365091D01*
X153580Y366083D01*
X153663Y366500D01*
X162750D01*
Y383500D01*
X147750D01*
Y370781D01*
X147695Y370504D01*
X147695Y370504D01*
Y368521D01*
X146463Y367289D01*
X145290Y367775D01*
Y373730D01*
X137250D01*
Y375000D01*
X135980D01*
Y384040D01*
X129912D01*
X129819Y384263D01*
X129796Y385549D01*
X130788Y386212D01*
X134076Y389500D01*
X144750D01*
Y406500D01*
X140309D01*
Y409788D01*
X141404Y410210D01*
X141577Y410210D01*
D01*
X141577D01*
Y410210D01*
X141577Y410210D01*
X146174D01*
Y415980D01*
X141404D01*
Y411480D01*
X141404Y411448D01*
X141302Y411438D01*
X141302D01*
X141302Y411438D01*
Y411438D01*
X140095Y411517D01*
X140076Y411615D01*
X139413Y412607D01*
X136944Y415076D01*
Y423750D01*
X125944D01*
Y410750D01*
X132619D01*
X134191Y409177D01*
Y406500D01*
X129750D01*
Y393826D01*
X127168Y391244D01*
X126955Y391201D01*
X125962Y390538D01*
X123087Y387663D01*
X122424Y386670D01*
X122191Y385500D01*
X122191Y385500D01*
Y344501D01*
X122191Y344501D01*
X122191Y344500D01*
Y344500D01*
X122240Y344257D01*
X121953Y343808D01*
X121159Y343177D01*
X120250Y343358D01*
X118104Y342931D01*
X116819Y342072D01*
X115676Y342836D01*
X115858Y343750D01*
X115431Y345896D01*
X114215Y347715D01*
X112396Y348931D01*
X110250Y349358D01*
X108104Y348931D01*
X107329Y348413D01*
X106059Y349091D01*
Y357000D01*
X113500D01*
Y369000D01*
X99500D01*
Y365809D01*
X96500D01*
Y368750D01*
X86826D01*
X84663Y370913D01*
X84623Y370940D01*
X85008Y372210D01*
X88230D01*
Y377480D01*
X81960D01*
Y373079D01*
X81960Y372210D01*
X80856Y371809D01*
X79500D01*
Y382500D01*
X76314D01*
Y390128D01*
X110231Y424045D01*
X111000Y423892D01*
X113146Y424319D01*
X114965Y425535D01*
X116181Y427354D01*
X116608Y429500D01*
X116181Y431646D01*
X114965Y433465D01*
X113146Y434681D01*
X111000Y435107D01*
D02*
G37*
G36*
X153484Y424290D02*
X148714D01*
Y418520D01*
X153484D01*
Y424290D01*
D02*
G37*
G36*
X146174D02*
X141404D01*
Y418520D01*
X146174D01*
Y424290D01*
D02*
G37*
G36*
X153484Y415980D02*
X148714D01*
Y410210D01*
X153484D01*
Y415980D01*
D02*
G37*
G36*
X153980Y407040D02*
X147210D01*
Y399270D01*
X153980D01*
Y407040D01*
D02*
G37*
G36*
X442540Y399290D02*
X437270D01*
Y393020D01*
X442540D01*
Y399290D01*
D02*
G37*
G36*
X434730D02*
X429460D01*
Y393020D01*
X434730D01*
Y399290D01*
D02*
G37*
G36*
X180270Y397790D02*
Y392520D01*
X186540D01*
Y397790D01*
X180270D01*
D02*
G37*
G36*
X206790Y397540D02*
X200520D01*
Y392270D01*
X206790D01*
Y397540D01*
D02*
G37*
G36*
X197980D02*
X191710D01*
Y392270D01*
X197980D01*
Y397540D01*
D02*
G37*
G36*
X153980Y396730D02*
X147210D01*
Y388960D01*
X153980D01*
Y396730D01*
D02*
G37*
G36*
X186540Y389980D02*
X180270D01*
Y384710D01*
X186540D01*
Y389980D01*
D02*
G37*
G36*
X206790Y389730D02*
X200520D01*
Y384460D01*
X206790D01*
Y389730D01*
D02*
G37*
G36*
X197980D02*
X191710D01*
Y384460D01*
X197980D01*
Y389730D01*
D02*
G37*
G36*
X442540Y390480D02*
X437270D01*
Y384210D01*
X442540D01*
Y390480D01*
D02*
G37*
G36*
X434730D02*
X429460D01*
Y384210D01*
X434730D01*
Y390480D01*
D02*
G37*
G36*
X114040Y385540D02*
X107770D01*
Y380270D01*
X114040D01*
Y385540D01*
D02*
G37*
G36*
X105230D02*
X98960D01*
Y380270D01*
X105230D01*
Y385540D01*
D02*
G37*
G36*
X97040Y385290D02*
X90770D01*
Y380020D01*
X97040D01*
Y385290D01*
D02*
G37*
G36*
X88230D02*
X81960D01*
Y380020D01*
X88230D01*
Y385290D01*
D02*
G37*
G36*
X56290Y385040D02*
X50020D01*
Y379770D01*
X56290D01*
Y385040D01*
D02*
G37*
G36*
X47480D02*
X41210D01*
Y379770D01*
X47480D01*
Y385040D01*
D02*
G37*
G36*
X145290Y384040D02*
X138520D01*
Y376270D01*
X145290D01*
Y384040D01*
D02*
G37*
G36*
X114040Y377730D02*
X107770D01*
Y372460D01*
X114040D01*
Y377730D01*
D02*
G37*
G36*
X105230D02*
X98960D01*
Y372460D01*
X105230D01*
Y377730D01*
D02*
G37*
G36*
X97040Y377480D02*
X90770D01*
Y372210D01*
X97040D01*
Y377480D01*
D02*
G37*
G36*
X56290Y377230D02*
X50020D01*
Y371960D01*
X56290D01*
Y377230D01*
D02*
G37*
G36*
X47480D02*
X41210D01*
Y371960D01*
X47480D01*
Y377230D01*
D02*
G37*
G36*
X367040Y367290D02*
X361020D01*
Y355270D01*
X367040D01*
Y367290D01*
D02*
G37*
G36*
X358480D02*
X352460D01*
Y355270D01*
X358480D01*
Y367290D01*
D02*
G37*
G36*
X444290Y371290D02*
X437770D01*
Y354020D01*
X444290D01*
Y371290D01*
D02*
G37*
G36*
X435230D02*
X428710D01*
Y354020D01*
X435230D01*
Y371290D01*
D02*
G37*
G36*
X410290D02*
X403770D01*
Y354020D01*
X410290D01*
Y371290D01*
D02*
G37*
G36*
X401230D02*
X394710D01*
Y354020D01*
X401230D01*
Y371290D01*
D02*
G37*
G36*
X157540Y353730D02*
X152770D01*
Y347960D01*
X157540D01*
Y353730D01*
D02*
G37*
G36*
X367040Y352730D02*
X361020D01*
Y340710D01*
X367040D01*
Y352730D01*
D02*
G37*
G36*
X358480D02*
X352460D01*
Y340710D01*
X358480D01*
Y352730D01*
D02*
G37*
G36*
X406000Y492750D02*
X362000D01*
Y418750D01*
X406000D01*
Y431255D01*
X422450D01*
Y422345D01*
X446440D01*
Y370750D01*
X446250D01*
Y334750D01*
X460750D01*
Y370750D01*
X460561D01*
Y422345D01*
X464550D01*
Y454285D01*
X422450D01*
Y445376D01*
X406000D01*
Y492750D01*
D02*
G37*
G36*
X351500Y590750D02*
X333500D01*
Y588810D01*
X327250D01*
X325423Y588570D01*
X323720Y587864D01*
X322258Y586742D01*
X279007Y543492D01*
X277885Y542030D01*
X277180Y540327D01*
X276940Y538500D01*
Y492750D01*
X262000D01*
Y418750D01*
X306000D01*
Y492750D01*
X291060D01*
Y535575D01*
X330175Y574690D01*
X333500D01*
Y572750D01*
X335440D01*
Y442675D01*
X301575Y408810D01*
X283608D01*
X282824Y408707D01*
X281781Y408570D01*
X281781Y408570D01*
X281780Y408570D01*
X281059Y408271D01*
X280078Y407864D01*
X280078Y407864D01*
X280078Y407864D01*
X279289Y407260D01*
X278616Y406743D01*
X275101Y403228D01*
X275101Y403228D01*
X275100Y403228D01*
X274521Y402472D01*
X273979Y401766D01*
X273979Y401766D01*
X273979Y401766D01*
X273644Y400959D01*
X273273Y400063D01*
X273273Y400063D01*
X273273Y400063D01*
X273159Y399198D01*
X273033Y398236D01*
X273033Y398236D01*
X273033Y398235D01*
Y357515D01*
X273273Y355687D01*
X273979Y353984D01*
X275100Y352522D01*
X278615Y349007D01*
X280077Y347885D01*
X281780Y347180D01*
X283608Y346939D01*
X307000D01*
Y341250D01*
X320500D01*
Y352004D01*
X320570Y352173D01*
X320810Y354000D01*
X320570Y355827D01*
X320500Y355996D01*
Y366750D01*
X307000D01*
Y361060D01*
X287153D01*
Y394689D01*
X304500D01*
X306052Y394894D01*
X306576Y394167D01*
X306711Y393757D01*
X297703Y384750D01*
X290750D01*
Y370750D01*
X302750D01*
Y379703D01*
X311229Y388181D01*
X414000D01*
Y384750D01*
X416432D01*
Y370750D01*
X412250D01*
Y334750D01*
X426750D01*
Y370750D01*
X423569D01*
Y384750D01*
X426000D01*
Y398750D01*
X414000D01*
Y395318D01*
X309750D01*
X309687Y395306D01*
X309148Y396493D01*
X309492Y396757D01*
X347493Y434758D01*
X348615Y436220D01*
X349320Y437923D01*
X349561Y439750D01*
Y572750D01*
X351500D01*
Y590750D01*
D02*
G37*
G36*
X444290Y351480D02*
X437770D01*
Y334210D01*
X444290D01*
Y351480D01*
D02*
G37*
G36*
X435230D02*
X428710D01*
Y334210D01*
X435230D01*
Y351480D01*
D02*
G37*
G36*
X410290D02*
X403770D01*
Y334210D01*
X410290D01*
Y351480D01*
D02*
G37*
G36*
X401230D02*
X394710D01*
Y334210D01*
X401230D01*
Y351480D01*
D02*
G37*
G36*
X233500Y348750D02*
X222500D01*
Y335750D01*
X233500D01*
Y339191D01*
X244234D01*
X250338Y333087D01*
X251330Y332424D01*
X252500Y332191D01*
X252501Y332191D01*
X273929D01*
X274535Y331285D01*
X276354Y330069D01*
X278500Y329642D01*
X280646Y330069D01*
X282465Y331285D01*
X283681Y333104D01*
X284108Y335250D01*
X283681Y337396D01*
X282465Y339215D01*
X280646Y340431D01*
X278500Y340858D01*
X276354Y340431D01*
X274535Y339215D01*
X273929Y338309D01*
X253767D01*
X247663Y344413D01*
X246671Y345076D01*
X245501Y345309D01*
X245501Y345309D01*
X233500D01*
Y348750D01*
D02*
G37*
G36*
X249540Y328290D02*
X244270D01*
Y322020D01*
X249540D01*
Y328290D01*
D02*
G37*
G36*
X241730D02*
X236460D01*
Y322020D01*
X241730D01*
Y328290D01*
D02*
G37*
G36*
X252040Y300790D02*
X247270D01*
Y295020D01*
X252040D01*
Y300790D01*
D02*
G37*
G36*
X244730D02*
X239960D01*
Y295020D01*
X244730D01*
Y300790D01*
D02*
G37*
G36*
X252040Y292480D02*
X247270D01*
Y286710D01*
X252040D01*
Y292480D01*
D02*
G37*
G36*
X244730D02*
X239960D01*
Y286710D01*
X244730D01*
Y292480D01*
D02*
G37*
G36*
X235500Y300250D02*
X224500D01*
Y293018D01*
X221451Y289969D01*
X220567Y288646D01*
X220303Y287318D01*
X219795Y286979D01*
X218580Y285160D01*
X218153Y283014D01*
X218494Y281300D01*
X215916Y278722D01*
X214646Y279248D01*
Y280550D01*
X214464Y281467D01*
X214108Y282000D01*
X214464Y282533D01*
X214646Y283450D01*
Y285550D01*
X214464Y286467D01*
X214108Y287000D01*
X214464Y287533D01*
X214646Y288450D01*
Y290550D01*
X214464Y291467D01*
X214108Y292000D01*
X214464Y292533D01*
X214646Y293450D01*
Y295550D01*
X214464Y296467D01*
X214432Y296514D01*
X214972Y297322D01*
X215153Y298230D01*
X194447D01*
X194628Y297322D01*
X195168Y296514D01*
X195137Y296467D01*
X194954Y295550D01*
Y293450D01*
X195137Y292533D01*
X195493Y292000D01*
X195137Y291467D01*
X194954Y290550D01*
Y288450D01*
X195137Y287533D01*
X195493Y287000D01*
X195137Y286467D01*
X194954Y285550D01*
Y283450D01*
X195137Y282533D01*
X195493Y282000D01*
X195137Y281467D01*
X194954Y280550D01*
Y278450D01*
X195137Y277533D01*
X195493Y277000D01*
X195137Y276467D01*
X194954Y275550D01*
Y273450D01*
X195137Y272533D01*
X195493Y272000D01*
X195137Y271467D01*
X194954Y270550D01*
Y268450D01*
X195137Y267533D01*
X195493Y267000D01*
X195137Y266467D01*
X194954Y265550D01*
Y263450D01*
X195137Y262533D01*
X195493Y262000D01*
X195137Y261467D01*
X194954Y260550D01*
Y258450D01*
X195137Y257533D01*
X195493Y257000D01*
X195137Y256467D01*
X194954Y255550D01*
Y253450D01*
X195137Y252533D01*
X195493Y252000D01*
X195137Y251467D01*
X194954Y250550D01*
Y248450D01*
X195137Y247533D01*
X195493Y247000D01*
X195137Y246467D01*
X194954Y245550D01*
Y243450D01*
X195137Y242533D01*
X195493Y242000D01*
X195137Y241467D01*
X194954Y240550D01*
Y238450D01*
X195137Y237533D01*
X195493Y237000D01*
X195137Y236467D01*
X194954Y235550D01*
Y233450D01*
X195137Y232533D01*
X195493Y232000D01*
X195137Y231467D01*
X194954Y230550D01*
Y228450D01*
X195137Y227533D01*
X195493Y227000D01*
X195137Y226467D01*
X194954Y225550D01*
Y223450D01*
X195137Y222533D01*
X195493Y222000D01*
X195137Y221467D01*
X194954Y220550D01*
Y218450D01*
X195137Y217533D01*
X195493Y217000D01*
X195137Y216467D01*
X194954Y215550D01*
Y213450D01*
X195137Y212533D01*
X195493Y212000D01*
X195137Y211467D01*
X194954Y210550D01*
Y208450D01*
X195137Y207533D01*
X195493Y207000D01*
X195137Y206467D01*
X194954Y205550D01*
Y203450D01*
X195137Y202533D01*
X195493Y202000D01*
X195137Y201467D01*
X194954Y200550D01*
Y198450D01*
X195137Y197533D01*
X195493Y197000D01*
X195137Y196467D01*
X194954Y195550D01*
Y193450D01*
X195137Y192533D01*
X195493Y192000D01*
X195137Y191467D01*
X194954Y190550D01*
Y188450D01*
X195137Y187533D01*
X195493Y187000D01*
X195137Y186467D01*
X194954Y185550D01*
Y183450D01*
X195137Y182533D01*
X195656Y181756D01*
X196433Y181236D01*
X197350Y181054D01*
X210320D01*
X215709Y175666D01*
X216069Y173854D01*
X217285Y172035D01*
X219104Y170819D01*
X221250Y170392D01*
X223396Y170819D01*
X225215Y172035D01*
X226431Y173854D01*
X226857Y176000D01*
X226431Y178146D01*
X225215Y179965D01*
X223396Y181181D01*
X221250Y181608D01*
X219104Y181181D01*
X218949Y181077D01*
X215130Y184896D01*
X215656Y186166D01*
X241000D01*
X242276Y186420D01*
X243357Y187142D01*
X254881Y198666D01*
X292500D01*
X293776Y198920D01*
X293776Y198920D01*
X293776Y198920D01*
X294210Y199210D01*
X294857Y199643D01*
X301907Y206692D01*
X302630Y207774D01*
X302630Y207774D01*
X302769Y208472D01*
X302884Y209049D01*
Y216500D01*
X304550D01*
Y242500D01*
X294550D01*
Y216500D01*
X296216D01*
Y210431D01*
X291119Y205334D01*
X277195D01*
X276669Y206604D01*
X286565Y216500D01*
X291850D01*
Y242500D01*
X281850D01*
Y221215D01*
X280323Y219689D01*
X279150Y220175D01*
Y242500D01*
X269150D01*
Y221215D01*
X268163Y220229D01*
X266990Y220715D01*
Y228230D01*
X255910D01*
Y225997D01*
X254736Y225511D01*
X254620Y225628D01*
X253538Y226350D01*
X252262Y226604D01*
X251122D01*
X250443Y227874D01*
X250931Y228604D01*
X251358Y230750D01*
X250931Y232896D01*
X249715Y234715D01*
X247896Y235931D01*
X245750Y236358D01*
X243604Y235931D01*
X241785Y234715D01*
X241179Y233809D01*
X230750D01*
X229579Y233576D01*
X228587Y232913D01*
X228587Y232913D01*
X215762Y220088D01*
X215624Y220145D01*
X214610Y220732D01*
X214464Y221467D01*
X214108Y222000D01*
X214464Y222533D01*
X214646Y223450D01*
Y225550D01*
X214464Y226467D01*
X214108Y227000D01*
X214464Y227533D01*
X214646Y228450D01*
Y230550D01*
X214464Y231467D01*
X214108Y232000D01*
X214464Y232533D01*
X214646Y233450D01*
Y235550D01*
X214464Y236467D01*
X214108Y237000D01*
X214464Y237533D01*
X214646Y238450D01*
Y240550D01*
X214464Y241467D01*
X214108Y242000D01*
X214464Y242533D01*
X214646Y243450D01*
Y245550D01*
X214464Y246467D01*
X214108Y247000D01*
X214464Y247533D01*
X214646Y248450D01*
Y250550D01*
X214464Y251467D01*
X214108Y252000D01*
X214464Y252533D01*
X214646Y253450D01*
Y255550D01*
X214464Y256467D01*
X214108Y257000D01*
X214464Y257533D01*
X214646Y258450D01*
Y260550D01*
X214642Y260571D01*
X215625Y261841D01*
X219791D01*
X220035Y261477D01*
X221854Y260261D01*
X224000Y259834D01*
X226146Y260261D01*
X227965Y261477D01*
X229181Y263296D01*
X229608Y265442D01*
X229343Y266775D01*
X230417Y267850D01*
X231750Y267585D01*
X233896Y268011D01*
X235715Y269227D01*
X236931Y271046D01*
X237358Y273192D01*
X236931Y275338D01*
X235715Y277158D01*
X233896Y278373D01*
X231750Y278800D01*
X229604Y278373D01*
X227785Y277158D01*
X227179Y276251D01*
X224463D01*
X224338Y277521D01*
X225907Y277833D01*
X227726Y279049D01*
X228942Y280868D01*
X229369Y283014D01*
X228942Y285160D01*
X228636Y285618D01*
X230268Y287250D01*
X235500D01*
Y300250D01*
D02*
G37*
G36*
X343500Y366750D02*
X330000D01*
Y355996D01*
X329930Y355827D01*
X329690Y354000D01*
Y308750D01*
X318500D01*
Y283250D01*
X329690D01*
Y276250D01*
X324394D01*
X324000Y276328D01*
X324000Y276328D01*
X297439D01*
X262634Y311134D01*
X261311Y312018D01*
X259750Y312328D01*
X259750Y312328D01*
X250445D01*
X249540Y313210D01*
X249540Y313598D01*
Y319480D01*
X236460D01*
Y313598D01*
X236460Y313210D01*
X235555Y312328D01*
X231078D01*
Y313750D01*
X233000D01*
Y327750D01*
X221000D01*
Y323809D01*
X214500D01*
X214500Y323809D01*
X213329Y323576D01*
X212956Y323326D01*
X212337Y322913D01*
X212337Y322913D01*
X202637Y313213D01*
X202637Y313213D01*
X201974Y312220D01*
X201741Y311050D01*
X201742Y311050D01*
Y307946D01*
X197350D01*
X196433Y307763D01*
X195656Y307244D01*
X195137Y306467D01*
X194954Y305550D01*
Y303450D01*
X195137Y302533D01*
X195168Y302486D01*
X194628Y301678D01*
X194447Y300770D01*
X215153D01*
X214972Y301678D01*
X214433Y302486D01*
X214464Y302533D01*
X214646Y303450D01*
Y305550D01*
X214464Y306467D01*
X213944Y307244D01*
X213167Y307763D01*
X212250Y307946D01*
X207859D01*
Y309783D01*
X215767Y317691D01*
X221000D01*
Y313750D01*
X222922D01*
Y310500D01*
X222921Y310500D01*
X223232Y308939D01*
X224116Y307616D01*
X226366Y305366D01*
X226366Y305366D01*
X227689Y304482D01*
X229250Y304172D01*
X258061D01*
X292866Y269366D01*
X293844Y268713D01*
X294002Y267582D01*
X293931Y267243D01*
X292822Y266502D01*
X291606Y264683D01*
X291179Y262537D01*
X291466Y261098D01*
X290571Y259828D01*
X286046D01*
X284396Y260931D01*
X282250Y261358D01*
X280104Y260931D01*
X278285Y259715D01*
X277069Y257896D01*
X276642Y255750D01*
X277069Y253604D01*
X278285Y251785D01*
X280104Y250569D01*
X282250Y250142D01*
X284396Y250569D01*
X286046Y251672D01*
X305562D01*
X306241Y250402D01*
X305569Y249396D01*
X305142Y247250D01*
X305569Y245104D01*
X306785Y243285D01*
X308604Y242069D01*
X310750Y241642D01*
X312896Y242069D01*
X314546Y243172D01*
X317250D01*
Y237250D01*
X324672D01*
Y232500D01*
X324672Y232500D01*
X324982Y230939D01*
X325866Y229616D01*
X364231Y191252D01*
X363745Y190079D01*
X329250D01*
Y193250D01*
X315250D01*
Y187309D01*
X304550D01*
Y194500D01*
X294550D01*
Y148500D01*
X304550D01*
Y181191D01*
X319250D01*
X319250Y181191D01*
X319544Y181250D01*
X329250D01*
Y181922D01*
X373561D01*
X383422Y172061D01*
Y157750D01*
X379250D01*
Y142750D01*
X383422D01*
Y124500D01*
X379250D01*
Y109500D01*
X383422D01*
Y91250D01*
X379250D01*
Y76250D01*
X395750D01*
Y91250D01*
X391578D01*
Y109500D01*
X395750D01*
Y124500D01*
X391578D01*
Y142750D01*
X395750D01*
Y157750D01*
X391578D01*
Y162245D01*
X392752Y162731D01*
X463036Y92446D01*
X462918Y91550D01*
X463245Y89070D01*
X464202Y86759D01*
X465724Y84775D01*
X467709Y83252D01*
X470020Y82295D01*
X472500Y81968D01*
X474980Y82295D01*
X477291Y83252D01*
X479275Y84775D01*
X480798Y86759D01*
X481755Y89070D01*
X482082Y91550D01*
X481755Y94030D01*
X480798Y96341D01*
X479275Y98326D01*
X477291Y99848D01*
X474980Y100806D01*
X472500Y101132D01*
X470020Y100806D01*
X467709Y99848D01*
X467404Y99614D01*
X390384Y176634D01*
X378134Y188884D01*
X378134Y188884D01*
X332828Y234189D01*
Y237250D01*
X342750D01*
Y266570D01*
X342865Y266720D01*
X343570Y268423D01*
X343811Y270250D01*
Y283250D01*
X355000D01*
Y308750D01*
X343811D01*
Y354000D01*
X343570Y355827D01*
X343500Y355996D01*
Y366750D01*
D02*
G37*
G36*
X136750Y280357D02*
X134604Y279931D01*
X132785Y278715D01*
X131569Y276896D01*
X131142Y274750D01*
X131569Y272604D01*
X132785Y270784D01*
X134604Y269569D01*
X136750Y269142D01*
X138896Y269569D01*
X140715Y270784D01*
X141931Y272604D01*
X142358Y274750D01*
X141931Y276896D01*
X140715Y278715D01*
X138896Y279931D01*
X136750Y280357D01*
D02*
G37*
G36*
X491290Y302290D02*
X437770D01*
Y259520D01*
X491290D01*
Y302290D01*
D02*
G37*
G36*
X435230D02*
X381710D01*
Y259520D01*
X435230D01*
Y302290D01*
D02*
G37*
G36*
X378290Y276790D02*
X366270D01*
Y258020D01*
X378290D01*
Y276790D01*
D02*
G37*
G36*
X363730D02*
X351710D01*
Y258020D01*
X363730D01*
Y276790D01*
D02*
G37*
G36*
X139000Y265358D02*
X136854Y264931D01*
X135035Y263715D01*
X133819Y261896D01*
X133392Y259750D01*
X133819Y257604D01*
X135035Y255785D01*
X136854Y254569D01*
X139000Y254142D01*
X141146Y254569D01*
X142965Y255785D01*
X144181Y257604D01*
X144608Y259750D01*
X144181Y261896D01*
X142965Y263715D01*
X141146Y264931D01*
X139000Y265358D01*
D02*
G37*
G36*
X128390Y251019D02*
X126244Y250592D01*
X124425Y249377D01*
X123210Y247557D01*
X122783Y245411D01*
X123210Y243265D01*
X124425Y241446D01*
X126244Y240230D01*
X128390Y239804D01*
X130536Y240230D01*
X132356Y241446D01*
X133571Y243265D01*
X133998Y245411D01*
X133571Y247557D01*
X132356Y249377D01*
X130536Y250592D01*
X128390Y251019D01*
D02*
G37*
G36*
X378290Y255480D02*
X366270D01*
Y236710D01*
X378290D01*
Y255480D01*
D02*
G37*
G36*
X363730D02*
X351710D01*
Y236710D01*
X363730D01*
Y255480D01*
D02*
G37*
G36*
X266990Y243040D02*
X262720D01*
Y230770D01*
X266990D01*
Y243040D01*
D02*
G37*
G36*
X260180D02*
X255910D01*
Y230770D01*
X260180D01*
Y243040D01*
D02*
G37*
G36*
X491290Y256980D02*
X437770D01*
Y214210D01*
X491290D01*
Y256980D01*
D02*
G37*
G36*
X435230D02*
X381710D01*
Y214210D01*
X435230D01*
Y256980D01*
D02*
G37*
G36*
X329790Y209790D02*
X323520D01*
Y204520D01*
X329790D01*
Y209790D01*
D02*
G37*
G36*
X320980D02*
X314710D01*
Y204520D01*
X320980D01*
Y209790D01*
D02*
G37*
G36*
X91250Y201608D02*
X89104Y201181D01*
X87285Y199965D01*
X86069Y198146D01*
X85942Y197505D01*
X84593Y197237D01*
X84428Y197485D01*
X82608Y198701D01*
X80462Y199128D01*
X78316Y198701D01*
X76497Y197485D01*
X75282Y195666D01*
X75205Y195281D01*
X65837Y185913D01*
X65174Y184921D01*
X64941Y183750D01*
X64941Y183750D01*
Y176374D01*
X64736Y176067D01*
X64554Y175150D01*
Y160250D01*
X64736Y159333D01*
X65256Y158556D01*
X66033Y158036D01*
X66950Y157854D01*
X69050D01*
X69967Y158036D01*
X70500Y158393D01*
X71033Y158036D01*
X71950Y157854D01*
X74050D01*
X74967Y158036D01*
X75500Y158392D01*
X76033Y158036D01*
X76950Y157854D01*
X79050D01*
X79967Y158036D01*
X80500Y158393D01*
X81033Y158036D01*
X81950Y157854D01*
X84050D01*
X84941Y157123D01*
Y149767D01*
X82069Y146895D01*
X81000Y147108D01*
X78854Y146681D01*
X77035Y145465D01*
X75819Y143646D01*
X75392Y141500D01*
X75819Y139354D01*
X77035Y137535D01*
X78854Y136319D01*
X81000Y135892D01*
X81699Y136031D01*
X82704Y134936D01*
X83069Y133104D01*
X84284Y131285D01*
X86104Y130069D01*
X88250Y129642D01*
X90396Y130069D01*
X92016Y131152D01*
X92886Y130983D01*
X93390Y130757D01*
X93569Y129854D01*
X94785Y128034D01*
X96604Y126819D01*
X98750Y126392D01*
X100896Y126819D01*
X102715Y128034D01*
X103195Y128752D01*
X104722D01*
X105035Y128285D01*
X106854Y127069D01*
X109000Y126643D01*
X111146Y127069D01*
X112965Y128285D01*
X113486Y129065D01*
X115014D01*
X115535Y128285D01*
X117354Y127069D01*
X119500Y126643D01*
X121646Y127069D01*
X123465Y128285D01*
X124681Y130104D01*
X125108Y132250D01*
X124860Y133496D01*
X125940Y134576D01*
X126721Y134421D01*
X128867Y134848D01*
X130354Y135841D01*
X130686Y136063D01*
X131538Y135221D01*
X131370Y134969D01*
X130819Y134146D01*
X130393Y132000D01*
X130819Y129854D01*
X132035Y128034D01*
X133854Y126819D01*
X136000Y126392D01*
X138146Y126819D01*
X139965Y128034D01*
X141181Y129854D01*
X141608Y132000D01*
X141181Y134146D01*
X139965Y135965D01*
X139309Y136404D01*
Y141750D01*
X139309Y141750D01*
X139076Y142920D01*
X138413Y143913D01*
X138413Y143913D01*
X126343Y155983D01*
X126394Y157398D01*
X126950Y157854D01*
X129050D01*
X129967Y158036D01*
X130500Y158393D01*
X131033Y158036D01*
X131950Y157854D01*
X134050D01*
X134967Y158036D01*
X135500Y158393D01*
X136033Y158036D01*
X136950Y157854D01*
X139050D01*
X139967Y158036D01*
X140500Y158392D01*
X141033Y158036D01*
X141950Y157854D01*
X144050D01*
X144967Y158036D01*
X145500Y158393D01*
X146033Y158036D01*
X146950Y157854D01*
X149050D01*
X149941Y157123D01*
Y94342D01*
X136770Y81170D01*
X134785Y81992D01*
X132175Y82336D01*
X129565Y81992D01*
X127132Y80985D01*
X125043Y79382D01*
X123440Y77293D01*
X122432Y74860D01*
X122089Y72250D01*
X122432Y69639D01*
X123440Y67207D01*
X125043Y65118D01*
X127132Y63515D01*
X129565Y62507D01*
X132175Y62164D01*
X134785Y62507D01*
X137218Y63515D01*
X139307Y65118D01*
X140910Y67207D01*
X141918Y69639D01*
X142261Y72250D01*
X141918Y74860D01*
X141096Y76845D01*
X155163Y90912D01*
X155163Y90912D01*
X155826Y91904D01*
X156059Y93075D01*
Y93181D01*
X157232Y93667D01*
X172975Y77924D01*
Y62250D01*
X192975D01*
Y82250D01*
X177301D01*
X161059Y98492D01*
Y141384D01*
X162329Y141839D01*
X163854Y140819D01*
X166000Y140393D01*
X168146Y140819D01*
X169965Y142035D01*
X171181Y143854D01*
X171608Y146000D01*
X171395Y147070D01*
X173717Y149391D01*
X174011Y149357D01*
X175013Y148891D01*
X175174Y148079D01*
X175250Y147966D01*
Y134000D01*
X189250D01*
Y152000D01*
X181059D01*
Y156572D01*
X181730Y157123D01*
Y167700D01*
Y178053D01*
X180822Y177872D01*
X180014Y177332D01*
X179967Y177364D01*
X179050Y177546D01*
X176950D01*
X176033Y177364D01*
X175500Y177007D01*
X174967Y177364D01*
X174050Y177546D01*
X171950D01*
X171033Y177364D01*
X170500Y177008D01*
X169967Y177364D01*
X169050Y177546D01*
X166950D01*
X166033Y177364D01*
X165500Y177007D01*
X164967Y177364D01*
X164050Y177546D01*
X161950D01*
X161033Y177364D01*
X160500Y177008D01*
X159967Y177364D01*
X159050Y177546D01*
X156950D01*
X156033Y177364D01*
X155500Y177007D01*
X154967Y177364D01*
X154050Y177546D01*
X151950D01*
X151033Y177364D01*
X150500Y177008D01*
X149967Y177364D01*
X149050Y177546D01*
X146950D01*
X146033Y177364D01*
X145500Y177007D01*
X144967Y177364D01*
X144050Y177546D01*
X141950D01*
X141033Y177364D01*
X140500Y177008D01*
X139967Y177364D01*
X139050Y177546D01*
X136950D01*
X136033Y177364D01*
X135500Y177007D01*
X134967Y177364D01*
X134050Y177546D01*
X131950D01*
X131033Y177364D01*
X130500Y177007D01*
X129967Y177364D01*
X129050Y177546D01*
X126950D01*
X126033Y177364D01*
X125500Y177008D01*
X124967Y177364D01*
X124050Y177546D01*
X121950D01*
X121033Y177364D01*
X120500Y177007D01*
X119967Y177364D01*
X119050Y177546D01*
X116950D01*
X116033Y177364D01*
X115500Y177008D01*
X114967Y177364D01*
X114050Y177546D01*
X111950D01*
X111033Y177364D01*
X110500Y177007D01*
X109967Y177364D01*
X109050Y177546D01*
X106950D01*
X106033Y177364D01*
X105500Y177008D01*
X104967Y177364D01*
X104050Y177546D01*
X101950D01*
X101033Y177364D01*
X100500Y177007D01*
X99967Y177364D01*
X99050Y177546D01*
X96950D01*
X96033Y177364D01*
X95500Y177008D01*
X94967Y177364D01*
X94050Y177546D01*
X91950D01*
X91033Y177364D01*
X90500Y177007D01*
X89967Y177364D01*
X89050Y177546D01*
X86950D01*
X86033Y177364D01*
X85500Y177008D01*
X84967Y177364D01*
X84050Y177546D01*
X81950D01*
X81033Y177364D01*
X80500Y177007D01*
X79967Y177364D01*
X79050Y177546D01*
X78168D01*
X77642Y178816D01*
X81979Y183153D01*
X82347D01*
X82347Y183153D01*
X83518Y183386D01*
X84510Y184049D01*
X90919Y190458D01*
X91250Y190392D01*
X93396Y190819D01*
X95215Y192035D01*
X96431Y193854D01*
X96858Y196000D01*
X96431Y198146D01*
X95215Y199965D01*
X93396Y201181D01*
X91250Y201608D01*
D02*
G37*
G36*
X329790Y201980D02*
X323520D01*
Y196710D01*
X329790D01*
Y201980D01*
D02*
G37*
G36*
X320980D02*
X314710D01*
Y196710D01*
X320980D01*
Y201980D01*
D02*
G37*
G36*
X482000Y202650D02*
X463000D01*
Y183650D01*
X482000D01*
Y202650D01*
D02*
G37*
G36*
X33290Y175290D02*
X25020D01*
Y169020D01*
X33290D01*
Y175290D01*
D02*
G37*
G36*
X22480D02*
X14210D01*
Y169020D01*
X22480D01*
Y175290D01*
D02*
G37*
G36*
X33290Y166480D02*
X25020D01*
Y160210D01*
X33290D01*
Y166480D01*
D02*
G37*
G36*
X22480D02*
X14210D01*
Y160210D01*
X22480D01*
Y166480D01*
D02*
G37*
G36*
X472500Y177332D02*
X470020Y177006D01*
X467709Y176049D01*
X465724Y174526D01*
X464202Y172541D01*
X463245Y170230D01*
X462918Y167750D01*
X463245Y165270D01*
X464202Y162959D01*
X465724Y160975D01*
X467709Y159452D01*
X470020Y158495D01*
X472500Y158168D01*
X474980Y158495D01*
X477291Y159452D01*
X479275Y160975D01*
X480798Y162959D01*
X481755Y165270D01*
X482082Y167750D01*
X481755Y170230D01*
X480798Y172541D01*
X479275Y174526D01*
X477291Y176049D01*
X474980Y177006D01*
X472500Y177332D01*
D02*
G37*
G36*
X372750Y157750D02*
X356250D01*
Y152557D01*
X346250D01*
Y155998D01*
X335250D01*
Y142998D01*
X346250D01*
Y146440D01*
X356250D01*
Y142750D01*
X372750D01*
Y157750D01*
D02*
G37*
G36*
X184270Y178053D02*
Y167700D01*
Y157347D01*
X185177Y157528D01*
X185986Y158068D01*
X186033Y158036D01*
X186950Y157854D01*
X189050D01*
X189967Y158036D01*
X190744Y158556D01*
X191264Y159333D01*
X191446Y160250D01*
Y164641D01*
X211784D01*
X220500Y155925D01*
Y148250D01*
X234500D01*
Y151691D01*
X241429D01*
X242035Y150785D01*
X243854Y149569D01*
X246000Y149142D01*
X248146Y149569D01*
X249965Y150785D01*
X251181Y152604D01*
X251608Y154750D01*
X251181Y156896D01*
X249965Y158715D01*
X248146Y159931D01*
X246000Y160358D01*
X243854Y159931D01*
X242035Y158715D01*
X241429Y157809D01*
X234500D01*
Y160250D01*
X224826D01*
X215214Y169863D01*
X214221Y170526D01*
X213051Y170759D01*
X213050Y170759D01*
X191446D01*
Y175150D01*
X191264Y176067D01*
X190744Y176844D01*
X189967Y177364D01*
X189050Y177546D01*
X186950D01*
X186033Y177364D01*
X185986Y177332D01*
X185177Y177872D01*
X184270Y178053D01*
D02*
G37*
G36*
X31290Y151040D02*
X26020D01*
Y144770D01*
X31290D01*
Y151040D01*
D02*
G37*
G36*
X23480D02*
X18210D01*
Y144770D01*
X23480D01*
Y151040D01*
D02*
G37*
G36*
X209790Y152540D02*
X203520D01*
Y144270D01*
X209790D01*
Y152540D01*
D02*
G37*
G36*
X200980D02*
X194710D01*
Y144270D01*
X200980D01*
Y152540D01*
D02*
G37*
G36*
X473770Y152310D02*
Y143620D01*
X482459D01*
X482281Y144971D01*
X481270Y147414D01*
X479661Y149511D01*
X477563Y151120D01*
X475121Y152132D01*
X473770Y152310D01*
D02*
G37*
G36*
X471230D02*
X469879Y152132D01*
X467437Y151120D01*
X465339Y149511D01*
X463730Y147414D01*
X462718Y144971D01*
X462541Y143620D01*
X471230D01*
Y152310D01*
D02*
G37*
G36*
X330250Y155998D02*
X319250D01*
Y147685D01*
X314240Y142675D01*
X312902D01*
X311396Y143681D01*
X309250Y144108D01*
X307104Y143681D01*
X305285Y142465D01*
X304069Y140646D01*
X303642Y138500D01*
X304069Y136354D01*
X305285Y134535D01*
X307104Y133319D01*
X309250Y132892D01*
X311396Y133319D01*
X313215Y134535D01*
X314226Y136047D01*
X315613D01*
X316881Y136300D01*
X317956Y137018D01*
X323936Y142998D01*
X330250D01*
Y155998D01*
D02*
G37*
G36*
X235040Y144790D02*
X228770D01*
Y139520D01*
X235040D01*
Y144790D01*
D02*
G37*
G36*
X226230D02*
X219960D01*
Y139520D01*
X226230D01*
Y144790D01*
D02*
G37*
G36*
X291850Y194500D02*
X281850D01*
Y148500D01*
X283191D01*
Y140071D01*
X282285Y139465D01*
X281069Y137646D01*
X281022Y137411D01*
X279727D01*
X279681Y137646D01*
X278465Y139465D01*
X277559Y140071D01*
Y148500D01*
X279150D01*
Y194500D01*
X269150D01*
Y148500D01*
X271441D01*
Y140071D01*
X270535Y139465D01*
X269319Y137646D01*
X268892Y135500D01*
X269319Y133354D01*
X270535Y131535D01*
X272354Y130319D01*
X274500Y129892D01*
X276646Y130319D01*
X278465Y131535D01*
X279681Y133354D01*
X279727Y133589D01*
X281022D01*
X281069Y133354D01*
X282285Y131535D01*
X284104Y130319D01*
X286250Y129892D01*
X288396Y130319D01*
X290215Y131535D01*
X291431Y133354D01*
X291858Y135500D01*
X291431Y137646D01*
X290215Y139465D01*
X289309Y140071D01*
Y148500D01*
X291850D01*
Y194500D01*
D02*
G37*
G36*
X31290Y142230D02*
X26020D01*
Y135960D01*
X31290D01*
Y142230D01*
D02*
G37*
G36*
X23480D02*
X18210D01*
Y135960D01*
X23480D01*
Y142230D01*
D02*
G37*
G36*
X266450Y194500D02*
X256450D01*
Y148500D01*
X257911D01*
Y146051D01*
X257035Y145465D01*
X255819Y143646D01*
X255392Y141500D01*
X255819Y139354D01*
X257035Y137535D01*
X258854Y136319D01*
X261000Y135892D01*
X263146Y136319D01*
X264965Y137535D01*
X266181Y139354D01*
X266608Y141500D01*
X266181Y143646D01*
X264965Y145465D01*
X264538Y145751D01*
Y148500D01*
X266450D01*
Y194500D01*
D02*
G37*
G36*
X209790Y141730D02*
X203520D01*
Y133460D01*
X209790D01*
Y141730D01*
D02*
G37*
G36*
X200980D02*
X194710D01*
Y133460D01*
X200980D01*
Y141730D01*
D02*
G37*
G36*
X482459Y141080D02*
X473770D01*
Y132391D01*
X475121Y132569D01*
X477563Y133580D01*
X479661Y135190D01*
X481270Y137287D01*
X482281Y139729D01*
X482459Y141080D01*
D02*
G37*
G36*
X471230D02*
X462541D01*
X462718Y139729D01*
X463730Y137287D01*
X465339Y135190D01*
X467437Y133580D01*
X469879Y132569D01*
X471230Y132391D01*
Y141080D01*
D02*
G37*
G36*
X235040Y136980D02*
X228770D01*
Y131710D01*
X235040D01*
Y136980D01*
D02*
G37*
G36*
X226230D02*
X219960D01*
Y131710D01*
X226230D01*
Y136980D01*
D02*
G37*
G36*
X372750Y124500D02*
X356250D01*
Y120806D01*
X346250D01*
Y124247D01*
X335250D01*
Y111247D01*
X346250D01*
Y114689D01*
X356250D01*
Y109500D01*
X372750D01*
Y124500D01*
D02*
G37*
G36*
X330250Y124247D02*
X319250D01*
Y120806D01*
X313574D01*
X312465Y122465D01*
X310646Y123681D01*
X308500Y124108D01*
X306354Y123681D01*
X304534Y122465D01*
X303319Y120646D01*
X302892Y118500D01*
X303319Y116354D01*
X304534Y114535D01*
X306354Y113319D01*
X308500Y112892D01*
X310646Y113319D01*
X312465Y114535D01*
X312568Y114689D01*
X319250D01*
Y111247D01*
X330250D01*
Y124247D01*
D02*
G37*
G36*
X472500Y126532D02*
X470020Y126206D01*
X467709Y125248D01*
X465724Y123726D01*
X464202Y121741D01*
X463245Y119430D01*
X462918Y116950D01*
X463245Y114470D01*
X464202Y112159D01*
X465724Y110175D01*
X467709Y108652D01*
X470020Y107695D01*
X472500Y107368D01*
X474980Y107695D01*
X477291Y108652D01*
X479275Y110175D01*
X480798Y112159D01*
X481755Y114470D01*
X482082Y116950D01*
X481755Y119430D01*
X480798Y121741D01*
X479275Y123726D01*
X477291Y125248D01*
X474980Y126206D01*
X472500Y126532D01*
D02*
G37*
G36*
X82250Y114500D02*
X71250D01*
Y101500D01*
X73691D01*
Y83267D01*
X71595Y81170D01*
X69611Y81992D01*
X67000Y82336D01*
X64390Y81992D01*
X61957Y80985D01*
X59868Y79382D01*
X58265Y77293D01*
X57258Y74860D01*
X56914Y72250D01*
X57258Y69639D01*
X58265Y67207D01*
X59868Y65118D01*
X61957Y63515D01*
X64390Y62507D01*
X67000Y62164D01*
X69611Y62507D01*
X72043Y63515D01*
X74132Y65118D01*
X75735Y67207D01*
X76743Y69639D01*
X77086Y72250D01*
X76743Y74860D01*
X75921Y76845D01*
X78913Y79837D01*
X79576Y80829D01*
X79809Y82000D01*
X79809Y82000D01*
Y101500D01*
X82250D01*
Y105691D01*
X85929D01*
X86535Y104785D01*
X88354Y103569D01*
X90500Y103142D01*
X92646Y103569D01*
X94466Y104785D01*
X95681Y106604D01*
X96108Y108750D01*
X95681Y110896D01*
X94466Y112715D01*
X92646Y113931D01*
X90500Y114358D01*
X88354Y113931D01*
X86535Y112715D01*
X85929Y111809D01*
X82250D01*
Y114500D01*
D02*
G37*
G36*
X372750Y91250D02*
X356250D01*
Y87556D01*
X346250D01*
Y90998D01*
X335250D01*
Y77998D01*
X346250D01*
Y81439D01*
X356250D01*
Y76250D01*
X372750D01*
Y91250D01*
D02*
G37*
G36*
X307500Y92608D02*
X305354Y92181D01*
X303535Y90965D01*
X302319Y89146D01*
X301892Y87000D01*
X302319Y84854D01*
X303535Y83035D01*
X305354Y81819D01*
X307500Y81392D01*
X309646Y81819D01*
X309805Y81925D01*
X310185Y81672D01*
X311355Y81439D01*
X311355Y81439D01*
X319250D01*
Y77998D01*
X330250D01*
Y90998D01*
X319250D01*
Y87556D01*
X312997D01*
X312681Y89146D01*
X311465Y90965D01*
X309646Y92181D01*
X307500Y92608D01*
D02*
G37*
G36*
X158845Y82714D02*
Y73520D01*
X168039D01*
X167844Y75001D01*
X166782Y77565D01*
X165092Y79767D01*
X162890Y81456D01*
X160326Y82519D01*
X158845Y82714D01*
D02*
G37*
G36*
X93670D02*
Y73520D01*
X102864D01*
X102669Y75001D01*
X101607Y77565D01*
X99917Y79767D01*
X97716Y81456D01*
X95152Y82519D01*
X93670Y82714D01*
D02*
G37*
G36*
X274820D02*
Y73520D01*
X284014D01*
X283819Y75001D01*
X282757Y77565D01*
X281067Y79767D01*
X278865Y81456D01*
X276301Y82519D01*
X274820Y82714D01*
D02*
G37*
G36*
X272280D02*
X270798Y82519D01*
X268234Y81456D01*
X266033Y79767D01*
X264343Y77565D01*
X263281Y75001D01*
X263086Y73520D01*
X272280D01*
Y82714D01*
D02*
G37*
G36*
X91130D02*
X89649Y82519D01*
X87085Y81456D01*
X84883Y79767D01*
X83194Y77565D01*
X82131Y75001D01*
X81936Y73520D01*
X91130D01*
Y82714D01*
D02*
G37*
G36*
X156305D02*
X154824Y82519D01*
X152260Y81456D01*
X150058Y79767D01*
X148368Y77565D01*
X147306Y75001D01*
X147111Y73520D01*
X156305D01*
Y82714D01*
D02*
G37*
G36*
X232750Y82250D02*
X212750D01*
Y62250D01*
X232750D01*
Y82250D01*
D02*
G37*
G36*
X66250Y114500D02*
X55250D01*
Y105826D01*
X39437Y90013D01*
X38774Y89021D01*
X38541Y87850D01*
X38541Y87850D01*
Y82250D01*
X31600D01*
Y62250D01*
X51600D01*
Y82250D01*
X44659D01*
Y86583D01*
X59576Y101500D01*
X66250D01*
Y114500D01*
D02*
G37*
G36*
X248150Y82336D02*
X245539Y81992D01*
X243107Y80985D01*
X241018Y79382D01*
X239415Y77293D01*
X238407Y74860D01*
X238064Y72250D01*
X238407Y69639D01*
X239415Y67207D01*
X241018Y65118D01*
X243107Y63515D01*
X245539Y62507D01*
X248150Y62164D01*
X250760Y62507D01*
X253193Y63515D01*
X255282Y65118D01*
X256885Y67207D01*
X257892Y69639D01*
X258236Y72250D01*
X257892Y74860D01*
X256885Y77293D01*
X255282Y79382D01*
X253193Y80985D01*
X250760Y81992D01*
X248150Y82336D01*
D02*
G37*
G36*
X168039Y70980D02*
X158845D01*
Y61786D01*
X160326Y61981D01*
X162890Y63043D01*
X165092Y64733D01*
X166782Y66934D01*
X167844Y69498D01*
X168039Y70980D01*
D02*
G37*
G36*
X284014D02*
X274820D01*
Y61786D01*
X276301Y61981D01*
X278865Y63043D01*
X281067Y64733D01*
X282757Y66934D01*
X283819Y69498D01*
X284014Y70980D01*
D02*
G37*
G36*
X102864D02*
X93670D01*
Y61786D01*
X95152Y61981D01*
X97716Y63043D01*
X99917Y64733D01*
X101607Y66934D01*
X102669Y69498D01*
X102864Y70980D01*
D02*
G37*
G36*
X272280D02*
X263086D01*
X263281Y69498D01*
X264343Y66934D01*
X266033Y64733D01*
X268234Y63043D01*
X270798Y61981D01*
X272280Y61786D01*
Y70980D01*
D02*
G37*
G36*
X91130D02*
X81936D01*
X82131Y69498D01*
X83194Y66934D01*
X84883Y64733D01*
X87085Y63043D01*
X89649Y61981D01*
X91130Y61786D01*
Y70980D01*
D02*
G37*
G36*
X156305D02*
X147111D01*
X147306Y69498D01*
X148368Y66934D01*
X150058Y64733D01*
X152260Y63043D01*
X154824Y61981D01*
X156305Y61786D01*
Y70980D01*
D02*
G37*
%LPD*%
G36*
X294686Y893877D02*
Y885155D01*
X294650Y883900D01*
X293416Y883900D01*
X275650D01*
Y864900D01*
X294650Y864900D01*
X294686Y863645D01*
Y863214D01*
X285657Y854184D01*
X284939Y853109D01*
X284686Y851841D01*
Y850250D01*
X282000D01*
Y836250D01*
X284431D01*
Y829000D01*
X277250D01*
Y801000D01*
X282162D01*
Y784900D01*
X280849Y783588D01*
X261900D01*
X261750Y783739D01*
Y790250D01*
X247750D01*
Y787564D01*
X242013D01*
X241268Y788061D01*
X240000Y788314D01*
X225573D01*
X209765Y804121D01*
X210292Y805391D01*
X214091D01*
X217395Y802087D01*
X217395Y802087D01*
X218387Y801424D01*
X219558Y801191D01*
X224179D01*
X224785Y800285D01*
X226604Y799069D01*
X228486Y798695D01*
X228569Y798495D01*
X228142Y796349D01*
X228569Y794203D01*
X229785Y792384D01*
X231604Y791168D01*
X233750Y790742D01*
X235896Y791168D01*
X237715Y792384D01*
X238931Y794203D01*
X239358Y796349D01*
X238931Y798495D01*
X237871Y800081D01*
X238076Y800387D01*
X238309Y801558D01*
X238530Y802710D01*
X243730D01*
Y811750D01*
X245000D01*
Y813020D01*
X253040D01*
Y816365D01*
X254213Y816851D01*
X255500Y815564D01*
Y803250D01*
X259686D01*
Y800250D01*
X259938Y798982D01*
X260657Y797907D01*
X263921Y794643D01*
X263892Y794500D01*
X264319Y792354D01*
X265535Y790535D01*
X267354Y789319D01*
X269500Y788892D01*
X271646Y789319D01*
X273465Y790535D01*
X274681Y792354D01*
X275108Y794500D01*
X274681Y796646D01*
X273465Y798465D01*
X271646Y799681D01*
X269500Y800108D01*
X268106Y799830D01*
X266313Y801622D01*
Y803250D01*
X270500D01*
Y820250D01*
X260186D01*
X255996Y824440D01*
X256522Y825710D01*
X261730D01*
Y833480D01*
X254960D01*
Y827043D01*
X253794Y826328D01*
X253690Y826327D01*
X252500Y826564D01*
X252500D01*
Y843250D01*
X248313D01*
Y846704D01*
X248061Y847972D01*
X247343Y849047D01*
X246031Y850359D01*
X246358Y852000D01*
X245931Y854146D01*
X244715Y855965D01*
X242896Y857181D01*
X240750Y857608D01*
X238604Y857181D01*
X236785Y855965D01*
X235569Y854146D01*
X235142Y852000D01*
X235569Y849854D01*
X236785Y848035D01*
X238604Y846819D01*
X240594Y846423D01*
X241686Y845331D01*
Y843250D01*
X237500D01*
Y838314D01*
X235250D01*
X233982Y838061D01*
X232907Y837343D01*
X222328Y826764D01*
X216392D01*
X215906Y827937D01*
X217594Y829625D01*
X219378Y829270D01*
X221524Y829697D01*
X223343Y830913D01*
X224559Y832732D01*
X224986Y834878D01*
X224559Y837024D01*
X223343Y838843D01*
X221524Y840059D01*
X220184Y840325D01*
X219592Y841725D01*
X220178Y842601D01*
X220604Y844747D01*
X220178Y846893D01*
X218962Y848712D01*
X217143Y849928D01*
X214997Y850355D01*
X212851Y849928D01*
X211191Y848819D01*
X210790Y848764D01*
X209695Y848999D01*
X208715Y850465D01*
X206896Y851681D01*
X204750Y852108D01*
X204551Y852068D01*
X203925Y853239D01*
X205593Y854907D01*
X206311Y855982D01*
X206564Y857250D01*
Y869520D01*
X207834Y869773D01*
X207901Y869609D01*
X209424Y867625D01*
X211409Y866102D01*
X213720Y865145D01*
X216200Y864818D01*
X218680Y865145D01*
X220991Y866102D01*
X222975Y867625D01*
X224498Y869609D01*
X225455Y871920D01*
X225782Y874400D01*
X225455Y876880D01*
X224498Y879191D01*
X222975Y881176D01*
X220991Y882698D01*
X218680Y883656D01*
X216200Y883982D01*
X213720Y883656D01*
X211409Y882698D01*
X209424Y881176D01*
X207901Y879191D01*
X207834Y879028D01*
X206564Y879280D01*
Y892878D01*
X218623Y904936D01*
X283627D01*
X294686Y893877D01*
D02*
G37*
G36*
X180497Y829607D02*
X181550Y829397D01*
X182950D01*
X184004Y829607D01*
X184750Y830105D01*
X185496Y829607D01*
X186550Y829397D01*
X187950D01*
X189003Y829607D01*
X189750Y830106D01*
X190497Y829607D01*
X191550Y829397D01*
X192950D01*
X194004Y829607D01*
X194750Y830105D01*
X195496Y829607D01*
X196550Y829397D01*
X196952D01*
X197991Y829191D01*
X198197Y828152D01*
Y827750D01*
X198407Y826696D01*
X198905Y825950D01*
X198407Y825204D01*
X198197Y824150D01*
Y822750D01*
X198407Y821697D01*
X198905Y820950D01*
X198407Y820203D01*
X198197Y819150D01*
Y817750D01*
X198407Y816696D01*
X198905Y815950D01*
X198407Y815204D01*
X198197Y814150D01*
Y812750D01*
X198407Y811697D01*
X198905Y810950D01*
X198407Y810203D01*
X198197Y809150D01*
Y807750D01*
X198407Y806696D01*
X198905Y805950D01*
X198407Y805204D01*
X198197Y804150D01*
Y803749D01*
X197991Y802709D01*
X196952Y802503D01*
X196550D01*
X195496Y802294D01*
X194750Y801795D01*
X194004Y802294D01*
X192950Y802503D01*
X191550D01*
X190497Y802294D01*
X189750Y801795D01*
X189003Y802294D01*
X187950Y802503D01*
X186550D01*
X185496Y802294D01*
X184750Y801795D01*
X184004Y802294D01*
X182950Y802503D01*
X181550D01*
X180497Y802294D01*
X179750Y801795D01*
X179003Y802294D01*
X177950Y802503D01*
X176550D01*
X175496Y802294D01*
X174750Y801795D01*
X174004Y802294D01*
X172950Y802503D01*
X172548D01*
X171509Y802709D01*
X171303Y803749D01*
Y804150D01*
X171093Y805203D01*
X170595Y805950D01*
X171093Y806696D01*
X171303Y807750D01*
Y809150D01*
X171093Y810203D01*
X170595Y810950D01*
X171093Y811697D01*
X171303Y812750D01*
Y814150D01*
X171093Y815204D01*
X170595Y815950D01*
X171093Y816696D01*
X171303Y817750D01*
Y819150D01*
X171093Y820203D01*
X170595Y820950D01*
X171093Y821697D01*
X171303Y822750D01*
Y824150D01*
X171093Y825204D01*
X170595Y825950D01*
X171093Y826696D01*
X171303Y827750D01*
Y828152D01*
X171509Y829191D01*
X172548Y829397D01*
X172950D01*
X174004Y829607D01*
X174750Y830105D01*
X175496Y829607D01*
X176550Y829397D01*
X177950D01*
X179003Y829607D01*
X179750Y830106D01*
X180497Y829607D01*
D02*
G37*
G36*
X295533Y757022D02*
X286600Y748088D01*
X242500D01*
Y753000D01*
X214500D01*
Y748088D01*
X202588D01*
X201713Y748965D01*
X201678Y749439D01*
X205936Y753698D01*
X206256Y753761D01*
X207744Y754756D01*
X211244Y758256D01*
X212239Y759744D01*
X212588Y761500D01*
Y763000D01*
X213500D01*
Y774936D01*
X216750D01*
Y772750D01*
X229750D01*
Y781686D01*
X238737D01*
X239482Y781189D01*
X240750Y780936D01*
X247750D01*
Y778250D01*
X254261D01*
X256451Y776060D01*
X256021Y774790D01*
X256020D01*
Y769520D01*
X262290D01*
Y774412D01*
X282750D01*
X284506Y774761D01*
X285994Y775756D01*
X289994Y779755D01*
X290989Y781244D01*
X291338Y783000D01*
Y801000D01*
X295533D01*
Y757022D01*
D02*
G37*
G36*
X174250Y776000D02*
Y763000D01*
X180041D01*
Y745746D01*
X172666Y738370D01*
X171325Y738825D01*
X171185Y739888D01*
X170225Y742206D01*
X168697Y744197D01*
X166706Y745725D01*
X164388Y746685D01*
X163170Y746845D01*
Y737400D01*
X161900D01*
Y736130D01*
X152455D01*
X152615Y734912D01*
X153576Y732594D01*
X154136Y731864D01*
X153510Y730594D01*
X144210D01*
X143584Y731864D01*
X144353Y732866D01*
X145259Y735053D01*
X145568Y737400D01*
X145259Y739747D01*
X144353Y741934D01*
X142912Y743812D01*
X141034Y745253D01*
X138847Y746159D01*
X136500Y746468D01*
X134153Y746159D01*
X131966Y745253D01*
X130088Y743812D01*
X128647Y741934D01*
X127741Y739747D01*
X127433Y737400D01*
X127741Y735053D01*
X128647Y732866D01*
X130088Y730988D01*
X131966Y729547D01*
X133187Y729042D01*
Y725409D01*
X133331Y724681D01*
X133439Y724142D01*
X133439Y724142D01*
X133439Y724141D01*
X133790Y723615D01*
X134157Y723067D01*
X135474Y721748D01*
X135475Y721748D01*
X135475Y721748D01*
X135991Y721403D01*
X136518Y721051D01*
X136551Y721027D01*
X136923Y719660D01*
X133089Y715826D01*
X131843Y716074D01*
X131653Y716534D01*
X130212Y718412D01*
X128334Y719853D01*
X126147Y720759D01*
X123800Y721068D01*
X121453Y720759D01*
X119266Y719853D01*
X117388Y718412D01*
X115947Y716534D01*
X115042Y714347D01*
X114733Y712000D01*
X115042Y709653D01*
X115947Y707466D01*
X116809Y706344D01*
X116183Y705073D01*
X110013D01*
X106653Y708433D01*
X107159Y709653D01*
X107468Y712000D01*
X107159Y714347D01*
X106253Y716534D01*
X104812Y718412D01*
X102934Y719853D01*
X100747Y720759D01*
X99344Y720943D01*
X98889Y722284D01*
X102783Y726179D01*
X103231Y726849D01*
X103501Y727254D01*
X103753Y728522D01*
Y730261D01*
X105023Y730731D01*
X106566Y729547D01*
X108753Y728642D01*
X111100Y728333D01*
X113447Y728642D01*
X115634Y729547D01*
X117512Y730988D01*
X118953Y732866D01*
X119859Y735053D01*
X120168Y737400D01*
X119859Y739747D01*
X118953Y741934D01*
X117512Y743812D01*
X115634Y745253D01*
X113447Y746159D01*
X112044Y746343D01*
X111589Y747684D01*
X117301Y753397D01*
X123125D01*
X123907Y753552D01*
X124392Y753649D01*
X124392Y753649D01*
X124393Y753649D01*
X124808Y753926D01*
X125468Y754367D01*
X129738Y758637D01*
X129738Y758637D01*
X129738Y758637D01*
X129952Y758957D01*
X130457Y759712D01*
X130457Y759712D01*
X130457Y759712D01*
X130575Y760308D01*
X130709Y760980D01*
X130709Y760980D01*
X130709Y760981D01*
Y763000D01*
X136500D01*
Y776000D01*
X137456Y776758D01*
X140544D01*
X141500Y776000D01*
X141500Y775487D01*
Y763000D01*
X142287D01*
Y760970D01*
X141569Y759896D01*
X141142Y757750D01*
X141569Y755604D01*
X142785Y753785D01*
X144604Y752569D01*
X146750Y752142D01*
X148896Y752569D01*
X150715Y753785D01*
X151931Y755604D01*
X152358Y757750D01*
X151931Y759896D01*
X151463Y760596D01*
Y763000D01*
X152500D01*
Y775487D01*
X152500Y776000D01*
X153456Y776758D01*
X157294D01*
X158250Y776000D01*
X158250Y775487D01*
Y763000D01*
X159037D01*
Y761220D01*
X158319Y760146D01*
X157892Y758000D01*
X158319Y755854D01*
X159535Y754035D01*
X161354Y752819D01*
X163500Y752392D01*
X165646Y752819D01*
X167465Y754035D01*
X168681Y755854D01*
X169108Y758000D01*
X168681Y760146D01*
X168213Y760846D01*
Y763000D01*
X169250D01*
Y775487D01*
X169250Y776000D01*
X170207Y776758D01*
X173294D01*
X174250Y776000D01*
D02*
G37*
%LPC*%
G36*
X241600Y883982D02*
X239120Y883656D01*
X236809Y882698D01*
X234824Y881176D01*
X233302Y879191D01*
X232344Y876880D01*
X232018Y874400D01*
X232344Y871920D01*
X233302Y869609D01*
X234824Y867625D01*
X236809Y866102D01*
X239120Y865145D01*
X241600Y864818D01*
X244080Y865145D01*
X246391Y866102D01*
X248375Y867625D01*
X249898Y869609D01*
X250855Y871920D01*
X251182Y874400D01*
X250855Y876880D01*
X249898Y879191D01*
X248375Y881176D01*
X246391Y882698D01*
X244080Y883656D01*
X241600Y883982D01*
D02*
G37*
G36*
X271040Y843790D02*
X264270D01*
Y836020D01*
X271040D01*
Y843790D01*
D02*
G37*
G36*
X261730D02*
X254960D01*
Y836020D01*
X261730D01*
Y843790D01*
D02*
G37*
G36*
X271040Y833480D02*
X264270D01*
Y825710D01*
X271040D01*
Y833480D01*
D02*
G37*
G36*
X253040Y810480D02*
X246270D01*
Y802710D01*
X253040D01*
Y810480D01*
D02*
G37*
G36*
X253480Y774790D02*
X247210D01*
Y769520D01*
X253480D01*
Y774790D01*
D02*
G37*
G36*
X230290Y768290D02*
X224520D01*
Y763520D01*
X230290D01*
Y768290D01*
D02*
G37*
G36*
X221980D02*
X216210D01*
Y763520D01*
X221980D01*
Y768290D01*
D02*
G37*
G36*
X262290Y766980D02*
X256020D01*
Y761710D01*
X262290D01*
Y766980D01*
D02*
G37*
G36*
X253480D02*
X247210D01*
Y761710D01*
X253480D01*
Y766980D01*
D02*
G37*
G36*
X230290Y760980D02*
X224520D01*
Y756210D01*
X230290D01*
Y760980D01*
D02*
G37*
G36*
X221980D02*
X216210D01*
Y756210D01*
X221980D01*
Y760980D01*
D02*
G37*
G36*
X160630Y746845D02*
X159412Y746685D01*
X157094Y745725D01*
X155103Y744197D01*
X153576Y742206D01*
X152615Y739888D01*
X152455Y738670D01*
X160630D01*
Y746845D01*
D02*
G37*
%LPD*%
D10*
X150479Y834735D02*
Y846116D01*
X141500Y837350D02*
Y845500D01*
X133500Y838000D02*
X158050Y813450D01*
X141500Y837350D02*
X160250Y818600D01*
X268750Y794500D02*
X269500D01*
X203250Y857250D02*
Y894250D01*
X217250Y908250D02*
X285000D01*
X203250Y894250D02*
X217250Y908250D01*
X285000D02*
X298000Y895250D01*
Y861841D02*
Y895250D01*
X288000Y851841D02*
X298000Y861841D01*
X288000Y843250D02*
Y851841D01*
X187250Y841250D02*
X203250Y857250D01*
X188395Y742286D02*
Y764932D01*
X244750Y835000D02*
X245000Y834750D01*
X235250Y835000D02*
X244750D01*
X203700Y823450D02*
X223700D01*
X235250Y835000D01*
X245000Y834750D02*
Y846704D01*
X240750Y850954D02*
X245000Y846704D01*
X240750Y850954D02*
Y852000D01*
X205150Y834900D02*
X214997Y844747D01*
X211732Y828450D02*
X218160Y834878D01*
X219378D01*
X150479Y834735D02*
X161614Y823600D01*
X161614D01*
X149019Y791861D02*
X154158Y797000D01*
X172250D01*
X240000Y785000D02*
X240750Y784250D01*
X205750Y803450D02*
X224201Y785000D01*
X240000D01*
X240750Y784250D02*
X254750D01*
X197250Y790300D02*
Y797000D01*
Y790300D02*
X209300Y778250D01*
X223250D01*
X177250Y850000D02*
X180500Y853250D01*
X177250Y849704D02*
Y850000D01*
X177100Y849554D02*
X177250Y849704D01*
X261000Y141500D02*
X261225Y141725D01*
X203700Y828450D02*
X211732D01*
X225500Y204500D02*
X237250Y216250D01*
X73000Y377000D02*
Y391500D01*
X111000Y429500D01*
X324750Y148499D02*
Y149498D01*
X315613Y139361D02*
X324750Y148499D01*
X310111Y139361D02*
X315613D01*
X309250Y138500D02*
X310111Y139361D01*
X261225Y181275D02*
X261450Y181500D01*
X261225Y141725D02*
Y181275D01*
X197250Y834900D02*
X205150D01*
X245750Y216250D02*
X246000Y216500D01*
X237250Y216250D02*
X245750D01*
X204800Y204500D02*
X225500D01*
X160250Y851250D02*
Y852375D01*
X172250Y834900D02*
Y849500D01*
X177100Y835050D02*
Y849554D01*
X182250Y844364D02*
X188750Y850864D01*
X182250Y834900D02*
Y844364D01*
X160250Y851250D02*
X165800Y845700D01*
Y828450D02*
Y845700D01*
X136000Y861500D02*
X185250D01*
X187250Y834900D02*
Y841250D01*
X188750Y850864D02*
Y858000D01*
X185250Y861500D02*
X188750Y858000D01*
X170500Y851250D02*
Y852500D01*
Y851250D02*
X172250Y849500D01*
X263000Y800250D02*
Y811750D01*
Y800250D02*
X268750Y794500D01*
X263000Y811750D02*
Y812750D01*
X252500Y823250D02*
X263000Y812750D01*
X238175Y823250D02*
X252500D01*
X203700Y818450D02*
X233375D01*
X238175Y823250D01*
X158050Y813450D02*
X165800D01*
X165650Y818600D02*
X165800Y818450D01*
X160250Y818600D02*
X165650D01*
Y823600D02*
X165800Y823450D01*
X161614Y823600D02*
X165650D01*
X177100Y835050D02*
X177250Y834900D01*
X203700Y803450D02*
X205750D01*
X154998Y722120D02*
X168229D01*
X188395Y742286D01*
X183355Y744373D02*
Y764932D01*
X136500Y725409D02*
X137818Y724091D01*
X142871Y727280D02*
X156966D01*
X157086Y727160D02*
X166141D01*
X183355Y744373D01*
X156966Y727280D02*
X157086Y727160D01*
X139682Y724091D02*
X142871Y727280D01*
X137818Y724091D02*
X139682D01*
X136500Y725409D02*
Y737400D01*
X179750Y769500D02*
Y770500D01*
Y768500D02*
Y769500D01*
X192000D02*
Y770500D01*
Y768500D02*
Y769500D01*
X100440Y741221D02*
X115929Y756710D01*
X85700Y724645D02*
X87018Y723327D01*
X88882D01*
X95940Y730386D01*
Y743086D01*
X97296Y744442D01*
Y745206D01*
X113841Y761750D01*
X123125Y756710D02*
X127395Y760981D01*
Y764932D01*
X115929Y756710D02*
X123125D01*
X121037Y761750D02*
X122355Y763068D01*
Y764932D01*
X113841Y761750D02*
X121037D01*
X85700Y724645D02*
Y737400D01*
X118750Y769500D02*
Y770500D01*
Y768500D02*
Y769500D01*
X131000D02*
Y770500D01*
Y768500D02*
Y769500D01*
X98400Y712000D02*
X108640Y701760D01*
X128041D01*
X134040Y707758D01*
Y712091D01*
X141000Y719051D01*
X141770D01*
X144958Y722240D01*
X154879D01*
X154998Y722120D01*
X73000Y712000D02*
X81317Y720317D01*
X83665D01*
X85154Y718828D01*
X90746D01*
X100440Y728522D01*
Y741221D01*
X128750Y766250D02*
X131000Y768500D01*
X128713Y766250D02*
X128750D01*
X127395Y764932D02*
X128713Y766250D01*
X121037D02*
X122355Y764932D01*
X121000Y766250D02*
X121037D01*
X118750Y768500D02*
X121000Y766250D01*
X182037D02*
X183355Y764932D01*
X182000Y766250D02*
X182037D01*
X179750Y768500D02*
X182000Y766250D01*
X189750D02*
X192000Y768500D01*
X189713Y766250D02*
X189750D01*
X188395Y764932D02*
X189713Y766250D01*
X182250Y787774D02*
Y797000D01*
X174547Y780071D02*
X182250Y787774D01*
X131534Y780071D02*
X174547D01*
X128750Y772750D02*
X131000Y770500D01*
X127395Y775932D02*
X131534Y780071D01*
X128713Y772750D02*
X128750D01*
X127395Y774068D02*
Y775932D01*
Y774068D02*
X128713Y772750D01*
X177210Y796960D02*
X177250Y797000D01*
X177210Y789862D02*
Y796960D01*
X172459Y785111D02*
X177210Y789862D01*
X122355Y778020D02*
X129447Y785111D01*
X172459D01*
X122355Y774068D02*
Y778020D01*
X121037Y772750D02*
X122355Y774068D01*
X118750Y770500D02*
X121000Y772750D01*
X121037D01*
X192250Y784282D02*
Y797000D01*
X189713Y772750D02*
X189750D01*
X192000Y770500D01*
X188395Y780428D02*
X192250Y784282D01*
X188395Y774068D02*
X189713Y772750D01*
X188395Y774068D02*
Y780428D01*
X187210Y796960D02*
X187250Y797000D01*
X187210Y786370D02*
Y796960D01*
X183355Y782515D02*
X187210Y786370D01*
X183355Y774068D02*
Y782515D01*
X182037Y772750D02*
X183355Y774068D01*
X182000Y772750D02*
X182037D01*
X179750Y770500D02*
X182000Y772750D01*
D11*
X228000Y154750D02*
X246000D01*
X129500Y818250D02*
X132000D01*
X146800Y803450D01*
X133500Y827000D02*
X152050Y808450D01*
X216020Y274500D02*
X223761Y282241D01*
X204800Y274500D02*
X216020D01*
X223761Y282241D02*
Y283014D01*
X168672Y375250D02*
X179000D01*
X167500Y420500D02*
X173750Y426750D01*
X167500Y376422D02*
Y420500D01*
Y376422D02*
X168672Y375250D01*
X153000Y307651D02*
X187000Y273651D01*
Y266750D02*
Y273651D01*
X178000Y256750D02*
Y268250D01*
X148000Y298250D02*
X178000Y268250D01*
X233750Y796349D02*
X233750Y796349D01*
Y800058D01*
X203793Y845543D02*
X204750Y846500D01*
X199211Y845543D02*
X203793D01*
X223251Y810750D02*
X231442D01*
X220550Y813450D02*
X223251Y810750D01*
X215358Y808450D02*
X219558Y804250D01*
X233750Y800058D02*
X235250Y801558D01*
Y806942D01*
X231442Y810750D02*
X235250Y806942D01*
X219558Y804250D02*
X228750D01*
X203700Y808450D02*
X215358D01*
X203700Y813450D02*
X220550D01*
X153000Y307651D02*
Y321300D01*
X82347Y186212D02*
X91250Y195115D01*
X80712Y186212D02*
X82347D01*
X73000Y178500D02*
X80712Y186212D01*
X73000Y167700D02*
Y178500D01*
X81000Y141500D02*
X88000Y148500D01*
Y167700D01*
X222558Y273192D02*
X231750D01*
X218866Y269500D02*
X222558Y273192D01*
X204800Y269500D02*
X218866D01*
X71000Y206062D02*
Y227500D01*
X59838Y194900D02*
X71000Y206062D01*
X51600Y194900D02*
X59838D01*
X51200Y194500D02*
X51600Y194900D01*
X192650Y838983D02*
X199211Y845543D01*
X40750Y143500D02*
X56250D01*
X98375Y132375D02*
X98750Y132000D01*
X110750Y143000D02*
Y144353D01*
X108000Y147103D02*
X110750Y144353D01*
X245501Y342250D02*
X252500Y335250D01*
X228000Y342250D02*
X245501D01*
X252500Y335250D02*
X278500D01*
X204800Y264500D02*
X205200Y264900D01*
X223458D02*
X224000Y265442D01*
X205200Y264900D02*
X223458D01*
X230750Y230750D02*
X245750D01*
X77501Y108750D02*
X90500D01*
X98375Y132375D02*
Y167325D01*
X98000Y167700D02*
X98375Y167325D01*
X76750Y108000D02*
X77501Y108750D01*
X166000Y146000D02*
X173000Y153000D01*
X125043Y141707D02*
X126721Y140029D01*
X173000Y153000D02*
Y167700D01*
X125043Y141707D02*
Y147207D01*
X158000Y97225D02*
X182975Y72250D01*
X132175D02*
X153000Y93075D01*
X158000Y97225D02*
Y167700D01*
X153000Y93075D02*
Y167700D01*
X103000Y138250D02*
X109000Y132250D01*
X136000Y132000D02*
X136250Y132250D01*
Y141750D01*
X308853Y87000D02*
X311355Y84498D01*
X307500Y87000D02*
X308853D01*
X274500Y135500D02*
Y181150D01*
X234616Y197227D02*
X236273D01*
X234245Y197598D02*
X234616Y197227D01*
X231147Y194501D02*
X234245Y197598D01*
X231147Y194500D02*
Y194501D01*
X227500Y154250D02*
X228000Y154750D01*
X311355Y84498D02*
X324750D01*
X175094Y299500D02*
X184000D01*
X178307Y288000D02*
X184500D01*
X91250Y195115D02*
Y196000D01*
X78250Y243958D02*
X78258Y243950D01*
X78250Y243958D02*
Y246500D01*
X60650Y264100D02*
X78250Y246500D01*
X78805Y193520D02*
X80462D01*
X68000Y183750D02*
X78288Y194038D01*
X78805Y193520D01*
X69075Y267425D02*
X72970D01*
X73851Y266544D01*
X67000Y269500D02*
X69075Y267425D01*
X51200Y274500D02*
X73000D01*
X73250Y274250D02*
X78500D01*
X73000Y274500D02*
X73250Y274250D01*
X85750Y300750D02*
X101000D01*
X135500Y355000D02*
X138500D01*
X163000Y311594D02*
X175094Y299500D01*
X163000Y311594D02*
Y321300D01*
Y339750D01*
X158000Y308307D02*
X178307Y288000D01*
X158000Y308307D02*
Y321300D01*
X148000Y298250D02*
Y321300D01*
X188000Y167700D02*
X213051D01*
X226500Y154250D01*
X163000Y339750D02*
X198250Y375000D01*
X199250D01*
X133000Y321300D02*
Y340750D01*
X134250Y342000D02*
Y353750D01*
X135500Y355000D01*
X133000Y340750D02*
X134250Y342000D01*
X178000Y149250D02*
Y167700D01*
X182250Y143000D02*
Y145000D01*
X178000Y149250D02*
X182250Y145000D01*
X138000Y336175D02*
X143575Y341750D01*
X179000Y362500D02*
Y375250D01*
X158250Y341750D02*
X179000Y362500D01*
X143575Y341750D02*
X158250D01*
X214500Y320750D02*
X227000D01*
X204800Y304500D02*
Y311050D01*
X214500Y320750D01*
X83000Y321300D02*
Y357250D01*
X88500Y362750D01*
X63171Y295672D02*
Y334328D01*
X48750Y348750D02*
Y362500D01*
Y348750D02*
X63171Y334328D01*
X51200Y167950D02*
Y184500D01*
X41000Y143750D02*
Y157750D01*
X51200Y167950D01*
X40750Y143500D02*
X41000Y143750D01*
X98000Y321300D02*
Y341425D01*
X103000Y346425D01*
Y361000D01*
X188000Y321300D02*
X202800D01*
X212000Y330500D02*
Y342250D01*
X202800Y321300D02*
X212000Y330500D01*
X73000Y321300D02*
Y361000D01*
X25500Y189500D02*
X51200D01*
X23750Y187750D02*
X25500Y189500D01*
X138000Y321300D02*
Y336175D01*
X51200Y294500D02*
X62000D01*
X63171Y295672D01*
X128000Y321300D02*
Y341750D01*
X137250Y397000D02*
Y398000D01*
X128625Y388375D02*
X137250Y397000D01*
X128125Y388375D02*
X128625D01*
X125250Y385500D02*
X128125Y388375D01*
X125250Y344500D02*
Y385500D01*
Y344500D02*
X128000Y341750D01*
X88000Y321300D02*
Y361250D01*
X226500Y154250D02*
X227500D01*
X48500Y362250D02*
X48750Y362500D01*
X32750Y362250D02*
X48500D01*
X483250Y933750D02*
Y934750D01*
X456500Y907000D02*
X483250Y933750D01*
X442500Y934250D02*
X466750D01*
X467250Y934750D01*
X51200Y264500D02*
X51600Y264100D01*
X60650D01*
X51200Y269500D02*
X67000D01*
X214500Y214500D02*
X230750Y230750D01*
X204800Y214500D02*
X214500D01*
X340750Y84498D02*
X363752D01*
X364500Y83750D01*
X340750Y117747D02*
X363753D01*
X364500Y117000D01*
X340750Y149498D02*
X363748D01*
X364500Y150250D01*
X309253Y117747D02*
X324750D01*
X308500Y118500D02*
X309253Y117747D01*
X299550Y181500D02*
Y182250D01*
X301550Y184250D01*
X319250D01*
X322250Y187250D01*
X274150Y181500D02*
X274500Y181150D01*
X286250Y180900D02*
X286850Y181500D01*
X286250Y135500D02*
Y180900D01*
X204800Y194500D02*
X231147D01*
X204800Y184500D02*
X211200D01*
X218744Y176957D01*
X220293D01*
X221250Y176000D01*
X76750Y82000D02*
Y108000D01*
X67000Y72250D02*
X76750Y82000D01*
X60750Y107000D02*
Y108000D01*
X41600Y87850D02*
X60750Y107000D01*
X41600Y72250D02*
Y87850D01*
X123000Y155000D02*
Y167700D01*
Y155000D02*
X136250Y141750D01*
X118000Y154250D02*
X125043Y147207D01*
X118000Y154250D02*
Y167700D01*
X119500Y132250D02*
Y147000D01*
X113000Y153500D02*
X119500Y147000D01*
X113000Y153500D02*
Y167700D01*
X108000Y147103D02*
Y167700D01*
X103000Y138250D02*
Y167700D01*
X93000Y140000D02*
Y167700D01*
X88250Y135250D02*
X93000Y140000D01*
X131444Y416250D02*
X137250Y410444D01*
Y398000D02*
Y410444D01*
X131444Y416250D02*
Y417250D01*
X68000Y167700D02*
Y183750D01*
X88000Y361250D02*
X89500Y362750D01*
X82500Y368750D02*
X88500Y362750D01*
X67500Y368750D02*
X82500D01*
X61250Y362500D02*
X67500Y368750D01*
X48750Y362500D02*
X61250D01*
X106250Y362750D02*
X106500Y363000D01*
X89500Y362750D02*
X106250D01*
X88500D02*
X89500D01*
X78000Y308500D02*
Y321300D01*
Y308500D02*
X85750Y300750D01*
X68000Y307000D02*
X83750Y291250D01*
X68000Y307000D02*
Y321300D01*
X145000Y361000D02*
Y361500D01*
X150754Y370504D02*
X155250Y375000D01*
X145000Y361500D02*
X150754Y367253D01*
Y370504D01*
X138500Y355000D02*
X139000D01*
X145000Y361000D01*
X113000Y321300D02*
Y339647D01*
X110250Y342397D02*
X113000Y339647D01*
X110250Y342397D02*
Y343750D01*
X146800Y803450D02*
X165800D01*
X152050Y808450D02*
X165800D01*
X192250Y834900D02*
X192650Y835300D01*
Y838983D01*
D15*
X309750Y391750D02*
X420000D01*
X296750Y378750D02*
X309750Y391750D01*
X296750Y377750D02*
Y378750D01*
X419500Y352750D02*
X420000Y353251D01*
Y391750D01*
X286750Y815000D02*
X288000Y816250D01*
Y843250D01*
D17*
X236250Y208500D02*
X273850D01*
X286850Y221500D01*
X253500Y202000D02*
X292500D01*
X299550Y209050D02*
Y229500D01*
X292500Y202000D02*
X299550Y209050D01*
X255079Y215170D02*
X267820D01*
X204800Y199500D02*
X227250D01*
X236250Y208500D01*
X204800Y189500D02*
X241000D01*
X253500Y202000D01*
X204800Y209500D02*
X220000D01*
X233770Y223270D01*
X252262D01*
X253750Y221782D01*
Y216500D02*
Y221782D01*
Y216500D02*
X255079Y215170D01*
X274150Y221500D02*
Y229500D01*
X267820Y215170D02*
X274150Y221500D01*
X120250Y336543D02*
Y337750D01*
Y336543D02*
X123000Y333793D01*
Y321300D02*
Y333793D01*
X286850Y221500D02*
Y229500D01*
D22*
X228000Y342250D02*
D03*
X212000D02*
D03*
X246000Y293750D02*
D03*
X230000D02*
D03*
X324750Y149498D02*
D03*
X340750D02*
D03*
X324750Y117747D02*
D03*
X340750D02*
D03*
X324750Y84498D02*
D03*
X340750D02*
D03*
X151500Y355000D02*
D03*
X135500D02*
D03*
X147444Y417250D02*
D03*
X131444D02*
D03*
X467250Y934750D02*
D03*
X483250D02*
D03*
X76750Y108000D02*
D03*
X60750D02*
D03*
X163750Y769500D02*
D03*
X179750D02*
D03*
X147000D02*
D03*
X131000D02*
D03*
X102750D02*
D03*
X118750D02*
D03*
X208000D02*
D03*
X192000D02*
D03*
D23*
X299550Y229500D02*
D03*
X286850D02*
D03*
X274150D02*
D03*
X261450D02*
D03*
D24*
X299550Y171500D02*
D03*
X286850D02*
D03*
X274150D02*
D03*
X261450D02*
D03*
D25*
X470500Y352750D02*
D03*
X453500D02*
D03*
X436500D02*
D03*
X419500D02*
D03*
X402500D02*
D03*
D26*
X436500Y258250D02*
D03*
D27*
X296750Y377750D02*
D03*
X280750D02*
D03*
X227000Y320750D02*
D03*
X243000D02*
D03*
X40750Y143500D02*
D03*
X24750D02*
D03*
X304000Y843250D02*
D03*
X288000D02*
D03*
X436000Y391750D02*
D03*
X420000D02*
D03*
D28*
X336750Y296000D02*
D03*
D29*
X313750Y354000D02*
D03*
X336750D02*
D03*
X359750D02*
D03*
D30*
X443500Y438315D02*
D03*
Y509685D02*
D03*
D31*
X199250Y391000D02*
D03*
Y375000D02*
D03*
X179000Y391250D02*
D03*
Y375250D02*
D03*
X322250Y187250D02*
D03*
Y203250D02*
D03*
X227500Y154250D02*
D03*
Y138250D02*
D03*
X48750Y362500D02*
D03*
Y378500D02*
D03*
X106500Y379000D02*
D03*
Y363000D02*
D03*
X89500Y378750D02*
D03*
Y362750D02*
D03*
X254750Y784250D02*
D03*
Y768250D02*
D03*
D32*
X155250Y398000D02*
D03*
Y375000D02*
D03*
X137250D02*
D03*
Y398000D02*
D03*
X263000Y834750D02*
D03*
Y811750D02*
D03*
X245000D02*
D03*
Y834750D02*
D03*
D33*
X364500Y83750D02*
D03*
X387500D02*
D03*
X364500Y117000D02*
D03*
X387500D02*
D03*
X364500Y150250D02*
D03*
X387500D02*
D03*
X419500Y934250D02*
D03*
X442500D02*
D03*
D34*
X73000Y361000D02*
D03*
Y377000D02*
D03*
X136000Y877500D02*
D03*
Y861500D02*
D03*
X223250Y778250D02*
D03*
Y762250D02*
D03*
D35*
X188000Y167700D02*
D03*
X183000D02*
D03*
X178000D02*
D03*
X173000D02*
D03*
X168000D02*
D03*
X163000D02*
D03*
X158000D02*
D03*
X153000D02*
D03*
X148000D02*
D03*
X143000D02*
D03*
X138000D02*
D03*
X133000D02*
D03*
X128000D02*
D03*
X123000D02*
D03*
X118000D02*
D03*
X113000D02*
D03*
X108000D02*
D03*
X103000D02*
D03*
X98000D02*
D03*
X93000D02*
D03*
X88000D02*
D03*
X83000D02*
D03*
X78000D02*
D03*
X73000D02*
D03*
X68000D02*
D03*
Y321300D02*
D03*
X73000D02*
D03*
X78000D02*
D03*
X83000D02*
D03*
X88000D02*
D03*
X93000D02*
D03*
X98000D02*
D03*
X103000D02*
D03*
X108000D02*
D03*
X113000D02*
D03*
X118000D02*
D03*
X123000D02*
D03*
X128000D02*
D03*
X133000D02*
D03*
X138000D02*
D03*
X143000D02*
D03*
X148000D02*
D03*
X153000D02*
D03*
X158000D02*
D03*
X163000D02*
D03*
X168000D02*
D03*
X173000D02*
D03*
X178000D02*
D03*
X183000D02*
D03*
X188000D02*
D03*
D36*
X204800Y304500D02*
D03*
Y299500D02*
D03*
Y294500D02*
D03*
Y289500D02*
D03*
Y284500D02*
D03*
Y279500D02*
D03*
Y274500D02*
D03*
Y269500D02*
D03*
Y264500D02*
D03*
Y259500D02*
D03*
Y254500D02*
D03*
Y249500D02*
D03*
Y244500D02*
D03*
Y239500D02*
D03*
Y234500D02*
D03*
Y229500D02*
D03*
Y224500D02*
D03*
Y219500D02*
D03*
Y214500D02*
D03*
Y209500D02*
D03*
Y204500D02*
D03*
Y199500D02*
D03*
Y194500D02*
D03*
Y189500D02*
D03*
Y184500D02*
D03*
X51200D02*
D03*
Y189500D02*
D03*
Y194500D02*
D03*
Y199500D02*
D03*
Y204500D02*
D03*
Y209500D02*
D03*
Y214500D02*
D03*
Y219500D02*
D03*
Y224500D02*
D03*
Y229500D02*
D03*
Y234500D02*
D03*
Y239500D02*
D03*
Y244500D02*
D03*
Y249500D02*
D03*
Y254500D02*
D03*
Y259500D02*
D03*
Y264500D02*
D03*
Y269500D02*
D03*
Y274500D02*
D03*
Y279500D02*
D03*
Y284500D02*
D03*
Y289500D02*
D03*
Y294500D02*
D03*
Y299500D02*
D03*
Y304500D02*
D03*
D37*
X202250Y143000D02*
D03*
X182250D02*
D03*
D38*
X172250Y797000D02*
D03*
X177250D02*
D03*
X197250D02*
D03*
X192250D02*
D03*
X182250D02*
D03*
X187250D02*
D03*
Y834900D02*
D03*
X182250D02*
D03*
X192250D02*
D03*
X197250D02*
D03*
X177250D02*
D03*
X172250D02*
D03*
D39*
X165800Y803450D02*
D03*
Y808450D02*
D03*
Y828450D02*
D03*
Y823450D02*
D03*
Y813450D02*
D03*
Y818450D02*
D03*
X203700Y803450D02*
D03*
Y808450D02*
D03*
Y828450D02*
D03*
Y823450D02*
D03*
Y813450D02*
D03*
Y818450D02*
D03*
D40*
X184750Y815950D02*
D03*
D41*
X315750Y815000D02*
D03*
X286750D02*
D03*
D42*
X228500Y714500D02*
D03*
Y743500D02*
D03*
D43*
X365000Y256750D02*
D03*
X330000D02*
D03*
D44*
X284000Y455750D02*
D03*
X384000D02*
D03*
D45*
X23750Y167750D02*
D03*
Y187750D02*
D03*
D81*
X282750Y779000D02*
X286750Y783000D01*
X260000Y779000D02*
X282750D01*
X286750Y783000D02*
Y815000D01*
X254750Y784250D02*
X255750D01*
X257250Y782750D01*
Y781750D02*
Y782750D01*
Y781750D02*
X260000Y779000D01*
X228500Y743500D02*
X288500D01*
X300121Y755122D01*
Y812950D01*
X196143Y750393D02*
X203750Y758000D01*
X200824Y742707D02*
X201618Y743500D01*
X228050D01*
X203750Y758000D02*
X204500D01*
X228050Y743500D02*
X228500D01*
X208000Y761500D02*
Y769500D01*
X196750Y722250D02*
X206000Y731500D01*
X221000D02*
X223050Y733550D01*
X206000Y731500D02*
X221000D01*
X196750Y722250D02*
X196750D01*
X223050Y738500D02*
X228050Y743500D01*
X223050Y733550D02*
Y738500D01*
X286750Y815000D02*
X298071D01*
X300121Y812950D01*
X204500Y758000D02*
X208000Y761500D01*
X102625Y769625D02*
X102750Y769500D01*
X102625Y769625D02*
Y782875D01*
X102500Y783000D02*
X102625Y782875D01*
X163625Y769375D02*
X163750Y769500D01*
X163625Y758125D02*
Y769375D01*
X163500Y758000D02*
X163625Y758125D01*
X146875Y769375D02*
X147000Y769500D01*
X146875Y757875D02*
Y769375D01*
X146750Y757750D02*
X146875Y757875D01*
D82*
X328750Y232500D02*
Y247250D01*
X324213Y262537D02*
X326625Y260125D01*
X295750Y272250D02*
X324000D01*
X328750Y247250D02*
Y248750D01*
X326625Y260125D02*
X330000Y256750D01*
Y263500D02*
Y266250D01*
X324000Y272250D02*
X330000Y266250D01*
Y256750D02*
Y263500D01*
X469700Y91550D02*
X472500D01*
X387500Y173750D02*
X469700Y91550D01*
X387500Y117000D02*
Y150250D01*
Y83750D02*
Y117000D01*
X310750Y247250D02*
X327250D01*
X328750Y248750D01*
X282250Y255750D02*
X327500D01*
X296787Y262537D02*
X324213D01*
X328750Y248750D02*
Y254500D01*
Y255500D01*
X327500Y255750D02*
X328750Y254500D01*
Y255500D02*
X330000Y256750D01*
X328750Y232500D02*
X375250Y186000D01*
X224335Y287085D02*
X230000Y292750D01*
X223761Y283014D02*
X224335Y283588D01*
X230000Y292750D02*
Y293750D01*
X224335Y283588D02*
Y287085D01*
X227000Y310500D02*
Y320750D01*
X229250Y308250D02*
X259750D01*
X227000Y310500D02*
X229250Y308250D01*
X259750D02*
X295750Y272250D01*
X322250Y187250D02*
X323500Y186000D01*
X375250D01*
X387500Y150250D02*
Y173750D01*
X375250Y186000D02*
X387500Y173750D01*
D83*
X488157Y630407D02*
Y903485D01*
X459250Y581750D02*
Y601500D01*
X488157Y630407D01*
X459250Y561907D02*
Y581750D01*
X488157Y381157D02*
Y533000D01*
X459250Y561907D02*
X488157Y533000D01*
X283608Y354000D02*
X313750D01*
X280093Y357515D02*
X283608Y354000D01*
X280093Y357515D02*
Y398235D01*
X336750Y270250D02*
Y296000D01*
X330000Y263500D02*
X336750Y270250D01*
Y296000D02*
Y354000D01*
X283608Y401750D02*
X304500D01*
X280093Y398235D02*
X283608Y401750D01*
X342500Y439750D02*
Y581750D01*
X304500Y401750D02*
X342500Y439750D01*
X327250Y581750D02*
X342500D01*
X284000Y538500D02*
X327250Y581750D01*
X284000Y455750D02*
Y538500D01*
X399000Y438315D02*
X443500D01*
X384000Y453315D02*
X399000Y438315D01*
X384000Y453315D02*
Y455750D01*
X453500Y352750D02*
Y429345D01*
X444530Y438315D02*
X453500Y429345D01*
X443500Y438315D02*
X444530D01*
X456500Y907000D02*
X484642D01*
X456400D02*
X456500D01*
X470500Y352750D02*
Y363500D01*
X488157Y381157D01*
X484642Y907000D02*
X488157Y903485D01*
X431000Y907000D02*
X456400D01*
D84*
Y805400D02*
D03*
X431000D02*
D03*
X456400Y856200D02*
D03*
X431000D02*
D03*
X456400Y881600D02*
D03*
X431000D02*
D03*
X456400Y907000D02*
D03*
X431000Y830800D02*
D03*
X456400D02*
D03*
X472500Y91550D02*
D03*
Y116950D02*
D03*
Y142350D02*
D03*
Y167750D02*
D03*
X310550Y874400D02*
D03*
X335950D02*
D03*
X361350D02*
D03*
X285150Y950600D02*
D03*
X310550D02*
D03*
X335950D02*
D03*
X361350D02*
D03*
X190800Y874400D02*
D03*
X216200D02*
D03*
X241600D02*
D03*
X165400Y950600D02*
D03*
X190800D02*
D03*
X216200D02*
D03*
X241600D02*
D03*
X83100Y881600D02*
D03*
X108500D02*
D03*
X83100Y805400D02*
D03*
X108500Y830800D02*
D03*
X83100D02*
D03*
X108500Y856200D02*
D03*
X83100D02*
D03*
X108500Y907000D02*
D03*
X83100D02*
D03*
D85*
X431000D02*
D03*
X472500Y193150D02*
D03*
X285150Y874400D02*
D03*
X165400D02*
D03*
X108500Y805400D02*
D03*
D86*
X409250Y581750D02*
D03*
X292500D02*
D03*
D87*
X459250D02*
D03*
X342500D02*
D03*
D88*
X132175Y72250D02*
D03*
X157575D02*
D03*
X92400D02*
D03*
X67000D02*
D03*
X273550D02*
D03*
X248150D02*
D03*
D89*
X182975D02*
D03*
X41600D02*
D03*
X222750D02*
D03*
D90*
X73000Y712000D02*
D03*
D91*
X85700Y737400D02*
D03*
X98400Y712000D02*
D03*
X111100Y737400D02*
D03*
X123800Y712000D02*
D03*
X136500Y737400D02*
D03*
X149200Y712000D02*
D03*
X161900Y737400D02*
D03*
D92*
X51250Y599500D02*
D03*
X76650D02*
D03*
X183750D02*
D03*
X158350D02*
D03*
D93*
X40050Y679000D02*
D03*
X194950D02*
D03*
D94*
X174650Y648500D02*
D03*
X60350D02*
D03*
D95*
X246000Y154750D02*
D03*
X129500Y818250D02*
D03*
X150479Y846116D02*
D03*
X141500Y845500D02*
D03*
X133500Y838000D02*
D03*
X269500Y794500D02*
D03*
X196143Y750393D02*
D03*
X173750Y426750D02*
D03*
X310750Y247250D02*
D03*
X296787Y262537D02*
D03*
X282250Y255750D02*
D03*
X187000Y266750D02*
D03*
X178000Y256750D02*
D03*
X240750Y852000D02*
D03*
X214997Y844747D02*
D03*
X219378Y834878D02*
D03*
X200824Y742707D02*
D03*
X149019Y791861D02*
D03*
X233750Y796349D02*
D03*
X204750Y846500D02*
D03*
X228750Y804250D02*
D03*
X56250Y143500D02*
D03*
X223761Y283014D02*
D03*
X98750Y132000D02*
D03*
X110750Y143000D02*
D03*
X278500Y335250D02*
D03*
X231750Y273192D02*
D03*
X224000Y265442D02*
D03*
X245750Y230750D02*
D03*
X90500Y108750D02*
D03*
X166000Y146000D02*
D03*
X126721Y140029D02*
D03*
X136000Y132000D02*
D03*
X109000Y132250D02*
D03*
X180500Y853250D02*
D03*
X307500Y87000D02*
D03*
X274500Y135500D02*
D03*
X236273Y197227D02*
D03*
X261000Y141500D02*
D03*
X184000Y299500D02*
D03*
X184500Y288000D02*
D03*
X91250Y196000D02*
D03*
X78258Y243950D02*
D03*
X71000Y227500D02*
D03*
X80462Y193520D02*
D03*
X128390Y245411D02*
D03*
X73851Y266544D02*
D03*
X78500Y274250D02*
D03*
X101000Y300750D02*
D03*
X136750Y274750D02*
D03*
X120250Y337750D02*
D03*
X139000Y259750D02*
D03*
X111000Y429500D02*
D03*
X32750Y362250D02*
D03*
X308500Y118500D02*
D03*
X309250Y138500D02*
D03*
X286250Y135500D02*
D03*
X246000Y216500D02*
D03*
X221250Y176000D02*
D03*
X119500Y132250D02*
D03*
X88250Y135250D02*
D03*
X81000Y141500D02*
D03*
X83750Y291250D02*
D03*
X110250Y343750D02*
D03*
X160250Y852375D02*
D03*
X170500Y852500D02*
D03*
X133500Y827000D02*
D03*
X196750Y722250D02*
D03*
X102500Y783000D02*
D03*
X163500Y758000D02*
D03*
X146750Y757750D02*
D03*
D96*
X263000Y865500D02*
D03*
Y875500D02*
D03*
Y885500D02*
D03*
X290250Y759000D02*
D03*
X278500Y760000D02*
D03*
X289500Y771250D02*
D03*
X191000Y821250D02*
D03*
Y810000D02*
D03*
X178250D02*
D03*
Y821250D02*
D03*
M02*
