G04*
G04 #@! TF.GenerationSoftware,Altium Limited,Altium Designer,20.0.13 (296)*
G04*
G04 Layer_Color=65535*
%FSLAX44Y44*%
%MOMM*%
G71*
G01*
G75*
%ADD10C,0.2500*%
%ADD11C,0.2000*%
%ADD12C,0.6096*%
%ADD13C,0.1500*%
%ADD14C,0.6000*%
%ADD15C,0.3000*%
%ADD16C,0.1270*%
%ADD17C,0.2540*%
%ADD18C,0.1520*%
%ADD19C,0.1524*%
%ADD20R,0.5500X2.8001*%
%ADD21R,2.8000X0.5500*%
D10*
X309300Y229500D02*
G03*
X309300Y229500I-1250J0D01*
G01*
X482500Y352750D02*
G03*
X482500Y352750I-1250J0D01*
G01*
X273400Y874400D02*
G03*
X273400Y874400I-1250J0D01*
G01*
X153650D02*
G03*
X153650Y874400I-1250J0D01*
G01*
D11*
X360750Y371000D02*
G03*
X360750Y371000I-1000J0D01*
G01*
X189000Y338900D02*
G03*
X189000Y338900I-1000J0D01*
G01*
X484250Y581750D02*
G03*
X484250Y581750I-50000J0D01*
G01*
X367500D02*
G03*
X367500Y581750I-50000J0D01*
G01*
X271750Y906150D02*
G03*
X271750Y918850I0J6350D01*
G01*
X152000Y906150D02*
G03*
X152000Y918850I0J6350D01*
G01*
X218500Y337750D02*
X221500D01*
X218500Y346750D02*
X221500D01*
X236500Y289250D02*
X239500D01*
X236500Y298250D02*
X239500D01*
X255500Y214500D02*
X305500D01*
X255500Y196500D02*
X305500D01*
Y214500D01*
X255500Y196500D02*
Y214500D01*
X488500Y303750D02*
Y326250D01*
X384500D02*
X488500D01*
X384500Y303750D02*
Y326250D01*
X374250Y78750D02*
Y88750D01*
Y112000D02*
Y122000D01*
Y145250D02*
Y155250D01*
X331250Y153998D02*
X334250D01*
X331250Y144999D02*
X334250D01*
X331250Y122248D02*
X334250D01*
X331250Y113247D02*
X334250D01*
X331250Y88998D02*
X334250D01*
X331250Y79997D02*
X334250D01*
X68500Y367500D02*
Y370500D01*
X77500Y367500D02*
Y370500D01*
X140500Y868000D02*
Y871000D01*
X131500Y868000D02*
Y871000D01*
X142000Y350500D02*
X145000D01*
X142000Y359500D02*
X145000D01*
X137944Y412750D02*
X140944D01*
X137944Y421750D02*
X140944D01*
X298250Y801000D02*
Y829000D01*
Y801000D02*
X304250D01*
X298250Y829000D02*
X304250D01*
X214500Y732000D02*
X242500D01*
X214500Y726000D02*
Y732000D01*
X242500Y726000D02*
Y732000D01*
X227750Y768750D02*
Y771750D01*
X218750Y768750D02*
Y771750D01*
X473750Y939250D02*
X476750D01*
X473750Y930250D02*
X476750D01*
X469100Y919700D02*
X558000D01*
Y792700D02*
Y919700D01*
X469100Y792700D02*
X558000D01*
X418300D02*
Y919700D01*
X469100Y792700D02*
Y919700D01*
X418300D02*
X469100D01*
X418300Y792700D02*
X469100D01*
X429250Y929250D02*
Y939250D01*
X459800Y205850D02*
X485200D01*
Y78850D02*
Y205850D01*
X459800Y78850D02*
Y205850D01*
Y78850D02*
X485200D01*
X344500Y240250D02*
X350500D01*
X344500Y273250D02*
X350500D01*
X384500Y781750D02*
X484250D01*
X267250D02*
X367500D01*
X493000Y578250D02*
Y585250D01*
X489500Y581750D02*
X496500D01*
X376250Y578250D02*
Y585250D01*
X372750Y581750D02*
X379750D01*
X484250D02*
Y781750D01*
X384500Y581750D02*
Y781750D01*
X367500Y581750D02*
Y781750D01*
X267250Y581750D02*
Y781750D01*
X67250Y103500D02*
X70250D01*
X67250Y112500D02*
X70250D01*
X195675Y59550D02*
Y84950D01*
X119475Y59550D02*
Y84950D01*
X195675D01*
X119475Y59550D02*
X195675D01*
X271750Y886000D02*
X374750D01*
X271750Y939000D02*
X374750D01*
X271750Y886000D02*
Y906150D01*
Y918850D02*
Y939000D01*
X374750Y886000D02*
Y939000D01*
X152000Y886000D02*
X255000D01*
X152000Y939000D02*
X255000D01*
X152000Y886000D02*
Y906150D01*
Y918850D02*
Y939000D01*
X255000Y886000D02*
Y939000D01*
X23834Y911234D02*
X57700D01*
X19600Y907000D02*
X23834Y911234D01*
X19600Y907000D02*
X23834Y902767D01*
X57700D01*
X70400Y919700D02*
X121200D01*
X70400Y792700D02*
X121200D01*
X70400D02*
Y919700D01*
X121200Y792700D02*
Y919700D01*
X19600Y805400D02*
X23834Y801167D01*
X19600Y805400D02*
X23834Y809634D01*
Y826567D02*
X57700D01*
X19600Y830800D02*
X23834Y826567D01*
X19600Y830800D02*
X23834Y835034D01*
X57700D01*
X23834Y809634D02*
X57700D01*
X23834Y801167D02*
X57700D01*
X19600Y856200D02*
X23834Y851967D01*
X19600Y856200D02*
X23834Y860434D01*
Y877367D02*
X57700D01*
X19600Y881600D02*
X23834Y877367D01*
X19600Y881600D02*
X23834Y885834D01*
X57700D01*
X23834Y860434D02*
X57700D01*
X23834Y851967D02*
X57700D01*
Y792700D02*
X70400D01*
X57700D02*
Y919700D01*
X70400D01*
X28900Y59550D02*
Y84950D01*
X105100Y59550D02*
Y84950D01*
X28900Y59550D02*
X105100D01*
X28900Y84950D02*
X105100D01*
X210050Y59550D02*
Y84950D01*
X286250Y59550D02*
Y84950D01*
X210050Y59550D02*
X286250D01*
X210050Y84950D02*
X286250D01*
X170250Y774000D02*
X173250D01*
X170250Y765000D02*
X173250D01*
X137500D02*
X140500D01*
X137500Y774000D02*
X140500D01*
X109250D02*
X112250D01*
X109250Y765000D02*
X112250D01*
X198500D02*
X201500D01*
X198500Y774000D02*
X201500D01*
X210837Y352501D02*
Y360499D01*
X214835D01*
X216168Y359166D01*
Y356500D01*
X214835Y355167D01*
X210837D01*
X213503D02*
X216168Y352501D01*
X218834Y359166D02*
X220167Y360499D01*
X222833D01*
X224166Y359166D01*
Y357833D01*
X222833Y356500D01*
X221500D01*
X222833D01*
X224166Y355167D01*
Y353834D01*
X222833Y352501D01*
X220167D01*
X218834Y353834D01*
X226832D02*
X228165Y352501D01*
X230830D01*
X232163Y353834D01*
Y359166D01*
X230830Y360499D01*
X228165D01*
X226832Y359166D01*
Y357833D01*
X228165Y356500D01*
X232163D01*
X241837Y277001D02*
Y284999D01*
X245835D01*
X247168Y283666D01*
Y281000D01*
X245835Y279667D01*
X241837D01*
X244503D02*
X247168Y277001D01*
X255166D02*
X249834D01*
X255166Y282333D01*
Y283666D01*
X253833Y284999D01*
X251167D01*
X249834Y283666D01*
X257832D02*
X259165Y284999D01*
X261830D01*
X263163Y283666D01*
Y278334D01*
X261830Y277001D01*
X259165D01*
X257832Y278334D01*
Y283666D01*
X240751Y234836D02*
Y237502D01*
Y236169D01*
X248749D01*
Y234836D01*
Y237502D01*
X242084Y246832D02*
X240751Y245499D01*
Y242834D01*
X242084Y241501D01*
X247416D01*
X248749Y242834D01*
Y245499D01*
X247416Y246832D01*
X248749Y249498D02*
Y252164D01*
Y250831D01*
X240751D01*
X242084Y249498D01*
X412920Y204249D02*
Y196251D01*
X416918D01*
X418251Y197584D01*
Y202916D01*
X416918Y204249D01*
X412920D01*
X420917D02*
Y196251D01*
X424916D01*
X426249Y197584D01*
Y202916D01*
X424916Y204249D01*
X420917D01*
X428914Y196251D02*
X431580D01*
X430247D01*
Y204249D01*
X428914Y202916D01*
X276085Y354251D02*
Y362249D01*
X280084D01*
X281417Y360916D01*
Y358250D01*
X280084Y356917D01*
X276085D01*
X278751D02*
X281417Y354251D01*
X284083Y355584D02*
X285416Y354251D01*
X288082D01*
X289415Y355584D01*
Y360916D01*
X288082Y362249D01*
X285416D01*
X284083Y360916D01*
Y359583D01*
X285416Y358250D01*
X289415D01*
X288751Y300920D02*
X294083D01*
X296749Y303585D01*
X294083Y306251D01*
X288751D01*
X296749Y308917D02*
X288751D01*
Y312916D01*
X290084Y314249D01*
X292750D01*
X294083Y312916D01*
Y308917D01*
Y311583D02*
X296749Y314249D01*
Y316915D02*
Y319580D01*
Y318247D01*
X288751D01*
X290084Y316915D01*
X482501Y469918D02*
X490499D01*
Y473917D01*
X489166Y475250D01*
X483834D01*
X482501Y473917D01*
Y469918D01*
X490499Y477916D02*
Y480582D01*
Y479249D01*
X482501D01*
X483834Y477916D01*
X197834Y411835D02*
X196501Y410502D01*
Y407836D01*
X197834Y406503D01*
X203166D01*
X204499Y407836D01*
Y410502D01*
X203166Y411835D01*
X204499Y414501D02*
Y417166D01*
Y415834D01*
X196501D01*
X197834Y414501D01*
X204499Y425164D02*
X196501D01*
X200500Y421165D01*
Y426497D01*
X178834Y410835D02*
X177501Y409502D01*
Y406836D01*
X178834Y405503D01*
X184166D01*
X185499Y406836D01*
Y409502D01*
X184166Y410835D01*
X185499Y413501D02*
Y416166D01*
Y414834D01*
X177501D01*
X178834Y413501D01*
X177501Y425497D02*
X178834Y422831D01*
X181500Y420165D01*
X184166D01*
X185499Y421498D01*
Y424164D01*
X184166Y425497D01*
X182833D01*
X181500Y424164D01*
Y420165D01*
X160001Y412336D02*
X167999Y417667D01*
X160001D02*
X167999Y412336D01*
Y424332D02*
X160001D01*
X164000Y420333D01*
Y425664D01*
X245167Y341666D02*
X243834Y342999D01*
X241168D01*
X239835Y341666D01*
Y336334D01*
X241168Y335001D01*
X243834D01*
X245167Y336334D01*
X247833Y342999D02*
X253165D01*
Y341666D01*
X247833Y336334D01*
Y335001D01*
X363337Y102999D02*
Y97667D01*
X366003Y95001D01*
X368668Y97667D01*
Y102999D01*
X371334D02*
Y95001D01*
X375333D01*
X376666Y96334D01*
Y101666D01*
X375333Y102999D01*
X371334D01*
X383330Y95001D02*
Y102999D01*
X379332Y99000D01*
X384663D01*
X363587Y138499D02*
Y133167D01*
X366253Y130501D01*
X368918Y133167D01*
Y138499D01*
X371584D02*
Y130501D01*
X375583D01*
X376916Y131834D01*
Y137166D01*
X375583Y138499D01*
X371584D01*
X384913Y130501D02*
X379582D01*
X384913Y135833D01*
Y137166D01*
X383580Y138499D01*
X380914D01*
X379582Y137166D01*
X363587Y170499D02*
Y165167D01*
X366253Y162501D01*
X368918Y165167D01*
Y170499D01*
X371584D02*
Y162501D01*
X375583D01*
X376916Y163834D01*
Y169166D01*
X375583Y170499D01*
X371584D01*
X379582Y169166D02*
X380914Y170499D01*
X383580D01*
X384913Y169166D01*
Y167833D01*
X383580Y166500D01*
X382247D01*
X383580D01*
X384913Y165167D01*
Y163834D01*
X383580Y162501D01*
X380914D01*
X379582Y163834D01*
X322587Y161501D02*
Y169499D01*
X326586D01*
X327918Y168166D01*
Y165500D01*
X326586Y164167D01*
X322587D01*
X325253D02*
X327918Y161501D01*
X335916D02*
X330584D01*
X335916Y166833D01*
Y168166D01*
X334583Y169499D01*
X331917D01*
X330584Y168166D01*
X343913Y161501D02*
X338582D01*
X343913Y166833D01*
Y168166D01*
X342580Y169499D01*
X339915D01*
X338582Y168166D01*
X322920Y129501D02*
Y137499D01*
X326918D01*
X328251Y136166D01*
Y133500D01*
X326918Y132167D01*
X322920D01*
X325586D02*
X328251Y129501D01*
X336249D02*
X330917D01*
X336249Y134833D01*
Y136166D01*
X334916Y137499D01*
X332250D01*
X330917Y136166D01*
X338914Y129501D02*
X341580D01*
X340247D01*
Y137499D01*
X338914Y136166D01*
X322087Y95001D02*
Y102999D01*
X326086D01*
X327418Y101666D01*
Y99000D01*
X326086Y97667D01*
X322087D01*
X324753D02*
X327418Y95001D01*
X335416D02*
X330084D01*
X335416Y100333D01*
Y101666D01*
X334083Y102999D01*
X331417D01*
X330084Y101666D01*
X342080Y95001D02*
Y102999D01*
X338082Y99000D01*
X343413D01*
X336084Y202417D02*
X334751Y201084D01*
Y198419D01*
X336084Y197086D01*
X341416D01*
X342749Y198419D01*
Y201084D01*
X341416Y202417D01*
X334751Y210415D02*
Y205083D01*
X338750D01*
X337417Y207749D01*
Y209082D01*
X338750Y210415D01*
X341416D01*
X342749Y209082D01*
Y206416D01*
X341416Y205083D01*
X243834Y140585D02*
X242501Y139252D01*
Y136586D01*
X243834Y135253D01*
X249166D01*
X250499Y136586D01*
Y139252D01*
X249166Y140585D01*
X250499Y143251D02*
Y145917D01*
Y144584D01*
X242501D01*
X243834Y143251D01*
Y149915D02*
X242501Y151248D01*
Y153914D01*
X243834Y155247D01*
X249166D01*
X250499Y153914D01*
Y151248D01*
X249166Y149915D01*
X243834D01*
X26668Y127416D02*
X25336Y128749D01*
X22670D01*
X21337Y127416D01*
Y122084D01*
X22670Y120751D01*
X25336D01*
X26668Y122084D01*
X34666Y120751D02*
X29334D01*
X34666Y126083D01*
Y127416D01*
X33333Y128749D01*
X30667D01*
X29334Y127416D01*
X37332Y128749D02*
X42663D01*
Y127416D01*
X37332Y122084D01*
Y120751D01*
X44834Y401418D02*
X43501Y400085D01*
Y397420D01*
X44834Y396087D01*
X50166D01*
X51499Y397420D01*
Y400085D01*
X50166Y401418D01*
X51499Y409416D02*
Y404084D01*
X46167Y409416D01*
X44834D01*
X43501Y408083D01*
Y405417D01*
X44834Y404084D01*
Y412082D02*
X43501Y413415D01*
Y416080D01*
X44834Y417413D01*
X46167D01*
X47500Y416080D01*
X48833Y417413D01*
X50166D01*
X51499Y416080D01*
Y413415D01*
X50166Y412082D01*
X48833D01*
X47500Y413415D01*
X46167Y412082D01*
X44834D01*
X47500Y413415D02*
Y416080D01*
X103834Y400835D02*
X102501Y399502D01*
Y396836D01*
X103834Y395503D01*
X109166D01*
X110499Y396836D01*
Y399502D01*
X109166Y400835D01*
X110499Y403501D02*
Y406166D01*
Y404834D01*
X102501D01*
X103834Y403501D01*
X109166Y410165D02*
X110499Y411498D01*
Y414164D01*
X109166Y415497D01*
X103834D01*
X102501Y414164D01*
Y411498D01*
X103834Y410165D01*
X105167D01*
X106500Y411498D01*
Y415497D01*
X86334Y399085D02*
X85001Y397752D01*
Y395086D01*
X86334Y393753D01*
X91666D01*
X92999Y395086D01*
Y397752D01*
X91666Y399085D01*
X92999Y401751D02*
Y404417D01*
Y403084D01*
X85001D01*
X86334Y401751D01*
Y408415D02*
X85001Y409748D01*
Y412414D01*
X86334Y413747D01*
X87667D01*
X89000Y412414D01*
X90333Y413747D01*
X91666D01*
X92999Y412414D01*
Y409748D01*
X91666Y408415D01*
X90333D01*
X89000Y409748D01*
X87667Y408415D01*
X86334D01*
X89000Y409748D02*
Y412414D01*
X76249Y389837D02*
X68251D01*
Y393835D01*
X69584Y395168D01*
X72250D01*
X73583Y393835D01*
Y389837D01*
Y392503D02*
X76249Y395168D01*
X69584Y397834D02*
X68251Y399167D01*
Y401833D01*
X69584Y403166D01*
X70917D01*
X72250Y401833D01*
Y400500D01*
Y401833D01*
X73583Y403166D01*
X74916D01*
X76249Y401833D01*
Y399167D01*
X74916Y397834D01*
X68251Y411163D02*
Y405832D01*
X72250D01*
X70917Y408498D01*
Y409830D01*
X72250Y411163D01*
X74916D01*
X76249Y409830D01*
Y407165D01*
X74916Y405832D01*
X119668Y251999D02*
Y245334D01*
X121001Y244001D01*
X123667D01*
X125000Y245334D01*
Y251999D01*
X127666Y244001D02*
X130332D01*
X128999D01*
Y251999D01*
X127666Y250666D01*
X140499Y888670D02*
X132501D01*
Y892668D01*
X133834Y894001D01*
X136500D01*
X137833Y892668D01*
Y888670D01*
Y891336D02*
X140499Y894001D01*
X133834Y896667D02*
X132501Y898000D01*
Y900666D01*
X133834Y901999D01*
X135167D01*
X136500Y900666D01*
Y899333D01*
Y900666D01*
X137833Y901999D01*
X139166D01*
X140499Y900666D01*
Y898000D01*
X139166Y896667D01*
X140499Y904665D02*
Y907330D01*
Y905997D01*
X132501D01*
X133834Y904665D01*
X168835Y356166D02*
X167502Y357499D01*
X164836D01*
X163503Y356166D01*
Y350834D01*
X164836Y349501D01*
X167502D01*
X168835Y350834D01*
X171501Y349501D02*
X174167D01*
X172834D01*
Y357499D01*
X171501Y356166D01*
X183497Y357499D02*
X178165D01*
Y353500D01*
X180831Y354833D01*
X182164D01*
X183497Y353500D01*
Y350834D01*
X182164Y349501D01*
X179498D01*
X178165Y350834D01*
X138335Y437916D02*
X137002Y439249D01*
X134336D01*
X133003Y437916D01*
Y432584D01*
X134336Y431251D01*
X137002D01*
X138335Y432584D01*
X141001Y431251D02*
X143666D01*
X142333D01*
Y439249D01*
X141001Y437916D01*
X147665Y439249D02*
X152997D01*
Y437916D01*
X147665Y432584D01*
Y431251D01*
X188918Y125916D02*
X187585Y127249D01*
X184919D01*
X183586Y125916D01*
Y120584D01*
X184919Y119251D01*
X187585D01*
X188918Y120584D01*
X191584Y119251D02*
X194249D01*
X192917D01*
Y127249D01*
X191584Y125916D01*
X198248Y119251D02*
X200914D01*
X199581D01*
Y127249D01*
X198248Y125916D01*
X326751Y846916D02*
X325418Y848249D01*
X322753D01*
X321420Y846916D01*
Y841584D01*
X322753Y840251D01*
X325418D01*
X326751Y841584D01*
X334749Y840251D02*
X329417D01*
X334749Y845583D01*
Y846916D01*
X333416Y848249D01*
X330750D01*
X329417Y846916D01*
X337415Y840251D02*
X340080D01*
X338747D01*
Y848249D01*
X337415Y846916D01*
X216751Y808003D02*
Y810669D01*
Y809336D01*
X224749D01*
Y808003D01*
Y810669D01*
X218084Y819999D02*
X216751Y818667D01*
Y816001D01*
X218084Y814668D01*
X223416D01*
X224749Y816001D01*
Y818667D01*
X223416Y819999D01*
X224749Y827997D02*
Y822665D01*
X219417Y827997D01*
X218084D01*
X216751Y826664D01*
Y823998D01*
X218084Y822665D01*
X330918Y817166D02*
X329585Y818499D01*
X326920D01*
X325587Y817166D01*
Y811834D01*
X326920Y810501D01*
X329585D01*
X330918Y811834D01*
X338916Y810501D02*
X333584D01*
X338916Y815833D01*
Y817166D01*
X337583Y818499D01*
X334917D01*
X333584Y817166D01*
X346913Y818499D02*
X341582D01*
Y814500D01*
X344247Y815833D01*
X345580D01*
X346913Y814500D01*
Y811834D01*
X345580Y810501D01*
X342915D01*
X341582Y811834D01*
X278085Y799999D02*
X283417Y792001D01*
Y799999D02*
X278085Y792001D01*
X291415Y799999D02*
X286083D01*
Y796000D01*
X288749Y797333D01*
X290082D01*
X291415Y796000D01*
Y793334D01*
X290082Y792001D01*
X287416D01*
X286083Y793334D01*
X251834Y737418D02*
X250501Y736086D01*
Y733420D01*
X251834Y732087D01*
X257166D01*
X258499Y733420D01*
Y736086D01*
X257166Y737418D01*
X258499Y745416D02*
Y740084D01*
X253167Y745416D01*
X251834D01*
X250501Y744083D01*
Y741417D01*
X251834Y740084D01*
Y748082D02*
X250501Y749415D01*
Y752080D01*
X251834Y753413D01*
X257166D01*
X258499Y752080D01*
Y749415D01*
X257166Y748082D01*
X251834D01*
X225417Y696916D02*
X224084Y698249D01*
X221418D01*
X220086Y696916D01*
Y691584D01*
X221418Y690251D01*
X224084D01*
X225417Y691584D01*
X228083D02*
X229416Y690251D01*
X232082D01*
X233414Y691584D01*
Y696916D01*
X232082Y698249D01*
X229416D01*
X228083Y696916D01*
Y695583D01*
X229416Y694250D01*
X233414D01*
X241749Y759337D02*
X233751D01*
Y763335D01*
X235084Y764668D01*
X237750D01*
X239083Y763335D01*
Y759337D01*
Y762003D02*
X241749Y764668D01*
X235084Y767334D02*
X233751Y768667D01*
Y771333D01*
X235084Y772666D01*
X236417D01*
X237750Y771333D01*
Y770000D01*
Y771333D01*
X239083Y772666D01*
X240416D01*
X241749Y771333D01*
Y768667D01*
X240416Y767334D01*
X235084Y775332D02*
X233751Y776665D01*
Y779330D01*
X235084Y780663D01*
X236417D01*
X237750Y779330D01*
Y777997D01*
Y779330D01*
X239083Y780663D01*
X240416D01*
X241749Y779330D01*
Y776665D01*
X240416Y775332D01*
X466003Y946501D02*
Y954499D01*
X470002D01*
X471335Y953166D01*
Y950500D01*
X470002Y949167D01*
X466003D01*
X468669D02*
X471335Y946501D01*
X474001D02*
X476666D01*
X475334D01*
Y954499D01*
X474001Y953166D01*
X480665Y947834D02*
X481998Y946501D01*
X484664D01*
X485997Y947834D01*
Y953166D01*
X484664Y954499D01*
X481998D01*
X480665Y953166D01*
Y951833D01*
X481998Y950500D01*
X485997D01*
X401918Y911249D02*
X407250Y903251D01*
Y911249D02*
X401918Y903251D01*
X409916D02*
X412582D01*
X411249D01*
Y911249D01*
X409916Y909916D01*
X389420Y938999D02*
Y933667D01*
X392085Y931001D01*
X394751Y933667D01*
Y938999D01*
X397417D02*
Y931001D01*
X401416D01*
X402749Y932334D01*
Y937666D01*
X401416Y938999D01*
X397417D01*
X405415Y931001D02*
X408080D01*
X406747D01*
Y938999D01*
X405415Y937666D01*
X466251Y55086D02*
X474249Y60417D01*
X466251D02*
X474249Y55086D01*
X467584Y63083D02*
X466251Y64416D01*
Y67082D01*
X467584Y68415D01*
X468917D01*
X470250Y67082D01*
Y65749D01*
Y67082D01*
X471583Y68415D01*
X472916D01*
X474249Y67082D01*
Y64416D01*
X472916Y63083D01*
X305584Y274417D02*
X304251Y273084D01*
Y270418D01*
X305584Y269086D01*
X310916D01*
X312249Y270418D01*
Y273084D01*
X310916Y274417D01*
X312249Y282414D02*
Y277083D01*
X306917Y282414D01*
X305584D01*
X304251Y281082D01*
Y278416D01*
X305584Y277083D01*
X248418Y510999D02*
Y503001D01*
X253750D01*
X256416D02*
X259082D01*
X257749D01*
Y510999D01*
X256416Y509666D01*
X434250Y567166D02*
X432917Y568499D01*
X430251D01*
X428918Y567166D01*
Y561834D01*
X430251Y560501D01*
X432917D01*
X434250Y561834D01*
X436916Y560501D02*
X439582D01*
X438249D01*
Y568499D01*
X436916Y567166D01*
X314667Y568166D02*
X313334Y569499D01*
X310668D01*
X309335Y568166D01*
Y562834D01*
X310668Y561501D01*
X313334D01*
X314667Y562834D01*
X321332Y561501D02*
Y569499D01*
X317333Y565500D01*
X322664D01*
X413906Y407454D02*
Y415451D01*
X417905D01*
X419238Y414118D01*
Y411453D01*
X417905Y410120D01*
X413906D01*
X416572D02*
X419238Y407454D01*
X421903D02*
X424569D01*
X423236D01*
Y415451D01*
X421903Y414118D01*
X428568D02*
X429901Y415451D01*
X432567D01*
X433899Y414118D01*
Y408787D01*
X432567Y407454D01*
X429901D01*
X428568Y408787D01*
Y414118D01*
X120394Y100959D02*
X125726Y92962D01*
Y100959D02*
X120394Y92962D01*
X128391D02*
Y100959D01*
X132390D01*
X133723Y99627D01*
Y96961D01*
X132390Y95628D01*
X128391D01*
X136389Y99627D02*
X137722Y100959D01*
X140388D01*
X141720Y99627D01*
Y98294D01*
X140388Y96961D01*
X139055D01*
X140388D01*
X141720Y95628D01*
Y94295D01*
X140388Y92962D01*
X137722D01*
X136389Y94295D01*
X11682Y935857D02*
X17014Y927860D01*
Y935857D02*
X11682Y927860D01*
X25011D02*
X19679D01*
X25011Y933192D01*
Y934525D01*
X23678Y935857D01*
X21012D01*
X19679Y934525D01*
X211072Y100959D02*
X216404Y92962D01*
Y100959D02*
X211072Y92962D01*
X219069D02*
Y100959D01*
X223068D01*
X224401Y99627D01*
Y96961D01*
X223068Y95628D01*
X219069D01*
X232398Y92962D02*
X227067D01*
X232398Y98294D01*
Y99627D01*
X231066Y100959D01*
X228400D01*
X227067Y99627D01*
X29970Y100959D02*
X35302Y92962D01*
Y100959D02*
X29970Y92962D01*
X37967D02*
Y100959D01*
X41966D01*
X43299Y99627D01*
Y96961D01*
X41966Y95628D01*
X37967D01*
X45965Y92962D02*
X48631D01*
X47298D01*
Y100959D01*
X45965Y99627D01*
X201167Y972416D02*
X199834Y973749D01*
X197168D01*
X195835Y972416D01*
Y971083D01*
X197168Y969750D01*
X199834D01*
X201167Y968417D01*
Y967084D01*
X199834Y965751D01*
X197168D01*
X195835Y967084D01*
X209165Y965751D02*
X203833D01*
X209165Y971083D01*
Y972416D01*
X207832Y973749D01*
X205166D01*
X203833Y972416D01*
X321250Y970916D02*
X319917Y972249D01*
X317251D01*
X315918Y970916D01*
Y969583D01*
X317251Y968250D01*
X319917D01*
X321250Y966917D01*
Y965584D01*
X319917Y964251D01*
X317251D01*
X315918Y965584D01*
X323916Y964251D02*
X326582D01*
X325249D01*
Y972249D01*
X323916Y970916D01*
X56314Y122458D02*
Y130455D01*
X60313D01*
X61646Y129122D01*
Y126457D01*
X60313Y125124D01*
X56314D01*
X58980D02*
X61646Y122458D01*
X69643D02*
X64311D01*
X69643Y127790D01*
Y129122D01*
X68310Y130455D01*
X65644D01*
X64311Y129122D01*
X72309D02*
X73642Y130455D01*
X76308D01*
X77640Y129122D01*
Y127790D01*
X76308Y126457D01*
X74975D01*
X76308D01*
X77640Y125124D01*
Y123791D01*
X76308Y122458D01*
X73642D01*
X72309Y123791D01*
X31746Y771011D02*
X29080D01*
X30413D01*
Y764347D01*
X29080Y763014D01*
X27747D01*
X26414Y764347D01*
X34411Y763014D02*
X37077D01*
X35744D01*
Y771011D01*
X34411Y769678D01*
X20316Y213419D02*
X18983Y214751D01*
X16317D01*
X14984Y213419D01*
Y208087D01*
X16317Y206754D01*
X18983D01*
X20316Y208087D01*
X22981Y213419D02*
X24314Y214751D01*
X26980D01*
X28313Y213419D01*
Y212086D01*
X26980Y210753D01*
X25647D01*
X26980D01*
X28313Y209420D01*
Y208087D01*
X26980Y206754D01*
X24314D01*
X22981Y208087D01*
X30979Y213419D02*
X32312Y214751D01*
X34978D01*
X36310Y213419D01*
Y208087D01*
X34978Y206754D01*
X32312D01*
X30979Y208087D01*
Y213419D01*
D12*
X418330Y430820D02*
G03*
X418330Y430820I-1500J0D01*
G01*
D13*
X207262Y398405D02*
G03*
X191350Y398300I-7877J-12168D01*
G01*
X191238Y367295D02*
G03*
X207150Y367400I7877J12168D01*
G01*
X187013Y398655D02*
G03*
X171100Y398550I-7877J-12168D01*
G01*
X170987Y367546D02*
G03*
X186900Y367650I7877J12168D01*
G01*
X219595Y328763D02*
G03*
X219700Y312850I12168J-7877D01*
G01*
X250704Y312738D02*
G03*
X250600Y328650I-12168J7877D01*
G01*
X314237Y179846D02*
G03*
X330150Y179950I7877J12168D01*
G01*
X330262Y210954D02*
G03*
X314350Y210850I-7877J-12168D01*
G01*
X235513Y161655D02*
G03*
X219600Y161550I-7877J-12168D01*
G01*
X219487Y130546D02*
G03*
X235400Y130650I7877J12168D01*
G01*
X48155Y135487D02*
G03*
X48050Y151400I-12168J7877D01*
G01*
X17046Y151512D02*
G03*
X17150Y135600I12168J-7877D01*
G01*
X40738Y355095D02*
G03*
X56650Y355200I7877J12168D01*
G01*
X56762Y386204D02*
G03*
X40850Y386100I-7877J-12168D01*
G01*
X114513Y386405D02*
G03*
X98600Y386300I-7877J-12168D01*
G01*
X98488Y355295D02*
G03*
X114400Y355400I7877J12168D01*
G01*
X97513Y386155D02*
G03*
X81600Y386050I-7877J-12168D01*
G01*
X81488Y355046D02*
G03*
X97400Y355150I7877J12168D01*
G01*
X174250Y153000D02*
G03*
X174174Y133016I14270J-10047D01*
G01*
X210250Y133000D02*
G03*
X210326Y152984I-14270J10047D01*
G01*
X311405Y835238D02*
G03*
X311300Y851150I-12168J7877D01*
G01*
X280296Y851263D02*
G03*
X280400Y835350I12168J-7877D01*
G01*
X262763Y791655D02*
G03*
X246850Y791550I-7877J-12168D01*
G01*
X246737Y760546D02*
G03*
X262650Y760650I7877J12168D01*
G01*
X33750Y195750D02*
G03*
X13766Y195826I-10047J-14270D01*
G01*
X13750Y159750D02*
G03*
X33734Y159674I10047J14270D01*
G01*
X273250Y385750D02*
X304000D01*
X273250Y369750D02*
Y385750D01*
Y369750D02*
X304000D01*
Y385750D01*
X290750Y375500D02*
Y379750D01*
X286750Y375500D02*
X290750D01*
X286750D02*
Y379750D01*
X290750D01*
X191250Y367500D02*
Y398250D01*
X207250Y367500D02*
Y398250D01*
X196650Y384400D02*
X201950D01*
X196650Y381600D02*
X201950D01*
X171000Y367750D02*
Y398500D01*
X187000Y367750D02*
Y398500D01*
X176400Y384650D02*
X181700D01*
X176400Y381850D02*
X181700D01*
X219750Y312750D02*
X250500D01*
X219750Y328750D02*
X250500D01*
X233600Y318150D02*
Y323450D01*
X236400Y318150D02*
Y323450D01*
X330250Y180000D02*
Y210750D01*
X314250Y180000D02*
Y210750D01*
X319550Y193850D02*
X324850D01*
X319550Y196650D02*
X324850D01*
X219500Y130750D02*
Y161500D01*
X235500Y130750D02*
Y161500D01*
X224900Y147650D02*
X230200D01*
X224900Y144850D02*
X230200D01*
X17250Y151500D02*
X48000D01*
X17250Y135500D02*
X48000D01*
X34150Y140800D02*
Y146100D01*
X31350Y140800D02*
Y146100D01*
X56750Y355250D02*
Y386000D01*
X40750Y355250D02*
Y386000D01*
X46050Y369100D02*
X51350D01*
X46050Y371900D02*
X51350D01*
X98500Y355500D02*
Y386250D01*
X114500Y355500D02*
Y386250D01*
X103900Y372400D02*
X109200D01*
X103900Y369600D02*
X109200D01*
X81500Y355250D02*
Y386000D01*
X97500Y355250D02*
Y386000D01*
X86900Y372150D02*
X92200D01*
X86900Y369350D02*
X92200D01*
X174250Y153000D02*
X210250D01*
X174250Y133000D02*
X210250D01*
X194250Y138900D02*
Y147000D01*
X190250Y139000D02*
Y147000D01*
X280500Y851250D02*
X311250D01*
X280500Y835250D02*
X311250D01*
X297400Y840550D02*
Y845850D01*
X294600Y840550D02*
Y845850D01*
X246750Y760750D02*
Y791500D01*
X262750Y760750D02*
Y791500D01*
X252150Y777650D02*
X257450D01*
X252150Y774850D02*
X257450D01*
X426000Y389750D02*
X430000D01*
Y394000D01*
X426000D02*
X430000D01*
X426000Y389750D02*
Y394000D01*
X412750Y383750D02*
Y399750D01*
X443500D01*
Y383750D02*
Y399750D01*
X412750Y383750D02*
X443500D01*
X19750Y175750D02*
X27750D01*
X19750Y179750D02*
X27850D01*
X33750Y159750D02*
Y195750D01*
X13750Y159750D02*
Y195750D01*
D14*
X284750Y896000D02*
G03*
X284750Y896000I-3000J0D01*
G01*
X165000D02*
G03*
X165000Y896000I-3000J0D01*
G01*
D15*
X29000Y711500D02*
G03*
X29000Y711500I-1500J0D01*
G01*
D16*
X304250Y307500D02*
Y342500D01*
Y307500D02*
X316650D01*
X369250D02*
Y342500D01*
X356850Y307500D02*
X369250D01*
X414300Y439700D02*
Y508300D01*
X472700Y439700D02*
Y508300D01*
X192600Y314500D02*
X198000D01*
X58000D02*
X63400D01*
X192600Y174500D02*
X198000D01*
X58000D02*
X63400D01*
X198000Y309100D02*
Y314500D01*
X58000Y309100D02*
Y314500D01*
X198000Y174500D02*
Y179900D01*
X58000Y174500D02*
Y179900D01*
X164720Y795800D02*
X168740D01*
X164660Y795860D02*
X164720Y795800D01*
X164660Y795860D02*
Y799820D01*
X200740Y795770D02*
X204700D01*
X204760Y795830D02*
Y799850D01*
X164730Y835850D02*
X168690D01*
X164670Y831770D02*
Y835790D01*
X204780Y831820D02*
Y835780D01*
X200700Y835840D02*
X204720D01*
X37500Y753300D02*
X197500D01*
X37500Y539300D02*
X197500D01*
Y663500D01*
Y694500D02*
Y753300D01*
X37500Y539300D02*
Y663500D01*
Y694500D02*
Y753300D01*
D17*
X128614Y365488D02*
Y388602D01*
Y365488D02*
X163666D01*
Y407398D01*
X146394D02*
X163666D01*
X128614Y400540D02*
Y407398D01*
X135980D01*
X236364Y802238D02*
Y825352D01*
Y802238D02*
X271416D01*
Y844148D01*
X254144D02*
X271416D01*
X236364Y837290D02*
Y844148D01*
X243730D01*
D18*
X269230Y493850D02*
Y520750D01*
X269000D02*
X269230D01*
Y390750D02*
Y417650D01*
X269000Y390750D02*
X269230D01*
X398770Y493850D02*
Y520750D01*
X399000D01*
X398770Y390750D02*
Y417650D01*
Y390750D02*
X399000D01*
X398770D02*
X399000D01*
D19*
X269000Y520750D02*
X399000D01*
X269000Y390750D02*
X399000D01*
D20*
X301000Y815000D02*
D03*
D21*
X228500Y729249D02*
D03*
M02*
