G04*
G04 #@! TF.GenerationSoftware,Altium Limited,Altium Designer,20.0.13 (296)*
G04*
G04 Layer_Physical_Order=2*
G04 Layer_Color=36540*
%FSLAX44Y44*%
%MOMM*%
G71*
G01*
G75*
%ADD10C,0.2500*%
%ADD11C,0.2000*%
%ADD84C,1.5000*%
%ADD86C,1.4000*%
%ADD88C,1.6000*%
%ADD91C,1.3980*%
%ADD93C,2.4450*%
%ADD95C,0.7000*%
%ADD96C,0.8000*%
G36*
X496432Y3569D02*
X3569D01*
Y996432D01*
X496432D01*
Y3569D01*
D02*
G37*
%LPC*%
G36*
X361350Y960182D02*
X358870Y959856D01*
X356559Y958898D01*
X354575Y957376D01*
X353052Y955391D01*
X352095Y953080D01*
X351768Y950600D01*
X352095Y948120D01*
X353052Y945809D01*
X354575Y943825D01*
X356559Y942302D01*
X358870Y941345D01*
X361350Y941018D01*
X363830Y941345D01*
X366141Y942302D01*
X368125Y943825D01*
X369648Y945809D01*
X370606Y948120D01*
X370932Y950600D01*
X370606Y953080D01*
X369648Y955391D01*
X368125Y957376D01*
X366141Y958898D01*
X363830Y959856D01*
X361350Y960182D01*
D02*
G37*
G36*
X335950D02*
X333470Y959856D01*
X331159Y958898D01*
X329175Y957376D01*
X327652Y955391D01*
X326695Y953080D01*
X326368Y950600D01*
X326695Y948120D01*
X327652Y945809D01*
X329175Y943825D01*
X331159Y942302D01*
X333470Y941345D01*
X335950Y941018D01*
X338430Y941345D01*
X340741Y942302D01*
X342725Y943825D01*
X344248Y945809D01*
X345205Y948120D01*
X345532Y950600D01*
X345205Y953080D01*
X344248Y955391D01*
X342725Y957376D01*
X340741Y958898D01*
X338430Y959856D01*
X335950Y960182D01*
D02*
G37*
G36*
X310550D02*
X308070Y959856D01*
X305759Y958898D01*
X303775Y957376D01*
X302252Y955391D01*
X301295Y953080D01*
X300968Y950600D01*
X301295Y948120D01*
X302252Y945809D01*
X303775Y943825D01*
X305759Y942302D01*
X308070Y941345D01*
X310550Y941018D01*
X313030Y941345D01*
X315341Y942302D01*
X317325Y943825D01*
X318848Y945809D01*
X319806Y948120D01*
X320132Y950600D01*
X319806Y953080D01*
X318848Y955391D01*
X317325Y957376D01*
X315341Y958898D01*
X313030Y959856D01*
X310550Y960182D01*
D02*
G37*
G36*
X285150D02*
X282670Y959856D01*
X280359Y958898D01*
X278375Y957376D01*
X276852Y955391D01*
X275895Y953080D01*
X275568Y950600D01*
X275895Y948120D01*
X276852Y945809D01*
X278375Y943825D01*
X280359Y942302D01*
X282670Y941345D01*
X285150Y941018D01*
X287630Y941345D01*
X289941Y942302D01*
X291926Y943825D01*
X293448Y945809D01*
X294405Y948120D01*
X294732Y950600D01*
X294405Y953080D01*
X293448Y955391D01*
X291926Y957376D01*
X289941Y958898D01*
X287630Y959856D01*
X285150Y960182D01*
D02*
G37*
G36*
X241600D02*
X239120Y959856D01*
X236809Y958898D01*
X234824Y957376D01*
X233302Y955391D01*
X232344Y953080D01*
X232018Y950600D01*
X232344Y948120D01*
X233302Y945809D01*
X234824Y943825D01*
X236809Y942302D01*
X239120Y941345D01*
X241600Y941018D01*
X244080Y941345D01*
X246391Y942302D01*
X248375Y943825D01*
X249898Y945809D01*
X250855Y948120D01*
X251182Y950600D01*
X250855Y953080D01*
X249898Y955391D01*
X248375Y957376D01*
X246391Y958898D01*
X244080Y959856D01*
X241600Y960182D01*
D02*
G37*
G36*
X216200D02*
X213720Y959856D01*
X211409Y958898D01*
X209424Y957376D01*
X207901Y955391D01*
X206944Y953080D01*
X206618Y950600D01*
X206944Y948120D01*
X207901Y945809D01*
X209424Y943825D01*
X211409Y942302D01*
X213720Y941345D01*
X216200Y941018D01*
X218680Y941345D01*
X220991Y942302D01*
X222975Y943825D01*
X224498Y945809D01*
X225455Y948120D01*
X225782Y950600D01*
X225455Y953080D01*
X224498Y955391D01*
X222975Y957376D01*
X220991Y958898D01*
X218680Y959856D01*
X216200Y960182D01*
D02*
G37*
G36*
X190800D02*
X188320Y959856D01*
X186009Y958898D01*
X184024Y957376D01*
X182502Y955391D01*
X181544Y953080D01*
X181218Y950600D01*
X181544Y948120D01*
X182502Y945809D01*
X184024Y943825D01*
X186009Y942302D01*
X188320Y941345D01*
X190800Y941018D01*
X193280Y941345D01*
X195591Y942302D01*
X197575Y943825D01*
X199098Y945809D01*
X200055Y948120D01*
X200382Y950600D01*
X200055Y953080D01*
X199098Y955391D01*
X197575Y957376D01*
X195591Y958898D01*
X193280Y959856D01*
X190800Y960182D01*
D02*
G37*
G36*
X165400D02*
X162920Y959856D01*
X160609Y958898D01*
X158624Y957376D01*
X157101Y955391D01*
X156144Y953080D01*
X155818Y950600D01*
X156144Y948120D01*
X157101Y945809D01*
X158624Y943825D01*
X160609Y942302D01*
X162920Y941345D01*
X165400Y941018D01*
X167880Y941345D01*
X170191Y942302D01*
X172175Y943825D01*
X173698Y945809D01*
X174655Y948120D01*
X174982Y950600D01*
X174655Y953080D01*
X173698Y955391D01*
X172175Y957376D01*
X170191Y958898D01*
X167880Y959856D01*
X165400Y960182D01*
D02*
G37*
G36*
X440500Y916500D02*
X421500D01*
Y897500D01*
X440500D01*
Y916500D01*
D02*
G37*
G36*
X456400Y916582D02*
X453920Y916255D01*
X451609Y915298D01*
X449624Y913775D01*
X448102Y911791D01*
X447145Y909480D01*
X446818Y907000D01*
X447145Y904520D01*
X448102Y902209D01*
X449624Y900225D01*
X451609Y898702D01*
X453920Y897745D01*
X456400Y897418D01*
X458880Y897745D01*
X461191Y898702D01*
X463175Y900225D01*
X464698Y902209D01*
X465655Y904520D01*
X465982Y907000D01*
X465655Y909480D01*
X464698Y911791D01*
X463175Y913775D01*
X461191Y915298D01*
X458880Y916255D01*
X456400Y916582D01*
D02*
G37*
G36*
X108500D02*
X106020Y916255D01*
X103709Y915298D01*
X101725Y913775D01*
X100202Y911791D01*
X99245Y909480D01*
X98918Y907000D01*
X99245Y904520D01*
X100202Y902209D01*
X101725Y900225D01*
X103709Y898702D01*
X106020Y897745D01*
X108500Y897418D01*
X110980Y897745D01*
X113291Y898702D01*
X115276Y900225D01*
X116798Y902209D01*
X117756Y904520D01*
X118082Y907000D01*
X117756Y909480D01*
X116798Y911791D01*
X115276Y913775D01*
X113291Y915298D01*
X110980Y916255D01*
X108500Y916582D01*
D02*
G37*
G36*
X83100D02*
X80620Y916255D01*
X78309Y915298D01*
X76325Y913775D01*
X74802Y911791D01*
X73845Y909480D01*
X73518Y907000D01*
X73845Y904520D01*
X74802Y902209D01*
X76325Y900225D01*
X78309Y898702D01*
X80620Y897745D01*
X83100Y897418D01*
X85580Y897745D01*
X87891Y898702D01*
X89876Y900225D01*
X91398Y902209D01*
X92356Y904520D01*
X92682Y907000D01*
X92356Y909480D01*
X91398Y911791D01*
X89876Y913775D01*
X87891Y915298D01*
X85580Y916255D01*
X83100Y916582D01*
D02*
G37*
G36*
X109770Y891559D02*
Y882870D01*
X118460D01*
X118282Y884221D01*
X117270Y886663D01*
X115661Y888761D01*
X113563Y890370D01*
X111121Y891382D01*
X109770Y891559D01*
D02*
G37*
G36*
X84370D02*
Y882870D01*
X93060D01*
X92882Y884221D01*
X91870Y886663D01*
X90261Y888761D01*
X88163Y890370D01*
X85721Y891382D01*
X84370Y891559D01*
D02*
G37*
G36*
X457670D02*
Y882870D01*
X466359D01*
X466181Y884221D01*
X465170Y886663D01*
X463560Y888761D01*
X461463Y890370D01*
X459021Y891382D01*
X457670Y891559D01*
D02*
G37*
G36*
X432270D02*
Y882870D01*
X440959D01*
X440782Y884221D01*
X439770Y886663D01*
X438161Y888761D01*
X436063Y890370D01*
X433621Y891382D01*
X432270Y891559D01*
D02*
G37*
G36*
X455130D02*
X453779Y891382D01*
X451337Y890370D01*
X449239Y888761D01*
X447630Y886663D01*
X446618Y884221D01*
X446441Y882870D01*
X455130D01*
Y891559D01*
D02*
G37*
G36*
X429730D02*
X428379Y891382D01*
X425937Y890370D01*
X423839Y888761D01*
X422230Y886663D01*
X421218Y884221D01*
X421040Y882870D01*
X429730D01*
Y891559D01*
D02*
G37*
G36*
X107230D02*
X105879Y891382D01*
X103437Y890370D01*
X101340Y888761D01*
X99730Y886663D01*
X98719Y884221D01*
X98541Y882870D01*
X107230D01*
Y891559D01*
D02*
G37*
G36*
X81830D02*
X80479Y891382D01*
X78037Y890370D01*
X75940Y888761D01*
X74330Y886663D01*
X73319Y884221D01*
X73141Y882870D01*
X81830D01*
Y891559D01*
D02*
G37*
G36*
X118460Y880330D02*
X109770D01*
Y871641D01*
X111121Y871818D01*
X113563Y872830D01*
X115661Y874439D01*
X117270Y876537D01*
X118282Y878979D01*
X118460Y880330D01*
D02*
G37*
G36*
X93060D02*
X84370D01*
Y871641D01*
X85721Y871818D01*
X88163Y872830D01*
X90261Y874439D01*
X91870Y876537D01*
X92882Y878979D01*
X93060Y880330D01*
D02*
G37*
G36*
X466359D02*
X457670D01*
Y871641D01*
X459021Y871818D01*
X461463Y872830D01*
X463560Y874439D01*
X465170Y876537D01*
X466181Y878979D01*
X466359Y880330D01*
D02*
G37*
G36*
X440959D02*
X432270D01*
Y871641D01*
X433621Y871818D01*
X436063Y872830D01*
X438161Y874439D01*
X439770Y876537D01*
X440782Y878979D01*
X440959Y880330D01*
D02*
G37*
G36*
X455130D02*
X446441D01*
X446618Y878979D01*
X447630Y876537D01*
X449239Y874439D01*
X451337Y872830D01*
X453779Y871818D01*
X455130Y871641D01*
Y880330D01*
D02*
G37*
G36*
X429730D02*
X421040D01*
X421218Y878979D01*
X422230Y876537D01*
X423839Y874439D01*
X425937Y872830D01*
X428379Y871818D01*
X429730Y871641D01*
Y880330D01*
D02*
G37*
G36*
X107230D02*
X98541D01*
X98719Y878979D01*
X99730Y876537D01*
X101340Y874439D01*
X103437Y872830D01*
X105879Y871818D01*
X107230Y871641D01*
Y880330D01*
D02*
G37*
G36*
X81830D02*
X73141D01*
X73319Y878979D01*
X74330Y876537D01*
X75940Y874439D01*
X78037Y872830D01*
X80479Y871818D01*
X81830Y871641D01*
Y880330D01*
D02*
G37*
G36*
X190800Y883982D02*
X188320Y883656D01*
X186009Y882698D01*
X184024Y881176D01*
X182502Y879191D01*
X181544Y876880D01*
X181218Y874400D01*
X181544Y871920D01*
X182502Y869609D01*
X184024Y867625D01*
X186009Y866102D01*
X185506Y864945D01*
X185329Y864980D01*
X185329Y864980D01*
X174900D01*
Y883900D01*
X155900D01*
Y864980D01*
X145422D01*
X144251Y864747D01*
X143259Y864084D01*
X143259Y864084D01*
X131337Y852163D01*
X130674Y851170D01*
X130441Y850000D01*
X130441Y850000D01*
Y842571D01*
X129535Y841965D01*
X128319Y840146D01*
X127892Y838000D01*
X128319Y835854D01*
X129535Y834035D01*
X130710Y833249D01*
Y831751D01*
X129535Y830965D01*
X128319Y829146D01*
X127892Y827000D01*
X128319Y824854D01*
X128410Y824718D01*
X127924Y823544D01*
X127354Y823431D01*
X125535Y822215D01*
X124319Y820396D01*
X123892Y818250D01*
X124319Y816104D01*
X125535Y814285D01*
X126441Y813679D01*
Y796595D01*
X60847Y731001D01*
X60184Y730009D01*
X59951Y728838D01*
X59951Y728838D01*
Y673064D01*
X59951Y673064D01*
X60184Y671893D01*
X60847Y670901D01*
X63992Y667756D01*
X63415Y666536D01*
X60350Y666838D01*
X56772Y666486D01*
X53332Y665443D01*
X50162Y663748D01*
X47383Y661467D01*
X45102Y658688D01*
X43408Y655518D01*
X42364Y652078D01*
X42012Y648500D01*
X42364Y644922D01*
X43408Y641482D01*
X45102Y638312D01*
X47383Y635533D01*
X50162Y633252D01*
X53332Y631558D01*
X56772Y630514D01*
X60350Y630162D01*
X63928Y630514D01*
X67368Y631558D01*
X70538Y633252D01*
X73317Y635533D01*
X75598Y638312D01*
X77292Y641482D01*
X78336Y644922D01*
X78688Y648500D01*
X78386Y651565D01*
X79606Y652142D01*
X84241Y647507D01*
Y607439D01*
X82971Y606813D01*
X81517Y607929D01*
X79169Y608902D01*
X76650Y609233D01*
X74131Y608902D01*
X71783Y607929D01*
X69768Y606382D01*
X68221Y604367D01*
X67249Y602019D01*
X66917Y599500D01*
X67249Y596981D01*
X68221Y594633D01*
X69768Y592617D01*
X71783Y591071D01*
X74131Y590098D01*
X76650Y589767D01*
X79169Y590098D01*
X81517Y591071D01*
X82971Y592187D01*
X84241Y591561D01*
Y498945D01*
X44337Y459041D01*
X43674Y458048D01*
X43441Y456878D01*
X43441Y456878D01*
Y192843D01*
X43441Y192843D01*
X43674Y191673D01*
X44337Y190680D01*
X59180Y175837D01*
X59180Y175837D01*
X60173Y175174D01*
X61343Y174941D01*
X74135D01*
X74135Y174941D01*
X75305Y175174D01*
X76298Y175837D01*
X90919Y190458D01*
X91250Y190392D01*
X93396Y190819D01*
X95215Y192035D01*
X96431Y193854D01*
X96858Y196000D01*
X96431Y198146D01*
X95215Y199965D01*
X93396Y201181D01*
X91250Y201608D01*
X89104Y201181D01*
X87285Y199965D01*
X86069Y198146D01*
X85942Y197505D01*
X84593Y197237D01*
X84428Y197485D01*
X82608Y198701D01*
X81888Y198844D01*
X81470Y200222D01*
X110913Y229666D01*
X111576Y230658D01*
X111809Y231828D01*
X111809Y231828D01*
Y245483D01*
X135681Y269355D01*
X136750Y269142D01*
X138896Y269569D01*
X140715Y270784D01*
X141931Y272604D01*
X142358Y274750D01*
X141931Y276896D01*
X140715Y278715D01*
X138896Y279931D01*
X136750Y280357D01*
X134604Y279931D01*
X132785Y278715D01*
X131569Y276896D01*
X131142Y274750D01*
X131355Y273681D01*
X106587Y248913D01*
X105924Y247920D01*
X105691Y246750D01*
X105691Y246750D01*
Y233095D01*
X63961Y191365D01*
X60809Y194517D01*
Y239983D01*
X86768Y265942D01*
X87941Y265456D01*
Y238267D01*
X80233Y230559D01*
X75571D01*
X74965Y231465D01*
X73146Y232681D01*
X71000Y233108D01*
X68854Y232681D01*
X67035Y231465D01*
X65819Y229646D01*
X65392Y227500D01*
X65819Y225354D01*
X67035Y223535D01*
X68854Y222319D01*
X71000Y221892D01*
X73146Y222319D01*
X74965Y223535D01*
X75571Y224441D01*
X81500D01*
X81500Y224441D01*
X82670Y224674D01*
X83663Y225337D01*
X93163Y234837D01*
X93826Y235829D01*
X94059Y237000D01*
Y267576D01*
X232913Y406430D01*
X232913Y406430D01*
X233576Y407423D01*
X233809Y408593D01*
X233809Y408593D01*
Y789557D01*
X233809Y790157D01*
X234785Y790947D01*
X235896Y791168D01*
X236071Y791285D01*
X237191Y790687D01*
Y402767D01*
X156337Y321913D01*
X155674Y320920D01*
X155441Y319750D01*
X155441Y319750D01*
Y280517D01*
X140069Y265145D01*
X139000Y265358D01*
X136854Y264931D01*
X135035Y263715D01*
X133819Y261896D01*
X133392Y259750D01*
X133819Y257604D01*
X135035Y255785D01*
X136854Y254569D01*
X139000Y254142D01*
X141146Y254569D01*
X142965Y255785D01*
X144181Y257604D01*
X144608Y259750D01*
X144395Y260819D01*
X159421Y275846D01*
X160691Y275319D01*
Y265674D01*
X142655Y247637D01*
X133518D01*
X132356Y249377D01*
X130536Y250592D01*
X128390Y251019D01*
X126244Y250592D01*
X124425Y249377D01*
X123210Y247557D01*
X122783Y245411D01*
X123210Y243265D01*
X124425Y241446D01*
X126244Y240230D01*
X128390Y239804D01*
X130536Y240230D01*
X132356Y241446D01*
X132405Y241520D01*
X140535D01*
X141021Y240346D01*
X104087Y203413D01*
X103424Y202421D01*
X103191Y201250D01*
X103191Y201250D01*
Y191767D01*
X65837Y154413D01*
X65174Y153420D01*
X64941Y152250D01*
X64941Y152250D01*
Y131250D01*
X64941Y131250D01*
X65174Y130080D01*
X65837Y129087D01*
X85105Y109819D01*
X84893Y108750D01*
X85319Y106604D01*
X86535Y104785D01*
X88354Y103569D01*
X90500Y103142D01*
X92646Y103569D01*
X94466Y104785D01*
X95681Y106604D01*
X96108Y108750D01*
X95681Y110896D01*
X94466Y112715D01*
X92646Y113931D01*
X90500Y114358D01*
X89431Y114145D01*
X71059Y132517D01*
Y150983D01*
X108413Y188337D01*
X108413Y188337D01*
X109076Y189329D01*
X109309Y190500D01*
X109309Y190500D01*
Y199983D01*
X169913Y260587D01*
X169913Y260587D01*
X170576Y261579D01*
X170809Y262750D01*
X170809Y262750D01*
Y281983D01*
X177789Y288963D01*
X178960Y288337D01*
X178892Y288000D01*
X179319Y285854D01*
X180535Y284035D01*
X182354Y282819D01*
X184500Y282392D01*
X186646Y282819D01*
X188465Y284035D01*
X189681Y285854D01*
X190108Y288000D01*
X189681Y290146D01*
X188465Y291965D01*
X186646Y293181D01*
X186575Y293195D01*
X186534Y293304D01*
X186441Y294516D01*
X187965Y295535D01*
X189181Y297354D01*
X189608Y299500D01*
X189181Y301646D01*
X187965Y303465D01*
X186146Y304681D01*
X184000Y305108D01*
X181854Y304681D01*
X180035Y303465D01*
X178819Y301646D01*
X178392Y299500D01*
X178605Y298431D01*
X167982Y287808D01*
X166809Y288294D01*
Y310483D01*
X248413Y392087D01*
X248413Y392087D01*
X249076Y393079D01*
X249309Y394250D01*
Y817198D01*
X249076Y818369D01*
X248413Y819361D01*
X248413Y819361D01*
X219840Y847934D01*
X219193Y848366D01*
X218962Y848712D01*
X217143Y849928D01*
X214997Y850355D01*
X212851Y849928D01*
X211191Y848819D01*
X210790Y848764D01*
X209695Y848999D01*
X208715Y850465D01*
X206896Y851681D01*
X204750Y852108D01*
X202604Y851681D01*
X201881Y851198D01*
X200413Y851163D01*
X200413Y851163D01*
X187491Y864084D01*
X187379Y864160D01*
X187980Y865285D01*
X188320Y865145D01*
X190800Y864818D01*
X193280Y865145D01*
X195591Y866102D01*
X197575Y867625D01*
X199098Y869609D01*
X200055Y871920D01*
X200382Y874400D01*
X200055Y876880D01*
X199098Y879191D01*
X197575Y881176D01*
X195591Y882698D01*
X193280Y883656D01*
X190800Y883982D01*
D02*
G37*
G36*
X294650Y883900D02*
X275650D01*
Y864900D01*
X294650D01*
Y883900D01*
D02*
G37*
G36*
X310550Y883982D02*
X308070Y883656D01*
X305759Y882698D01*
X303775Y881176D01*
X302252Y879191D01*
X301295Y876880D01*
X300968Y874400D01*
X301295Y871920D01*
X302252Y869609D01*
X303775Y867625D01*
X305759Y866102D01*
X308070Y865145D01*
X310550Y864818D01*
X313030Y865145D01*
X315341Y866102D01*
X317325Y867625D01*
X318848Y869609D01*
X319806Y871920D01*
X320132Y874400D01*
X319806Y876880D01*
X318848Y879191D01*
X317325Y881176D01*
X315341Y882698D01*
X313030Y883656D01*
X310550Y883982D01*
D02*
G37*
G36*
X241600D02*
X239120Y883656D01*
X236809Y882698D01*
X234824Y881176D01*
X233302Y879191D01*
X232344Y876880D01*
X232018Y874400D01*
X232344Y871920D01*
X233302Y869609D01*
X234824Y867625D01*
X236809Y866102D01*
X239120Y865145D01*
X241600Y864818D01*
X244080Y865145D01*
X246391Y866102D01*
X248375Y867625D01*
X249898Y869609D01*
X250855Y871920D01*
X251182Y874400D01*
X250855Y876880D01*
X249898Y879191D01*
X248375Y881176D01*
X246391Y882698D01*
X244080Y883656D01*
X241600Y883982D01*
D02*
G37*
G36*
X216200D02*
X213720Y883656D01*
X211409Y882698D01*
X209424Y881176D01*
X207901Y879191D01*
X206944Y876880D01*
X206618Y874400D01*
X206944Y871920D01*
X207901Y869609D01*
X209424Y867625D01*
X211409Y866102D01*
X213720Y865145D01*
X216200Y864818D01*
X218680Y865145D01*
X220991Y866102D01*
X222975Y867625D01*
X224498Y869609D01*
X225455Y871920D01*
X225782Y874400D01*
X225455Y876880D01*
X224498Y879191D01*
X222975Y881176D01*
X220991Y882698D01*
X218680Y883656D01*
X216200Y883982D01*
D02*
G37*
G36*
X456400Y865782D02*
X453920Y865455D01*
X451609Y864498D01*
X449624Y862975D01*
X448102Y860991D01*
X447145Y858680D01*
X446818Y856200D01*
X447145Y853720D01*
X448102Y851409D01*
X449624Y849425D01*
X451609Y847902D01*
X453920Y846945D01*
X456400Y846618D01*
X458880Y846945D01*
X461191Y847902D01*
X463175Y849425D01*
X464698Y851409D01*
X465655Y853720D01*
X465982Y856200D01*
X465655Y858680D01*
X464698Y860991D01*
X463175Y862975D01*
X461191Y864498D01*
X458880Y865455D01*
X456400Y865782D01*
D02*
G37*
G36*
X431000D02*
X428520Y865455D01*
X426209Y864498D01*
X424225Y862975D01*
X422702Y860991D01*
X421744Y858680D01*
X421418Y856200D01*
X421744Y853720D01*
X422702Y851409D01*
X424225Y849425D01*
X426209Y847902D01*
X428520Y846945D01*
X431000Y846618D01*
X433480Y846945D01*
X435791Y847902D01*
X437775Y849425D01*
X439298Y851409D01*
X440255Y853720D01*
X440582Y856200D01*
X440255Y858680D01*
X439298Y860991D01*
X437775Y862975D01*
X435791Y864498D01*
X433480Y865455D01*
X431000Y865782D01*
D02*
G37*
G36*
X108500D02*
X106020Y865455D01*
X103709Y864498D01*
X101725Y862975D01*
X100202Y860991D01*
X99245Y858680D01*
X98918Y856200D01*
X99245Y853720D01*
X100202Y851409D01*
X101725Y849425D01*
X103709Y847902D01*
X106020Y846945D01*
X108500Y846618D01*
X110980Y846945D01*
X113291Y847902D01*
X115276Y849425D01*
X116798Y851409D01*
X117756Y853720D01*
X118082Y856200D01*
X117756Y858680D01*
X116798Y860991D01*
X115276Y862975D01*
X113291Y864498D01*
X110980Y865455D01*
X108500Y865782D01*
D02*
G37*
G36*
X83100D02*
X80620Y865455D01*
X78309Y864498D01*
X76325Y862975D01*
X74802Y860991D01*
X73845Y858680D01*
X73518Y856200D01*
X73845Y853720D01*
X74802Y851409D01*
X76325Y849425D01*
X78309Y847902D01*
X80620Y846945D01*
X83100Y846618D01*
X85580Y846945D01*
X87891Y847902D01*
X89876Y849425D01*
X91398Y851409D01*
X92356Y853720D01*
X92682Y856200D01*
X92356Y858680D01*
X91398Y860991D01*
X89876Y862975D01*
X87891Y864498D01*
X85580Y865455D01*
X83100Y865782D01*
D02*
G37*
G36*
X240750Y857608D02*
X238604Y857181D01*
X236785Y855965D01*
X235569Y854146D01*
X235142Y852000D01*
X235569Y849854D01*
X236785Y848035D01*
X238604Y846819D01*
X240750Y846392D01*
X242896Y846819D01*
X244715Y848035D01*
X245931Y849854D01*
X246358Y852000D01*
X245931Y854146D01*
X244715Y855965D01*
X242896Y857181D01*
X240750Y857608D01*
D02*
G37*
G36*
X109770Y840759D02*
Y832070D01*
X118460D01*
X118282Y833421D01*
X117270Y835863D01*
X115661Y837961D01*
X113563Y839570D01*
X111121Y840582D01*
X109770Y840759D01*
D02*
G37*
G36*
X84370D02*
Y832070D01*
X93060D01*
X92882Y833421D01*
X91870Y835863D01*
X90261Y837961D01*
X88163Y839570D01*
X85721Y840582D01*
X84370Y840759D01*
D02*
G37*
G36*
X457670D02*
Y832070D01*
X466359D01*
X466181Y833421D01*
X465170Y835863D01*
X463560Y837961D01*
X461463Y839570D01*
X459021Y840582D01*
X457670Y840759D01*
D02*
G37*
G36*
X432270D02*
Y832070D01*
X440959D01*
X440782Y833421D01*
X439770Y835863D01*
X438161Y837961D01*
X436063Y839570D01*
X433621Y840582D01*
X432270Y840759D01*
D02*
G37*
G36*
X455130D02*
X453779Y840582D01*
X451337Y839570D01*
X449239Y837961D01*
X447630Y835863D01*
X446618Y833421D01*
X446441Y832070D01*
X455130D01*
Y840759D01*
D02*
G37*
G36*
X429730D02*
X428379Y840582D01*
X425937Y839570D01*
X423839Y837961D01*
X422230Y835863D01*
X421218Y833421D01*
X421040Y832070D01*
X429730D01*
Y840759D01*
D02*
G37*
G36*
X107230D02*
X105879Y840582D01*
X103437Y839570D01*
X101340Y837961D01*
X99730Y835863D01*
X98719Y833421D01*
X98541Y832070D01*
X107230D01*
Y840759D01*
D02*
G37*
G36*
X81830D02*
X80479Y840582D01*
X78037Y839570D01*
X75940Y837961D01*
X74330Y835863D01*
X73319Y833421D01*
X73141Y832070D01*
X81830D01*
Y840759D01*
D02*
G37*
G36*
X118460Y829530D02*
X109770D01*
Y820841D01*
X111121Y821018D01*
X113563Y822030D01*
X115661Y823639D01*
X117270Y825737D01*
X118282Y828179D01*
X118460Y829530D01*
D02*
G37*
G36*
X93060D02*
X84370D01*
Y820841D01*
X85721Y821018D01*
X88163Y822030D01*
X90261Y823639D01*
X91870Y825737D01*
X92882Y828179D01*
X93060Y829530D01*
D02*
G37*
G36*
X466359D02*
X457670D01*
Y820841D01*
X459021Y821018D01*
X461463Y822030D01*
X463560Y823639D01*
X465170Y825737D01*
X466181Y828179D01*
X466359Y829530D01*
D02*
G37*
G36*
X440959D02*
X432270D01*
Y820841D01*
X433621Y821018D01*
X436063Y822030D01*
X438161Y823639D01*
X439770Y825737D01*
X440782Y828179D01*
X440959Y829530D01*
D02*
G37*
G36*
X455130D02*
X446441D01*
X446618Y828179D01*
X447630Y825737D01*
X449239Y823639D01*
X451337Y822030D01*
X453779Y821018D01*
X455130Y820841D01*
Y829530D01*
D02*
G37*
G36*
X429730D02*
X421040D01*
X421218Y828179D01*
X422230Y825737D01*
X423839Y823639D01*
X425937Y822030D01*
X428379Y821018D01*
X429730Y820841D01*
Y829530D01*
D02*
G37*
G36*
X107230D02*
X98541D01*
X98719Y828179D01*
X99730Y825737D01*
X101340Y823639D01*
X103437Y822030D01*
X105879Y821018D01*
X107230Y820841D01*
Y829530D01*
D02*
G37*
G36*
X81830D02*
X73141D01*
X73319Y828179D01*
X74330Y825737D01*
X75940Y823639D01*
X78037Y822030D01*
X80479Y821018D01*
X81830Y820841D01*
Y829530D01*
D02*
G37*
G36*
X118000Y814900D02*
X99000D01*
Y795900D01*
X118000D01*
Y814900D01*
D02*
G37*
G36*
X456400Y814982D02*
X453920Y814655D01*
X451609Y813698D01*
X449624Y812175D01*
X448102Y810191D01*
X447145Y807880D01*
X446818Y805400D01*
X447145Y802920D01*
X448102Y800609D01*
X449624Y798624D01*
X451609Y797102D01*
X453920Y796144D01*
X456400Y795818D01*
X458880Y796144D01*
X461191Y797102D01*
X463175Y798624D01*
X464698Y800609D01*
X465655Y802920D01*
X465982Y805400D01*
X465655Y807880D01*
X464698Y810191D01*
X463175Y812175D01*
X461191Y813698D01*
X458880Y814655D01*
X456400Y814982D01*
D02*
G37*
G36*
X431000D02*
X428520Y814655D01*
X426209Y813698D01*
X424225Y812175D01*
X422702Y810191D01*
X421744Y807880D01*
X421418Y805400D01*
X421744Y802920D01*
X422702Y800609D01*
X424225Y798624D01*
X426209Y797102D01*
X428520Y796144D01*
X431000Y795818D01*
X433480Y796144D01*
X435791Y797102D01*
X437775Y798624D01*
X439298Y800609D01*
X440255Y802920D01*
X440582Y805400D01*
X440255Y807880D01*
X439298Y810191D01*
X437775Y812175D01*
X435791Y813698D01*
X433480Y814655D01*
X431000Y814982D01*
D02*
G37*
G36*
X83100D02*
X80620Y814655D01*
X78309Y813698D01*
X76325Y812175D01*
X74802Y810191D01*
X73845Y807880D01*
X73518Y805400D01*
X73845Y802920D01*
X74802Y800609D01*
X76325Y798624D01*
X78309Y797102D01*
X80620Y796144D01*
X83100Y795818D01*
X85580Y796144D01*
X87891Y797102D01*
X89876Y798624D01*
X91398Y800609D01*
X92356Y802920D01*
X92682Y805400D01*
X92356Y807880D01*
X91398Y810191D01*
X89876Y812175D01*
X87891Y813698D01*
X85580Y814655D01*
X83100Y814982D01*
D02*
G37*
G36*
X269500Y800108D02*
X267354Y799681D01*
X265535Y798465D01*
X264319Y796646D01*
X263892Y794500D01*
X264319Y792354D01*
X265535Y790535D01*
X267354Y789319D01*
X269500Y788892D01*
X271646Y789319D01*
X273465Y790535D01*
X274681Y792354D01*
X275108Y794500D01*
X274681Y796646D01*
X273465Y798465D01*
X271646Y799681D01*
X269500Y800108D01*
D02*
G37*
G36*
X102500Y788608D02*
X100354Y788181D01*
X98535Y786965D01*
X97319Y785146D01*
X96892Y783000D01*
X97319Y780854D01*
X98535Y779035D01*
X100354Y777819D01*
X102500Y777393D01*
X104646Y777819D01*
X106466Y779035D01*
X107681Y780854D01*
X108108Y783000D01*
X107681Y785146D01*
X106466Y786965D01*
X104646Y788181D01*
X102500Y788608D01*
D02*
G37*
G36*
X361350Y883982D02*
X358870Y883656D01*
X356559Y882698D01*
X354575Y881176D01*
X353052Y879191D01*
X352095Y876880D01*
X351768Y874400D01*
X352095Y871920D01*
X353052Y869609D01*
X354575Y867625D01*
X356559Y866102D01*
X358691Y865219D01*
Y856017D01*
X266837Y764163D01*
X266829Y764150D01*
X265559Y764536D01*
Y766733D01*
X338113Y839287D01*
X338776Y840279D01*
X339009Y841450D01*
X339009Y841450D01*
Y865384D01*
X340741Y866102D01*
X342725Y867625D01*
X344248Y869609D01*
X345205Y871920D01*
X345532Y874400D01*
X345205Y876880D01*
X344248Y879191D01*
X342725Y881176D01*
X340741Y882698D01*
X338430Y883656D01*
X335950Y883982D01*
X333470Y883656D01*
X331159Y882698D01*
X329175Y881176D01*
X327652Y879191D01*
X326695Y876880D01*
X326368Y874400D01*
X326695Y871920D01*
X327652Y869609D01*
X329175Y867625D01*
X331159Y866102D01*
X332891Y865384D01*
Y842717D01*
X260337Y770163D01*
X259674Y769171D01*
X259441Y768000D01*
X259441Y768000D01*
Y394017D01*
X196087Y330663D01*
X195424Y329670D01*
X195191Y328500D01*
X195191Y328500D01*
Y267267D01*
X193711Y265787D01*
X192541Y266412D01*
X192608Y266750D01*
X192181Y268896D01*
X190965Y270715D01*
X189146Y271931D01*
X187000Y272358D01*
X184854Y271931D01*
X183035Y270715D01*
X181819Y268896D01*
X181392Y266750D01*
X181819Y264604D01*
X183035Y262785D01*
X184854Y261569D01*
X187000Y261142D01*
X187338Y261209D01*
X187963Y260039D01*
X184836Y256912D01*
X183487Y257358D01*
X183181Y258896D01*
X181965Y260715D01*
X180146Y261931D01*
X178000Y262358D01*
X175854Y261931D01*
X174035Y260715D01*
X172819Y258896D01*
X172392Y256750D01*
X172819Y254604D01*
X174035Y252785D01*
X175854Y251569D01*
X177391Y251263D01*
X177838Y249914D01*
X96587Y168663D01*
X95924Y167671D01*
X95691Y166500D01*
X95691Y166500D01*
Y137037D01*
X94772Y136321D01*
X93560Y136746D01*
X93431Y137396D01*
X92215Y139215D01*
X90396Y140431D01*
X88250Y140858D01*
X87550Y140719D01*
X86545Y141814D01*
X86181Y143646D01*
X84965Y145465D01*
X83146Y146681D01*
X81000Y147108D01*
X78854Y146681D01*
X77035Y145465D01*
X75819Y143646D01*
X75392Y141500D01*
X75819Y139354D01*
X77035Y137535D01*
X78854Y136319D01*
X81000Y135892D01*
X81699Y136031D01*
X82704Y134936D01*
X83069Y133104D01*
X84284Y131285D01*
X86104Y130069D01*
X88250Y129642D01*
X90396Y130069D01*
X92016Y131152D01*
X92886Y130983D01*
X93390Y130757D01*
X93569Y129854D01*
X94785Y128034D01*
X96604Y126819D01*
X98750Y126392D01*
X100896Y126819D01*
X102715Y128034D01*
X103195Y128752D01*
X104722D01*
X105035Y128285D01*
X106854Y127069D01*
X109000Y126643D01*
X111146Y127069D01*
X112965Y128285D01*
X113486Y129065D01*
X115014D01*
X115535Y128285D01*
X117354Y127069D01*
X119500Y126643D01*
X121646Y127069D01*
X123465Y128285D01*
X124681Y130104D01*
X125108Y132250D01*
X124860Y133496D01*
X125940Y134576D01*
X126721Y134421D01*
X128867Y134848D01*
X130354Y135841D01*
X130686Y136063D01*
X131538Y135221D01*
X131370Y134969D01*
X130819Y134146D01*
X130393Y132000D01*
X130819Y129854D01*
X132035Y128034D01*
X133854Y126819D01*
X136000Y126392D01*
X138146Y126819D01*
X139965Y128034D01*
X141181Y129854D01*
X141608Y132000D01*
X141181Y134146D01*
X139965Y135965D01*
X138146Y137181D01*
X136000Y137607D01*
X133854Y137181D01*
X132368Y136187D01*
X132035Y135965D01*
X131183Y136807D01*
X131352Y137059D01*
X131902Y137883D01*
X132329Y140029D01*
X131902Y142175D01*
X130686Y143994D01*
X128867Y145210D01*
X126721Y145637D01*
X124575Y145210D01*
X122756Y143994D01*
X121540Y142175D01*
X121113Y140029D01*
X121361Y138783D01*
X120281Y137703D01*
X119500Y137858D01*
X117354Y137431D01*
X115535Y136215D01*
X115014Y135436D01*
X113486D01*
X112965Y136215D01*
X112593Y136464D01*
X112861Y137812D01*
X112896Y137819D01*
X114715Y139035D01*
X115931Y140854D01*
X116358Y143000D01*
X115931Y145146D01*
X114715Y146965D01*
X112896Y148181D01*
X110750Y148608D01*
X108604Y148181D01*
X107579Y147496D01*
X106309Y148175D01*
Y160733D01*
X208163Y262587D01*
X208163Y262587D01*
X208826Y263580D01*
X209059Y264750D01*
X209059Y264750D01*
Y324233D01*
X271163Y386337D01*
X271826Y387329D01*
X272059Y388500D01*
Y760733D01*
X363913Y852587D01*
X364576Y853579D01*
X364809Y854750D01*
X364809Y854750D01*
Y865550D01*
X366141Y866102D01*
X368125Y867625D01*
X369648Y869609D01*
X370606Y871920D01*
X370932Y874400D01*
X370606Y876880D01*
X369648Y879191D01*
X368125Y881176D01*
X366141Y882698D01*
X363830Y883656D01*
X361350Y883982D01*
D02*
G37*
G36*
X41320Y693711D02*
Y680270D01*
X54762D01*
X54602Y681894D01*
X53757Y684678D01*
X52386Y687243D01*
X50541Y689491D01*
X48293Y691336D01*
X45728Y692707D01*
X42945Y693551D01*
X41320Y693711D01*
D02*
G37*
G36*
X38780D02*
X37156Y693551D01*
X34373Y692707D01*
X31808Y691336D01*
X29559Y689491D01*
X27714Y687243D01*
X26343Y684678D01*
X25499Y681894D01*
X25339Y680270D01*
X38780D01*
Y693711D01*
D02*
G37*
G36*
X54762Y677730D02*
X41320D01*
Y664289D01*
X42945Y664449D01*
X45728Y665293D01*
X48293Y666664D01*
X50541Y668509D01*
X52386Y670757D01*
X53757Y673322D01*
X54602Y676105D01*
X54762Y677730D01*
D02*
G37*
G36*
X38780D02*
X25339D01*
X25499Y676105D01*
X26343Y673322D01*
X27714Y670757D01*
X29559Y668509D01*
X31808Y666664D01*
X34373Y665293D01*
X37156Y664449D01*
X38780Y664289D01*
Y677730D01*
D02*
G37*
G36*
X51250Y609233D02*
X48731Y608902D01*
X46384Y607929D01*
X44368Y606382D01*
X42821Y604367D01*
X41849Y602019D01*
X41517Y599500D01*
X41849Y596981D01*
X42821Y594633D01*
X44368Y592617D01*
X46384Y591071D01*
X48731Y590098D01*
X51250Y589767D01*
X53769Y590098D01*
X56117Y591071D01*
X58133Y592617D01*
X59679Y594633D01*
X60652Y596981D01*
X60983Y599500D01*
X60652Y602019D01*
X59679Y604367D01*
X58133Y606382D01*
X56117Y607929D01*
X53769Y608902D01*
X51250Y609233D01*
D02*
G37*
G36*
X293770Y591205D02*
Y583020D01*
X301955D01*
X301794Y584240D01*
X300833Y586561D01*
X299304Y588554D01*
X297311Y590083D01*
X294990Y591044D01*
X293770Y591205D01*
D02*
G37*
G36*
X410520D02*
Y583020D01*
X418705D01*
X418544Y584240D01*
X417583Y586561D01*
X416054Y588554D01*
X414061Y590083D01*
X411740Y591044D01*
X410520Y591205D01*
D02*
G37*
G36*
X291230D02*
X290009Y591044D01*
X287689Y590083D01*
X285696Y588554D01*
X284167Y586561D01*
X283205Y584240D01*
X283045Y583020D01*
X291230D01*
Y591205D01*
D02*
G37*
G36*
X407980D02*
X406759Y591044D01*
X404439Y590083D01*
X402446Y588554D01*
X400917Y586561D01*
X399955Y584240D01*
X399795Y583020D01*
X407980D01*
Y591205D01*
D02*
G37*
G36*
X468250Y590750D02*
X450250D01*
Y572750D01*
X468250D01*
Y590750D01*
D02*
G37*
G36*
X351500D02*
X333500D01*
Y572750D01*
X351500D01*
Y590750D01*
D02*
G37*
G36*
X418705Y580480D02*
X410520D01*
Y572295D01*
X411740Y572455D01*
X414061Y573417D01*
X416054Y574946D01*
X417583Y576939D01*
X418544Y579259D01*
X418705Y580480D01*
D02*
G37*
G36*
X301955D02*
X293770D01*
Y572295D01*
X294990Y572455D01*
X297311Y573417D01*
X299304Y574946D01*
X300833Y576939D01*
X301794Y579259D01*
X301955Y580480D01*
D02*
G37*
G36*
X407980D02*
X399795D01*
X399955Y579259D01*
X400917Y576939D01*
X402446Y574946D01*
X404439Y573417D01*
X406759Y572455D01*
X407980Y572295D01*
Y580480D01*
D02*
G37*
G36*
X291230D02*
X283045D01*
X283205Y579259D01*
X284167Y576939D01*
X285696Y574946D01*
X287689Y573417D01*
X290009Y572455D01*
X291230Y572295D01*
Y580480D01*
D02*
G37*
G36*
X32750Y367858D02*
X30604Y367431D01*
X28784Y366216D01*
X27569Y364396D01*
X27142Y362250D01*
X27569Y360104D01*
X28784Y358285D01*
X30604Y357069D01*
X32750Y356642D01*
X34896Y357069D01*
X36715Y358285D01*
X37931Y360104D01*
X38358Y362250D01*
X37931Y364396D01*
X36715Y366216D01*
X34896Y367431D01*
X32750Y367858D01*
D02*
G37*
G36*
X223761Y288622D02*
X221615Y288195D01*
X219795Y286979D01*
X218580Y285160D01*
X218153Y283014D01*
X218580Y280868D01*
X219795Y279049D01*
X221615Y277833D01*
X223761Y277406D01*
X225907Y277833D01*
X227726Y279049D01*
X228942Y280868D01*
X229369Y283014D01*
X228942Y285160D01*
X227726Y286979D01*
X225907Y288195D01*
X223761Y288622D01*
D02*
G37*
G36*
X231750Y278800D02*
X229604Y278373D01*
X227785Y277158D01*
X226569Y275338D01*
X226142Y273192D01*
X226407Y271860D01*
X225333Y270785D01*
X224000Y271050D01*
X221854Y270623D01*
X220035Y269408D01*
X218819Y267588D01*
X218392Y265442D01*
X218819Y263296D01*
X220035Y261477D01*
X221854Y260261D01*
X224000Y259834D01*
X226146Y260261D01*
X227965Y261477D01*
X229181Y263296D01*
X229608Y265442D01*
X229343Y266775D01*
X230417Y267850D01*
X231750Y267585D01*
X233896Y268011D01*
X235715Y269227D01*
X236931Y271046D01*
X237358Y273192D01*
X236931Y275338D01*
X235715Y277158D01*
X233896Y278373D01*
X231750Y278800D01*
D02*
G37*
G36*
X296787Y268145D02*
X294641Y267718D01*
X292822Y266502D01*
X291606Y264683D01*
X291179Y262537D01*
X291606Y260391D01*
X292822Y258572D01*
X294641Y257356D01*
X296787Y256929D01*
X298933Y257356D01*
X300752Y258572D01*
X301968Y260391D01*
X302395Y262537D01*
X301968Y264683D01*
X300752Y266502D01*
X298933Y267718D01*
X296787Y268145D01*
D02*
G37*
G36*
X282250Y261358D02*
X280104Y260931D01*
X278285Y259715D01*
X277069Y257896D01*
X276642Y255750D01*
X277069Y253604D01*
X278285Y251785D01*
X280104Y250569D01*
X282250Y250142D01*
X284396Y250569D01*
X286215Y251785D01*
X287431Y253604D01*
X287858Y255750D01*
X287431Y257896D01*
X286215Y259715D01*
X284396Y260931D01*
X282250Y261358D01*
D02*
G37*
G36*
X310750Y252858D02*
X308604Y252431D01*
X306785Y251215D01*
X305569Y249396D01*
X305142Y247250D01*
X305569Y245104D01*
X306785Y243285D01*
X308604Y242069D01*
X310750Y241642D01*
X312896Y242069D01*
X314715Y243285D01*
X315931Y245104D01*
X316358Y247250D01*
X315931Y249396D01*
X314715Y251215D01*
X312896Y252431D01*
X310750Y252858D01*
D02*
G37*
G36*
X78258Y249558D02*
X76112Y249131D01*
X74292Y247915D01*
X73077Y246096D01*
X72650Y243950D01*
X73077Y241804D01*
X74292Y239985D01*
X76112Y238769D01*
X78258Y238342D01*
X80404Y238769D01*
X82223Y239985D01*
X83439Y241804D01*
X83865Y243950D01*
X83439Y246096D01*
X82223Y247915D01*
X80404Y249131D01*
X78258Y249558D01*
D02*
G37*
G36*
X245750Y236358D02*
X243604Y235931D01*
X241785Y234715D01*
X240569Y232896D01*
X240142Y230750D01*
X240569Y228604D01*
X241785Y226785D01*
X243604Y225569D01*
X245750Y225142D01*
X247896Y225569D01*
X249715Y226785D01*
X250931Y228604D01*
X251358Y230750D01*
X250931Y232896D01*
X249715Y234715D01*
X247896Y235931D01*
X245750Y236358D01*
D02*
G37*
G36*
X246000Y222108D02*
X243854Y221681D01*
X242035Y220465D01*
X240819Y218646D01*
X240392Y216500D01*
X240819Y214354D01*
X242035Y212535D01*
X243854Y211319D01*
X246000Y210892D01*
X248146Y211319D01*
X249965Y212535D01*
X251181Y214354D01*
X251608Y216500D01*
X251181Y218646D01*
X249965Y220465D01*
X248146Y221681D01*
X246000Y222108D01*
D02*
G37*
G36*
X236273Y202835D02*
X234127Y202408D01*
X232308Y201192D01*
X231092Y199373D01*
X230665Y197227D01*
X231092Y195081D01*
X232308Y193262D01*
X234127Y192046D01*
X236273Y191619D01*
X238419Y192046D01*
X240238Y193262D01*
X241454Y195081D01*
X241881Y197227D01*
X241454Y199373D01*
X240238Y201192D01*
X238419Y202408D01*
X236273Y202835D01*
D02*
G37*
G36*
X482000Y202650D02*
X463000D01*
Y183650D01*
X482000D01*
Y202650D01*
D02*
G37*
G36*
X278500Y340858D02*
X276354Y340431D01*
X274535Y339215D01*
X273319Y337396D01*
X272892Y335250D01*
X273319Y333104D01*
X274535Y331285D01*
X275441Y330679D01*
Y306517D01*
X147587Y178663D01*
X146924Y177670D01*
X146691Y176500D01*
X146691Y176500D01*
Y137000D01*
X146691Y137000D01*
X146924Y135829D01*
X147587Y134837D01*
X191337Y91087D01*
X191337Y91087D01*
X192329Y90424D01*
X193500Y90191D01*
X225883D01*
X232554Y83520D01*
X232028Y82250D01*
X231812Y82250D01*
Y82250D01*
X231779Y82250D01*
X212750D01*
Y62250D01*
X232750D01*
X232750Y81279D01*
Y81312D01*
Y81312D01*
X232750Y81528D01*
X233118Y81681D01*
X234020Y82054D01*
X239229Y76845D01*
X238407Y74860D01*
X238064Y72250D01*
X238407Y69639D01*
X239415Y67207D01*
X241018Y65118D01*
X243107Y63515D01*
X245539Y62507D01*
X248150Y62164D01*
X250760Y62507D01*
X253193Y63515D01*
X255282Y65118D01*
X256885Y67207D01*
X257892Y69639D01*
X258236Y72250D01*
X257892Y74860D01*
X256885Y77293D01*
X255282Y79382D01*
X253193Y80985D01*
X250760Y81992D01*
X248150Y82336D01*
X245539Y81992D01*
X243555Y81170D01*
X231708Y93018D01*
X232194Y94191D01*
X347000D01*
X347000Y94191D01*
X348171Y94424D01*
X349163Y95087D01*
X367967Y113891D01*
X463484D01*
X464202Y112159D01*
X465724Y110175D01*
X467709Y108652D01*
X470020Y107695D01*
X472500Y107368D01*
X474980Y107695D01*
X477291Y108652D01*
X479275Y110175D01*
X480798Y112159D01*
X481755Y114470D01*
X482082Y116950D01*
X481755Y119430D01*
X480798Y121741D01*
X479275Y123726D01*
X477291Y125248D01*
X474980Y126206D01*
X472500Y126532D01*
X470020Y126206D01*
X467709Y125248D01*
X465724Y123726D01*
X464202Y121741D01*
X463484Y120009D01*
X366700D01*
X365530Y119776D01*
X364537Y119113D01*
X364537Y119113D01*
X345733Y100309D01*
X343294D01*
X342808Y101482D01*
X406017Y164692D01*
X463484D01*
X464202Y162959D01*
X465724Y160975D01*
X467709Y159452D01*
X470020Y158495D01*
X472500Y158168D01*
X474980Y158495D01*
X477291Y159452D01*
X479275Y160975D01*
X480798Y162959D01*
X481755Y165270D01*
X482082Y167750D01*
X481755Y170230D01*
X480798Y172541D01*
X479275Y174526D01*
X477291Y176049D01*
X474980Y177006D01*
X472500Y177332D01*
X470020Y177006D01*
X467709Y176049D01*
X465724Y174526D01*
X464202Y172541D01*
X463484Y170809D01*
X404750D01*
X403580Y170576D01*
X402587Y169913D01*
X402587Y169913D01*
X337983Y105309D01*
X256017D01*
X213163Y148163D01*
X212170Y148826D01*
X211000Y149059D01*
X211000Y149059D01*
X170571D01*
X169965Y149965D01*
X168146Y151181D01*
X166000Y151608D01*
X163854Y151181D01*
X162035Y149965D01*
X160819Y148146D01*
X160392Y146000D01*
X160819Y143854D01*
X162035Y142035D01*
X163854Y140819D01*
X166000Y140393D01*
X168146Y140819D01*
X169965Y142035D01*
X170571Y142942D01*
X209733D01*
X251192Y101482D01*
X250706Y100309D01*
X198267D01*
X157809Y140767D01*
Y158983D01*
X171767Y172941D01*
X216679D01*
X217285Y172035D01*
X219104Y170819D01*
X221250Y170392D01*
X223396Y170819D01*
X225215Y172035D01*
X226431Y173854D01*
X226857Y176000D01*
X226431Y178146D01*
X225215Y179965D01*
X223396Y181181D01*
X221250Y181608D01*
X219104Y181181D01*
X217285Y179965D01*
X216679Y179059D01*
X170500D01*
X170500Y179059D01*
X169330Y178826D01*
X168337Y178163D01*
X168337Y178163D01*
X153982Y163808D01*
X152809Y164294D01*
Y175233D01*
X280663Y303087D01*
X280663Y303087D01*
X281326Y304079D01*
X281559Y305250D01*
Y330679D01*
X282465Y331285D01*
X283681Y333104D01*
X284108Y335250D01*
X283681Y337396D01*
X282465Y339215D01*
X280646Y340431D01*
X278500Y340858D01*
D02*
G37*
G36*
X246000Y160358D02*
X243854Y159931D01*
X242035Y158715D01*
X240819Y156896D01*
X240392Y154750D01*
X240819Y152604D01*
X242035Y150785D01*
X243854Y149569D01*
X246000Y149142D01*
X248146Y149569D01*
X249965Y150785D01*
X251181Y152604D01*
X251608Y154750D01*
X251181Y156896D01*
X249965Y158715D01*
X248146Y159931D01*
X246000Y160358D01*
D02*
G37*
G36*
X473770Y152310D02*
Y143620D01*
X482459D01*
X482281Y144971D01*
X481270Y147414D01*
X479661Y149511D01*
X477563Y151120D01*
X475121Y152132D01*
X473770Y152310D01*
D02*
G37*
G36*
X471230D02*
X469879Y152132D01*
X467437Y151120D01*
X465339Y149511D01*
X463730Y147414D01*
X462718Y144971D01*
X462541Y143620D01*
X471230D01*
Y152310D01*
D02*
G37*
G36*
X56250Y149108D02*
X54104Y148681D01*
X52285Y147465D01*
X51069Y145646D01*
X50642Y143500D01*
X51069Y141354D01*
X52285Y139535D01*
X54104Y138319D01*
X56250Y137892D01*
X58396Y138319D01*
X60215Y139535D01*
X61431Y141354D01*
X61858Y143500D01*
X61431Y145646D01*
X60215Y147465D01*
X58396Y148681D01*
X56250Y149108D01*
D02*
G37*
G36*
X286250Y141108D02*
X284104Y140681D01*
X282285Y139465D01*
X281069Y137646D01*
X281022Y137411D01*
X279727D01*
X279681Y137646D01*
X278465Y139465D01*
X276646Y140681D01*
X274500Y141108D01*
X272354Y140681D01*
X270535Y139465D01*
X269319Y137646D01*
X268892Y135500D01*
X269319Y133354D01*
X270535Y131535D01*
X272354Y130319D01*
X274500Y129892D01*
X276646Y130319D01*
X278465Y131535D01*
X279681Y133354D01*
X279727Y133589D01*
X281022D01*
X281069Y133354D01*
X282285Y131535D01*
X284104Y130319D01*
X286250Y129892D01*
X288396Y130319D01*
X290215Y131535D01*
X291431Y133354D01*
X291858Y135500D01*
X291431Y137646D01*
X290215Y139465D01*
X288396Y140681D01*
X286250Y141108D01*
D02*
G37*
G36*
X261000Y147108D02*
X258854Y146681D01*
X257035Y145465D01*
X255819Y143646D01*
X255392Y141500D01*
X255819Y139354D01*
X257035Y137535D01*
X258854Y136319D01*
X261000Y135892D01*
X263146Y136319D01*
X264965Y137535D01*
X266181Y139354D01*
X266608Y141500D01*
X266181Y143646D01*
X264965Y145465D01*
X263146Y146681D01*
X261000Y147108D01*
D02*
G37*
G36*
X309250Y144108D02*
X307104Y143681D01*
X305285Y142465D01*
X304069Y140646D01*
X303642Y138500D01*
X304069Y136354D01*
X305285Y134535D01*
X307104Y133319D01*
X309250Y132892D01*
X311396Y133319D01*
X313215Y134535D01*
X314431Y136354D01*
X314858Y138500D01*
X314431Y140646D01*
X313215Y142465D01*
X311396Y143681D01*
X309250Y144108D01*
D02*
G37*
G36*
X482459Y141080D02*
X473770D01*
Y132391D01*
X475121Y132569D01*
X477563Y133580D01*
X479661Y135190D01*
X481270Y137287D01*
X482281Y139729D01*
X482459Y141080D01*
D02*
G37*
G36*
X471230D02*
X462541D01*
X462718Y139729D01*
X463730Y137287D01*
X465339Y135190D01*
X467437Y133580D01*
X469879Y132569D01*
X471230Y132391D01*
Y141080D01*
D02*
G37*
G36*
X308500Y124108D02*
X306354Y123681D01*
X304534Y122465D01*
X303319Y120646D01*
X302892Y118500D01*
X303319Y116354D01*
X304534Y114535D01*
X306354Y113319D01*
X308500Y112892D01*
X310646Y113319D01*
X312465Y114535D01*
X313681Y116354D01*
X314107Y118500D01*
X313681Y120646D01*
X312465Y122465D01*
X310646Y123681D01*
X308500Y124108D01*
D02*
G37*
G36*
X472500Y101132D02*
X470020Y100806D01*
X467709Y99848D01*
X465724Y98326D01*
X464202Y96341D01*
X463245Y94030D01*
X462918Y91550D01*
X463245Y89070D01*
X464202Y86759D01*
X465724Y84775D01*
X467709Y83252D01*
X470020Y82295D01*
X472500Y81968D01*
X474980Y82295D01*
X477291Y83252D01*
X479275Y84775D01*
X480798Y86759D01*
X481755Y89070D01*
X482082Y91550D01*
X481755Y94030D01*
X480798Y96341D01*
X479275Y98326D01*
X477291Y99848D01*
X474980Y100806D01*
X472500Y101132D01*
D02*
G37*
G36*
X307500Y92608D02*
X305354Y92181D01*
X303535Y90965D01*
X302319Y89146D01*
X301892Y87000D01*
X302319Y84854D01*
X303535Y83035D01*
X305354Y81819D01*
X307500Y81392D01*
X309646Y81819D01*
X311465Y83035D01*
X312681Y84854D01*
X313108Y87000D01*
X312681Y89146D01*
X311465Y90965D01*
X309646Y92181D01*
X307500Y92608D01*
D02*
G37*
G36*
X158845Y82714D02*
Y73520D01*
X168039D01*
X167844Y75001D01*
X166782Y77565D01*
X165092Y79767D01*
X162890Y81456D01*
X160326Y82519D01*
X158845Y82714D01*
D02*
G37*
G36*
X93670D02*
Y73520D01*
X102864D01*
X102669Y75001D01*
X101607Y77565D01*
X99917Y79767D01*
X97716Y81456D01*
X95152Y82519D01*
X93670Y82714D01*
D02*
G37*
G36*
X274820D02*
Y73520D01*
X284014D01*
X283819Y75001D01*
X282757Y77565D01*
X281067Y79767D01*
X278865Y81456D01*
X276301Y82519D01*
X274820Y82714D01*
D02*
G37*
G36*
X272280D02*
X270798Y82519D01*
X268234Y81456D01*
X266033Y79767D01*
X264343Y77565D01*
X263281Y75001D01*
X263086Y73520D01*
X272280D01*
Y82714D01*
D02*
G37*
G36*
X91130D02*
X89649Y82519D01*
X87085Y81456D01*
X84883Y79767D01*
X83194Y77565D01*
X82131Y75001D01*
X81936Y73520D01*
X91130D01*
Y82714D01*
D02*
G37*
G36*
X156305D02*
X154824Y82519D01*
X152260Y81456D01*
X150058Y79767D01*
X148368Y77565D01*
X147306Y75001D01*
X147111Y73520D01*
X156305D01*
Y82714D01*
D02*
G37*
G36*
X192975Y82250D02*
X172975D01*
Y62250D01*
X192975D01*
Y82250D01*
D02*
G37*
G36*
X51600D02*
X31600D01*
Y62250D01*
X51600D01*
Y82250D01*
D02*
G37*
G36*
X132175Y82336D02*
X129565Y81992D01*
X127132Y80985D01*
X125043Y79382D01*
X123440Y77293D01*
X122432Y74860D01*
X122089Y72250D01*
X122432Y69639D01*
X123440Y67207D01*
X125043Y65118D01*
X127132Y63515D01*
X129565Y62507D01*
X132175Y62164D01*
X134785Y62507D01*
X137218Y63515D01*
X139307Y65118D01*
X140910Y67207D01*
X141918Y69639D01*
X142261Y72250D01*
X141918Y74860D01*
X140910Y77293D01*
X139307Y79382D01*
X137218Y80985D01*
X134785Y81992D01*
X132175Y82336D01*
D02*
G37*
G36*
X67000D02*
X64390Y81992D01*
X61957Y80985D01*
X59868Y79382D01*
X58265Y77293D01*
X57258Y74860D01*
X56914Y72250D01*
X57258Y69639D01*
X58265Y67207D01*
X59868Y65118D01*
X61957Y63515D01*
X64390Y62507D01*
X67000Y62164D01*
X69611Y62507D01*
X72043Y63515D01*
X74132Y65118D01*
X75735Y67207D01*
X76743Y69639D01*
X77086Y72250D01*
X76743Y74860D01*
X75735Y77293D01*
X74132Y79382D01*
X72043Y80985D01*
X69611Y81992D01*
X67000Y82336D01*
D02*
G37*
G36*
X168039Y70980D02*
X158845D01*
Y61786D01*
X160326Y61981D01*
X162890Y63043D01*
X165092Y64733D01*
X166782Y66934D01*
X167844Y69498D01*
X168039Y70980D01*
D02*
G37*
G36*
X284014D02*
X274820D01*
Y61786D01*
X276301Y61981D01*
X278865Y63043D01*
X281067Y64733D01*
X282757Y66934D01*
X283819Y69498D01*
X284014Y70980D01*
D02*
G37*
G36*
X102864D02*
X93670D01*
Y61786D01*
X95152Y61981D01*
X97716Y63043D01*
X99917Y64733D01*
X101607Y66934D01*
X102669Y69498D01*
X102864Y70980D01*
D02*
G37*
G36*
X272280D02*
X263086D01*
X263281Y69498D01*
X264343Y66934D01*
X266033Y64733D01*
X268234Y63043D01*
X270798Y61981D01*
X272280Y61786D01*
Y70980D01*
D02*
G37*
G36*
X91130D02*
X81936D01*
X82131Y69498D01*
X83194Y66934D01*
X84883Y64733D01*
X87085Y63043D01*
X89649Y61981D01*
X91130Y61786D01*
Y70980D01*
D02*
G37*
G36*
X156305D02*
X147111D01*
X147306Y69498D01*
X148368Y66934D01*
X150058Y64733D01*
X152260Y63043D01*
X154824Y61981D01*
X156305Y61786D01*
Y70980D01*
D02*
G37*
%LPD*%
G36*
X176535Y849285D02*
X178354Y848069D01*
X180500Y847642D01*
X181569Y847855D01*
X209191Y820233D01*
Y803000D01*
X209191Y803000D01*
X209424Y801830D01*
X210087Y800837D01*
X223691Y787233D01*
Y756294D01*
X222518Y755808D01*
X163809Y814517D01*
Y841483D01*
X169431Y847105D01*
X170500Y846892D01*
X172646Y847319D01*
X174465Y848535D01*
X174987Y849315D01*
X176514D01*
X176535Y849285D01*
D02*
G37*
G36*
X138118Y818056D02*
Y808895D01*
X138118Y808895D01*
X138351Y807725D01*
X139014Y806732D01*
X147448Y798298D01*
X147080Y797083D01*
X146873Y797042D01*
X145054Y795826D01*
X143838Y794007D01*
X143411Y791861D01*
X143838Y789715D01*
X145054Y787896D01*
X146873Y786680D01*
X149019Y786253D01*
X151165Y786680D01*
X152984Y787896D01*
X154200Y789715D01*
X154241Y789922D01*
X155456Y790290D01*
X174941Y770805D01*
Y701977D01*
X131627Y658663D01*
X130964Y657671D01*
X130731Y656500D01*
X130731Y656500D01*
Y539778D01*
X91532Y500579D01*
X90359Y501065D01*
Y648773D01*
X90359Y648773D01*
X90126Y649944D01*
X89463Y650936D01*
X89463Y650937D01*
X66069Y674331D01*
Y703010D01*
X81990D01*
Y720990D01*
X66069D01*
Y727571D01*
X75415Y736917D01*
X76756Y736462D01*
X76941Y735053D01*
X77847Y732866D01*
X79288Y730988D01*
X81166Y729547D01*
X83353Y728642D01*
X85700Y728333D01*
X88047Y728642D01*
X90234Y729547D01*
X92112Y730988D01*
X93553Y732866D01*
X94459Y735053D01*
X94768Y737400D01*
X94459Y739747D01*
X93553Y741934D01*
X92112Y743812D01*
X90234Y745253D01*
X88047Y746159D01*
X86638Y746344D01*
X86183Y747685D01*
X131663Y793165D01*
X131663Y793165D01*
X132326Y794157D01*
X132559Y795328D01*
Y813679D01*
X133465Y814285D01*
X134681Y816104D01*
X135108Y818250D01*
X134854Y819524D01*
X136025Y820150D01*
X138118Y818056D01*
D02*
G37*
G36*
X194573Y756831D02*
X194204Y755615D01*
X193997Y755574D01*
X192178Y754359D01*
X190963Y752539D01*
X190536Y750393D01*
X190963Y748247D01*
X192178Y746428D01*
X193997Y745213D01*
X195629Y744888D01*
X195643Y744853D01*
X195217Y742707D01*
X195643Y740561D01*
X196859Y738741D01*
X198678Y737526D01*
X200824Y737099D01*
X202970Y737526D01*
X204790Y738741D01*
X205248Y739428D01*
X206973Y739723D01*
X207191Y739560D01*
Y689243D01*
X205995Y688815D01*
X205441Y689491D01*
X203193Y691336D01*
X200628Y692707D01*
X197845Y693551D01*
X196220Y693711D01*
Y679000D01*
Y664289D01*
X197845Y664449D01*
X200628Y665293D01*
X203193Y666664D01*
X205441Y668509D01*
X205995Y669184D01*
X207191Y668757D01*
Y541689D01*
X98837Y433335D01*
X98174Y432342D01*
X97941Y431172D01*
X97941Y431172D01*
Y305321D01*
X97035Y304715D01*
X95819Y302896D01*
X95392Y300750D01*
X95819Y298604D01*
X97035Y296785D01*
X98854Y295569D01*
X98681Y294309D01*
X88321D01*
X87715Y295215D01*
X85896Y296431D01*
X83750Y296858D01*
X81604Y296431D01*
X79785Y295215D01*
X78569Y293396D01*
X78142Y291250D01*
X78569Y289104D01*
X79785Y287285D01*
X81604Y286069D01*
X83750Y285642D01*
X85896Y286069D01*
X87715Y287285D01*
X88321Y288191D01*
X98706D01*
X99192Y287018D01*
X85149Y272975D01*
X83979Y273601D01*
X84108Y274250D01*
X83681Y276396D01*
X82465Y278215D01*
X80646Y279431D01*
X78500Y279858D01*
X76354Y279431D01*
X74535Y278215D01*
X73319Y276396D01*
X72892Y274250D01*
X73083Y273293D01*
X72108Y271805D01*
X71705Y271724D01*
X69886Y270509D01*
X68670Y268690D01*
X68243Y266544D01*
X68670Y264398D01*
X69886Y262578D01*
X71705Y261363D01*
X71912Y261322D01*
X72281Y260106D01*
X55587Y243413D01*
X54924Y242421D01*
X54829Y241942D01*
X53559Y242067D01*
Y453954D01*
X135953Y536348D01*
X136616Y537341D01*
X136849Y538511D01*
X136849Y538511D01*
Y655233D01*
X180163Y698547D01*
X180163Y698547D01*
X180826Y699539D01*
X181059Y700710D01*
X181059Y700710D01*
Y768685D01*
X182232Y769171D01*
X194573Y756831D01*
D02*
G37*
%LPC*%
G36*
X163500Y763608D02*
X161354Y763181D01*
X159535Y761965D01*
X158319Y760146D01*
X157892Y758000D01*
X158319Y755854D01*
X159535Y754035D01*
X161354Y752819D01*
X163500Y752392D01*
X165646Y752819D01*
X167465Y754035D01*
X168681Y755854D01*
X169108Y758000D01*
X168681Y760146D01*
X167465Y761965D01*
X165646Y763181D01*
X163500Y763608D01*
D02*
G37*
G36*
X146750Y763358D02*
X144604Y762931D01*
X142785Y761715D01*
X141569Y759896D01*
X141142Y757750D01*
X141569Y755604D01*
X142785Y753785D01*
X144604Y752569D01*
X146750Y752142D01*
X148896Y752569D01*
X150715Y753785D01*
X151931Y755604D01*
X152358Y757750D01*
X151931Y759896D01*
X150715Y761715D01*
X148896Y762931D01*
X146750Y763358D01*
D02*
G37*
G36*
X163170Y746845D02*
Y738670D01*
X171345D01*
X171185Y739888D01*
X170225Y742206D01*
X168697Y744197D01*
X166706Y745725D01*
X164388Y746685D01*
X163170Y746845D01*
D02*
G37*
G36*
X160630D02*
X159412Y746685D01*
X157094Y745725D01*
X155103Y744197D01*
X153576Y742206D01*
X152615Y739888D01*
X152455Y738670D01*
X160630D01*
Y746845D01*
D02*
G37*
G36*
X136500Y746468D02*
X134153Y746159D01*
X131966Y745253D01*
X130088Y743812D01*
X128647Y741934D01*
X127741Y739747D01*
X127433Y737400D01*
X127741Y735053D01*
X128647Y732866D01*
X130088Y730988D01*
X131966Y729547D01*
X134153Y728642D01*
X136500Y728333D01*
X138847Y728642D01*
X141034Y729547D01*
X142912Y730988D01*
X144353Y732866D01*
X145259Y735053D01*
X145568Y737400D01*
X145259Y739747D01*
X144353Y741934D01*
X142912Y743812D01*
X141034Y745253D01*
X138847Y746159D01*
X136500Y746468D01*
D02*
G37*
G36*
X111100D02*
X108753Y746159D01*
X106566Y745253D01*
X104688Y743812D01*
X103247Y741934D01*
X102341Y739747D01*
X102033Y737400D01*
X102341Y735053D01*
X103247Y732866D01*
X104688Y730988D01*
X106566Y729547D01*
X108753Y728642D01*
X111100Y728333D01*
X113447Y728642D01*
X115634Y729547D01*
X117512Y730988D01*
X118953Y732866D01*
X119859Y735053D01*
X120168Y737400D01*
X119859Y739747D01*
X118953Y741934D01*
X117512Y743812D01*
X115634Y745253D01*
X113447Y746159D01*
X111100Y746468D01*
D02*
G37*
G36*
X171345Y736130D02*
X163170D01*
Y727955D01*
X164388Y728115D01*
X166706Y729076D01*
X168697Y730603D01*
X170225Y732594D01*
X171185Y734912D01*
X171345Y736130D01*
D02*
G37*
G36*
X160630D02*
X152455D01*
X152615Y734912D01*
X153576Y732594D01*
X155103Y730603D01*
X157094Y729076D01*
X159412Y728115D01*
X160630Y727955D01*
Y736130D01*
D02*
G37*
G36*
X149200Y721068D02*
X146853Y720759D01*
X144666Y719853D01*
X142788Y718412D01*
X141347Y716534D01*
X140442Y714347D01*
X140133Y712000D01*
X140442Y709653D01*
X141347Y707466D01*
X142788Y705588D01*
X144666Y704147D01*
X146853Y703242D01*
X149200Y702933D01*
X151547Y703242D01*
X153734Y704147D01*
X155612Y705588D01*
X157053Y707466D01*
X157959Y709653D01*
X158268Y712000D01*
X157959Y714347D01*
X157053Y716534D01*
X155612Y718412D01*
X153734Y719853D01*
X151547Y720759D01*
X149200Y721068D01*
D02*
G37*
G36*
X123800D02*
X121453Y720759D01*
X119266Y719853D01*
X117388Y718412D01*
X115947Y716534D01*
X115042Y714347D01*
X114733Y712000D01*
X115042Y709653D01*
X115947Y707466D01*
X117388Y705588D01*
X119266Y704147D01*
X121453Y703242D01*
X123800Y702933D01*
X126147Y703242D01*
X128334Y704147D01*
X130212Y705588D01*
X131653Y707466D01*
X132559Y709653D01*
X132868Y712000D01*
X132559Y714347D01*
X131653Y716534D01*
X130212Y718412D01*
X128334Y719853D01*
X126147Y720759D01*
X123800Y721068D01*
D02*
G37*
G36*
X98400D02*
X96053Y720759D01*
X93866Y719853D01*
X91988Y718412D01*
X90547Y716534D01*
X89642Y714347D01*
X89333Y712000D01*
X89642Y709653D01*
X90547Y707466D01*
X91988Y705588D01*
X93866Y704147D01*
X96053Y703242D01*
X98400Y702933D01*
X100747Y703242D01*
X102934Y704147D01*
X104812Y705588D01*
X106253Y707466D01*
X107159Y709653D01*
X107468Y712000D01*
X107159Y714347D01*
X106253Y716534D01*
X104812Y718412D01*
X102934Y719853D01*
X100747Y720759D01*
X98400Y721068D01*
D02*
G37*
G36*
X196750Y727858D02*
X194604Y727431D01*
X192785Y726215D01*
X191569Y724396D01*
X191142Y722250D01*
X191569Y720104D01*
X192785Y718285D01*
X194604Y717069D01*
X196750Y716642D01*
X198896Y717069D01*
X200715Y718285D01*
X201931Y720104D01*
X202358Y722250D01*
X201931Y724396D01*
X200715Y726215D01*
X198896Y727431D01*
X196750Y727858D01*
D02*
G37*
G36*
X193680Y693711D02*
X192056Y693551D01*
X189272Y692707D01*
X186707Y691336D01*
X184459Y689491D01*
X182614Y687243D01*
X181243Y684678D01*
X180399Y681894D01*
X180239Y680270D01*
X193680D01*
Y693711D01*
D02*
G37*
G36*
Y677730D02*
X180239D01*
X180399Y676105D01*
X181243Y673322D01*
X182614Y670757D01*
X184459Y668509D01*
X186707Y666664D01*
X189272Y665293D01*
X192056Y664449D01*
X193680Y664289D01*
Y677730D01*
D02*
G37*
G36*
X174650Y666838D02*
X171072Y666486D01*
X167632Y665443D01*
X164462Y663748D01*
X161683Y661467D01*
X159402Y658688D01*
X157708Y655518D01*
X156664Y652078D01*
X156312Y648500D01*
X156664Y644922D01*
X157708Y641482D01*
X159402Y638312D01*
X161683Y635533D01*
X164462Y633252D01*
X167632Y631558D01*
X171072Y630514D01*
X174650Y630162D01*
X178228Y630514D01*
X181668Y631558D01*
X184838Y633252D01*
X187617Y635533D01*
X189898Y638312D01*
X191592Y641482D01*
X192636Y644922D01*
X192988Y648500D01*
X192636Y652078D01*
X191592Y655518D01*
X189898Y658688D01*
X187617Y661467D01*
X184838Y663748D01*
X181668Y665443D01*
X178228Y666486D01*
X174650Y666838D01*
D02*
G37*
G36*
X183750Y609233D02*
X181231Y608902D01*
X178884Y607929D01*
X176868Y606382D01*
X175321Y604367D01*
X174349Y602019D01*
X174017Y599500D01*
X174349Y596981D01*
X175321Y594633D01*
X176868Y592617D01*
X178884Y591071D01*
X181231Y590098D01*
X183750Y589767D01*
X186269Y590098D01*
X188617Y591071D01*
X190633Y592617D01*
X192180Y594633D01*
X193152Y596981D01*
X193484Y599500D01*
X193152Y602019D01*
X192180Y604367D01*
X190633Y606382D01*
X188617Y607929D01*
X186269Y608902D01*
X183750Y609233D01*
D02*
G37*
G36*
X158350D02*
X155831Y608902D01*
X153484Y607929D01*
X151468Y606382D01*
X149921Y604367D01*
X148949Y602019D01*
X148617Y599500D01*
X148949Y596981D01*
X149921Y594633D01*
X151468Y592617D01*
X153484Y591071D01*
X155831Y590098D01*
X158350Y589767D01*
X160869Y590098D01*
X163217Y591071D01*
X165233Y592617D01*
X166779Y594633D01*
X167752Y596981D01*
X168083Y599500D01*
X167752Y602019D01*
X166779Y604367D01*
X165233Y606382D01*
X163217Y607929D01*
X160869Y608902D01*
X158350Y609233D01*
D02*
G37*
%LPD*%
D10*
X152500Y809240D02*
Y829667D01*
Y809240D02*
X214500Y747240D01*
X150479Y831689D02*
Y846116D01*
Y831689D02*
X152500Y829667D01*
X214500Y533000D02*
Y747240D01*
X111000Y429500D02*
X214500Y533000D01*
D11*
X129500Y795328D02*
Y818250D01*
X63010Y728838D02*
X129500Y795328D01*
X141177Y808895D02*
Y819323D01*
Y808895D02*
X178000Y772072D01*
X148250Y807479D02*
Y827907D01*
Y807479D02*
X210250Y745479D01*
X156750Y811000D02*
X218750Y749000D01*
X156750Y811000D02*
Y844407D01*
X133500Y850000D02*
X145422Y861922D01*
X133500Y838000D02*
Y850000D01*
X160750Y813250D02*
Y842750D01*
Y813250D02*
X222750Y751250D01*
X193500Y93250D02*
X227150D01*
X149750Y137000D02*
Y176500D01*
Y137000D02*
X193500Y93250D01*
X248150Y72250D02*
Y72250D01*
X227150Y93250D02*
X248150Y72250D01*
X197000Y97250D02*
X347000D01*
X366700Y116950D01*
X154750Y139500D02*
X197000Y97250D01*
X154750Y139500D02*
Y160250D01*
X170500Y176000D01*
X221250D01*
X103250Y162000D02*
X206000Y264750D01*
X198250Y266000D02*
Y328500D01*
X98750Y166500D02*
X198250Y266000D01*
X98750Y132000D02*
Y166500D01*
X206000Y264750D02*
Y325500D01*
X103250Y138000D02*
Y162000D01*
X278500Y305250D02*
Y335250D01*
X149750Y176500D02*
X278500Y305250D01*
X217610Y845704D02*
X217677Y845771D01*
X246250Y817198D01*
X214997Y844747D02*
X215954Y845704D01*
X217610D01*
X216250Y804657D02*
X230750Y790157D01*
X198250Y841157D02*
X216250Y823157D01*
X212250Y803000D02*
Y821500D01*
X204750Y846500D02*
X205063Y846187D01*
Y840000D02*
Y846187D01*
X212250Y803000D02*
X226750Y788500D01*
X246250Y394250D02*
Y817198D01*
X216250Y804657D02*
Y823157D01*
X222314Y822750D02*
X226250D01*
X198250Y841157D02*
Y849000D01*
X205063Y840000D02*
X222314Y822750D01*
X180500Y853250D02*
X212250Y821500D01*
X160750Y842750D02*
X170500Y852500D01*
X160250Y851022D02*
Y852375D01*
X156979Y847751D02*
X160250Y851022D01*
X141500Y834657D02*
X148250Y827907D01*
X156979Y844636D02*
Y847751D01*
X156750Y844407D02*
X156979Y844636D01*
X133500Y827000D02*
X141177Y819323D01*
X222750Y413308D02*
Y751250D01*
X210250Y540422D02*
Y745479D01*
X178000Y700710D02*
Y772072D01*
X218750Y452250D02*
Y749000D01*
X141500Y834657D02*
Y845250D01*
X226750Y410250D02*
Y788500D01*
X230750Y408593D02*
Y790157D01*
X185329Y861922D02*
X198250Y849000D01*
X226250Y822750D02*
X240250Y808750D01*
Y401500D02*
Y808750D01*
X46500Y192843D02*
X61343Y178000D01*
X46500Y192843D02*
Y456878D01*
X87300Y497678D01*
Y648773D01*
X63010Y673064D02*
X87300Y648773D01*
X63010Y673064D02*
Y728838D01*
X366700Y116950D02*
X472500D01*
X254750Y102250D02*
X339250D01*
X404750Y167750D01*
X472500D01*
X166000Y146000D02*
X211000D01*
X254750Y102250D01*
X68000Y131250D02*
X90500Y108750D01*
X68000Y131250D02*
Y152250D01*
X106250Y190500D01*
X129223Y244578D02*
X143922D01*
X163750Y264407D02*
Y311750D01*
X143922Y244578D02*
X163750Y264407D01*
X106250Y201250D02*
X167750Y262750D01*
X106250Y190500D02*
Y201250D01*
X108750Y231828D02*
Y246750D01*
X63132Y187868D02*
X64789D01*
X108750Y231828D01*
X57750Y193250D02*
X63132Y187868D01*
X108750Y246750D02*
X136750Y274750D01*
X128390Y245411D02*
X129223Y244578D01*
X167750Y283250D02*
X184000Y299500D01*
X167750Y262750D02*
Y283250D01*
X163750Y311750D02*
X246250Y394250D01*
X158500Y279250D02*
Y319750D01*
X139000Y259750D02*
X158500Y279250D01*
X361350Y874400D02*
X361750Y874000D01*
Y854750D02*
Y874000D01*
X269000Y388500D02*
Y762000D01*
X361750Y854750D01*
X335950Y841450D02*
Y874400D01*
X262500Y768000D02*
X335950Y841450D01*
X262500Y392750D02*
Y768000D01*
X206000Y325500D02*
X269000Y388500D01*
X198250Y328500D02*
X262500Y392750D01*
X103250Y138000D02*
X109000Y132250D01*
X158500Y319750D02*
X240250Y401500D01*
X101000Y431172D02*
X210250Y540422D01*
X57750Y241250D02*
X226750Y410250D01*
X100692Y291250D02*
X222750Y413308D01*
X110250Y343750D02*
X218750Y452250D01*
X91000Y268843D02*
X230750Y408593D01*
X136750Y274750D02*
X136750D01*
X83750Y291250D02*
X100692D01*
X101000Y300750D02*
Y431172D01*
X91250Y195115D02*
Y196000D01*
X74135Y178000D02*
X91250Y195115D01*
X61343Y178000D02*
X74135D01*
X80462Y193520D02*
Y193520D01*
X63000Y182000D02*
X68942D01*
X80462Y193520D01*
X71000Y227500D02*
X81500D01*
X91000Y237000D02*
Y268843D01*
X81500Y227500D02*
X91000Y237000D01*
X50500Y194500D02*
X63000Y182000D01*
X57750Y193250D02*
Y241250D01*
X50500Y194500D02*
Y455221D01*
X133790Y538511D02*
Y656500D01*
X178000Y700710D01*
X50500Y455221D02*
X133790Y538511D01*
X145422Y861922D02*
X185329D01*
D84*
X456400Y881600D02*
D03*
X431000D02*
D03*
Y830800D02*
D03*
X456400D02*
D03*
X472500Y116950D02*
D03*
Y142350D02*
D03*
Y167750D02*
D03*
X335950Y874400D02*
D03*
X361350D02*
D03*
X83100Y881600D02*
D03*
X108500D02*
D03*
Y830800D02*
D03*
X83100D02*
D03*
D86*
X409250Y581750D02*
D03*
X292500D02*
D03*
D88*
X157575Y72250D02*
D03*
X92400D02*
D03*
X273550D02*
D03*
X248150D02*
D03*
D91*
X161900Y737400D02*
D03*
D93*
X40050Y679000D02*
D03*
X194950D02*
D03*
D95*
X129500Y818250D02*
D03*
X150479Y846116D02*
D03*
X141500Y845500D02*
D03*
X133500Y838000D02*
D03*
X214997Y844747D02*
D03*
X204750Y846500D02*
D03*
X98750Y132000D02*
D03*
X278500Y335250D02*
D03*
X90500Y108750D02*
D03*
X166000Y146000D02*
D03*
X109000Y132250D02*
D03*
X180500Y853250D02*
D03*
X184000Y299500D02*
D03*
X91250Y196000D02*
D03*
X71000Y227500D02*
D03*
X80462Y193520D02*
D03*
X128390Y245411D02*
D03*
X101000Y300750D02*
D03*
X136750Y274750D02*
D03*
X139000Y259750D02*
D03*
X111000Y429500D02*
D03*
X221250Y176000D02*
D03*
X83750Y291250D02*
D03*
X110250Y343750D02*
D03*
X160250Y852375D02*
D03*
X170500Y852500D02*
D03*
X133500Y827000D02*
D03*
D96*
X263000Y865500D02*
D03*
Y875500D02*
D03*
Y885500D02*
D03*
X290250Y759000D02*
D03*
X278500Y760000D02*
D03*
X289500Y771250D02*
D03*
X191000Y821250D02*
D03*
Y810000D02*
D03*
X178250D02*
D03*
Y821250D02*
D03*
M02*
