G04*
G04 #@! TF.GenerationSoftware,Altium Limited,Altium Designer,20.0.13 (296)*
G04*
G04 Layer_Color=8388736*
%FSLAX44Y44*%
%MOMM*%
G71*
G01*
G75*
%ADD46R,0.8200X1.0200*%
%ADD47R,0.7200X2.3200*%
%ADD48R,0.7200X4.3200*%
%ADD49R,1.1700X3.3200*%
%ADD50R,10.5700X8.4200*%
%ADD51R,1.0032X1.2032*%
%ADD52R,3.4532X2.3532*%
%ADD53R,1.1532X2.3532*%
%ADD54R,4.0132X2.9972*%
%ADD55R,1.2032X1.0032*%
%ADD56R,1.3032X1.5032*%
%ADD57R,1.3700X1.2200*%
%ADD58R,1.0200X0.8200*%
G04:AMPARAMS|DCode=59|XSize=1.7632mm|YSize=0.4832mm|CornerRadius=0.1366mm|HoleSize=0mm|Usage=FLASHONLY|Rotation=270.000|XOffset=0mm|YOffset=0mm|HoleType=Round|Shape=RoundedRectangle|*
%AMROUNDEDRECTD59*
21,1,1.7632,0.2100,0,0,270.0*
21,1,1.4900,0.4832,0,0,270.0*
1,1,0.2732,-0.1050,-0.7450*
1,1,0.2732,-0.1050,0.7450*
1,1,0.2732,0.1050,0.7450*
1,1,0.2732,0.1050,-0.7450*
%
%ADD59ROUNDEDRECTD59*%
G04:AMPARAMS|DCode=60|XSize=1.7632mm|YSize=0.4832mm|CornerRadius=0.1366mm|HoleSize=0mm|Usage=FLASHONLY|Rotation=0.000|XOffset=0mm|YOffset=0mm|HoleType=Round|Shape=RoundedRectangle|*
%AMROUNDEDRECTD60*
21,1,1.7632,0.2100,0,0,0.0*
21,1,1.4900,0.4832,0,0,0.0*
1,1,0.2732,0.7450,-0.1050*
1,1,0.2732,-0.7450,-0.1050*
1,1,0.2732,-0.7450,0.1050*
1,1,0.2732,0.7450,0.1050*
%
%ADD60ROUNDEDRECTD60*%
%ADD61R,1.2032X1.6032*%
G04:AMPARAMS|DCode=62|XSize=0.4832mm|YSize=0.8932mm|CornerRadius=0.1716mm|HoleSize=0mm|Usage=FLASHONLY|Rotation=180.000|XOffset=0mm|YOffset=0mm|HoleType=Round|Shape=RoundedRectangle|*
%AMROUNDEDRECTD62*
21,1,0.4832,0.5500,0,0,180.0*
21,1,0.1400,0.8932,0,0,180.0*
1,1,0.3432,-0.0700,0.2750*
1,1,0.3432,0.0700,0.2750*
1,1,0.3432,0.0700,-0.2750*
1,1,0.3432,-0.0700,-0.2750*
%
%ADD62ROUNDEDRECTD62*%
G04:AMPARAMS|DCode=63|XSize=0.4832mm|YSize=0.8932mm|CornerRadius=0.1716mm|HoleSize=0mm|Usage=FLASHONLY|Rotation=270.000|XOffset=0mm|YOffset=0mm|HoleType=Round|Shape=RoundedRectangle|*
%AMROUNDEDRECTD63*
21,1,0.4832,0.5500,0,0,270.0*
21,1,0.1400,0.8932,0,0,270.0*
1,1,0.3432,-0.2750,-0.0700*
1,1,0.3432,-0.2750,0.0700*
1,1,0.3432,0.2750,0.0700*
1,1,0.3432,0.2750,-0.0700*
%
%ADD63ROUNDEDRECTD63*%
%ADD64R,2.4892X2.4892*%
%ADD65R,1.6200X2.5200*%
%ADD66R,2.5200X1.6200*%
%ADD67R,2.2700X3.6200*%
%ADD68R,4.2032X7.2032*%
%ADD69R,1.6032X1.2032*%
%ADD70C,1.7032*%
%ADD71R,1.7032X1.7032*%
%ADD72C,1.5200*%
%ADD73R,1.5200X1.5200*%
%ADD74C,1.7200*%
%ADD75R,1.7200X1.7200*%
%ADD76R,1.6012X1.6012*%
%ADD77C,1.6012*%
%ADD78C,1.7332*%
%ADD79C,2.6482*%
%ADD80C,3.4532*%
D46*
X228000Y342250D02*
D03*
X212000D02*
D03*
X246000Y293750D02*
D03*
X230000D02*
D03*
X324750Y149498D02*
D03*
X340750D02*
D03*
X324750Y117747D02*
D03*
X340750D02*
D03*
X324750Y84498D02*
D03*
X340750D02*
D03*
X151500Y355000D02*
D03*
X135500D02*
D03*
X147444Y417250D02*
D03*
X131444D02*
D03*
X467250Y934750D02*
D03*
X483250D02*
D03*
X76750Y108000D02*
D03*
X60750D02*
D03*
X163750Y769500D02*
D03*
X179750D02*
D03*
X147000D02*
D03*
X131000D02*
D03*
X102750D02*
D03*
X118750D02*
D03*
X208000D02*
D03*
X192000D02*
D03*
D47*
X299550Y229500D02*
D03*
X286850D02*
D03*
X274150D02*
D03*
X261450D02*
D03*
D48*
X299550Y171500D02*
D03*
X286850D02*
D03*
X274150D02*
D03*
X261450D02*
D03*
D49*
X470500Y352750D02*
D03*
X453500D02*
D03*
X436500D02*
D03*
X419500D02*
D03*
X402500D02*
D03*
D50*
X436500Y258250D02*
D03*
D51*
X296750Y377750D02*
D03*
X280750D02*
D03*
X227000Y320750D02*
D03*
X243000D02*
D03*
X40750Y143500D02*
D03*
X24750D02*
D03*
X304000Y843250D02*
D03*
X288000D02*
D03*
X436000Y391750D02*
D03*
X420000D02*
D03*
D52*
X336750Y296000D02*
D03*
D53*
X313750Y354000D02*
D03*
X336750D02*
D03*
X359750D02*
D03*
D54*
X443500Y438315D02*
D03*
Y509685D02*
D03*
D55*
X199250Y391000D02*
D03*
Y375000D02*
D03*
X179000Y391250D02*
D03*
Y375250D02*
D03*
X322250Y187250D02*
D03*
Y203250D02*
D03*
X227500Y154250D02*
D03*
Y138250D02*
D03*
X48750Y362500D02*
D03*
Y378500D02*
D03*
X106500Y379000D02*
D03*
Y363000D02*
D03*
X89500Y378750D02*
D03*
Y362750D02*
D03*
X254750Y784250D02*
D03*
Y768250D02*
D03*
D56*
X155250Y398000D02*
D03*
Y375000D02*
D03*
X137250D02*
D03*
Y398000D02*
D03*
X263000Y834750D02*
D03*
Y811750D02*
D03*
X245000D02*
D03*
Y834750D02*
D03*
D57*
X364500Y83750D02*
D03*
X387500D02*
D03*
X364500Y117000D02*
D03*
X387500D02*
D03*
X364500Y150250D02*
D03*
X387500D02*
D03*
X419500Y934250D02*
D03*
X442500D02*
D03*
D58*
X73000Y361000D02*
D03*
Y377000D02*
D03*
X136000Y877500D02*
D03*
Y861500D02*
D03*
X223250Y778250D02*
D03*
Y762250D02*
D03*
D59*
X188000Y167700D02*
D03*
X183000D02*
D03*
X178000D02*
D03*
X173000D02*
D03*
X168000D02*
D03*
X163000D02*
D03*
X158000D02*
D03*
X153000D02*
D03*
X148000D02*
D03*
X143000D02*
D03*
X138000D02*
D03*
X133000D02*
D03*
X128000D02*
D03*
X123000D02*
D03*
X118000D02*
D03*
X113000D02*
D03*
X108000D02*
D03*
X103000D02*
D03*
X98000D02*
D03*
X93000D02*
D03*
X88000D02*
D03*
X83000D02*
D03*
X78000D02*
D03*
X73000D02*
D03*
X68000D02*
D03*
Y321300D02*
D03*
X73000D02*
D03*
X78000D02*
D03*
X83000D02*
D03*
X88000D02*
D03*
X93000D02*
D03*
X98000D02*
D03*
X103000D02*
D03*
X108000D02*
D03*
X113000D02*
D03*
X118000D02*
D03*
X123000D02*
D03*
X128000D02*
D03*
X133000D02*
D03*
X138000D02*
D03*
X143000D02*
D03*
X148000D02*
D03*
X153000D02*
D03*
X158000D02*
D03*
X163000D02*
D03*
X168000D02*
D03*
X173000D02*
D03*
X178000D02*
D03*
X183000D02*
D03*
X188000D02*
D03*
D60*
X204800Y304500D02*
D03*
Y299500D02*
D03*
Y294500D02*
D03*
Y289500D02*
D03*
Y284500D02*
D03*
Y279500D02*
D03*
Y274500D02*
D03*
Y269500D02*
D03*
Y264500D02*
D03*
Y259500D02*
D03*
Y254500D02*
D03*
Y249500D02*
D03*
Y244500D02*
D03*
Y239500D02*
D03*
Y234500D02*
D03*
Y229500D02*
D03*
Y224500D02*
D03*
Y219500D02*
D03*
Y214500D02*
D03*
Y209500D02*
D03*
Y204500D02*
D03*
Y199500D02*
D03*
Y194500D02*
D03*
Y189500D02*
D03*
Y184500D02*
D03*
X51200D02*
D03*
Y189500D02*
D03*
Y194500D02*
D03*
Y199500D02*
D03*
Y204500D02*
D03*
Y209500D02*
D03*
Y214500D02*
D03*
Y219500D02*
D03*
Y224500D02*
D03*
Y229500D02*
D03*
Y234500D02*
D03*
Y239500D02*
D03*
Y244500D02*
D03*
Y249500D02*
D03*
Y254500D02*
D03*
Y259500D02*
D03*
Y264500D02*
D03*
Y269500D02*
D03*
Y274500D02*
D03*
Y279500D02*
D03*
Y284500D02*
D03*
Y289500D02*
D03*
Y294500D02*
D03*
Y299500D02*
D03*
Y304500D02*
D03*
D61*
X202250Y143000D02*
D03*
X182250D02*
D03*
D62*
X172250Y797000D02*
D03*
X177250D02*
D03*
X197250D02*
D03*
X192250D02*
D03*
X182250D02*
D03*
X187250D02*
D03*
Y834900D02*
D03*
X182250D02*
D03*
X192250D02*
D03*
X197250D02*
D03*
X177250D02*
D03*
X172250D02*
D03*
D63*
X165800Y803450D02*
D03*
Y808450D02*
D03*
Y828450D02*
D03*
Y823450D02*
D03*
Y813450D02*
D03*
Y818450D02*
D03*
X203700Y803450D02*
D03*
Y808450D02*
D03*
Y828450D02*
D03*
Y823450D02*
D03*
Y813450D02*
D03*
Y818450D02*
D03*
D64*
X184750Y815950D02*
D03*
D65*
X315750Y815000D02*
D03*
X286750D02*
D03*
D66*
X228500Y714500D02*
D03*
Y743500D02*
D03*
D67*
X365000Y256750D02*
D03*
X330000D02*
D03*
D68*
X284000Y455750D02*
D03*
X384000D02*
D03*
D69*
X23750Y167750D02*
D03*
Y187750D02*
D03*
D70*
X456400Y805400D02*
D03*
X431000D02*
D03*
X456400Y856200D02*
D03*
X431000D02*
D03*
X456400Y881600D02*
D03*
X431000D02*
D03*
X456400Y907000D02*
D03*
X431000Y830800D02*
D03*
X456400D02*
D03*
X472500Y91550D02*
D03*
Y116950D02*
D03*
Y142350D02*
D03*
Y167750D02*
D03*
X310550Y874400D02*
D03*
X335950D02*
D03*
X361350D02*
D03*
X285150Y950600D02*
D03*
X310550D02*
D03*
X335950D02*
D03*
X361350D02*
D03*
X190800Y874400D02*
D03*
X216200D02*
D03*
X241600D02*
D03*
X165400Y950600D02*
D03*
X190800D02*
D03*
X216200D02*
D03*
X241600D02*
D03*
X83100Y881600D02*
D03*
X108500D02*
D03*
X83100Y805400D02*
D03*
X108500Y830800D02*
D03*
X83100D02*
D03*
X108500Y856200D02*
D03*
X83100D02*
D03*
X108500Y907000D02*
D03*
X83100D02*
D03*
D71*
X431000D02*
D03*
X472500Y193150D02*
D03*
X285150Y874400D02*
D03*
X165400D02*
D03*
X108500Y805400D02*
D03*
D72*
X409250Y581750D02*
D03*
X292500D02*
D03*
D73*
X459250D02*
D03*
X342500D02*
D03*
D74*
X132175Y72250D02*
D03*
X157575D02*
D03*
X92400D02*
D03*
X67000D02*
D03*
X273550D02*
D03*
X248150D02*
D03*
D75*
X182975D02*
D03*
X41600D02*
D03*
X222750D02*
D03*
D76*
X73000Y712000D02*
D03*
D77*
X85700Y737400D02*
D03*
X98400Y712000D02*
D03*
X111100Y737400D02*
D03*
X123800Y712000D02*
D03*
X136500Y737400D02*
D03*
X149200Y712000D02*
D03*
X161900Y737400D02*
D03*
D78*
X51250Y599500D02*
D03*
X76650D02*
D03*
X183750D02*
D03*
X158350D02*
D03*
D79*
X40050Y679000D02*
D03*
X194950D02*
D03*
D80*
X174650Y648500D02*
D03*
X60350D02*
D03*
M02*
