G04*
G04 #@! TF.GenerationSoftware,Altium Limited,Altium Designer,20.0.13 (296)*
G04*
G04 Layer_Color=32896*
%FSLAX44Y44*%
%MOMM*%
G71*
G01*
G75*
%ADD11C,0.2000*%
%ADD13C,0.1500*%
D11*
X276500Y801500D02*
Y804500D01*
X285500Y801500D02*
Y804500D01*
X356250Y916000D02*
Y936000D01*
X367250D01*
Y916000D02*
Y936000D01*
X356250Y916000D02*
X367250D01*
X328250D02*
Y936000D01*
X339250D01*
Y916000D02*
Y936000D01*
X328250Y916000D02*
X339250D01*
X300250D02*
Y936000D01*
X311250D01*
Y916000D02*
Y936000D01*
X300250Y916000D02*
X311250D01*
X272250D02*
Y936000D01*
X283250D01*
Y916000D02*
Y936000D01*
X272250Y916000D02*
X283250D01*
X244251D02*
Y936000D01*
X255250D01*
Y916000D02*
Y936000D01*
X244251Y916000D02*
X255250D01*
X216250D02*
Y936000D01*
X227250D01*
Y916000D02*
Y936000D01*
X216250Y916000D02*
X227250D01*
X188251D02*
Y936000D01*
X199250D01*
Y916000D02*
Y936000D01*
X188251Y916000D02*
X199250D01*
X160251D02*
Y936000D01*
X171250D01*
Y916000D02*
Y936000D01*
X160251Y916000D02*
X171250D01*
X100750Y269000D02*
X103750D01*
X100750Y278000D02*
X103750D01*
X100750Y254500D02*
X103750D01*
X100750Y263500D02*
X103750D01*
X100750Y240000D02*
X103750D01*
X100750Y249000D02*
X103750D01*
X263250Y853750D02*
X266250D01*
X263250Y844750D02*
X266250D01*
X130000Y775250D02*
Y778250D01*
X121000Y775250D02*
Y778250D01*
X188750Y764750D02*
Y767750D01*
X179750Y764750D02*
Y767750D01*
X189000Y562750D02*
Y565750D01*
X180000Y562750D02*
Y565750D01*
X55750Y562750D02*
Y565750D01*
X46750Y562750D02*
Y565750D01*
X97750Y613000D02*
Y616000D01*
X106750Y613000D02*
Y616000D01*
X129250Y611500D02*
Y614500D01*
X138250Y611500D02*
Y614500D01*
X171999Y577163D02*
X164001D01*
Y573164D01*
X165334Y571832D01*
X168000D01*
X169333Y573164D01*
Y577163D01*
Y574497D02*
X171999Y571832D01*
X165334Y569166D02*
X164001Y567833D01*
Y565167D01*
X165334Y563834D01*
X166667D01*
X168000Y565167D01*
Y566500D01*
Y565167D01*
X169333Y563834D01*
X170666D01*
X171999Y565167D01*
Y567833D01*
X170666Y569166D01*
X165334Y561168D02*
X164001Y559836D01*
Y557170D01*
X165334Y555837D01*
X166667D01*
X168000Y557170D01*
X169333Y555837D01*
X170666D01*
X171999Y557170D01*
Y559836D01*
X170666Y561168D01*
X169333D01*
X168000Y559836D01*
X166667Y561168D01*
X165334D01*
X168000Y559836D02*
Y557170D01*
X39999Y575413D02*
X32001D01*
Y571414D01*
X33334Y570082D01*
X36000D01*
X37333Y571414D01*
Y575413D01*
Y572747D02*
X39999Y570082D01*
X33334Y567416D02*
X32001Y566083D01*
Y563417D01*
X33334Y562084D01*
X34667D01*
X36000Y563417D01*
Y564750D01*
Y563417D01*
X37333Y562084D01*
X38666D01*
X39999Y563417D01*
Y566083D01*
X38666Y567416D01*
X32001Y559418D02*
Y554087D01*
X33334D01*
X38666Y559418D01*
X39999D01*
X149604Y634490D02*
Y642487D01*
X145605D01*
X144272Y641154D01*
Y638489D01*
X145605Y637156D01*
X149604D01*
X146938D02*
X144272Y634490D01*
X141607Y641154D02*
X140274Y642487D01*
X137608D01*
X136275Y641154D01*
Y639822D01*
X137608Y638489D01*
X138941D01*
X137608D01*
X136275Y637156D01*
Y635823D01*
X137608Y634490D01*
X140274D01*
X141607Y635823D01*
X128278Y642487D02*
X130943Y641154D01*
X133609Y638489D01*
Y635823D01*
X132276Y634490D01*
X129610D01*
X128278Y635823D01*
Y637156D01*
X129610Y638489D01*
X133609D01*
X118108Y636014D02*
Y644011D01*
X114109D01*
X112776Y642679D01*
Y640013D01*
X114109Y638680D01*
X118108D01*
X115442D02*
X112776Y636014D01*
X110111Y642679D02*
X108778Y644011D01*
X106112D01*
X104779Y642679D01*
Y641346D01*
X106112Y640013D01*
X107445D01*
X106112D01*
X104779Y638680D01*
Y637347D01*
X106112Y636014D01*
X108778D01*
X110111Y637347D01*
X98114Y636014D02*
Y644011D01*
X102113Y640013D01*
X96782D01*
X122587Y278249D02*
Y270251D01*
X126586D01*
X127918Y271584D01*
Y274250D01*
X126586Y275583D01*
X122587D01*
X125253D02*
X127918Y278249D01*
X130584Y271584D02*
X131917Y270251D01*
X134583D01*
X135916Y271584D01*
Y272917D01*
X134583Y274250D01*
X133250D01*
X134583D01*
X135916Y275583D01*
Y276916D01*
X134583Y278249D01*
X131917D01*
X130584Y276916D01*
X143913Y278249D02*
X138582D01*
X143913Y272917D01*
Y271584D01*
X142580Y270251D01*
X139915D01*
X138582Y271584D01*
X122587Y249499D02*
Y241501D01*
X126586D01*
X127918Y242834D01*
Y245500D01*
X126586Y246833D01*
X122587D01*
X125253D02*
X127918Y249499D01*
X130584Y242834D02*
X131917Y241501D01*
X134583D01*
X135916Y242834D01*
Y244167D01*
X134583Y245500D01*
X133250D01*
X134583D01*
X135916Y246833D01*
Y248166D01*
X134583Y249499D01*
X131917D01*
X130584Y248166D01*
X138582Y242834D02*
X139915Y241501D01*
X142580D01*
X143913Y242834D01*
Y248166D01*
X142580Y249499D01*
X139915D01*
X138582Y248166D01*
Y242834D01*
X122587Y263249D02*
Y255251D01*
X126586D01*
X127918Y256584D01*
Y259250D01*
X126586Y260583D01*
X122587D01*
X125253D02*
X127918Y263249D01*
X135916D02*
X130584D01*
X135916Y257917D01*
Y256584D01*
X134583Y255251D01*
X131917D01*
X130584Y256584D01*
X138582Y261916D02*
X139915Y263249D01*
X142580D01*
X143913Y261916D01*
Y256584D01*
X142580Y255251D01*
X139915D01*
X138582Y256584D01*
Y257917D01*
X139915Y259250D01*
X143913D01*
X253499Y909665D02*
X245501D01*
Y905666D01*
X246834Y904333D01*
X249500D01*
X250833Y905666D01*
Y909665D01*
Y906999D02*
X253499Y904333D01*
X246834Y901667D02*
X245501Y900334D01*
Y897668D01*
X246834Y896336D01*
X248167D01*
X249500Y897668D01*
X250833Y896336D01*
X252166D01*
X253499Y897668D01*
Y900334D01*
X252166Y901667D01*
X250833D01*
X249500Y900334D01*
X248167Y901667D01*
X246834D01*
X249500Y900334D02*
Y897668D01*
X225999Y909415D02*
X218001D01*
Y905416D01*
X219334Y904083D01*
X222000D01*
X223333Y905416D01*
Y909415D01*
Y906749D02*
X225999Y904083D01*
X218001Y901417D02*
Y896086D01*
X219334D01*
X224666Y901417D01*
X225999D01*
X198749Y910164D02*
X190751D01*
Y906166D01*
X192084Y904833D01*
X194750D01*
X196083Y906166D01*
Y910164D01*
Y907499D02*
X198749Y904833D01*
X190751Y896835D02*
X192084Y899501D01*
X194750Y902167D01*
X197416D01*
X198749Y900834D01*
Y898168D01*
X197416Y896835D01*
X196083D01*
X194750Y898168D01*
Y902167D01*
X169749Y907664D02*
X161751D01*
Y903666D01*
X163084Y902333D01*
X165750D01*
X167083Y903666D01*
Y907664D01*
Y904999D02*
X169749Y902333D01*
X161751Y894335D02*
Y899667D01*
X165750D01*
X164417Y897001D01*
Y895668D01*
X165750Y894335D01*
X168416D01*
X169749Y895668D01*
Y898334D01*
X168416Y899667D01*
X365749Y908664D02*
X357751D01*
Y904666D01*
X359084Y903333D01*
X361750D01*
X363083Y904666D01*
Y908664D01*
Y905999D02*
X365749Y903333D01*
Y896668D02*
X357751D01*
X361750Y900667D01*
Y895335D01*
X337249Y909415D02*
X329251D01*
Y905416D01*
X330584Y904083D01*
X333250D01*
X334583Y905416D01*
Y909415D01*
Y906749D02*
X337249Y904083D01*
X330584Y901417D02*
X329251Y900084D01*
Y897418D01*
X330584Y896086D01*
X331917D01*
X333250Y897418D01*
Y898751D01*
Y897418D01*
X334583Y896086D01*
X335916D01*
X337249Y897418D01*
Y900084D01*
X335916Y901417D01*
X309249Y910164D02*
X301251D01*
Y906166D01*
X302584Y904833D01*
X305250D01*
X306583Y906166D01*
Y910164D01*
Y907499D02*
X309249Y904833D01*
Y896835D02*
Y902167D01*
X303917Y896835D01*
X302584D01*
X301251Y898168D01*
Y900834D01*
X302584Y902167D01*
X281999Y907082D02*
X274001D01*
Y903083D01*
X275334Y901750D01*
X278000D01*
X279333Y903083D01*
Y907082D01*
Y904416D02*
X281999Y901750D01*
Y899084D02*
Y896418D01*
Y897751D01*
X274001D01*
X275334Y899084D01*
X268224Y870517D02*
X269557Y871849D01*
X272223D01*
X273556Y870517D01*
Y865185D01*
X272223Y863852D01*
X269557D01*
X268224Y865185D01*
X260227Y863852D02*
X265559D01*
X260227Y869184D01*
Y870517D01*
X261560Y871849D01*
X264226D01*
X265559Y870517D01*
X257561Y865185D02*
X256228Y863852D01*
X253562D01*
X252229Y865185D01*
Y870517D01*
X253562Y871849D01*
X256228D01*
X257561Y870517D01*
Y869184D01*
X256228Y867851D01*
X252229D01*
X294084Y809082D02*
X292751Y810415D01*
Y813080D01*
X294084Y814413D01*
X299416D01*
X300749Y813080D01*
Y810415D01*
X299416Y809082D01*
X300749Y801084D02*
Y806416D01*
X295417Y801084D01*
X294084D01*
X292751Y802417D01*
Y805083D01*
X294084Y806416D01*
X292751Y793087D02*
X294084Y795753D01*
X296750Y798418D01*
X299416D01*
X300749Y797085D01*
Y794420D01*
X299416Y793087D01*
X298083D01*
X296750Y794420D01*
Y798418D01*
X225084Y829082D02*
X223751Y830415D01*
Y833080D01*
X225084Y834413D01*
X230416D01*
X231749Y833080D01*
Y830415D01*
X230416Y829082D01*
X231749Y821084D02*
Y826416D01*
X226417Y821084D01*
X225084D01*
X223751Y822417D01*
Y825083D01*
X225084Y826416D01*
X231749Y814420D02*
X223751D01*
X227750Y818418D01*
Y813087D01*
X261084Y790582D02*
X259751Y791915D01*
Y794580D01*
X261084Y795913D01*
X266416D01*
X267749Y794580D01*
Y791915D01*
X266416Y790582D01*
X267749Y782584D02*
Y787916D01*
X262417Y782584D01*
X261084D01*
X259751Y783917D01*
Y786583D01*
X261084Y787916D01*
Y779918D02*
X259751Y778586D01*
Y775920D01*
X261084Y774587D01*
X262417D01*
X263750Y775920D01*
Y777253D01*
Y775920D01*
X265083Y774587D01*
X266416D01*
X267749Y775920D01*
Y778586D01*
X266416Y779918D01*
X160082Y821916D02*
X161415Y823249D01*
X164080D01*
X165413Y821916D01*
Y816584D01*
X164080Y815251D01*
X161415D01*
X160082Y816584D01*
X152084Y815251D02*
X157416D01*
X152084Y820583D01*
Y821916D01*
X153417Y823249D01*
X156083D01*
X157416Y821916D01*
X144087Y815251D02*
X149418D01*
X144087Y820583D01*
Y821916D01*
X145420Y823249D01*
X148085D01*
X149418Y821916D01*
X140084Y782665D02*
X138751Y783998D01*
Y786664D01*
X140084Y787997D01*
X145416D01*
X146749Y786664D01*
Y783998D01*
X145416Y782665D01*
X146749Y779999D02*
Y777334D01*
Y778666D01*
X138751D01*
X140084Y779999D01*
Y773335D02*
X138751Y772002D01*
Y769336D01*
X140084Y768003D01*
X141417D01*
X142750Y769336D01*
Y770669D01*
Y769336D01*
X144083Y768003D01*
X145416D01*
X146749Y769336D01*
Y772002D01*
X145416Y773335D01*
X193294Y794570D02*
X194627Y795903D01*
X197293D01*
X198626Y794570D01*
Y789239D01*
X197293Y787906D01*
X194627D01*
X193294Y789239D01*
X190629Y787906D02*
X187963D01*
X189296D01*
Y795903D01*
X190629Y794570D01*
X178632Y787906D02*
X183964D01*
X178632Y793238D01*
Y794570D01*
X179965Y795903D01*
X182631D01*
X183964Y794570D01*
X81534Y784919D02*
X82867Y786251D01*
X85533D01*
X86866Y784919D01*
Y779587D01*
X85533Y778254D01*
X82867D01*
X81534Y779587D01*
X78869Y784919D02*
X77536Y786251D01*
X74870D01*
X73537Y784919D01*
Y783586D01*
X74870Y782253D01*
X73537Y780920D01*
Y779587D01*
X74870Y778254D01*
X77536D01*
X78869Y779587D01*
Y780920D01*
X77536Y782253D01*
X78869Y783586D01*
Y784919D01*
X77536Y782253D02*
X74870D01*
X139334Y679083D02*
X138001Y680416D01*
Y683082D01*
X139334Y684415D01*
X144666D01*
X145999Y683082D01*
Y680416D01*
X144666Y679083D01*
X138001Y671086D02*
X139334Y673751D01*
X142000Y676417D01*
X144666D01*
X145999Y675084D01*
Y672418D01*
X144666Y671086D01*
X143333D01*
X142000Y672418D01*
Y676417D01*
D13*
X158300Y794350D02*
G03*
X158405Y810263I-12064J8036D01*
G01*
X127400Y810150D02*
G03*
X127296Y794238I12064J-8036D01*
G01*
X253400Y837800D02*
G03*
X237488Y837905I-8036J-12064D01*
G01*
X237600Y806900D02*
G03*
X253512Y806796I8036J12064D01*
G01*
X271150Y837800D02*
G03*
X255238Y837905I-8036J-12064D01*
G01*
X255350Y806900D02*
G03*
X271262Y806796I8036J12064D01*
G01*
X105550Y754600D02*
G03*
X105655Y770512I-12064J8036D01*
G01*
X74650Y770400D02*
G03*
X74545Y754488I12064J-8036D01*
G01*
X133400Y693050D02*
G03*
X117487Y693155I-8036J-12064D01*
G01*
X117600Y662150D02*
G03*
X133512Y662046I8036J12064D01*
G01*
X127500Y794250D02*
X158250D01*
X127500Y810250D02*
X158250D01*
X144400Y799650D02*
Y804950D01*
X141600Y799650D02*
Y804950D01*
X253500Y807000D02*
Y837750D01*
X237500Y807000D02*
Y837750D01*
X242800Y823900D02*
X248100D01*
X242800Y821100D02*
X248100D01*
X271250Y807000D02*
Y837750D01*
X255250Y807000D02*
Y837750D01*
X260550Y823900D02*
X265850D01*
X260550Y821100D02*
X265850D01*
X74750Y754500D02*
X105500D01*
X74750Y770500D02*
X105500D01*
X91650Y759900D02*
Y765200D01*
X88850Y759900D02*
Y765200D01*
X133500Y662250D02*
Y693000D01*
X117500Y662250D02*
Y693000D01*
X122800Y679150D02*
X128100D01*
X122800Y676350D02*
X128100D01*
M02*
