G04*
G04 #@! TF.GenerationSoftware,Altium Limited,Altium Designer,20.0.13 (296)*
G04*
G04 Layer_Color=16711935*
%FSLAX44Y44*%
%MOMM*%
G71*
G01*
G75*
%ADD46R,0.8200X1.0200*%
%ADD51R,1.0032X1.2032*%
%ADD55R,1.2032X1.0032*%
%ADD58R,1.0200X0.8200*%
%ADD70C,1.7032*%
%ADD71R,1.7032X1.7032*%
%ADD72C,1.5200*%
%ADD73R,1.5200X1.5200*%
%ADD74C,1.7200*%
%ADD75R,1.7200X1.7200*%
%ADD76R,1.6012X1.6012*%
%ADD77C,1.6012*%
%ADD78C,1.7332*%
%ADD79C,2.6482*%
%ADD80C,3.4532*%
%ADD98R,0.8032X0.7032*%
D46*
X94250Y273500D02*
D03*
X110250D02*
D03*
X94250Y259000D02*
D03*
X110250D02*
D03*
X94250Y244500D02*
D03*
X110250D02*
D03*
X272750Y849250D02*
D03*
X256750D02*
D03*
D51*
X151000Y802250D02*
D03*
X135000D02*
D03*
X98250Y762500D02*
D03*
X82250D02*
D03*
D55*
X245500Y830500D02*
D03*
Y814500D02*
D03*
X263250Y830500D02*
D03*
Y814500D02*
D03*
X125500Y685750D02*
D03*
Y669750D02*
D03*
D58*
X281000Y811000D02*
D03*
Y795000D02*
D03*
X125500Y768750D02*
D03*
Y784750D02*
D03*
X184250Y758250D02*
D03*
Y774250D02*
D03*
X184500Y556250D02*
D03*
Y572250D02*
D03*
X51250Y556250D02*
D03*
Y572250D02*
D03*
X102250Y622500D02*
D03*
Y606500D02*
D03*
X133750Y621000D02*
D03*
Y605000D02*
D03*
D70*
X456400Y805400D02*
D03*
X431000D02*
D03*
X456400Y856200D02*
D03*
X431000D02*
D03*
X456400Y881600D02*
D03*
X431000D02*
D03*
X456400Y907000D02*
D03*
X431000Y830800D02*
D03*
X456400D02*
D03*
X472500Y91550D02*
D03*
Y116950D02*
D03*
Y142350D02*
D03*
Y167750D02*
D03*
X310550Y874400D02*
D03*
X335950D02*
D03*
X361350D02*
D03*
X285150Y950600D02*
D03*
X310550D02*
D03*
X335950D02*
D03*
X361350D02*
D03*
X190800Y874400D02*
D03*
X216200D02*
D03*
X241600D02*
D03*
X165400Y950600D02*
D03*
X190800D02*
D03*
X216200D02*
D03*
X241600D02*
D03*
X83100Y881600D02*
D03*
X108500D02*
D03*
X83100Y805400D02*
D03*
X108500Y830800D02*
D03*
X83100D02*
D03*
X108500Y856200D02*
D03*
X83100D02*
D03*
X108500Y907000D02*
D03*
X83100D02*
D03*
D71*
X431000D02*
D03*
X472500Y193150D02*
D03*
X285150Y874400D02*
D03*
X165400D02*
D03*
X108500Y805400D02*
D03*
D72*
X409250Y581750D02*
D03*
X292500D02*
D03*
D73*
X459250D02*
D03*
X342500D02*
D03*
D74*
X132175Y72250D02*
D03*
X157575D02*
D03*
X92400D02*
D03*
X67000D02*
D03*
X273550D02*
D03*
X248150D02*
D03*
D75*
X182975D02*
D03*
X41600D02*
D03*
X222750D02*
D03*
D76*
X73000Y712000D02*
D03*
D77*
X85700Y737400D02*
D03*
X98400Y712000D02*
D03*
X111100Y737400D02*
D03*
X123800Y712000D02*
D03*
X136500Y737400D02*
D03*
X149200Y712000D02*
D03*
X161900Y737400D02*
D03*
D78*
X51250Y599500D02*
D03*
X76650D02*
D03*
X183750D02*
D03*
X158350D02*
D03*
D79*
X40050Y679000D02*
D03*
X194950D02*
D03*
D80*
X174650Y648500D02*
D03*
X60350D02*
D03*
D98*
X361750Y921000D02*
D03*
Y931000D02*
D03*
X333750Y921000D02*
D03*
Y930999D02*
D03*
X305750Y921000D02*
D03*
Y930999D02*
D03*
X277750Y921000D02*
D03*
Y930999D02*
D03*
X249750Y921000D02*
D03*
Y930999D02*
D03*
X221750Y921000D02*
D03*
Y930999D02*
D03*
X193750Y921000D02*
D03*
Y930999D02*
D03*
X165750Y921000D02*
D03*
Y931000D02*
D03*
M02*
