G04*
G04 #@! TF.GenerationSoftware,Altium Limited,Altium Designer,20.0.13 (296)*
G04*
G04 Layer_Color=8421504*
%FSLAX44Y44*%
%MOMM*%
G71*
G01*
G75*
%ADD22R,0.7000X0.9000*%
%ADD23R,0.6000X2.2000*%
%ADD24R,0.6000X4.2000*%
%ADD25R,1.0500X3.2000*%
%ADD26R,10.4500X8.3000*%
%ADD27R,0.8000X1.0000*%
%ADD28R,3.2500X2.1500*%
%ADD29R,0.9500X2.1500*%
%ADD30R,3.8100X2.7940*%
%ADD31R,1.0000X0.8000*%
%ADD32R,1.1000X1.3000*%
%ADD33R,1.2500X1.1000*%
%ADD34R,0.9000X0.7000*%
G04:AMPARAMS|DCode=35|XSize=1.56mm|YSize=0.28mm|CornerRadius=0.035mm|HoleSize=0mm|Usage=FLASHONLY|Rotation=270.000|XOffset=0mm|YOffset=0mm|HoleType=Round|Shape=RoundedRectangle|*
%AMROUNDEDRECTD35*
21,1,1.5600,0.2100,0,0,270.0*
21,1,1.4900,0.2800,0,0,270.0*
1,1,0.0700,-0.1050,-0.7450*
1,1,0.0700,-0.1050,0.7450*
1,1,0.0700,0.1050,0.7450*
1,1,0.0700,0.1050,-0.7450*
%
%ADD35ROUNDEDRECTD35*%
G04:AMPARAMS|DCode=36|XSize=1.56mm|YSize=0.28mm|CornerRadius=0.035mm|HoleSize=0mm|Usage=FLASHONLY|Rotation=0.000|XOffset=0mm|YOffset=0mm|HoleType=Round|Shape=RoundedRectangle|*
%AMROUNDEDRECTD36*
21,1,1.5600,0.2100,0,0,0.0*
21,1,1.4900,0.2800,0,0,0.0*
1,1,0.0700,0.7450,-0.1050*
1,1,0.0700,-0.7450,-0.1050*
1,1,0.0700,-0.7450,0.1050*
1,1,0.0700,0.7450,0.1050*
%
%ADD36ROUNDEDRECTD36*%
%ADD37R,1.0000X1.4000*%
G04:AMPARAMS|DCode=38|XSize=0.28mm|YSize=0.69mm|CornerRadius=0.07mm|HoleSize=0mm|Usage=FLASHONLY|Rotation=180.000|XOffset=0mm|YOffset=0mm|HoleType=Round|Shape=RoundedRectangle|*
%AMROUNDEDRECTD38*
21,1,0.2800,0.5500,0,0,180.0*
21,1,0.1400,0.6900,0,0,180.0*
1,1,0.1400,-0.0700,0.2750*
1,1,0.1400,0.0700,0.2750*
1,1,0.1400,0.0700,-0.2750*
1,1,0.1400,-0.0700,-0.2750*
%
%ADD38ROUNDEDRECTD38*%
G04:AMPARAMS|DCode=39|XSize=0.28mm|YSize=0.69mm|CornerRadius=0.07mm|HoleSize=0mm|Usage=FLASHONLY|Rotation=270.000|XOffset=0mm|YOffset=0mm|HoleType=Round|Shape=RoundedRectangle|*
%AMROUNDEDRECTD39*
21,1,0.2800,0.5500,0,0,270.0*
21,1,0.1400,0.6900,0,0,270.0*
1,1,0.1400,-0.2750,-0.0700*
1,1,0.1400,-0.2750,0.0700*
1,1,0.1400,0.2750,0.0700*
1,1,0.1400,0.2750,-0.0700*
%
%ADD39ROUNDEDRECTD39*%
%ADD40R,2.2860X2.2860*%
%ADD41R,1.5000X2.4000*%
%ADD42R,2.4000X1.5000*%
%ADD43R,2.1500X3.5000*%
%ADD44R,4.0000X7.0000*%
%ADD45R,1.4000X1.0000*%
D22*
X267750Y277250D02*
D03*
X251750D02*
D03*
X269000Y260250D02*
D03*
X253000D02*
D03*
X228000Y342250D02*
D03*
X212000D02*
D03*
X246000Y293750D02*
D03*
X230000D02*
D03*
X324750Y149498D02*
D03*
X340750D02*
D03*
X324750Y117747D02*
D03*
X340750D02*
D03*
X324750Y84498D02*
D03*
X340750D02*
D03*
X156500Y355000D02*
D03*
X140500D02*
D03*
X147444Y417250D02*
D03*
X131444D02*
D03*
X467250Y934750D02*
D03*
X483250D02*
D03*
X76750Y108000D02*
D03*
X60750D02*
D03*
X163750Y769500D02*
D03*
X179750D02*
D03*
X147000D02*
D03*
X131000D02*
D03*
X102750D02*
D03*
X118750D02*
D03*
X208000D02*
D03*
X192000D02*
D03*
D23*
X299550Y229500D02*
D03*
X286850D02*
D03*
X274150D02*
D03*
X261450D02*
D03*
D24*
X299550Y171500D02*
D03*
X286850D02*
D03*
X274150D02*
D03*
X261450D02*
D03*
D25*
X470500Y352750D02*
D03*
X453500D02*
D03*
X436500D02*
D03*
X419500D02*
D03*
X402500D02*
D03*
D26*
X436500Y258250D02*
D03*
D27*
X296750Y377750D02*
D03*
X280750D02*
D03*
X227000Y320750D02*
D03*
X243000D02*
D03*
X40750Y143500D02*
D03*
X24750D02*
D03*
X304000Y843250D02*
D03*
X288000D02*
D03*
X436000Y391750D02*
D03*
X420000D02*
D03*
D28*
X336750Y296000D02*
D03*
D29*
X313750Y354000D02*
D03*
X336750D02*
D03*
X359750D02*
D03*
D30*
X443500Y438315D02*
D03*
Y509685D02*
D03*
D31*
X199250Y391000D02*
D03*
Y375000D02*
D03*
X179000Y391250D02*
D03*
Y375250D02*
D03*
X322250Y187250D02*
D03*
Y203250D02*
D03*
X227500Y154250D02*
D03*
Y138250D02*
D03*
X48750Y362500D02*
D03*
Y378500D02*
D03*
X106500Y379000D02*
D03*
Y363000D02*
D03*
X89500Y378750D02*
D03*
Y362750D02*
D03*
X254750Y784250D02*
D03*
Y768250D02*
D03*
D32*
X155250Y398000D02*
D03*
Y375000D02*
D03*
X137250D02*
D03*
Y398000D02*
D03*
X263000Y834750D02*
D03*
Y811750D02*
D03*
X245000D02*
D03*
Y834750D02*
D03*
D33*
X364500Y83750D02*
D03*
X387500D02*
D03*
X364500Y117000D02*
D03*
X387500D02*
D03*
X364500Y150250D02*
D03*
X387500D02*
D03*
X419500Y934250D02*
D03*
X442500D02*
D03*
D34*
X73000Y361000D02*
D03*
Y377000D02*
D03*
X136000Y877500D02*
D03*
Y861500D02*
D03*
X223250Y778250D02*
D03*
Y762250D02*
D03*
D35*
X188000Y167700D02*
D03*
X183000D02*
D03*
X178000D02*
D03*
X173000D02*
D03*
X168000D02*
D03*
X163000D02*
D03*
X158000D02*
D03*
X153000D02*
D03*
X148000D02*
D03*
X143000D02*
D03*
X138000D02*
D03*
X133000D02*
D03*
X128000D02*
D03*
X123000D02*
D03*
X118000D02*
D03*
X113000D02*
D03*
X108000D02*
D03*
X103000D02*
D03*
X98000D02*
D03*
X93000D02*
D03*
X88000D02*
D03*
X83000D02*
D03*
X78000D02*
D03*
X73000D02*
D03*
X68000D02*
D03*
Y321300D02*
D03*
X73000D02*
D03*
X78000D02*
D03*
X83000D02*
D03*
X88000D02*
D03*
X93000D02*
D03*
X98000D02*
D03*
X103000D02*
D03*
X108000D02*
D03*
X113000D02*
D03*
X118000D02*
D03*
X123000D02*
D03*
X128000D02*
D03*
X133000D02*
D03*
X138000D02*
D03*
X143000D02*
D03*
X148000D02*
D03*
X153000D02*
D03*
X158000D02*
D03*
X163000D02*
D03*
X168000D02*
D03*
X173000D02*
D03*
X178000D02*
D03*
X183000D02*
D03*
X188000D02*
D03*
D36*
X204800Y304500D02*
D03*
Y299500D02*
D03*
Y294500D02*
D03*
Y289500D02*
D03*
Y284500D02*
D03*
Y279500D02*
D03*
Y274500D02*
D03*
Y269500D02*
D03*
Y264500D02*
D03*
Y259500D02*
D03*
Y254500D02*
D03*
Y249500D02*
D03*
Y244500D02*
D03*
Y239500D02*
D03*
Y234500D02*
D03*
Y229500D02*
D03*
Y224500D02*
D03*
Y219500D02*
D03*
Y214500D02*
D03*
Y209500D02*
D03*
Y204500D02*
D03*
Y199500D02*
D03*
Y194500D02*
D03*
Y189500D02*
D03*
Y184500D02*
D03*
X51200D02*
D03*
Y189500D02*
D03*
Y194500D02*
D03*
Y199500D02*
D03*
Y204500D02*
D03*
Y209500D02*
D03*
Y214500D02*
D03*
Y219500D02*
D03*
Y224500D02*
D03*
Y229500D02*
D03*
Y234500D02*
D03*
Y239500D02*
D03*
Y244500D02*
D03*
Y249500D02*
D03*
Y254500D02*
D03*
Y259500D02*
D03*
Y264500D02*
D03*
Y269500D02*
D03*
Y274500D02*
D03*
Y279500D02*
D03*
Y284500D02*
D03*
Y289500D02*
D03*
Y294500D02*
D03*
Y299500D02*
D03*
Y304500D02*
D03*
D37*
X202250Y143000D02*
D03*
X182250D02*
D03*
D38*
X172250Y797000D02*
D03*
X177250D02*
D03*
X197250D02*
D03*
X192250D02*
D03*
X182250D02*
D03*
X187250D02*
D03*
Y834900D02*
D03*
X182250D02*
D03*
X192250D02*
D03*
X197250D02*
D03*
X177250D02*
D03*
X172250D02*
D03*
D39*
X165800Y803450D02*
D03*
Y808450D02*
D03*
Y828450D02*
D03*
Y823450D02*
D03*
Y813450D02*
D03*
Y818450D02*
D03*
X203700Y803450D02*
D03*
Y808450D02*
D03*
Y828450D02*
D03*
Y823450D02*
D03*
Y813450D02*
D03*
Y818450D02*
D03*
D40*
X184750Y815950D02*
D03*
D41*
X315750Y815000D02*
D03*
X286750D02*
D03*
D42*
X228500Y714500D02*
D03*
Y743500D02*
D03*
D43*
X365000Y256750D02*
D03*
X330000D02*
D03*
D44*
X284000Y455750D02*
D03*
X384000D02*
D03*
D45*
X23750Y167750D02*
D03*
Y187750D02*
D03*
M02*
