G04*
G04 #@! TF.GenerationSoftware,Altium Limited,Altium Designer,20.0.13 (296)*
G04*
G04 Layer_Physical_Order=3*
G04 Layer_Color=16440176*
%FSLAX44Y44*%
%MOMM*%
G71*
G01*
G75*
%ADD11C,0.2000*%
%ADD84C,1.5000*%
%ADD85R,1.5000X1.5000*%
%ADD86C,1.4000*%
%ADD88C,1.6000*%
%ADD91C,1.3980*%
%ADD92C,1.5300*%
%ADD93C,2.4450*%
%ADD95C,0.7000*%
%ADD96C,0.8000*%
G36*
X496432Y3569D02*
X3569D01*
Y996432D01*
X496432D01*
Y3569D01*
D02*
G37*
%LPC*%
G36*
X361350Y960182D02*
X358870Y959856D01*
X356559Y958898D01*
X354575Y957376D01*
X353052Y955391D01*
X352095Y953080D01*
X351768Y950600D01*
X352095Y948120D01*
X353052Y945809D01*
X354575Y943825D01*
X356559Y942302D01*
X358870Y941345D01*
X361350Y941018D01*
X363830Y941345D01*
X366141Y942302D01*
X368125Y943825D01*
X369648Y945809D01*
X370606Y948120D01*
X370932Y950600D01*
X370606Y953080D01*
X369648Y955391D01*
X368125Y957376D01*
X366141Y958898D01*
X363830Y959856D01*
X361350Y960182D01*
D02*
G37*
G36*
X335950D02*
X333470Y959856D01*
X331159Y958898D01*
X329175Y957376D01*
X327652Y955391D01*
X326695Y953080D01*
X326368Y950600D01*
X326695Y948120D01*
X327652Y945809D01*
X329175Y943825D01*
X331159Y942302D01*
X333470Y941345D01*
X335950Y941018D01*
X338430Y941345D01*
X340741Y942302D01*
X342725Y943825D01*
X344248Y945809D01*
X345205Y948120D01*
X345532Y950600D01*
X345205Y953080D01*
X344248Y955391D01*
X342725Y957376D01*
X340741Y958898D01*
X338430Y959856D01*
X335950Y960182D01*
D02*
G37*
G36*
X310550D02*
X308070Y959856D01*
X305759Y958898D01*
X303775Y957376D01*
X302252Y955391D01*
X301295Y953080D01*
X300968Y950600D01*
X301295Y948120D01*
X302252Y945809D01*
X303775Y943825D01*
X305759Y942302D01*
X308070Y941345D01*
X310550Y941018D01*
X313030Y941345D01*
X315341Y942302D01*
X317325Y943825D01*
X318848Y945809D01*
X319806Y948120D01*
X320132Y950600D01*
X319806Y953080D01*
X318848Y955391D01*
X317325Y957376D01*
X315341Y958898D01*
X313030Y959856D01*
X310550Y960182D01*
D02*
G37*
G36*
X285150D02*
X282670Y959856D01*
X280359Y958898D01*
X278375Y957376D01*
X276852Y955391D01*
X275895Y953080D01*
X275568Y950600D01*
X275895Y948120D01*
X276852Y945809D01*
X278375Y943825D01*
X280359Y942302D01*
X282670Y941345D01*
X285150Y941018D01*
X287630Y941345D01*
X289941Y942302D01*
X291926Y943825D01*
X293448Y945809D01*
X294405Y948120D01*
X294732Y950600D01*
X294405Y953080D01*
X293448Y955391D01*
X291926Y957376D01*
X289941Y958898D01*
X287630Y959856D01*
X285150Y960182D01*
D02*
G37*
G36*
X241600D02*
X239120Y959856D01*
X236809Y958898D01*
X234824Y957376D01*
X233302Y955391D01*
X232344Y953080D01*
X232018Y950600D01*
X232344Y948120D01*
X233302Y945809D01*
X234824Y943825D01*
X236809Y942302D01*
X239120Y941345D01*
X241600Y941018D01*
X244080Y941345D01*
X246391Y942302D01*
X248375Y943825D01*
X249898Y945809D01*
X250855Y948120D01*
X251182Y950600D01*
X250855Y953080D01*
X249898Y955391D01*
X248375Y957376D01*
X246391Y958898D01*
X244080Y959856D01*
X241600Y960182D01*
D02*
G37*
G36*
X216200D02*
X213720Y959856D01*
X211409Y958898D01*
X209424Y957376D01*
X207901Y955391D01*
X206944Y953080D01*
X206618Y950600D01*
X206944Y948120D01*
X207901Y945809D01*
X209424Y943825D01*
X211409Y942302D01*
X213720Y941345D01*
X216200Y941018D01*
X218680Y941345D01*
X220991Y942302D01*
X222975Y943825D01*
X224498Y945809D01*
X225455Y948120D01*
X225782Y950600D01*
X225455Y953080D01*
X224498Y955391D01*
X222975Y957376D01*
X220991Y958898D01*
X218680Y959856D01*
X216200Y960182D01*
D02*
G37*
G36*
X190800D02*
X188320Y959856D01*
X186009Y958898D01*
X184024Y957376D01*
X182502Y955391D01*
X181544Y953080D01*
X181218Y950600D01*
X181544Y948120D01*
X182502Y945809D01*
X184024Y943825D01*
X186009Y942302D01*
X188320Y941345D01*
X190800Y941018D01*
X193280Y941345D01*
X195591Y942302D01*
X197575Y943825D01*
X199098Y945809D01*
X200055Y948120D01*
X200382Y950600D01*
X200055Y953080D01*
X199098Y955391D01*
X197575Y957376D01*
X195591Y958898D01*
X193280Y959856D01*
X190800Y960182D01*
D02*
G37*
G36*
X165400D02*
X162920Y959856D01*
X160609Y958898D01*
X158624Y957376D01*
X157101Y955391D01*
X156144Y953080D01*
X155818Y950600D01*
X156144Y948120D01*
X157101Y945809D01*
X158624Y943825D01*
X160609Y942302D01*
X162920Y941345D01*
X165400Y941018D01*
X167880Y941345D01*
X170191Y942302D01*
X172175Y943825D01*
X173698Y945809D01*
X174655Y948120D01*
X174982Y950600D01*
X174655Y953080D01*
X173698Y955391D01*
X172175Y957376D01*
X170191Y958898D01*
X167880Y959856D01*
X165400Y960182D01*
D02*
G37*
G36*
X440500Y916500D02*
X421500D01*
Y897500D01*
X440500D01*
Y916500D01*
D02*
G37*
G36*
X456400Y916582D02*
X453920Y916255D01*
X451609Y915298D01*
X449624Y913775D01*
X448102Y911791D01*
X447145Y909480D01*
X446818Y907000D01*
X447145Y904520D01*
X448102Y902209D01*
X449624Y900225D01*
X451609Y898702D01*
X453920Y897745D01*
X456400Y897418D01*
X458880Y897745D01*
X461191Y898702D01*
X463175Y900225D01*
X464698Y902209D01*
X465655Y904520D01*
X465982Y907000D01*
X465655Y909480D01*
X464698Y911791D01*
X463175Y913775D01*
X461191Y915298D01*
X458880Y916255D01*
X456400Y916582D01*
D02*
G37*
G36*
X108500D02*
X106020Y916255D01*
X103709Y915298D01*
X101725Y913775D01*
X100202Y911791D01*
X99245Y909480D01*
X98918Y907000D01*
X99245Y904520D01*
X100202Y902209D01*
X101725Y900225D01*
X103709Y898702D01*
X106020Y897745D01*
X108500Y897418D01*
X110980Y897745D01*
X113291Y898702D01*
X115276Y900225D01*
X116798Y902209D01*
X117756Y904520D01*
X118082Y907000D01*
X117756Y909480D01*
X116798Y911791D01*
X115276Y913775D01*
X113291Y915298D01*
X110980Y916255D01*
X108500Y916582D01*
D02*
G37*
G36*
X83100D02*
X80620Y916255D01*
X78309Y915298D01*
X76325Y913775D01*
X74802Y911791D01*
X73845Y909480D01*
X73518Y907000D01*
X73845Y904520D01*
X74802Y902209D01*
X76325Y900225D01*
X78309Y898702D01*
X80620Y897745D01*
X83100Y897418D01*
X85580Y897745D01*
X87891Y898702D01*
X89876Y900225D01*
X91398Y902209D01*
X92356Y904520D01*
X92682Y907000D01*
X92356Y909480D01*
X91398Y911791D01*
X89876Y913775D01*
X87891Y915298D01*
X85580Y916255D01*
X83100Y916582D01*
D02*
G37*
G36*
X109770Y891559D02*
Y882870D01*
X118460D01*
X118282Y884221D01*
X117270Y886663D01*
X115661Y888761D01*
X113563Y890370D01*
X111121Y891382D01*
X109770Y891559D01*
D02*
G37*
G36*
X84370D02*
Y882870D01*
X93060D01*
X92882Y884221D01*
X91870Y886663D01*
X90261Y888761D01*
X88163Y890370D01*
X85721Y891382D01*
X84370Y891559D01*
D02*
G37*
G36*
X457670D02*
Y882870D01*
X466359D01*
X466181Y884221D01*
X465170Y886663D01*
X463560Y888761D01*
X461463Y890370D01*
X459021Y891382D01*
X457670Y891559D01*
D02*
G37*
G36*
X432270D02*
Y882870D01*
X440959D01*
X440782Y884221D01*
X439770Y886663D01*
X438161Y888761D01*
X436063Y890370D01*
X433621Y891382D01*
X432270Y891559D01*
D02*
G37*
G36*
X455130D02*
X453779Y891382D01*
X451337Y890370D01*
X449239Y888761D01*
X447630Y886663D01*
X446618Y884221D01*
X446441Y882870D01*
X455130D01*
Y891559D01*
D02*
G37*
G36*
X429730D02*
X428379Y891382D01*
X425937Y890370D01*
X423839Y888761D01*
X422230Y886663D01*
X421218Y884221D01*
X421040Y882870D01*
X429730D01*
Y891559D01*
D02*
G37*
G36*
X107230D02*
X105879Y891382D01*
X103437Y890370D01*
X101340Y888761D01*
X99730Y886663D01*
X98719Y884221D01*
X98541Y882870D01*
X107230D01*
Y891559D01*
D02*
G37*
G36*
X81830D02*
X80479Y891382D01*
X78037Y890370D01*
X75940Y888761D01*
X74330Y886663D01*
X73319Y884221D01*
X73141Y882870D01*
X81830D01*
Y891559D01*
D02*
G37*
G36*
X118460Y880330D02*
X109770D01*
Y871641D01*
X111121Y871818D01*
X113563Y872830D01*
X115661Y874439D01*
X117270Y876537D01*
X118282Y878979D01*
X118460Y880330D01*
D02*
G37*
G36*
X466359D02*
X457670D01*
Y871641D01*
X459021Y871818D01*
X461463Y872830D01*
X463560Y874439D01*
X465170Y876537D01*
X466181Y878979D01*
X466359Y880330D01*
D02*
G37*
G36*
X440959D02*
X432270D01*
Y871641D01*
X433621Y871818D01*
X436063Y872830D01*
X438161Y874439D01*
X439770Y876537D01*
X440782Y878979D01*
X440959Y880330D01*
D02*
G37*
G36*
X455130D02*
X446441D01*
X446618Y878979D01*
X447630Y876537D01*
X449239Y874439D01*
X451337Y872830D01*
X453779Y871818D01*
X455130Y871641D01*
Y880330D01*
D02*
G37*
G36*
X429730D02*
X421040D01*
X421218Y878979D01*
X422230Y876537D01*
X423839Y874439D01*
X425937Y872830D01*
X428379Y871818D01*
X429730Y871641D01*
Y880330D01*
D02*
G37*
G36*
X107230D02*
X98541D01*
X98719Y878979D01*
X99730Y876537D01*
X101340Y874439D01*
X103437Y872830D01*
X105879Y871818D01*
X107230Y871641D01*
Y880330D01*
D02*
G37*
G36*
X361350Y883982D02*
X358870Y883656D01*
X356559Y882698D01*
X354575Y881176D01*
X353052Y879191D01*
X352095Y876880D01*
X351768Y874400D01*
X352095Y871920D01*
X353052Y869609D01*
X354575Y867625D01*
X356559Y866102D01*
X358870Y865145D01*
X361350Y864818D01*
X363830Y865145D01*
X366141Y866102D01*
X368125Y867625D01*
X369648Y869609D01*
X370606Y871920D01*
X370932Y874400D01*
X370606Y876880D01*
X369648Y879191D01*
X368125Y881176D01*
X366141Y882698D01*
X363830Y883656D01*
X361350Y883982D01*
D02*
G37*
G36*
X335950D02*
X333470Y883656D01*
X331159Y882698D01*
X329175Y881176D01*
X327652Y879191D01*
X326695Y876880D01*
X326368Y874400D01*
X326695Y871920D01*
X327652Y869609D01*
X329175Y867625D01*
X331159Y866102D01*
X333470Y865145D01*
X335950Y864818D01*
X338430Y865145D01*
X340741Y866102D01*
X342725Y867625D01*
X344248Y869609D01*
X345205Y871920D01*
X345532Y874400D01*
X345205Y876880D01*
X344248Y879191D01*
X342725Y881176D01*
X340741Y882698D01*
X338430Y883656D01*
X335950Y883982D01*
D02*
G37*
G36*
X368000Y904559D02*
X368000Y904559D01*
X153515D01*
X152344Y904326D01*
X151352Y903663D01*
X112510Y864822D01*
X110980Y865455D01*
X108500Y865782D01*
X106020Y865455D01*
X103709Y864498D01*
X101725Y862975D01*
X100462Y861330D01*
X99143Y861274D01*
X88754Y871663D01*
X88695Y871702D01*
X88639Y871822D01*
X88689Y873233D01*
X90261Y874439D01*
X91870Y876537D01*
X92882Y878979D01*
X93060Y880330D01*
X83100D01*
X73141D01*
X73319Y878979D01*
X74330Y876537D01*
X75940Y874439D01*
X76735Y873829D01*
X76304Y872559D01*
X29500D01*
X29500Y872559D01*
X28330Y872326D01*
X27337Y871663D01*
X8587Y852913D01*
X7924Y851920D01*
X7691Y850750D01*
X7691Y850750D01*
Y558250D01*
X7691Y558250D01*
X7924Y557080D01*
X8587Y556087D01*
X209191Y355483D01*
Y278500D01*
X209191Y278500D01*
X209424Y277330D01*
X210087Y276337D01*
X218826Y267598D01*
X218819Y267588D01*
X218392Y265442D01*
X218819Y263296D01*
X220035Y261477D01*
X221854Y260261D01*
X224000Y259834D01*
X224265Y259887D01*
X224891Y258717D01*
X113771Y147597D01*
X112896Y148181D01*
X110750Y148608D01*
X108604Y148181D01*
X106785Y146965D01*
X105569Y145146D01*
X105142Y143000D01*
X105569Y140854D01*
X106785Y139035D01*
X107157Y138786D01*
X106889Y137438D01*
X106854Y137431D01*
X105035Y136215D01*
X104555Y135498D01*
X103028D01*
X102715Y135965D01*
X100896Y137181D01*
X98750Y137607D01*
X96604Y137181D01*
X94984Y136098D01*
X94115Y136266D01*
X93610Y136493D01*
X93431Y137396D01*
X92215Y139215D01*
X91309Y139821D01*
Y147500D01*
X91076Y148671D01*
X90413Y149663D01*
X90413Y149663D01*
X84913Y155163D01*
X83920Y155826D01*
X82750Y156059D01*
X82750Y156059D01*
X74250D01*
X74250Y156059D01*
X73080Y155826D01*
X72087Y155163D01*
X66337Y149413D01*
X65674Y148420D01*
X65441Y147250D01*
X65441Y147250D01*
Y131750D01*
X65441Y131750D01*
X65674Y130580D01*
X66337Y129587D01*
X82587Y113337D01*
X83580Y112674D01*
X84750Y112441D01*
X84750Y112441D01*
X85005D01*
X85603Y111321D01*
X85319Y110896D01*
X84893Y108750D01*
X85319Y106604D01*
X86535Y104785D01*
X88354Y103569D01*
X90500Y103142D01*
X92646Y103569D01*
X94466Y104785D01*
X95681Y106604D01*
X96108Y108750D01*
X95681Y110896D01*
X95397Y111321D01*
X95996Y112441D01*
X146750D01*
X146750Y112441D01*
X147921Y112674D01*
X148913Y113337D01*
X161663Y126087D01*
X161663Y126087D01*
X162326Y127080D01*
X162559Y128250D01*
Y140338D01*
X163679Y140936D01*
X163854Y140819D01*
X166000Y140393D01*
X168146Y140819D01*
X169965Y142035D01*
X171181Y143854D01*
X171608Y146000D01*
X171181Y148146D01*
X169965Y149965D01*
X168146Y151181D01*
X166000Y151608D01*
X163854Y151181D01*
X163679Y151064D01*
X162559Y151663D01*
Y159449D01*
X273163Y270053D01*
X273826Y271045D01*
X274059Y272216D01*
Y330075D01*
X275329Y330754D01*
X276354Y330069D01*
X278500Y329642D01*
X280646Y330069D01*
X282465Y331285D01*
X283681Y333104D01*
X284108Y335250D01*
X283681Y337396D01*
X282465Y339215D01*
X280646Y340431D01*
X278500Y340858D01*
X276354Y340431D01*
X275329Y339746D01*
X274059Y340425D01*
Y767983D01*
X294413Y788337D01*
X294413Y788337D01*
X295076Y789330D01*
X295309Y790500D01*
X295309Y790500D01*
Y854833D01*
X306338Y865862D01*
X308070Y865145D01*
X310550Y864818D01*
X313030Y865145D01*
X315341Y866102D01*
X317325Y867625D01*
X318848Y869609D01*
X319806Y871920D01*
X320132Y874400D01*
X319806Y876880D01*
X318848Y879191D01*
X317325Y881176D01*
X315341Y882698D01*
X313030Y883656D01*
X310550Y883982D01*
X308070Y883656D01*
X305759Y882698D01*
X303775Y881176D01*
X302252Y879191D01*
X301295Y876880D01*
X300968Y874400D01*
X301295Y871920D01*
X302012Y870188D01*
X290087Y858263D01*
X289479Y857353D01*
X289386Y857340D01*
X288209Y858058D01*
Y864900D01*
X294650D01*
Y883900D01*
X275650D01*
Y864900D01*
X282091D01*
Y791417D01*
X267232Y776558D01*
X266059Y777044D01*
Y788837D01*
X267179Y789436D01*
X267354Y789319D01*
X269500Y788892D01*
X271646Y789319D01*
X273465Y790535D01*
X274681Y792354D01*
X275108Y794500D01*
X274681Y796646D01*
X273465Y798465D01*
X271646Y799681D01*
X269500Y800108D01*
X267354Y799681D01*
X267179Y799564D01*
X266059Y800162D01*
Y853000D01*
X266059Y853000D01*
X265826Y854170D01*
X265163Y855163D01*
X250138Y870188D01*
X250855Y871920D01*
X251182Y874400D01*
X250855Y876880D01*
X249898Y879191D01*
X248375Y881176D01*
X246391Y882698D01*
X244080Y883656D01*
X241600Y883982D01*
X239120Y883656D01*
X236809Y882698D01*
X234824Y881176D01*
X233302Y879191D01*
X232344Y876880D01*
X232018Y874400D01*
X232344Y871920D01*
X233302Y869609D01*
X234824Y867625D01*
X236809Y866102D01*
X239120Y865145D01*
X241600Y864818D01*
X244080Y865145D01*
X245812Y865862D01*
X259941Y851733D01*
Y826294D01*
X258768Y825808D01*
X239163Y845413D01*
X239788Y846584D01*
X240750Y846392D01*
X242896Y846819D01*
X244715Y848035D01*
X245931Y849854D01*
X246358Y852000D01*
X245931Y854146D01*
X244715Y855965D01*
X242896Y857181D01*
X240750Y857608D01*
X238604Y857181D01*
X236785Y855965D01*
X235569Y854146D01*
X235142Y852000D01*
X235334Y851038D01*
X234163Y850413D01*
X220183Y864393D01*
X220481Y865891D01*
X220991Y866102D01*
X222975Y867625D01*
X224498Y869609D01*
X225455Y871920D01*
X225782Y874400D01*
X225455Y876880D01*
X224498Y879191D01*
X222975Y881176D01*
X220991Y882698D01*
X218680Y883656D01*
X216200Y883982D01*
X213720Y883656D01*
X211409Y882698D01*
X209424Y881176D01*
X207901Y879191D01*
X206944Y876880D01*
X206618Y874400D01*
X206944Y871920D01*
X207901Y869609D01*
X209424Y867625D01*
X211409Y866102D01*
X213141Y865384D01*
Y864050D01*
X213141Y864050D01*
X213374Y862880D01*
X213742Y862329D01*
X213165Y861059D01*
X208467D01*
X199338Y870188D01*
X200055Y871920D01*
X200382Y874400D01*
X200055Y876880D01*
X199098Y879191D01*
X197575Y881176D01*
X195591Y882698D01*
X193280Y883656D01*
X190800Y883982D01*
X188320Y883656D01*
X186009Y882698D01*
X184024Y881176D01*
X182502Y879191D01*
X181544Y876880D01*
X181218Y874400D01*
X181544Y871920D01*
X182317Y870055D01*
X181240Y869335D01*
X176891Y873685D01*
X175899Y874348D01*
X174900Y874547D01*
Y883900D01*
X155900D01*
Y864900D01*
X174900D01*
Y865365D01*
X176073Y865851D01*
X182087Y859837D01*
X181462Y858667D01*
X180500Y858858D01*
X178354Y858431D01*
X176535Y857215D01*
X176013Y856435D01*
X174486D01*
X174465Y856466D01*
X172646Y857681D01*
X170500Y858108D01*
X168354Y857681D01*
X166535Y856466D01*
X165968Y855618D01*
X164698D01*
X164215Y856340D01*
X162396Y857556D01*
X160250Y857983D01*
X158104Y857556D01*
X156285Y856340D01*
X155069Y854521D01*
X154642Y852375D01*
X154849Y851339D01*
X153706Y850575D01*
X152625Y851297D01*
X150479Y851724D01*
X148333Y851297D01*
X146560Y850113D01*
X146436Y850040D01*
X144849Y849877D01*
X143646Y850681D01*
X141500Y851108D01*
X139354Y850681D01*
X137535Y849465D01*
X136319Y847646D01*
X135892Y845500D01*
X136135Y844280D01*
X136121Y844248D01*
X135034Y843302D01*
X133500Y843608D01*
X131354Y843181D01*
X129535Y841965D01*
X128319Y840146D01*
X127892Y838000D01*
X128319Y835854D01*
X129535Y834035D01*
X130710Y833249D01*
Y831751D01*
X129535Y830965D01*
X128319Y829146D01*
X127892Y827000D01*
X128319Y824854D01*
X128410Y824718D01*
X127924Y823544D01*
X127354Y823431D01*
X125535Y822215D01*
X124319Y820396D01*
X123892Y818250D01*
X124319Y816104D01*
X125535Y814285D01*
X127354Y813069D01*
X129500Y812642D01*
X131646Y813069D01*
X133465Y814285D01*
X134681Y816104D01*
X135108Y818250D01*
X134681Y820396D01*
X134590Y820533D01*
X135076Y821706D01*
X135646Y821819D01*
X137465Y823035D01*
X138681Y824854D01*
X139108Y827000D01*
X138681Y829146D01*
X137465Y830965D01*
X136290Y831751D01*
Y833249D01*
X137465Y834035D01*
X138681Y835854D01*
X139108Y838000D01*
X138865Y839220D01*
X138879Y839252D01*
X139965Y840198D01*
X141500Y839892D01*
X143646Y840319D01*
X145465Y841535D01*
X145877Y842151D01*
X146514D01*
X148333Y840935D01*
X150479Y840508D01*
X152625Y840935D01*
X154444Y842151D01*
X155660Y843970D01*
X156087Y846116D01*
X155880Y847153D01*
X157023Y847917D01*
X158104Y847194D01*
X160250Y846768D01*
X162396Y847194D01*
X164215Y848410D01*
X164782Y849258D01*
X166052D01*
X166535Y848535D01*
X168354Y847319D01*
X170500Y846892D01*
X172646Y847319D01*
X174465Y848535D01*
X174987Y849315D01*
X176514D01*
X176535Y849285D01*
X178354Y848069D01*
X180500Y847642D01*
X182646Y848069D01*
X184465Y849285D01*
X185681Y851104D01*
X186108Y853250D01*
X185917Y854212D01*
X187087Y854837D01*
X190587Y851337D01*
X190587Y851337D01*
X191579Y850674D01*
X192750Y850441D01*
X199421D01*
X200020Y849321D01*
X199569Y848646D01*
X199142Y846500D01*
X199569Y844354D01*
X200785Y842535D01*
X202604Y841319D01*
X204750Y840892D01*
X206896Y841319D01*
X208555Y842428D01*
X208957Y842483D01*
X210051Y842249D01*
X211031Y840782D01*
X212851Y839566D01*
X214190Y839300D01*
X214783Y837900D01*
X214197Y837024D01*
X213770Y834878D01*
X214197Y832732D01*
X215413Y830913D01*
X217232Y829697D01*
X219378Y829270D01*
X221524Y829697D01*
X223343Y830913D01*
X224559Y832732D01*
X224986Y834878D01*
X224559Y837024D01*
X223343Y838843D01*
X221524Y840059D01*
X220184Y840325D01*
X219592Y841725D01*
X220178Y842601D01*
X220219Y842808D01*
X221434Y843176D01*
X247941Y816669D01*
Y281767D01*
X238475Y272301D01*
X237305Y272927D01*
X237358Y273192D01*
X236931Y275338D01*
X235715Y277158D01*
X234809Y277763D01*
Y350250D01*
X234809Y350250D01*
X234576Y351421D01*
X233913Y352413D01*
X48913Y537413D01*
X48913Y537413D01*
X26059Y560267D01*
Y671160D01*
X27329Y671478D01*
X27714Y670757D01*
X29559Y668509D01*
X31808Y666664D01*
X34373Y665293D01*
X37156Y664449D01*
X38780Y664289D01*
Y679000D01*
Y693711D01*
X37156Y693551D01*
X34373Y692707D01*
X31808Y691336D01*
X29559Y689491D01*
X27714Y687243D01*
X27329Y686522D01*
X26059Y686840D01*
Y842733D01*
X38017Y854691D01*
X73717D01*
X73845Y853720D01*
X74802Y851409D01*
X76325Y849425D01*
X78309Y847902D01*
X80620Y846945D01*
X83100Y846618D01*
X85580Y846945D01*
X87312Y847662D01*
X95137Y839837D01*
X96130Y839174D01*
X97300Y838941D01*
X100691D01*
X101117Y837671D01*
X99730Y835863D01*
X98719Y833421D01*
X98541Y832070D01*
X108500D01*
X118460D01*
X118282Y833421D01*
X117270Y835863D01*
X115883Y837671D01*
X116157Y838621D01*
X116424Y838976D01*
X117421Y839174D01*
X118413Y839837D01*
X130413Y851837D01*
X130413Y851837D01*
X131076Y852829D01*
X131309Y854000D01*
Y861983D01*
X160767Y891441D01*
X362233D01*
X412087Y841587D01*
X412087Y841587D01*
X413079Y840924D01*
X414250Y840691D01*
X414250Y840691D01*
X425399D01*
X425653Y840162D01*
X425743Y839421D01*
X423839Y837961D01*
X422230Y835863D01*
X421218Y833421D01*
X421040Y832070D01*
X431000D01*
Y830800D01*
D01*
Y832070D01*
X440959D01*
X440782Y833421D01*
X439770Y835863D01*
X438161Y837961D01*
X436257Y839421D01*
X436347Y840162D01*
X436601Y840691D01*
X443950D01*
X443950Y840691D01*
X445121Y840924D01*
X446113Y841587D01*
X452188Y847662D01*
X453920Y846945D01*
X456400Y846618D01*
X458880Y846945D01*
X461191Y847902D01*
X463175Y849425D01*
X464698Y851409D01*
X465655Y853720D01*
X465982Y856200D01*
X465655Y858680D01*
X464698Y860991D01*
X463175Y862975D01*
X461191Y864498D01*
X458880Y865455D01*
X456400Y865782D01*
X453920Y865455D01*
X451609Y864498D01*
X449624Y862975D01*
X448102Y860991D01*
X447145Y858680D01*
X446818Y856200D01*
X447145Y853720D01*
X447862Y851988D01*
X442683Y846809D01*
X436357D01*
X436187Y847137D01*
X436022Y848079D01*
X437775Y849425D01*
X439298Y851409D01*
X440255Y853720D01*
X440582Y856200D01*
X440255Y858680D01*
X439298Y860991D01*
X437775Y862975D01*
X435791Y864498D01*
X433480Y865455D01*
X431000Y865782D01*
X428520Y865455D01*
X426209Y864498D01*
X424225Y862975D01*
X422702Y860991D01*
X421984Y859259D01*
X414567D01*
X370163Y903663D01*
X369170Y904326D01*
X368000Y904559D01*
D02*
G37*
G36*
X84370Y840759D02*
Y832070D01*
X93060D01*
X92882Y833421D01*
X91870Y835863D01*
X90261Y837961D01*
X88163Y839570D01*
X85721Y840582D01*
X84370Y840759D01*
D02*
G37*
G36*
X457670D02*
Y832070D01*
X466359D01*
X466181Y833421D01*
X465170Y835863D01*
X463560Y837961D01*
X461463Y839570D01*
X459021Y840582D01*
X457670Y840759D01*
D02*
G37*
G36*
X455130D02*
X453779Y840582D01*
X451337Y839570D01*
X449239Y837961D01*
X447630Y835863D01*
X446618Y833421D01*
X446441Y832070D01*
X455130D01*
Y840759D01*
D02*
G37*
G36*
X81830D02*
X80479Y840582D01*
X78037Y839570D01*
X75940Y837961D01*
X74330Y835863D01*
X73319Y833421D01*
X73141Y832070D01*
X81830D01*
Y840759D01*
D02*
G37*
G36*
X93060Y829530D02*
X84370D01*
Y820841D01*
X85721Y821018D01*
X88163Y822030D01*
X90261Y823639D01*
X91870Y825737D01*
X92882Y828179D01*
X93060Y829530D01*
D02*
G37*
G36*
X118460D02*
X109770D01*
Y820841D01*
X111121Y821018D01*
X113563Y822030D01*
X115661Y823639D01*
X117270Y825737D01*
X118282Y828179D01*
X118460Y829530D01*
D02*
G37*
G36*
X466359D02*
X457670D01*
Y820841D01*
X459021Y821018D01*
X461463Y822030D01*
X463560Y823639D01*
X465170Y825737D01*
X466181Y828179D01*
X466359Y829530D01*
D02*
G37*
G36*
X440959D02*
X432270D01*
Y820841D01*
X433621Y821018D01*
X436063Y822030D01*
X438161Y823639D01*
X439770Y825737D01*
X440782Y828179D01*
X440959Y829530D01*
D02*
G37*
G36*
X455130D02*
X446441D01*
X446618Y828179D01*
X447630Y825737D01*
X449239Y823639D01*
X451337Y822030D01*
X453779Y821018D01*
X455130Y820841D01*
Y829530D01*
D02*
G37*
G36*
X429730D02*
X421040D01*
X421218Y828179D01*
X422230Y825737D01*
X423839Y823639D01*
X425937Y822030D01*
X428379Y821018D01*
X429730Y820841D01*
Y829530D01*
D02*
G37*
G36*
X107230D02*
X98541D01*
X98719Y828179D01*
X99730Y825737D01*
X101340Y823639D01*
X103437Y822030D01*
X105879Y821018D01*
X107230Y820841D01*
Y829530D01*
D02*
G37*
G36*
X81830D02*
X73141D01*
X73319Y828179D01*
X74330Y825737D01*
X75940Y823639D01*
X78037Y822030D01*
X80479Y821018D01*
X81830Y820841D01*
Y829530D01*
D02*
G37*
G36*
X118000Y814900D02*
X99000D01*
Y795900D01*
X118000D01*
Y814900D01*
D02*
G37*
G36*
X456400Y814982D02*
X453920Y814655D01*
X451609Y813698D01*
X449624Y812175D01*
X448102Y810191D01*
X447145Y807880D01*
X446818Y805400D01*
X447145Y802920D01*
X448102Y800609D01*
X449624Y798624D01*
X451609Y797102D01*
X453920Y796144D01*
X456400Y795818D01*
X458880Y796144D01*
X461191Y797102D01*
X463175Y798624D01*
X464698Y800609D01*
X465655Y802920D01*
X465982Y805400D01*
X465655Y807880D01*
X464698Y810191D01*
X463175Y812175D01*
X461191Y813698D01*
X458880Y814655D01*
X456400Y814982D01*
D02*
G37*
G36*
X431000D02*
X428520Y814655D01*
X426209Y813698D01*
X424225Y812175D01*
X422702Y810191D01*
X421744Y807880D01*
X421418Y805400D01*
X421744Y802920D01*
X422702Y800609D01*
X424225Y798624D01*
X426209Y797102D01*
X428520Y796144D01*
X431000Y795818D01*
X433480Y796144D01*
X435791Y797102D01*
X437775Y798624D01*
X439298Y800609D01*
X440255Y802920D01*
X440582Y805400D01*
X440255Y807880D01*
X439298Y810191D01*
X437775Y812175D01*
X435791Y813698D01*
X433480Y814655D01*
X431000Y814982D01*
D02*
G37*
G36*
X83100D02*
X80620Y814655D01*
X78309Y813698D01*
X76325Y812175D01*
X74802Y810191D01*
X73845Y807880D01*
X73518Y805400D01*
X73845Y802920D01*
X74802Y800609D01*
X76325Y798624D01*
X78309Y797102D01*
X80620Y796144D01*
X83100Y795818D01*
X85580Y796144D01*
X87891Y797102D01*
X89876Y798624D01*
X91398Y800609D01*
X92356Y802920D01*
X92682Y805400D01*
X92356Y807880D01*
X91398Y810191D01*
X89876Y812175D01*
X87891Y813698D01*
X85580Y814655D01*
X83100Y814982D01*
D02*
G37*
G36*
X149019Y797469D02*
X146873Y797042D01*
X145054Y795826D01*
X143838Y794007D01*
X143411Y791861D01*
X143838Y789715D01*
X145054Y787896D01*
X146873Y786680D01*
X149019Y786253D01*
X151165Y786680D01*
X152984Y787896D01*
X154200Y789715D01*
X154627Y791861D01*
X154200Y794007D01*
X152984Y795826D01*
X151165Y797042D01*
X149019Y797469D01*
D02*
G37*
G36*
X102500Y788608D02*
X100354Y788181D01*
X98535Y786965D01*
X97319Y785146D01*
X96892Y783000D01*
X97319Y780854D01*
X98535Y779035D01*
X100354Y777819D01*
X102500Y777393D01*
X104646Y777819D01*
X106466Y779035D01*
X107681Y780854D01*
X108108Y783000D01*
X107681Y785146D01*
X106466Y786965D01*
X104646Y788181D01*
X102500Y788608D01*
D02*
G37*
G36*
X163500Y763608D02*
X161354Y763181D01*
X159535Y761965D01*
X158319Y760146D01*
X157892Y758000D01*
X158319Y755854D01*
X159535Y754035D01*
X161354Y752819D01*
X163500Y752392D01*
X165646Y752819D01*
X167465Y754035D01*
X168681Y755854D01*
X169108Y758000D01*
X168681Y760146D01*
X167465Y761965D01*
X165646Y763181D01*
X163500Y763608D01*
D02*
G37*
G36*
X146750Y763358D02*
X144604Y762931D01*
X142785Y761715D01*
X141569Y759896D01*
X141142Y757750D01*
X141569Y755604D01*
X142785Y753785D01*
X144604Y752569D01*
X146750Y752142D01*
X148896Y752569D01*
X150715Y753785D01*
X151931Y755604D01*
X152358Y757750D01*
X151931Y759896D01*
X150715Y761715D01*
X148896Y762931D01*
X146750Y763358D01*
D02*
G37*
G36*
X163170Y746845D02*
Y738670D01*
X171345D01*
X171185Y739888D01*
X170225Y742206D01*
X168697Y744197D01*
X166706Y745725D01*
X164388Y746685D01*
X163170Y746845D01*
D02*
G37*
G36*
X160630D02*
X159412Y746685D01*
X157094Y745725D01*
X155103Y744197D01*
X153576Y742206D01*
X152615Y739888D01*
X152455Y738670D01*
X160630D01*
Y746845D01*
D02*
G37*
G36*
X196143Y756001D02*
X193997Y755574D01*
X192178Y754359D01*
X190963Y752539D01*
X190536Y750393D01*
X190963Y748247D01*
X192178Y746428D01*
X193997Y745213D01*
X195629Y744888D01*
X195643Y744853D01*
X195217Y742707D01*
X195643Y740561D01*
X196859Y738741D01*
X198678Y737526D01*
X200824Y737099D01*
X202970Y737526D01*
X204790Y738741D01*
X206005Y740561D01*
X206432Y742707D01*
X206005Y744853D01*
X204790Y746672D01*
X202970Y747887D01*
X201339Y748212D01*
X201324Y748247D01*
X201751Y750393D01*
X201324Y752539D01*
X200109Y754359D01*
X198289Y755574D01*
X196143Y756001D01*
D02*
G37*
G36*
X136500Y746468D02*
X134153Y746159D01*
X131966Y745253D01*
X130088Y743812D01*
X128647Y741934D01*
X127741Y739747D01*
X127433Y737400D01*
X127741Y735053D01*
X128647Y732866D01*
X130088Y730988D01*
X131966Y729547D01*
X134153Y728642D01*
X136500Y728333D01*
X138847Y728642D01*
X141034Y729547D01*
X142912Y730988D01*
X144353Y732866D01*
X145259Y735053D01*
X145568Y737400D01*
X145259Y739747D01*
X144353Y741934D01*
X142912Y743812D01*
X141034Y745253D01*
X138847Y746159D01*
X136500Y746468D01*
D02*
G37*
G36*
X111100D02*
X108753Y746159D01*
X106566Y745253D01*
X104688Y743812D01*
X103247Y741934D01*
X102341Y739747D01*
X102033Y737400D01*
X102341Y735053D01*
X103247Y732866D01*
X104688Y730988D01*
X106566Y729547D01*
X108753Y728642D01*
X111100Y728333D01*
X113447Y728642D01*
X115634Y729547D01*
X117512Y730988D01*
X118953Y732866D01*
X119859Y735053D01*
X120168Y737400D01*
X119859Y739747D01*
X118953Y741934D01*
X117512Y743812D01*
X115634Y745253D01*
X113447Y746159D01*
X111100Y746468D01*
D02*
G37*
G36*
X85700D02*
X83353Y746159D01*
X81166Y745253D01*
X79288Y743812D01*
X77847Y741934D01*
X76941Y739747D01*
X76633Y737400D01*
X76941Y735053D01*
X77847Y732866D01*
X79288Y730988D01*
X81166Y729547D01*
X83353Y728642D01*
X85700Y728333D01*
X88047Y728642D01*
X90234Y729547D01*
X92112Y730988D01*
X93553Y732866D01*
X94459Y735053D01*
X94768Y737400D01*
X94459Y739747D01*
X93553Y741934D01*
X92112Y743812D01*
X90234Y745253D01*
X88047Y746159D01*
X85700Y746468D01*
D02*
G37*
G36*
X171345Y736130D02*
X163170D01*
Y727955D01*
X164388Y728115D01*
X166706Y729076D01*
X168697Y730603D01*
X170225Y732594D01*
X171185Y734912D01*
X171345Y736130D01*
D02*
G37*
G36*
X160630D02*
X152455D01*
X152615Y734912D01*
X153576Y732594D01*
X155103Y730603D01*
X157094Y729076D01*
X159412Y728115D01*
X160630Y727955D01*
Y736130D01*
D02*
G37*
G36*
X196750Y727858D02*
X194604Y727431D01*
X192785Y726215D01*
X191569Y724396D01*
X191142Y722250D01*
X191569Y720104D01*
X192785Y718285D01*
X194604Y717069D01*
X196750Y716642D01*
X198896Y717069D01*
X200715Y718285D01*
X201931Y720104D01*
X202358Y722250D01*
X201931Y724396D01*
X200715Y726215D01*
X198896Y727431D01*
X196750Y727858D01*
D02*
G37*
G36*
X81990Y720990D02*
X64010D01*
Y703010D01*
X81990D01*
Y720990D01*
D02*
G37*
G36*
X149200Y721068D02*
X146853Y720759D01*
X144666Y719853D01*
X142788Y718412D01*
X141347Y716534D01*
X140442Y714347D01*
X140133Y712000D01*
X140442Y709653D01*
X141347Y707466D01*
X142788Y705588D01*
X144666Y704147D01*
X146853Y703242D01*
X149200Y702933D01*
X151547Y703242D01*
X153734Y704147D01*
X155612Y705588D01*
X157053Y707466D01*
X157959Y709653D01*
X158268Y712000D01*
X157959Y714347D01*
X157053Y716534D01*
X155612Y718412D01*
X153734Y719853D01*
X151547Y720759D01*
X149200Y721068D01*
D02*
G37*
G36*
X123800D02*
X121453Y720759D01*
X119266Y719853D01*
X117388Y718412D01*
X115947Y716534D01*
X115042Y714347D01*
X114733Y712000D01*
X115042Y709653D01*
X115947Y707466D01*
X117388Y705588D01*
X119266Y704147D01*
X121453Y703242D01*
X123800Y702933D01*
X126147Y703242D01*
X128334Y704147D01*
X130212Y705588D01*
X131653Y707466D01*
X132559Y709653D01*
X132868Y712000D01*
X132559Y714347D01*
X131653Y716534D01*
X130212Y718412D01*
X128334Y719853D01*
X126147Y720759D01*
X123800Y721068D01*
D02*
G37*
G36*
X98400D02*
X96053Y720759D01*
X93866Y719853D01*
X91988Y718412D01*
X90547Y716534D01*
X89642Y714347D01*
X89333Y712000D01*
X89642Y709653D01*
X90547Y707466D01*
X91988Y705588D01*
X93866Y704147D01*
X96053Y703242D01*
X98400Y702933D01*
X100747Y703242D01*
X102934Y704147D01*
X104812Y705588D01*
X106253Y707466D01*
X107159Y709653D01*
X107468Y712000D01*
X107159Y714347D01*
X106253Y716534D01*
X104812Y718412D01*
X102934Y719853D01*
X100747Y720759D01*
X98400Y721068D01*
D02*
G37*
G36*
X196220Y693711D02*
Y680270D01*
X209662D01*
X209501Y681894D01*
X208657Y684678D01*
X207286Y687243D01*
X205441Y689491D01*
X203193Y691336D01*
X200628Y692707D01*
X197845Y693551D01*
X196220Y693711D01*
D02*
G37*
G36*
X41320D02*
Y680270D01*
X54762D01*
X54602Y681894D01*
X53757Y684678D01*
X52386Y687243D01*
X50541Y689491D01*
X48293Y691336D01*
X45728Y692707D01*
X42945Y693551D01*
X41320Y693711D01*
D02*
G37*
G36*
X193680D02*
X192056Y693551D01*
X189272Y692707D01*
X186707Y691336D01*
X184459Y689491D01*
X182614Y687243D01*
X181243Y684678D01*
X180399Y681894D01*
X180239Y680270D01*
X193680D01*
Y693711D01*
D02*
G37*
G36*
X209662Y677730D02*
X196220D01*
Y664289D01*
X197845Y664449D01*
X200628Y665293D01*
X203193Y666664D01*
X205441Y668509D01*
X207286Y670757D01*
X208657Y673322D01*
X209501Y676105D01*
X209662Y677730D01*
D02*
G37*
G36*
X54762D02*
X41320D01*
Y664289D01*
X42945Y664449D01*
X45728Y665293D01*
X48293Y666664D01*
X50541Y668509D01*
X52386Y670757D01*
X53757Y673322D01*
X54602Y676105D01*
X54762Y677730D01*
D02*
G37*
G36*
X193680D02*
X180239D01*
X180399Y676105D01*
X181243Y673322D01*
X182614Y670757D01*
X184459Y668509D01*
X186707Y666664D01*
X189272Y665293D01*
X192056Y664449D01*
X193680Y664289D01*
Y677730D01*
D02*
G37*
G36*
X174650Y666838D02*
X171072Y666486D01*
X167632Y665443D01*
X164462Y663748D01*
X161683Y661467D01*
X159402Y658688D01*
X157708Y655518D01*
X156664Y652078D01*
X156312Y648500D01*
X156664Y644922D01*
X157708Y641482D01*
X159402Y638312D01*
X161683Y635533D01*
X164462Y633252D01*
X167632Y631558D01*
X171072Y630514D01*
X174650Y630162D01*
X178228Y630514D01*
X181668Y631558D01*
X184838Y633252D01*
X187617Y635533D01*
X189898Y638312D01*
X191592Y641482D01*
X192636Y644922D01*
X192988Y648500D01*
X192636Y652078D01*
X191592Y655518D01*
X189898Y658688D01*
X187617Y661467D01*
X184838Y663748D01*
X181668Y665443D01*
X178228Y666486D01*
X174650Y666838D01*
D02*
G37*
G36*
X60350D02*
X56772Y666486D01*
X53332Y665443D01*
X50162Y663748D01*
X47383Y661467D01*
X45102Y658688D01*
X43408Y655518D01*
X42364Y652078D01*
X42012Y648500D01*
X42364Y644922D01*
X43408Y641482D01*
X45102Y638312D01*
X47383Y635533D01*
X50162Y633252D01*
X53332Y631558D01*
X56772Y630514D01*
X60350Y630162D01*
X63928Y630514D01*
X67368Y631558D01*
X70538Y633252D01*
X73317Y635533D01*
X75598Y638312D01*
X77292Y641482D01*
X78336Y644922D01*
X78688Y648500D01*
X78336Y652078D01*
X77292Y655518D01*
X75598Y658688D01*
X73317Y661467D01*
X70538Y663748D01*
X67368Y665443D01*
X63928Y666486D01*
X60350Y666838D01*
D02*
G37*
G36*
X158350Y609233D02*
X155831Y608902D01*
X153484Y607929D01*
X151468Y606382D01*
X149921Y604367D01*
X148949Y602019D01*
X148617Y599500D01*
X148949Y596981D01*
X149921Y594633D01*
X151468Y592617D01*
X153484Y591071D01*
X155831Y590098D01*
X158350Y589767D01*
X160869Y590098D01*
X163217Y591071D01*
X165233Y592617D01*
X166779Y594633D01*
X167752Y596981D01*
X168083Y599500D01*
X167752Y602019D01*
X166779Y604367D01*
X165233Y606382D01*
X163217Y607929D01*
X160869Y608902D01*
X158350Y609233D01*
D02*
G37*
G36*
X76650D02*
X74131Y608902D01*
X71783Y607929D01*
X69768Y606382D01*
X68221Y604367D01*
X67249Y602019D01*
X66917Y599500D01*
X67249Y596981D01*
X68221Y594633D01*
X69768Y592617D01*
X71783Y591071D01*
X74131Y590098D01*
X76650Y589767D01*
X79169Y590098D01*
X81517Y591071D01*
X83533Y592617D01*
X85079Y594633D01*
X86052Y596981D01*
X86383Y599500D01*
X86052Y602019D01*
X85079Y604367D01*
X83533Y606382D01*
X81517Y607929D01*
X79169Y608902D01*
X76650Y609233D01*
D02*
G37*
G36*
X293770Y591205D02*
Y583020D01*
X301955D01*
X301794Y584240D01*
X300833Y586561D01*
X299304Y588554D01*
X297311Y590083D01*
X294990Y591044D01*
X293770Y591205D01*
D02*
G37*
G36*
X410520D02*
Y583020D01*
X418705D01*
X418544Y584240D01*
X417583Y586561D01*
X416054Y588554D01*
X414061Y590083D01*
X411740Y591044D01*
X410520Y591205D01*
D02*
G37*
G36*
X291230D02*
X290009Y591044D01*
X287689Y590083D01*
X285696Y588554D01*
X284167Y586561D01*
X283205Y584240D01*
X283045Y583020D01*
X291230D01*
Y591205D01*
D02*
G37*
G36*
X407980D02*
X406759Y591044D01*
X404439Y590083D01*
X402446Y588554D01*
X400917Y586561D01*
X399955Y584240D01*
X399795Y583020D01*
X407980D01*
Y591205D01*
D02*
G37*
G36*
X468250Y590750D02*
X450250D01*
Y572750D01*
X468250D01*
Y590750D01*
D02*
G37*
G36*
X351500D02*
X333500D01*
Y572750D01*
X351500D01*
Y590750D01*
D02*
G37*
G36*
X228750Y809858D02*
X226604Y809431D01*
X224785Y808215D01*
X223569Y806396D01*
X223142Y804250D01*
X223355Y803181D01*
X215587Y795413D01*
X214924Y794421D01*
X214691Y793250D01*
X214691Y793250D01*
Y634767D01*
X188077Y608153D01*
X186269Y608902D01*
X183750Y609233D01*
X181231Y608902D01*
X178884Y607929D01*
X176868Y606382D01*
X175321Y604367D01*
X174349Y602019D01*
X174017Y599500D01*
X174349Y596981D01*
X175321Y594633D01*
X176868Y592617D01*
X178884Y591071D01*
X181231Y590098D01*
X183750Y589767D01*
X186269Y590098D01*
X188617Y591071D01*
X190633Y592617D01*
X192180Y594633D01*
X193152Y596981D01*
X193484Y599500D01*
X193152Y602019D01*
X192403Y603827D01*
X219913Y631337D01*
X220576Y632329D01*
X220809Y633500D01*
X220809Y633500D01*
Y791983D01*
X226908Y798082D01*
X228227Y797699D01*
X228356Y797426D01*
X228142Y796349D01*
X228569Y794203D01*
X229785Y792384D01*
X230691Y791778D01*
Y621767D01*
X181233Y572309D01*
X67517D01*
X54559Y585267D01*
Y590425D01*
X56117Y591071D01*
X58133Y592617D01*
X59679Y594633D01*
X60652Y596981D01*
X60983Y599500D01*
X60652Y602019D01*
X59679Y604367D01*
X58133Y606382D01*
X56117Y607929D01*
X53769Y608902D01*
X51250Y609233D01*
X48731Y608902D01*
X46384Y607929D01*
X44368Y606382D01*
X42821Y604367D01*
X41849Y602019D01*
X41517Y599500D01*
X41849Y596981D01*
X42821Y594633D01*
X44368Y592617D01*
X46384Y591071D01*
X48441Y590218D01*
Y584000D01*
X48441Y584000D01*
X48674Y582830D01*
X49337Y581837D01*
X64087Y567087D01*
X64087Y567087D01*
X65079Y566424D01*
X66250Y566191D01*
X66250Y566191D01*
X182500D01*
X182500Y566191D01*
X183671Y566424D01*
X184663Y567087D01*
X235913Y618337D01*
X235913Y618337D01*
X236576Y619329D01*
X236809Y620500D01*
X236809Y620500D01*
Y791778D01*
X237715Y792384D01*
X238931Y794203D01*
X239358Y796349D01*
X238931Y798495D01*
X237715Y800314D01*
X235896Y801530D01*
X234014Y801905D01*
X233931Y802104D01*
X234358Y804250D01*
X233931Y806396D01*
X232715Y808215D01*
X230896Y809431D01*
X228750Y809858D01*
D02*
G37*
G36*
X418705Y580480D02*
X410520D01*
Y572295D01*
X411740Y572455D01*
X414061Y573417D01*
X416054Y574946D01*
X417583Y576939D01*
X418544Y579259D01*
X418705Y580480D01*
D02*
G37*
G36*
X301955D02*
X293770D01*
Y572295D01*
X294990Y572455D01*
X297311Y573417D01*
X299304Y574946D01*
X300833Y576939D01*
X301794Y579259D01*
X301955Y580480D01*
D02*
G37*
G36*
X407980D02*
X399795D01*
X399955Y579259D01*
X400917Y576939D01*
X402446Y574946D01*
X404439Y573417D01*
X406759Y572455D01*
X407980Y572295D01*
Y580480D01*
D02*
G37*
G36*
X291230D02*
X283045D01*
X283205Y579259D01*
X284167Y576939D01*
X285696Y574946D01*
X287689Y573417D01*
X290009Y572455D01*
X291230Y572295D01*
Y580480D01*
D02*
G37*
G36*
X111000Y435107D02*
X108854Y434681D01*
X107035Y433465D01*
X105819Y431646D01*
X105392Y429500D01*
X105819Y427354D01*
X107035Y425535D01*
X108854Y424319D01*
X111000Y423892D01*
X113146Y424319D01*
X114965Y425535D01*
X116181Y427354D01*
X116608Y429500D01*
X116181Y431646D01*
X114965Y433465D01*
X113146Y434681D01*
X111000Y435107D01*
D02*
G37*
G36*
X173750Y432358D02*
X171604Y431931D01*
X169785Y430715D01*
X168569Y428896D01*
X168142Y426750D01*
X168569Y424604D01*
X169785Y422785D01*
X171604Y421569D01*
X173750Y421142D01*
X175896Y421569D01*
X177715Y422785D01*
X178931Y424604D01*
X179358Y426750D01*
X178931Y428896D01*
X177715Y430715D01*
X175896Y431931D01*
X173750Y432358D01*
D02*
G37*
G36*
X32750Y367858D02*
X30604Y367431D01*
X28784Y366216D01*
X27569Y364396D01*
X27142Y362250D01*
X27569Y360104D01*
X28784Y358285D01*
X30604Y357069D01*
X32750Y356642D01*
X34896Y357069D01*
X36715Y358285D01*
X37931Y360104D01*
X38358Y362250D01*
X37931Y364396D01*
X36715Y366216D01*
X34896Y367431D01*
X32750Y367858D01*
D02*
G37*
G36*
X110250Y349358D02*
X108104Y348931D01*
X106285Y347715D01*
X105069Y345896D01*
X104642Y343750D01*
X105069Y341604D01*
X106285Y339785D01*
X108104Y338569D01*
X110250Y338142D01*
X112396Y338569D01*
X113681Y339428D01*
X114824Y338664D01*
X114642Y337750D01*
X115069Y335604D01*
X116285Y333785D01*
X118104Y332569D01*
X120250Y332142D01*
X122396Y332569D01*
X124215Y333785D01*
X125431Y335604D01*
X125858Y337750D01*
X125431Y339896D01*
X124215Y341715D01*
X122396Y342931D01*
X120250Y343358D01*
X118104Y342931D01*
X116819Y342072D01*
X115676Y342836D01*
X115858Y343750D01*
X115431Y345896D01*
X114215Y347715D01*
X112396Y348931D01*
X110250Y349358D01*
D02*
G37*
G36*
X101000Y306358D02*
X98854Y305931D01*
X97035Y304715D01*
X95819Y302896D01*
X95392Y300750D01*
X95819Y298604D01*
X97035Y296785D01*
X98854Y295569D01*
X101000Y295142D01*
X103146Y295569D01*
X104965Y296785D01*
X106181Y298604D01*
X106608Y300750D01*
X106181Y302896D01*
X104965Y304715D01*
X103146Y305931D01*
X101000Y306358D01*
D02*
G37*
G36*
X83750Y296858D02*
X81604Y296431D01*
X79785Y295215D01*
X78569Y293396D01*
X78142Y291250D01*
X78569Y289104D01*
X79785Y287285D01*
X81604Y286069D01*
X83750Y285642D01*
X85896Y286069D01*
X87715Y287285D01*
X88931Y289104D01*
X89358Y291250D01*
X88931Y293396D01*
X87715Y295215D01*
X85896Y296431D01*
X83750Y296858D01*
D02*
G37*
G36*
X184000Y305108D02*
X181854Y304681D01*
X180035Y303465D01*
X178819Y301646D01*
X178392Y299500D01*
X178819Y297354D01*
X180035Y295535D01*
X181854Y294319D01*
X181925Y294305D01*
X181966Y294196D01*
X182059Y292984D01*
X180535Y291965D01*
X179319Y290146D01*
X178892Y288000D01*
X179319Y285854D01*
X180535Y284035D01*
X182354Y282819D01*
X184500Y282392D01*
X186646Y282819D01*
X188465Y284035D01*
X189681Y285854D01*
X190108Y288000D01*
X189681Y290146D01*
X188465Y291965D01*
X186646Y293181D01*
X186575Y293195D01*
X186534Y293304D01*
X186441Y294516D01*
X187965Y295535D01*
X189181Y297354D01*
X189608Y299500D01*
X189181Y301646D01*
X187965Y303465D01*
X186146Y304681D01*
X184000Y305108D01*
D02*
G37*
G36*
X136750Y280357D02*
X134604Y279931D01*
X132785Y278715D01*
X131569Y276896D01*
X131142Y274750D01*
X131569Y272604D01*
X132785Y270784D01*
X134604Y269569D01*
X136750Y269142D01*
X138896Y269569D01*
X140715Y270784D01*
X141931Y272604D01*
X142358Y274750D01*
X141931Y276896D01*
X140715Y278715D01*
X138896Y279931D01*
X136750Y280357D01*
D02*
G37*
G36*
X187000Y272358D02*
X184854Y271931D01*
X183035Y270715D01*
X181819Y268896D01*
X181392Y266750D01*
X181819Y264604D01*
X183035Y262785D01*
X184854Y261569D01*
X187000Y261142D01*
X189146Y261569D01*
X190965Y262785D01*
X192181Y264604D01*
X192608Y266750D01*
X192181Y268896D01*
X190965Y270715D01*
X189146Y271931D01*
X187000Y272358D01*
D02*
G37*
G36*
X78500Y279858D02*
X76354Y279431D01*
X74535Y278215D01*
X73319Y276396D01*
X72892Y274250D01*
X73083Y273293D01*
X72108Y271805D01*
X71705Y271724D01*
X69886Y270509D01*
X68670Y268690D01*
X68243Y266544D01*
X68670Y264398D01*
X69886Y262578D01*
X71705Y261363D01*
X73851Y260936D01*
X75997Y261363D01*
X77817Y262578D01*
X79032Y264398D01*
X79459Y266544D01*
X79269Y267500D01*
X80243Y268989D01*
X80646Y269069D01*
X82465Y270285D01*
X83681Y272104D01*
X84108Y274250D01*
X83681Y276396D01*
X82465Y278215D01*
X80646Y279431D01*
X78500Y279858D01*
D02*
G37*
G36*
X296787Y268145D02*
X294641Y267718D01*
X292822Y266502D01*
X291606Y264683D01*
X291179Y262537D01*
X291606Y260391D01*
X292822Y258572D01*
X294641Y257356D01*
X296787Y256929D01*
X298933Y257356D01*
X300752Y258572D01*
X301968Y260391D01*
X302395Y262537D01*
X301968Y264683D01*
X300752Y266502D01*
X298933Y267718D01*
X296787Y268145D01*
D02*
G37*
G36*
X139000Y265358D02*
X136854Y264931D01*
X135035Y263715D01*
X133819Y261896D01*
X133392Y259750D01*
X133819Y257604D01*
X135035Y255785D01*
X136854Y254569D01*
X139000Y254142D01*
X141146Y254569D01*
X142965Y255785D01*
X144181Y257604D01*
X144608Y259750D01*
X144181Y261896D01*
X142965Y263715D01*
X141146Y264931D01*
X139000Y265358D01*
D02*
G37*
G36*
X178000Y262358D02*
X175854Y261931D01*
X174035Y260715D01*
X172819Y258896D01*
X172392Y256750D01*
X172819Y254604D01*
X174035Y252785D01*
X175854Y251569D01*
X178000Y251142D01*
X180146Y251569D01*
X181965Y252785D01*
X183181Y254604D01*
X183608Y256750D01*
X183181Y258896D01*
X181965Y260715D01*
X180146Y261931D01*
X178000Y262358D01*
D02*
G37*
G36*
X282250Y261358D02*
X280104Y260931D01*
X278285Y259715D01*
X277069Y257896D01*
X276642Y255750D01*
X277069Y253604D01*
X278285Y251785D01*
X280104Y250569D01*
X282250Y250142D01*
X284396Y250569D01*
X286215Y251785D01*
X287431Y253604D01*
X287858Y255750D01*
X287431Y257896D01*
X286215Y259715D01*
X284396Y260931D01*
X282250Y261358D01*
D02*
G37*
G36*
X310750Y252858D02*
X308604Y252431D01*
X306785Y251215D01*
X305569Y249396D01*
X305142Y247250D01*
X305569Y245104D01*
X306785Y243285D01*
X308604Y242069D01*
X310750Y241642D01*
X312896Y242069D01*
X314715Y243285D01*
X315931Y245104D01*
X316358Y247250D01*
X315931Y249396D01*
X314715Y251215D01*
X312896Y252431D01*
X310750Y252858D01*
D02*
G37*
G36*
X128390Y251019D02*
X126244Y250592D01*
X124425Y249377D01*
X123210Y247557D01*
X122783Y245411D01*
X123210Y243265D01*
X124425Y241446D01*
X126244Y240230D01*
X128390Y239804D01*
X130536Y240230D01*
X132356Y241446D01*
X133571Y243265D01*
X133998Y245411D01*
X133571Y247557D01*
X132356Y249377D01*
X130536Y250592D01*
X128390Y251019D01*
D02*
G37*
G36*
X78258Y249558D02*
X76112Y249131D01*
X74292Y247915D01*
X73077Y246096D01*
X72650Y243950D01*
X73077Y241804D01*
X74292Y239985D01*
X76112Y238769D01*
X78258Y238342D01*
X80404Y238769D01*
X82223Y239985D01*
X83439Y241804D01*
X83865Y243950D01*
X83439Y246096D01*
X82223Y247915D01*
X80404Y249131D01*
X78258Y249558D01*
D02*
G37*
G36*
X245750Y236358D02*
X243604Y235931D01*
X241785Y234715D01*
X240569Y232896D01*
X240142Y230750D01*
X240569Y228604D01*
X241785Y226785D01*
X243604Y225569D01*
X245750Y225142D01*
X247896Y225569D01*
X249715Y226785D01*
X250931Y228604D01*
X251358Y230750D01*
X250931Y232896D01*
X249715Y234715D01*
X247896Y235931D01*
X245750Y236358D01*
D02*
G37*
G36*
X71000Y233108D02*
X68854Y232681D01*
X67035Y231465D01*
X65819Y229646D01*
X65392Y227500D01*
X65819Y225354D01*
X67035Y223535D01*
X68854Y222319D01*
X71000Y221892D01*
X73146Y222319D01*
X74965Y223535D01*
X76181Y225354D01*
X76608Y227500D01*
X76181Y229646D01*
X74965Y231465D01*
X73146Y232681D01*
X71000Y233108D01*
D02*
G37*
G36*
X246000Y222108D02*
X243854Y221681D01*
X242035Y220465D01*
X240819Y218646D01*
X240392Y216500D01*
X240819Y214354D01*
X242035Y212535D01*
X243854Y211319D01*
X246000Y210892D01*
X248146Y211319D01*
X249965Y212535D01*
X251181Y214354D01*
X251608Y216500D01*
X251181Y218646D01*
X249965Y220465D01*
X248146Y221681D01*
X246000Y222108D01*
D02*
G37*
G36*
X91250Y201608D02*
X89104Y201181D01*
X87285Y199965D01*
X86069Y198146D01*
X85942Y197505D01*
X84593Y197237D01*
X84428Y197485D01*
X82608Y198701D01*
X80462Y199128D01*
X78316Y198701D01*
X76497Y197485D01*
X75282Y195666D01*
X74855Y193520D01*
X75282Y191374D01*
X76497Y189555D01*
X78316Y188339D01*
X80462Y187912D01*
X82608Y188339D01*
X84428Y189555D01*
X85643Y191374D01*
X85771Y192015D01*
X87119Y192283D01*
X87285Y192035D01*
X89104Y190819D01*
X91250Y190392D01*
X93396Y190819D01*
X95215Y192035D01*
X96431Y193854D01*
X96858Y196000D01*
X96431Y198146D01*
X95215Y199965D01*
X93396Y201181D01*
X91250Y201608D01*
D02*
G37*
G36*
X236273Y202835D02*
X234127Y202408D01*
X232308Y201192D01*
X231092Y199373D01*
X230665Y197227D01*
X231092Y195081D01*
X232308Y193262D01*
X234127Y192046D01*
X236273Y191619D01*
X238419Y192046D01*
X240238Y193262D01*
X241454Y195081D01*
X241881Y197227D01*
X241454Y199373D01*
X240238Y201192D01*
X238419Y202408D01*
X236273Y202835D01*
D02*
G37*
G36*
X482000Y202650D02*
X463000D01*
Y183650D01*
X482000D01*
Y202650D01*
D02*
G37*
G36*
X221250Y181608D02*
X219104Y181181D01*
X217285Y179965D01*
X216069Y178146D01*
X215642Y176000D01*
X216069Y173854D01*
X217285Y172035D01*
X219104Y170819D01*
X221250Y170392D01*
X223396Y170819D01*
X225215Y172035D01*
X226431Y173854D01*
X226857Y176000D01*
X226431Y178146D01*
X225215Y179965D01*
X223396Y181181D01*
X221250Y181608D01*
D02*
G37*
G36*
X472500Y177332D02*
X470020Y177006D01*
X467709Y176049D01*
X465724Y174526D01*
X464202Y172541D01*
X463245Y170230D01*
X462918Y167750D01*
X463245Y165270D01*
X464202Y162959D01*
X465724Y160975D01*
X467709Y159452D01*
X470020Y158495D01*
X472500Y158168D01*
X474980Y158495D01*
X477291Y159452D01*
X479275Y160975D01*
X480798Y162959D01*
X481755Y165270D01*
X482082Y167750D01*
X481755Y170230D01*
X480798Y172541D01*
X479275Y174526D01*
X477291Y176049D01*
X474980Y177006D01*
X472500Y177332D01*
D02*
G37*
G36*
X246000Y160358D02*
X243854Y159931D01*
X242035Y158715D01*
X240819Y156896D01*
X240392Y154750D01*
X240819Y152604D01*
X242035Y150785D01*
X243854Y149569D01*
X246000Y149142D01*
X248146Y149569D01*
X249965Y150785D01*
X251181Y152604D01*
X251608Y154750D01*
X251181Y156896D01*
X249965Y158715D01*
X248146Y159931D01*
X246000Y160358D01*
D02*
G37*
G36*
X473770Y152310D02*
Y143620D01*
X482459D01*
X482281Y144971D01*
X481270Y147414D01*
X479661Y149511D01*
X477563Y151120D01*
X475121Y152132D01*
X473770Y152310D01*
D02*
G37*
G36*
X471230D02*
X469879Y152132D01*
X467437Y151120D01*
X465339Y149511D01*
X463730Y147414D01*
X462718Y144971D01*
X462541Y143620D01*
X471230D01*
Y152310D01*
D02*
G37*
G36*
X56250Y149108D02*
X54104Y148681D01*
X52285Y147465D01*
X51069Y145646D01*
X50642Y143500D01*
X51069Y141354D01*
X52285Y139535D01*
X54104Y138319D01*
X56250Y137892D01*
X58396Y138319D01*
X60215Y139535D01*
X61431Y141354D01*
X61858Y143500D01*
X61431Y145646D01*
X60215Y147465D01*
X58396Y148681D01*
X56250Y149108D01*
D02*
G37*
G36*
X286250Y141108D02*
X284104Y140681D01*
X282285Y139465D01*
X281069Y137646D01*
X281022Y137411D01*
X279727D01*
X279681Y137646D01*
X278465Y139465D01*
X276646Y140681D01*
X274500Y141108D01*
X272354Y140681D01*
X270535Y139465D01*
X269319Y137646D01*
X268892Y135500D01*
X269319Y133354D01*
X270535Y131535D01*
X272354Y130319D01*
X274500Y129892D01*
X276646Y130319D01*
X278465Y131535D01*
X279681Y133354D01*
X279727Y133589D01*
X281022D01*
X281069Y133354D01*
X282285Y131535D01*
X284104Y130319D01*
X286250Y129892D01*
X288396Y130319D01*
X290215Y131535D01*
X291431Y133354D01*
X291858Y135500D01*
X291431Y137646D01*
X290215Y139465D01*
X288396Y140681D01*
X286250Y141108D01*
D02*
G37*
G36*
X261000Y147108D02*
X258854Y146681D01*
X257035Y145465D01*
X255819Y143646D01*
X255392Y141500D01*
X255819Y139354D01*
X257035Y137535D01*
X258854Y136319D01*
X261000Y135892D01*
X263146Y136319D01*
X264965Y137535D01*
X266181Y139354D01*
X266608Y141500D01*
X266181Y143646D01*
X264965Y145465D01*
X263146Y146681D01*
X261000Y147108D01*
D02*
G37*
G36*
X309250Y144108D02*
X307104Y143681D01*
X305285Y142465D01*
X304069Y140646D01*
X303642Y138500D01*
X304069Y136354D01*
X305285Y134535D01*
X307104Y133319D01*
X309250Y132892D01*
X311396Y133319D01*
X313215Y134535D01*
X314431Y136354D01*
X314858Y138500D01*
X314431Y140646D01*
X313215Y142465D01*
X311396Y143681D01*
X309250Y144108D01*
D02*
G37*
G36*
X482459Y141080D02*
X473770D01*
Y132391D01*
X475121Y132569D01*
X477563Y133580D01*
X479661Y135190D01*
X481270Y137287D01*
X482281Y139729D01*
X482459Y141080D01*
D02*
G37*
G36*
X471230D02*
X462541D01*
X462718Y139729D01*
X463730Y137287D01*
X465339Y135190D01*
X467437Y133580D01*
X469879Y132569D01*
X471230Y132391D01*
Y141080D01*
D02*
G37*
G36*
X308500Y124108D02*
X306354Y123681D01*
X304534Y122465D01*
X303319Y120646D01*
X302892Y118500D01*
X303319Y116354D01*
X304534Y114535D01*
X306354Y113319D01*
X308500Y112892D01*
X310646Y113319D01*
X312465Y114535D01*
X313681Y116354D01*
X314107Y118500D01*
X313681Y120646D01*
X312465Y122465D01*
X310646Y123681D01*
X308500Y124108D01*
D02*
G37*
G36*
X472500Y126532D02*
X470020Y126206D01*
X467709Y125248D01*
X465724Y123726D01*
X464202Y121741D01*
X463245Y119430D01*
X462918Y116950D01*
X463245Y114470D01*
X464202Y112159D01*
X465724Y110175D01*
X467709Y108652D01*
X470020Y107695D01*
X472500Y107368D01*
X474980Y107695D01*
X477291Y108652D01*
X479275Y110175D01*
X480798Y112159D01*
X481755Y114470D01*
X482082Y116950D01*
X481755Y119430D01*
X480798Y121741D01*
X479275Y123726D01*
X477291Y125248D01*
X474980Y126206D01*
X472500Y126532D01*
D02*
G37*
G36*
Y101132D02*
X470020Y100806D01*
X467709Y99848D01*
X465724Y98326D01*
X464202Y96341D01*
X463245Y94030D01*
X462918Y91550D01*
X463245Y89070D01*
X464202Y86759D01*
X465724Y84775D01*
X467709Y83252D01*
X470020Y82295D01*
X472500Y81968D01*
X474980Y82295D01*
X477291Y83252D01*
X479275Y84775D01*
X480798Y86759D01*
X481755Y89070D01*
X482082Y91550D01*
X481755Y94030D01*
X480798Y96341D01*
X479275Y98326D01*
X477291Y99848D01*
X474980Y100806D01*
X472500Y101132D01*
D02*
G37*
G36*
X307500Y92608D02*
X305354Y92181D01*
X303535Y90965D01*
X302319Y89146D01*
X301892Y87000D01*
X302319Y84854D01*
X303535Y83035D01*
X305354Y81819D01*
X307500Y81392D01*
X309646Y81819D01*
X311465Y83035D01*
X312681Y84854D01*
X313108Y87000D01*
X312681Y89146D01*
X311465Y90965D01*
X309646Y92181D01*
X307500Y92608D01*
D02*
G37*
G36*
X158845Y82714D02*
Y73520D01*
X168039D01*
X167844Y75001D01*
X166782Y77565D01*
X165092Y79767D01*
X162890Y81456D01*
X160326Y82519D01*
X158845Y82714D01*
D02*
G37*
G36*
X93670D02*
Y73520D01*
X102864D01*
X102669Y75001D01*
X101607Y77565D01*
X99917Y79767D01*
X97716Y81456D01*
X95152Y82519D01*
X93670Y82714D01*
D02*
G37*
G36*
X274820D02*
Y73520D01*
X284014D01*
X283819Y75001D01*
X282757Y77565D01*
X281067Y79767D01*
X278865Y81456D01*
X276301Y82519D01*
X274820Y82714D01*
D02*
G37*
G36*
X91130D02*
X89649Y82519D01*
X87085Y81456D01*
X84883Y79767D01*
X83194Y77565D01*
X82131Y75001D01*
X81936Y73520D01*
X91130D01*
Y82714D01*
D02*
G37*
G36*
X272280D02*
X270798Y82519D01*
X268234Y81456D01*
X266033Y79767D01*
X264343Y77565D01*
X263281Y75001D01*
X263086Y73520D01*
X272280D01*
Y82714D01*
D02*
G37*
G36*
X156305D02*
X154824Y82519D01*
X152260Y81456D01*
X150058Y79767D01*
X148368Y77565D01*
X147306Y75001D01*
X147111Y73520D01*
X156305D01*
Y82714D01*
D02*
G37*
G36*
X232750Y82250D02*
X212750D01*
Y62250D01*
X232750D01*
Y82250D01*
D02*
G37*
G36*
X192975D02*
X172975D01*
Y62250D01*
X192975D01*
Y82250D01*
D02*
G37*
G36*
X51600D02*
X31600D01*
Y62250D01*
X51600D01*
Y82250D01*
D02*
G37*
G36*
X248150Y82336D02*
X245539Y81992D01*
X243107Y80985D01*
X241018Y79382D01*
X239415Y77293D01*
X238407Y74860D01*
X238064Y72250D01*
X238407Y69639D01*
X239415Y67207D01*
X241018Y65118D01*
X243107Y63515D01*
X245539Y62507D01*
X248150Y62164D01*
X250760Y62507D01*
X253193Y63515D01*
X255282Y65118D01*
X256885Y67207D01*
X257892Y69639D01*
X258236Y72250D01*
X257892Y74860D01*
X256885Y77293D01*
X255282Y79382D01*
X253193Y80985D01*
X250760Y81992D01*
X248150Y82336D01*
D02*
G37*
G36*
X132175D02*
X129565Y81992D01*
X127132Y80985D01*
X125043Y79382D01*
X123440Y77293D01*
X122432Y74860D01*
X122089Y72250D01*
X122432Y69639D01*
X123440Y67207D01*
X125043Y65118D01*
X127132Y63515D01*
X129565Y62507D01*
X132175Y62164D01*
X134785Y62507D01*
X137218Y63515D01*
X139307Y65118D01*
X140910Y67207D01*
X141918Y69639D01*
X142261Y72250D01*
X141918Y74860D01*
X140910Y77293D01*
X139307Y79382D01*
X137218Y80985D01*
X134785Y81992D01*
X132175Y82336D01*
D02*
G37*
G36*
X67000D02*
X64390Y81992D01*
X61957Y80985D01*
X59868Y79382D01*
X58265Y77293D01*
X57258Y74860D01*
X56914Y72250D01*
X57258Y69639D01*
X58265Y67207D01*
X59868Y65118D01*
X61957Y63515D01*
X64390Y62507D01*
X67000Y62164D01*
X69611Y62507D01*
X72043Y63515D01*
X74132Y65118D01*
X75735Y67207D01*
X76743Y69639D01*
X77086Y72250D01*
X76743Y74860D01*
X75735Y77293D01*
X74132Y79382D01*
X72043Y80985D01*
X69611Y81992D01*
X67000Y82336D01*
D02*
G37*
G36*
X168039Y70980D02*
X158845D01*
Y61786D01*
X160326Y61981D01*
X162890Y63043D01*
X165092Y64733D01*
X166782Y66934D01*
X167844Y69498D01*
X168039Y70980D01*
D02*
G37*
G36*
X284014D02*
X274820D01*
Y61786D01*
X276301Y61981D01*
X278865Y63043D01*
X281067Y64733D01*
X282757Y66934D01*
X283819Y69498D01*
X284014Y70980D01*
D02*
G37*
G36*
X102864D02*
X93670D01*
Y61786D01*
X95152Y61981D01*
X97716Y63043D01*
X99917Y64733D01*
X101607Y66934D01*
X102669Y69498D01*
X102864Y70980D01*
D02*
G37*
G36*
X91130D02*
X81936D01*
X82131Y69498D01*
X83194Y66934D01*
X84883Y64733D01*
X87085Y63043D01*
X89649Y61981D01*
X91130Y61786D01*
Y70980D01*
D02*
G37*
G36*
X272280D02*
X263086D01*
X263281Y69498D01*
X264343Y66934D01*
X266033Y64733D01*
X268234Y63043D01*
X270798Y61981D01*
X272280Y61786D01*
Y70980D01*
D02*
G37*
G36*
X156305D02*
X147111D01*
X147306Y69498D01*
X148368Y66934D01*
X150058Y64733D01*
X152260Y63043D01*
X154824Y61981D01*
X156305Y61786D01*
Y70980D01*
D02*
G37*
%LPD*%
D11*
X116250Y842000D02*
X128250Y854000D01*
X263000Y275529D02*
Y853000D01*
X259000Y277186D02*
Y821250D01*
X255000Y278843D02*
Y819593D01*
X251000Y280500D02*
Y817936D01*
X159500Y894500D02*
X363500D01*
X128250Y863250D02*
X159500Y894500D01*
X363500D02*
X414250Y843750D01*
X443950D01*
X128250Y854000D02*
Y863250D01*
X108500Y856486D02*
X153515Y901500D01*
X368000D01*
X108500Y856200D02*
Y856486D01*
X413300Y856200D02*
X431000D01*
X368000Y901500D02*
X413300Y856200D01*
X83100D02*
X97300Y842000D01*
X116250D01*
X443950Y843750D02*
X456400Y856200D01*
X241600Y874400D02*
X263000Y853000D01*
X216200Y864050D02*
X259000Y821250D01*
X216593Y858000D02*
X255000Y819593D01*
X215436Y853500D02*
X251000Y817936D01*
X207200Y858000D02*
X216593D01*
X192750Y853500D02*
X215436D01*
X216200Y864050D02*
Y874400D01*
X233750Y796349D02*
X233750Y796349D01*
Y620500D02*
Y796349D01*
X217750Y793250D02*
X228750Y804250D01*
X217750Y633500D02*
Y793250D01*
X182500Y569250D02*
X233750Y620500D01*
X81000Y124907D02*
X86407Y119500D01*
X81000Y124907D02*
Y141500D01*
X190800Y874400D02*
X207200Y858000D01*
X190800Y874400D02*
X190800D01*
X174728Y871522D02*
X192750Y853500D01*
X168278Y871522D02*
X174728D01*
X165400Y874400D02*
X168278Y871522D01*
X271000Y272216D02*
Y769250D01*
X292250Y790500D01*
Y856100D01*
X285150Y790150D02*
Y874400D01*
X267000Y273873D02*
Y772000D01*
X285150Y790150D01*
X66250Y569250D02*
X182500D01*
X51500Y584000D02*
Y599250D01*
Y584000D02*
X66250Y569250D01*
X231750Y273192D02*
Y350250D01*
X46750Y535250D02*
X46750D01*
X231750Y350250D01*
X23000Y559000D02*
X46750Y535250D01*
X224000Y265442D02*
Y266750D01*
X212250Y278500D02*
X224000Y266750D01*
X10750Y558250D02*
X212250Y356750D01*
Y278500D02*
Y356750D01*
X10750Y558250D02*
Y850750D01*
X23000Y559000D02*
Y844000D01*
X10750Y850750D02*
X29500Y869500D01*
X81550Y857750D02*
X83100Y856200D01*
X36750Y857750D02*
X81550D01*
X23000Y844000D02*
X36750Y857750D01*
X29500Y869500D02*
X86591D01*
X106609Y858091D02*
X108500Y856200D01*
X98000Y858091D02*
X106609D01*
X86591Y869500D02*
X98000Y858091D01*
X114457Y143957D02*
X251000Y280500D01*
X110750Y143000D02*
X111707Y143957D01*
X114457D01*
X159500Y128250D02*
Y160716D01*
X155500Y162373D02*
X267000Y273873D01*
X132000Y145308D02*
Y150187D01*
X259000Y277186D01*
X155500Y136000D02*
Y162373D01*
X139000Y119500D02*
X155500Y136000D01*
X119500Y132250D02*
Y143343D01*
X159500Y160716D02*
X271000Y272216D01*
X119500Y143343D02*
X255000Y278843D01*
X146750Y115500D02*
X159500Y128250D01*
X136000Y132000D02*
Y148530D01*
X263000Y275529D01*
X126721Y140029D02*
X132000Y145308D01*
X292250Y856100D02*
X310550Y874400D01*
X86407Y119500D02*
X139000D01*
X84750Y115500D02*
X146750D01*
X68500Y131750D02*
X84750Y115500D01*
X68500Y131750D02*
Y147250D01*
X74250Y153000D01*
X82750D01*
X88250Y147500D01*
Y135250D02*
Y147500D01*
X51250Y599500D02*
X51500Y599250D01*
X183750Y599500D02*
X217750Y633500D01*
D84*
X456400Y856200D02*
D03*
X431000D02*
D03*
X456400Y881600D02*
D03*
X431000D02*
D03*
Y830800D02*
D03*
X456400D02*
D03*
X472500Y142350D02*
D03*
X310550Y874400D02*
D03*
X190800D02*
D03*
X216200D02*
D03*
X241600D02*
D03*
X83100Y881600D02*
D03*
X108500D02*
D03*
Y830800D02*
D03*
X83100D02*
D03*
X108500Y856200D02*
D03*
X83100D02*
D03*
D85*
X285150Y874400D02*
D03*
X165400D02*
D03*
D86*
X409250Y581750D02*
D03*
X292500D02*
D03*
D88*
X157575Y72250D02*
D03*
X92400D02*
D03*
X273550D02*
D03*
D91*
X161900Y737400D02*
D03*
D92*
X51250Y599500D02*
D03*
X183750D02*
D03*
D93*
X40050Y679000D02*
D03*
X194950D02*
D03*
D95*
X233750Y796349D02*
D03*
X228750Y804250D02*
D03*
X110750Y143000D02*
D03*
X231750Y273192D02*
D03*
X224000Y265442D02*
D03*
X126721Y140029D02*
D03*
X136000Y132000D02*
D03*
X119500Y132250D02*
D03*
X88250Y135250D02*
D03*
X81000Y141500D02*
D03*
D96*
X263000Y865500D02*
D03*
Y875500D02*
D03*
Y885500D02*
D03*
X290250Y759000D02*
D03*
X278500Y760000D02*
D03*
X289500Y771250D02*
D03*
X191000Y821250D02*
D03*
Y810000D02*
D03*
X178250D02*
D03*
Y821250D02*
D03*
M02*
