M48
;Layer_Color=9474304
;FILE_FORMAT=4:4
METRIC,LZ
;TYPE=PLATED
T1F00S00C0.3000
T2F00S00C0.8000
T3F00S00C0.8900
T4F00S00C0.9000
T5F00S00C1.0000
T6F00S00C1.0200
T7F00S00C1.6300
%
T01
X000905Y0010875
X0008825Y0013525
X00081Y001415
X0005625Y001435
X0009875Y00132
X00109Y0013225
X001195
X00126721Y00140029
X00136Y00132
X0011075Y00143
X00166Y00146
X00246Y0015475
X00261Y001415
X002745Y001355
X0028625
X0030925Y001385
X003085Y001185
X003075Y00087
X0031075Y0024725
X00296787Y00262537
X0028225Y0025575
X0024575Y0023075
X00246Y002165
X00236273Y00197227
X0022125Y00176
X00224Y00265442
X0023175Y00273192
X00223761Y00283014
X001845Y00288
X00184Y002995
X00187Y0026675
X00178Y0025675
X00139Y0025975
X0013675Y0027475
X0012839Y00245411
X00078258Y0024395
X00071Y002275
X00073851Y00266544
X000785Y0027425
X0008375Y0029125
X00101Y0030075
X0011025Y0034375
X0012025Y0033775
X00111Y004295
X0017375Y0042675
X002785Y0033525
X0009125Y00196
X00080462Y0019352
X0003275Y0036225
X001025Y00783
X00149019Y00791861
X0014675Y0075775
X001635Y00758
X00196143Y00750393
X00200824Y00742707
X0019675Y0072225
X00191Y0081
Y0082125
X0017825
Y0081
X001805Y0085325
X001705Y008525
X0016025Y00852375
X00150479Y00846116
X001415Y008455
X001335Y00838
Y00827
X001295Y0081825
X0020475Y008465
X00214997Y00844747
X00219378Y00834878
X0024075Y00852
X00263Y008655
Y008755
Y008855
X002695Y007945
X0023375Y00796349
X0022875Y0080425
X002895Y0077125
X0029025Y00759
X002785Y0076
T02
X002925Y0058175
X003425
X0040925
X0045925
T03
X00073Y00712
X000984
X001238
X001492
X001365Y007374
X001111
X000857
X001619
T04
X004725Y0009155
Y0011695
Y0014235
Y0016775
Y0019315
X00431Y008054
Y008308
Y008562
Y008816
Y00907
X0036135Y008744
X0033595
X0031055
X0028515
X002416
X002162
X001908
X001654
X001085Y008816
X000831
Y008562
Y008308
Y008054
X001085
Y008308
Y008562
Y00907
X000831
X001654Y009506
X001908
X002162
X002416
X0028515
X0031055
X0033595
X0036135
X004564Y00907
Y008816
Y008562
Y008308
Y008054
T05
X000416Y0007225
X00067
X000924
X00132175
X00157575
X00182975
X0022275
X0024815
X0027355
T06
X0005125Y005995
X0007665
X0015835
X0018375
T07
X0004005Y00679
X0019495
M30
